<?xml version="1.0" standalone="no"?>
<!DOCTYPE svg PUBLIC "-//W3C//DTD SVG 20010904//EN"
 "http://www.w3.org/TR/2001/REC-SVG-20010904/DTD/svg10.dtd">
<svg version="1.0" xmlns="http://www.w3.org/2000/svg"
 width="3464.000000pt" height="3464.000000pt" viewBox="0 0 3464.000000 3464.000000"
 preserveAspectRatio="xMidYMid meet">
<metadata>
Created by potrace 1.16, written by Peter Selinger 2001-2019
</metadata>
<g transform="translate(0.000000,3464.000000) scale(0.100000,-0.100000)"
fill="#000000" stroke="none">
<path d="M0 25850 l0 -8790 4798 0 c8065 1 7672 2 7672 -15 0 -11 -7 -14 -22
-11 -13 3 -133 7 -268 10 -176 4 -569 -6 -1390 -33 l-1145 -38 1398 -2 c1042
-1 1398 -4 1395 -12 -3 -8 -52 -11 -168 -10 -90 1 -168 4 -172 7 -4 3 -617
-14 -1361 -38 l-1353 -42 -1295 41 -1295 41 -1309 -41 -1310 -41 -1325 41
-1325 41 -695 -23 c-382 -13 -725 -24 -762 -24 -61 -1 -68 -3 -68 -21 0 -20 7
-20 763 -21 l762 -2 -670 -23 c-369 -12 -712 -23 -762 -23 -86 -1 -93 -2 -93
-21 0 -20 7 -20 783 -22 830 -1 827 -2 -195 -34 -554 -17 -588 -19 -588 -36 0
-17 79 -18 2058 -16 1131 0 2044 3 2027 4 -16 2 -581 20 -1255 41 l-1225 38
1275 5 1275 5 -1255 41 -1255 41 2545 0 2545 0 -1270 -42 -1270 -42 1290 -3
1290 -3 -1270 -42 -1270 -42 2545 0 c1400 0 2532 1 2515 3 -16 2 -581 20
-1255 41 l-1225 38 1275 5 1275 5 -1255 40 -1255 40 1267 3 c696 1 1839 1
2540 0 l1273 -3 -1265 -40 -1265 -40 1290 -4 1290 -4 -1270 -42 -1270 -42
1443 -2 c793 0 1442 -4 1442 -8 0 -5 -118 -7 -262 -6 -152 2 -755 -14 -1423
-36 l-1160 -39 1409 -1 c775 0 1406 -4 1402 -8 -4 -4 -78 -6 -164 -4 -86 2
-706 -14 -1377 -35 l-1220 -39 1365 -5 c751 -3 1361 -7 1355 -9 -5 -2 -59 -3
-119 -1 -61 1 -661 -15 -1335 -36 l-1226 -39 1322 -3 c728 -1 1323 -5 1323
-10 0 -4 -69 -6 -152 -4 -84 1 -673 -15 -1308 -37 l-1155 -38 1293 -2 c860 -1
1292 -4 1292 -11 0 -6 -25 -8 -67 -4 -38 3 -369 -5 -738 -18 -607 -21 -796
-23 -2010 -23 -1184 1 -1412 3 -1960 23 l-619 22 -796 -26 c-748 -24 -866 -25
-2005 -21 -955 4 -1336 9 -1808 26 l-597 21 -783 -25 c-430 -14 -788 -25 -794
-25 -10 0 -13 -1634 -13 -8135 l0 -8135 17320 0 17320 0 0 8133 0 8134 -97 6
c-54 4 -188 7 -298 7 -110 0 -470 9 -800 20 l-600 20 -625 -21 c-528 -17 -835
-20 -1985 -21 -1196 -1 -1436 2 -1985 21 l-625 21 -595 -21 c-828 -30 -2758
-38 -3490 -15 -898 29 -994 30 -986 18 5 -9 -16 -12 -78 -12 -70 0 -86 3 -86
15 0 8 -4 15 -10 15 -5 0 -10 9 -10 20 0 11 -4 28 -10 38 -10 19 -44 100 -55
132 -1 3 -7 18 -13 33 -7 16 -12 30 -12 33 0 2 -9 23 -19 47 -11 23 -41 96
-66 162 -26 66 -60 153 -76 193 -17 41 -28 76 -26 78 3 3 2827 5 6276 5 l6271
-1 0 8790 0 8790 -17320 0 -17320 0 0 -8790z m17300 -1080 c4 0 11 -22 15 -50
4 -27 11 -52 16 -56 5 -3 9 -18 9 -34 0 -16 4 -32 10 -35 5 -3 12 -28 16 -56
4 -27 10 -52 15 -55 5 -2 11 -27 15 -54 4 -28 10 -50 14 -50 4 0 10 -22 14
-50 4 -27 11 -52 16 -55 6 -3 10 -17 10 -29 0 -25 26 -119 40 -147 5 -9 11
-37 15 -63 4 -25 11 -46 15 -46 4 0 11 -27 15 -60 4 -33 11 -62 16 -65 4 -3
11 -28 15 -55 4 -28 10 -50 14 -50 4 0 10 -22 14 -50 4 -27 11 -52 16 -55 6
-3 10 -19 10 -35 0 -16 4 -31 9 -34 5 -4 12 -25 16 -49 3 -23 10 -51 15 -62 5
-11 14 -42 20 -70 7 -27 17 -73 23 -102 7 -28 16 -55 20 -59 3 -4 10 -29 13
-56 4 -27 11 -51 15 -54 5 -3 9 -16 9 -29 0 -13 4 -26 9 -29 5 -3 12 -32 16
-63 4 -32 11 -63 16 -69 5 -7 12 -65 16 -130 3 -66 9 -123 13 -129 4 -5 11
-75 15 -155 4 -80 10 -149 14 -155 5 -9 22 -170 37 -360 3 -38 9 -74 14 -80 5
-5 11 -68 15 -140 4 -71 11 -134 15 -140 4 -5 11 -76 15 -158 4 -81 11 -149
15 -152 4 -3 11 -60 15 -127 4 -68 11 -127 15 -133 4 -5 11 -74 15 -153 4 -78
11 -145 16 -148 5 -3 9 -34 9 -69 0 -35 4 -66 9 -69 5 -3 12 -68 16 -143 4
-76 11 -142 15 -148 4 -5 11 -73 15 -150 4 -77 10 -144 14 -150 3 -5 11 -71
18 -145 7 -74 19 -200 28 -280 9 -80 18 -179 21 -220 3 -41 9 -79 14 -85 4 -5
11 -73 15 -150 4 -77 11 -144 15 -150 4 -5 11 -75 15 -155 4 -80 10 -149 14
-155 6 -9 11 -70 44 -472 6 -83 15 -155 20 -159 4 -4 7 -44 7 -89 0 -45 3 -85
8 -89 7 -7 18 -133 46 -501 7 -99 14 -180 16 -180 3 0 14 -135 43 -502 6 -89
15 -165 20 -169 4 -4 7 -47 7 -95 0 -48 5 -91 10 -94 6 -3 10 -40 10 -81 0
-74 7 -87 30 -59 7 8 17 15 23 15 5 0 28 15 51 33 23 18 52 38 66 45 14 7 39
21 55 32 17 11 37 23 45 27 8 3 17 9 20 13 5 5 29 22 89 62 14 10 37 23 51 30
14 7 41 25 61 40 20 15 40 28 44 28 4 0 21 11 39 25 17 14 36 29 41 33 6 4 17
11 25 15 21 10 50 28 90 58 19 14 40 28 45 30 6 2 43 27 83 54 41 28 84 57 96
65 64 42 82 56 89 67 4 7 14 13 21 13 7 0 23 11 36 25 13 14 27 25 32 25 5 0
37 28 71 63 70 71 115 150 124 220 3 26 10 50 14 53 13 7 11 321 -1 329 -5 3
-10 38 -10 77 0 61 -2 69 -15 58 -8 -7 -15 -17 -15 -23 0 -10 -79 -107 -117
-143 -13 -12 -23 -26 -23 -31 0 -14 -294 -293 -309 -293 -4 0 -20 -13 -36 -30
-16 -16 -33 -30 -38 -30 -5 0 -34 -22 -66 -50 -32 -27 -61 -50 -65 -50 -4 0
-29 -17 -54 -37 -26 -21 -51 -41 -57 -45 -5 -4 -29 -23 -51 -42 -23 -20 -44
-36 -48 -36 -10 0 -7 58 3 64 5 3 12 37 16 76 4 38 10 70 15 70 4 0 11 32 14
70 4 39 11 70 17 70 5 0 9 14 9 31 0 35 27 166 40 190 4 8 11 46 15 82 4 37
11 69 15 72 5 3 11 33 15 67 4 35 11 68 15 73 4 6 11 38 15 73 4 34 10 64 15
67 4 3 11 34 15 70 3 36 11 67 16 70 5 4 9 21 9 40 0 19 4 36 9 39 5 3 12 37
16 76 4 39 11 72 15 75 5 3 12 34 15 70 4 36 11 68 15 70 5 3 12 34 15 70 4
36 11 67 15 70 5 3 11 33 15 67 4 35 11 68 15 73 8 10 11 25 32 140 7 39 16
75 19 80 4 6 10 37 14 70 4 33 10 65 13 70 7 9 14 46 45 214 6 38 15 73 20 77
4 4 7 24 7 45 0 21 4 40 9 43 5 3 12 35 16 71 3 36 10 65 15 65 4 0 11 32 14
70 4 39 11 70 15 70 5 0 12 33 16 72 3 40 10 77 13 83 7 11 30 122 39 193 3
23 9 42 13 42 5 0 12 29 15 65 4 36 11 67 15 70 5 3 11 33 15 67 4 35 11 68
15 73 4 6 11 43 15 83 4 39 11 74 15 77 5 3 12 34 15 70 4 36 11 68 16 71 5 3
9 20 9 39 0 19 4 36 9 39 5 3 12 34 16 68 4 34 11 69 16 78 4 8 13 45 19 83 5
37 15 97 20 135 6 37 15 74 19 82 5 9 12 45 16 80 4 36 11 70 15 75 4 6 10 24
13 40 3 17 13 64 22 105 9 41 22 109 28 150 7 41 15 80 18 85 4 6 10 37 14 70
4 33 10 65 15 70 4 6 11 37 14 70 9 82 24 119 42 104 8 -6 14 -24 14 -40 0
-16 4 -29 10 -29 5 0 12 -16 16 -35 3 -19 10 -38 15 -41 5 -3 9 -12 9 -21 0
-8 6 -29 14 -46 7 -18 21 -54 31 -82 9 -27 23 -64 31 -82 8 -17 14 -38 14 -46
0 -9 4 -18 9 -21 5 -4 12 -24 16 -46 4 -22 11 -42 16 -46 5 -3 9 -12 9 -21 0
-8 6 -29 14 -46 8 -18 22 -57 32 -87 10 -30 21 -59 25 -65 4 -5 10 -26 14 -45
4 -19 10 -39 14 -45 4 -5 18 -44 31 -85 12 -41 26 -79 30 -85 4 -5 11 -25 15
-44 4 -19 16 -49 26 -67 10 -18 21 -49 25 -68 3 -20 10 -38 14 -41 5 -3 11
-23 15 -45 4 -22 11 -42 16 -46 5 -3 9 -13 9 -22 0 -9 6 -29 14 -44 8 -15 17
-41 21 -59 4 -19 11 -40 15 -49 21 -40 40 -90 40 -103 0 -9 4 -18 9 -21 5 -3
12 -21 15 -40 4 -20 13 -48 21 -63 8 -15 15 -36 15 -45 0 -9 5 -20 10 -23 6
-3 10 -13 10 -22 0 -14 20 -66 41 -105 5 -10 9 -23 9 -30 1 -7 9 -31 20 -53
11 -22 19 -50 20 -62 0 -13 5 -23 10 -23 6 0 10 -10 10 -23 0 -12 7 -32 15
-44 8 -11 17 -39 21 -62 4 -22 9 -41 13 -41 8 0 27 -45 37 -84 4 -16 13 -41
20 -55 8 -14 14 -31 14 -37 0 -7 7 -25 15 -40 8 -16 15 -37 15 -46 0 -10 5
-18 10 -18 6 0 10 -11 10 -24 0 -14 5 -28 10 -31 6 -4 8 -10 5 -14 -2 -5 7
-30 20 -57 14 -27 25 -59 25 -71 0 -13 4 -23 10 -23 5 0 12 -16 16 -35 3 -19
10 -38 15 -41 5 -3 9 -13 9 -22 0 -9 7 -30 15 -46 8 -15 15 -33 15 -38 0 -6 7
-25 15 -44 8 -19 22 -49 30 -68 8 -19 15 -41 15 -50 0 -9 4 -16 9 -16 6 0 13
-20 17 -45 3 -25 10 -45 15 -45 4 0 11 -16 15 -35 3 -19 10 -38 15 -41 5 -3 9
-12 9 -21 0 -8 7 -30 15 -49 8 -19 22 -49 30 -68 8 -19 15 -39 15 -45 0 -11 4
-20 33 -79 9 -19 17 -40 17 -49 0 -8 6 -27 14 -41 24 -45 46 -99 46 -114 0 -7
7 -22 15 -32 8 -11 15 -30 15 -43 0 -13 4 -23 10 -23 5 0 12 -16 16 -35 3 -19
10 -38 15 -41 5 -3 9 -12 9 -20 0 -14 18 -59 61 -148 11 -22 19 -45 19 -50 0
-6 7 -24 15 -40 9 -16 13 -31 11 -34 -9 -9 -82 42 -138 97 -38 36 -58 50 -58
39 0 -9 4 -19 9 -22 12 -8 48 -83 57 -120 4 -16 13 -41 20 -55 8 -14 14 -31
14 -38 0 -6 9 -28 19 -50 35 -69 51 -106 51 -117 0 -6 6 -23 14 -38 8 -15 17
-40 21 -57 4 -17 11 -31 16 -31 5 0 9 -7 9 -16 0 -8 11 -40 25 -70 14 -30 25
-58 25 -62 0 -4 6 -19 14 -33 7 -14 16 -39 20 -55 4 -16 13 -42 21 -59 29 -64
45 -103 45 -114 0 -6 5 -11 10 -11 6 0 10 -9 10 -19 0 -11 8 -34 17 -53 30
-59 33 -68 33 -80 1 -7 9 -31 20 -53 11 -22 19 -48 20 -57 0 -10 5 -18 10 -18
6 0 10 -9 10 -21 0 -11 6 -33 14 -47 25 -48 46 -100 46 -115 0 -9 4 -18 9 -21
5 -3 12 -18 15 -33 4 -16 13 -41 21 -58 29 -63 45 -103 45 -113 0 -6 10 -30
21 -54 41 -84 49 -103 56 -138 3 -19 10 -38 15 -41 5 -3 12 -24 15 -46 5 -36
2 -41 -30 -66 -20 -15 -39 -27 -43 -27 -4 0 -29 -18 -55 -40 -26 -22 -50 -40
-52 -40 -8 0 -159 -99 -202 -132 -13 -10 -25 -18 -28 -18 -3 0 -61 -38 -131
-85 -69 -47 -128 -85 -132 -85 -3 0 -19 -10 -34 -22 -15 -13 -37 -30 -50 -38
-12 -8 -33 -23 -45 -32 -13 -10 -26 -18 -31 -18 -4 0 -25 -15 -48 -33 -61 -49
-165 -119 -196 -134 -8 -3 -22 -14 -30 -22 -18 -19 -46 -37 -77 -51 -13 -5
-23 -14 -23 -20 0 -5 -4 -10 -10 -10 -11 0 -61 -33 -118 -78 -22 -18 -43 -32
-47 -32 -4 0 -24 -14 -45 -30 -21 -16 -41 -30 -45 -30 -4 0 -24 -14 -45 -30
-21 -17 -42 -30 -47 -30 -5 0 -20 -11 -33 -25 -13 -14 -30 -25 -37 -25 -8 0
-16 -7 -19 -15 -4 -8 -10 -15 -15 -15 -10 0 -62 -35 -117 -78 -22 -18 -43 -32
-48 -32 -4 0 -29 -18 -55 -40 -26 -22 -50 -40 -54 -40 -8 0 -69 -43 -73 -52
-2 -5 -9 -8 -16 -8 -7 0 -21 -9 -31 -20 -10 -11 -24 -20 -31 -20 -7 0 -14 -3
-16 -7 -4 -10 -75 -63 -83 -63 -4 0 -26 -16 -49 -35 -24 -19 -47 -35 -51 -35
-5 0 -18 -8 -29 -19 -32 -28 -125 -91 -135 -91 -5 0 -11 -3 -13 -8 -4 -10 -84
-72 -93 -72 -4 0 -17 -10 -29 -23 -12 -13 -28 -26 -36 -30 -35 -18 -59 -35
-107 -74 -28 -24 -54 -43 -59 -43 -4 0 -29 -18 -55 -40 -26 -22 -51 -40 -54
-40 -4 0 -22 -12 -40 -28 -17 -15 -42 -34 -55 -42 -13 -8 -38 -27 -55 -43 -18
-15 -36 -27 -41 -27 -5 0 -20 -11 -34 -25 -39 -38 -97 -85 -105 -85 -5 0 -43
-31 -86 -70 -42 -38 -81 -70 -85 -70 -4 0 -30 -21 -58 -46 -28 -26 -75 -67
-104 -93 -175 -151 -362 -333 -464 -448 -43 -49 -116 -131 -163 -184 -47 -53
-85 -100 -85 -104 0 -4 -20 -30 -45 -58 -25 -29 -45 -56 -45 -61 0 -4 -14 -25
-30 -45 -17 -20 -36 -43 -43 -51 -13 -16 -32 -46 -43 -70 -4 -8 -10 -17 -14
-20 -13 -11 -70 -88 -70 -95 0 -4 -13 -24 -30 -45 -16 -21 -30 -40 -30 -43 0
-3 -18 -32 -40 -65 -22 -33 -40 -65 -40 -71 0 -6 -4 -11 -10 -11 -5 0 -19 -20
-30 -45 -11 -25 -24 -45 -29 -45 -5 0 -12 -12 -16 -27 -3 -16 -16 -41 -28 -58
-13 -16 -29 -42 -36 -57 -16 -32 -39 -36 -48 -10 -4 9 -16 31 -28 47 -12 17
-25 37 -28 45 -8 17 -29 52 -37 60 -9 9 -30 44 -40 68 -5 12 -14 22 -19 22 -5
0 -11 8 -15 18 -6 19 -19 40 -53 89 -13 17 -23 34 -23 38 0 6 -41 66 -51 75
-3 3 -8 12 -12 20 -4 8 -27 42 -52 75 -25 33 -49 70 -55 83 -5 12 -14 22 -20
22 -5 0 -10 6 -10 13 0 8 -11 24 -25 37 -14 13 -25 28 -25 33 0 5 -20 34 -45
63 -25 28 -45 56 -45 61 0 5 -13 22 -30 38 -16 16 -30 33 -30 37 0 5 -11 19
-25 32 -14 13 -25 27 -25 31 0 21 -439 468 -565 575 -36 30 -85 74 -110 98
-26 23 -49 42 -51 42 -3 0 -24 16 -47 35 -167 139 -303 245 -314 245 -5 0 -22
14 -38 30 -16 16 -33 30 -38 30 -5 0 -20 11 -33 25 -13 14 -26 25 -30 25 -3 0
-21 12 -39 28 -17 15 -42 34 -55 42 -13 8 -38 27 -55 43 -18 15 -36 27 -40 27
-3 0 -28 18 -54 40 -26 22 -51 40 -55 40 -4 0 -27 16 -50 35 -24 19 -46 35
-51 35 -4 0 -20 10 -35 23 -15 12 -37 29 -50 37 -13 8 -35 24 -49 35 -31 24
-105 76 -129 90 -9 6 -33 22 -53 38 -20 15 -40 27 -44 27 -5 0 -27 16 -51 35
-23 19 -47 35 -52 35 -5 0 -17 9 -27 20 -10 11 -24 20 -31 20 -7 0 -14 3 -16
8 -5 10 -66 52 -77 52 -5 0 -11 3 -13 8 -4 9 -85 72 -93 72 -4 0 -24 14 -45
30 -21 17 -42 30 -47 30 -5 0 -20 11 -33 25 -13 14 -29 25 -37 25 -7 0 -13 5
-13 10 0 6 -10 15 -22 20 -32 14 -62 33 -113 73 -16 13 -38 26 -47 30 -10 3
-18 11 -18 17 0 5 -6 10 -13 10 -8 0 -22 9 -32 20 -10 11 -23 20 -28 20 -5 0
-29 16 -53 35 -23 19 -45 35 -49 35 -8 0 -69 43 -73 53 -2 4 -9 7 -16 7 -7 0
-21 9 -31 20 -10 11 -22 20 -28 20 -5 0 -17 8 -26 18 -19 20 -46 38 -78 52
-13 5 -23 14 -23 20 0 5 -5 10 -10 10 -11 0 -103 62 -136 91 -11 11 -24 19
-28 19 -5 0 -25 12 -45 28 -48 36 -72 51 -93 58 -10 4 -18 10 -18 14 0 4 -19
18 -42 30 -24 12 -45 25 -48 29 -8 10 -69 51 -76 51 -3 0 -28 18 -54 40 -26
22 -51 40 -55 40 -4 0 -24 14 -45 30 -21 17 -41 30 -45 30 -4 0 -21 11 -39 25
-49 40 -50 41 -66 48 -27 14 -55 32 -70 45 -8 7 -40 30 -70 51 -30 20 -56 45
-58 55 -2 9 8 41 22 70 14 29 26 63 26 74 0 12 4 22 10 22 5 0 12 17 16 38 4
20 15 48 24 62 10 14 21 40 25 58 3 17 11 32 16 32 5 0 12 18 15 40 4 22 10
40 15 40 5 0 9 8 9 18 0 9 7 30 15 46 8 15 15 33 15 38 0 11 23 66 46 111 8
16 14 36 14 45 0 9 7 26 15 36 8 11 15 30 15 43 0 13 4 23 9 23 5 0 13 15 16
33 4 17 14 41 21 52 8 11 14 27 14 36 0 10 6 30 14 46 19 37 39 86 61 148 22
63 34 93 51 127 8 14 14 36 14 47 0 12 4 21 9 21 5 0 12 14 16 31 4 17 13 42
21 57 8 15 14 32 14 38 0 7 7 25 15 40 8 16 15 37 15 47 0 9 4 17 8 17 4 0 24
43 42 95 19 52 38 95 43 95 4 0 7 10 7 23 0 12 6 31 14 42 7 11 16 33 20 49 4
17 15 41 25 55 10 14 22 37 26 51 4 14 13 28 19 32 8 5 7 11 -2 20 -9 9 -12 9
-12 0 0 -6 -13 -27 -30 -45 -16 -19 -30 -38 -30 -42 0 -9 -27 -35 -37 -35 -5
0 -22 -13 -37 -29 -29 -30 -66 -47 -66 -29 0 5 7 24 16 41 30 57 34 67 34 79
0 7 7 26 15 41 8 15 17 43 21 63 3 19 10 37 15 40 5 3 9 13 9 22 0 9 6 29 14
44 8 15 17 40 21 57 4 17 11 31 16 31 5 0 9 9 9 20 0 20 2 27 33 88 10 19 20
51 23 73 4 21 10 39 15 39 4 0 11 16 15 35 3 19 10 38 15 41 5 3 9 12 9 21 0
14 20 66 41 105 5 10 9 23 9 30 0 7 6 25 14 40 8 15 17 42 21 60 4 18 14 42
21 53 8 11 14 30 14 42 0 13 4 23 9 23 5 0 13 14 16 32 4 18 11 39 15 48 21
40 40 90 40 103 0 9 5 19 10 22 6 3 10 14 10 23 0 9 7 30 15 46 8 15 15 33 15
40 0 6 7 24 15 39 8 15 17 43 21 62 3 19 9 35 13 35 9 0 29 48 37 88 4 18 11
35 15 38 5 3 9 13 9 22 0 9 6 29 14 44 8 15 17 41 21 58 4 17 13 43 21 58 8
15 14 32 14 38 0 6 11 33 25 60 14 27 25 57 25 67 0 17 3 24 33 85 9 19 17 39
17 45 0 7 6 24 14 39 8 15 17 41 21 59 4 19 12 42 18 54 23 46 27 55 27 67 0
7 6 25 14 40 8 15 17 41 21 58 4 17 13 43 21 58 8 15 14 35 14 44 0 9 4 19 9
22 5 3 12 22 15 42 4 19 15 50 25 68 10 18 22 47 26 64 3 18 10 32 15 32 5 0
12 20 16 45 3 25 10 45 15 45 4 0 11 16 15 35 3 19 10 38 15 40 4 3 11 26 15
50 3 25 10 45 14 45 3 0 15 26 25 58 11 31 23 61 27 67 4 5 8 16 8 25 0 8 7
28 15 43 8 15 17 43 21 63 3 19 10 37 15 40 5 3 9 12 9 21 0 14 20 66 41 105
5 10 9 23 9 30 0 7 6 25 14 40 8 15 17 42 21 60 4 18 11 38 15 43 4 6 11 26
15 45 4 19 11 40 15 45 4 6 11 24 15 42 3 18 15 50 25 71 10 21 22 52 26 68 4
16 10 34 14 39 5 6 11 27 15 48 4 20 11 40 16 43 5 3 9 13 9 22 0 9 6 29 14
43 7 14 16 39 20 55 11 48 28 84 36 79 4 -3 11 -36 15 -75 4 -39 11 -72 15
-75 5 -3 12 -34 15 -70 4 -36 11 -68 15 -70 5 -3 12 -34 15 -70 4 -36 11 -68
16 -70 4 -3 11 -37 15 -75 4 -39 11 -73 15 -76 5 -3 9 -20 9 -39 0 -19 4 -36
9 -39 5 -3 12 -33 16 -66 4 -33 11 -62 15 -65 4 -3 11 -36 15 -75 4 -39 11
-72 15 -75 4 -3 11 -33 15 -67 4 -35 11 -67 15 -73 4 -5 11 -43 15 -83 4 -39
11 -75 16 -78 5 -3 9 -20 9 -39 0 -19 4 -36 9 -39 5 -4 12 -40 16 -81 4 -41
11 -75 15 -75 5 0 11 -28 15 -62 4 -35 11 -67 15 -73 4 -5 10 -37 14 -69 4
-33 10 -64 15 -70 5 -6 11 -38 15 -70 4 -33 10 -64 15 -70 5 -6 11 -29 14 -51
8 -53 34 -190 37 -190 1 0 9 -34 16 -75 31 -158 40 -206 46 -220 4 -8 11 -40
17 -70 15 -81 22 -113 29 -130 6 -15 19 -80 45 -217 6 -38 15 -72 18 -78 4 -5
10 -37 14 -70 4 -33 10 -64 13 -70 4 -5 13 -41 20 -80 21 -115 24 -130 32
-140 4 -5 11 -38 15 -73 4 -34 11 -64 15 -67 4 -3 11 -36 15 -75 4 -39 11 -72
15 -75 5 -3 12 -34 15 -70 4 -36 11 -68 15 -70 5 -3 12 -34 15 -70 4 -36 11
-68 16 -71 5 -3 9 -20 9 -39 0 -19 4 -36 9 -40 5 -3 13 -34 16 -70 4 -36 11
-67 15 -70 5 -3 11 -32 15 -65 4 -33 10 -60 15 -60 4 0 11 -31 14 -70 4 -38
11 -70 15 -70 5 0 12 -34 16 -75 4 -41 11 -77 16 -81 5 -3 9 -18 9 -34 0 -16
4 -31 9 -34 5 -3 12 -35 16 -71 3 -36 10 -65 15 -65 4 0 11 -33 15 -72 4 -40
11 -77 15 -83 4 -5 11 -39 15 -75 4 -35 11 -71 16 -80 4 -8 11 -41 14 -72 4
-32 11 -60 16 -63 10 -7 13 -45 3 -45 -4 0 -25 16 -48 36 -58 49 -64 54 -74
54 -5 0 -17 9 -27 20 -10 11 -24 20 -31 20 -7 0 -14 3 -16 8 -4 10 -85 72 -94
72 -4 0 -35 25 -69 55 -35 30 -68 55 -74 55 -16 0 -381 365 -381 381 0 9 -11
26 -24 38 -14 13 -32 39 -41 57 -9 19 -20 34 -24 34 -5 0 -12 -101 -16 -224
-7 -213 -2 -339 15 -361 4 -5 10 -23 14 -39 7 -30 30 -63 89 -126 29 -31 203
-169 246 -195 9 -5 35 -25 58 -42 22 -18 44 -33 47 -33 3 0 33 -18 65 -40 32
-22 64 -40 70 -40 6 0 11 -5 11 -10 0 -6 10 -15 23 -20 30 -14 55 -29 104 -67
23 -18 44 -33 48 -33 4 0 24 -13 44 -29 21 -16 49 -33 64 -36 15 -4 27 -11 27
-16 0 -5 8 -13 18 -16 15 -5 37 -21 88 -62 6 -5 21 -12 35 -16 13 -4 40 -21
60 -36 20 -16 40 -29 44 -29 4 0 25 -15 48 -34 23 -19 54 -37 69 -41 15 -4 29
-13 32 -21 3 -8 10 -14 15 -14 10 0 11 19 31 300 6 85 14 162 19 171 5 8 12
82 16 165 4 82 11 156 15 164 5 9 12 80 16 158 4 78 10 142 14 142 4 0 11 72
15 160 4 88 11 163 16 166 5 3 9 38 9 79 0 41 4 76 9 79 5 3 12 73 16 156 4
83 11 152 15 155 4 3 11 63 15 135 4 72 11 132 15 135 4 3 11 75 15 160 4 85
11 157 15 160 4 3 11 72 15 155 4 83 11 153 16 156 5 3 9 38 9 79 0 41 4 76 9
79 5 3 12 71 16 151 4 80 11 145 15 145 4 0 11 65 15 145 4 80 11 147 15 150
4 3 11 71 15 152 4 82 11 153 15 158 4 6 11 72 15 148 4 75 11 140 16 143 5 3
9 38 9 79 0 41 4 76 9 79 5 3 12 71 16 151 4 80 11 147 15 150 4 3 11 71 15
152 4 82 11 153 15 158 4 6 11 73 15 150 4 77 10 145 14 150 5 9 18 133 37
380 3 39 9 75 14 80 4 6 11 75 15 155 4 80 11 150 15 155 4 6 11 74 15 153 4
78 11 144 15 147 4 3 11 72 15 155 4 83 11 153 16 156 5 3 9 22 9 42 0 36 7
68 31 150 6 20 16 64 22 97 7 33 15 65 20 72 4 6 10 33 13 60 4 26 10 53 14
58 4 6 11 30 15 55 4 25 11 50 15 55 4 6 11 34 15 62 4 29 11 55 16 59 5 3 9
16 9 29 0 13 4 26 9 30 5 3 13 30 16 60 4 31 11 58 15 60 5 3 12 30 15 60 4
31 11 58 16 60 4 3 11 27 15 53 3 26 10 52 14 57 5 6 11 31 15 58 4 26 11 47
16 47 5 0 9 13 9 29 0 17 4 32 9 35 5 3 12 30 16 61 3 30 10 57 15 60 4 3 11
28 15 55 4 27 10 52 15 55 4 3 11 26 15 52 4 27 10 53 15 58 4 6 11 31 14 57
4 26 11 50 17 53 5 4 9 19 9 36 0 16 4 29 9 29 5 0 12 21 16 48 4 26 11 52 16
58 5 7 12 36 16 65 8 73 27 97 31 41 2 -23 7 -42 12 -42z"/>
<path d="M17255 23865 c-4 -41 -11 -75 -15 -75 -4 0 -11 -38 -15 -85 -4 -47
-11 -87 -16 -91 -5 -3 -9 -23 -9 -45 0 -22 -4 -48 -9 -58 -10 -17 -20 -74 -42
-221 -6 -41 -14 -82 -19 -91 -4 -8 -11 -46 -15 -82 -4 -37 -11 -69 -15 -72 -4
-3 -11 -38 -15 -77 -4 -40 -11 -77 -15 -83 -8 -11 -12 -30 -32 -165 -7 -47
-16 -89 -19 -95 -4 -5 -10 -57 -14 -115 -4 -58 -11 -109 -15 -115 -4 -5 -11
-54 -15 -107 -4 -54 -10 -100 -15 -103 -4 -3 -11 -49 -15 -102 -4 -54 -11
-102 -15 -108 -4 -5 -11 -35 -14 -65 -16 -154 -32 -276 -38 -285 -3 -5 -9 -57
-13 -115 -4 -58 -11 -110 -15 -115 -5 -6 -12 -60 -15 -120 -4 -61 -10 -114
-14 -120 -5 -9 -20 -121 -37 -295 -3 -30 -10 -59 -14 -65 -4 -5 -11 -56 -15
-113 -4 -56 -11 -104 -15 -107 -4 -3 -11 -55 -15 -117 -4 -62 -11 -117 -15
-123 -4 -5 -11 -59 -15 -120 -4 -60 -10 -114 -14 -120 -3 -5 -12 -59 -18 -120
-7 -60 -17 -141 -23 -180 -6 -38 -16 -119 -23 -180 -7 -60 -15 -114 -18 -120
-4 -5 -10 -59 -14 -120 -4 -60 -10 -114 -14 -120 -3 -5 -12 -64 -19 -130 -7
-66 -18 -173 -25 -237 -6 -64 -15 -120 -19 -124 -5 -4 -8 -36 -8 -70 0 -35 -4
-65 -9 -68 -5 -3 -12 -59 -16 -123 -4 -65 -11 -122 -15 -128 -4 -5 -11 -59
-15 -120 -4 -60 -11 -114 -15 -120 -4 -5 -11 -64 -15 -130 -4 -66 -11 -124
-15 -130 -4 -5 -11 -62 -15 -125 -4 -63 -11 -119 -15 -125 -4 -5 -11 -37 -14
-70 -22 -233 -32 -321 -37 -330 -4 -5 -10 -67 -14 -137 -4 -71 -11 -128 -15
-128 -4 0 -11 -58 -15 -130 -4 -71 -11 -132 -15 -135 -5 -3 -11 -59 -15 -125
-4 -66 -12 -123 -16 -126 -5 -3 -9 -33 -9 -68 0 -34 -4 -66 -10 -72 -14 -14
-16 -207 -2 -212 7 -2 12 -14 12 -27 0 -13 4 -26 9 -30 6 -3 13 -26 17 -50 3
-25 10 -48 15 -50 4 -3 11 -27 15 -53 3 -26 10 -51 14 -57 4 -5 11 -26 15 -45
4 -19 11 -39 15 -45 4 -5 10 -29 14 -53 3 -24 11 -52 16 -62 6 -11 14 -29 20
-40 5 -10 13 -38 16 -62 l7 -43 -95 90 c-140 132 -174 161 -274 236 -50 38
-97 75 -104 84 -7 8 -17 15 -23 15 -5 0 -30 17 -56 38 -49 40 -76 58 -103 68
-9 3 -19 12 -22 20 -3 8 -11 14 -19 14 -7 0 -24 11 -37 25 -13 14 -29 25 -36
25 -7 0 -17 6 -21 13 -4 8 -15 17 -23 21 -29 13 -56 32 -145 96 -89 64 -116
83 -145 96 -8 4 -19 13 -23 21 -4 7 -14 13 -21 13 -7 0 -23 11 -36 25 -13 14
-29 25 -36 25 -7 0 -17 6 -21 13 -8 12 -36 32 -63 44 -8 3 -31 19 -51 35 -20
15 -40 28 -44 28 -3 0 -28 18 -54 40 -26 22 -50 40 -54 40 -11 0 -97 63 -97
72 0 4 -5 8 -11 8 -10 0 -69 40 -101 70 -9 8 -33 26 -53 40 -114 78 -261 222
-292 288 -21 44 -26 229 -6 253 6 8 14 31 18 52 4 20 11 40 16 43 5 3 9 15 9
27 0 12 7 35 15 51 8 15 15 39 15 52 0 12 4 25 9 28 5 4 12 24 16 46 4 22 10
42 15 45 5 3 11 23 15 45 4 22 11 42 15 45 5 3 12 26 16 50 3 25 10 45 14 45
4 0 10 18 14 40 3 23 10 49 15 58 26 51 71 183 71 210 0 9 7 25 15 35 13 18
14 17 30 -12 8 -17 20 -31 25 -31 6 0 10 -5 10 -11 0 -36 374 -430 613 -645
l67 -61 -6 36 c-4 20 -10 38 -14 41 -4 3 -11 30 -15 60 -4 30 -11 60 -15 65
-4 6 -11 34 -15 62 -4 29 -11 55 -15 58 -4 3 -11 32 -15 65 -4 33 -11 60 -16
60 -5 0 -9 13 -9 29 0 17 -4 32 -9 36 -6 3 -13 27 -17 53 -3 26 -10 52 -14 57
-4 6 -11 34 -15 62 -4 29 -11 55 -15 58 -4 3 -11 32 -15 65 -4 33 -11 63 -16
66 -5 3 -9 18 -9 33 0 29 -25 122 -40 152 -5 9 -12 38 -15 65 -4 27 -11 54
-15 59 -4 6 -11 34 -15 62 -4 29 -11 55 -15 58 -4 3 -11 28 -15 55 -4 27 -10
52 -15 55 -4 3 -11 29 -15 60 -3 30 -11 57 -16 60 -5 4 -9 19 -9 35 0 16 -4
31 -9 34 -5 3 -12 33 -16 66 -4 33 -10 60 -15 60 -4 0 -10 22 -14 50 -4 27
-11 52 -15 55 -5 3 -12 32 -16 65 -4 33 -11 60 -15 60 -4 0 -11 22 -15 50 -4
27 -11 52 -16 56 -5 3 -9 18 -9 34 0 16 -4 31 -9 34 -5 3 -12 30 -16 61 -3 30
-10 57 -14 60 -5 2 -11 27 -15 54 -4 28 -11 53 -15 56 -5 3 -12 32 -16 65 -4
33 -11 60 -16 60 -5 0 -9 11 -9 24 0 25 -26 119 -40 147 -5 9 -12 38 -15 65
-4 27 -11 54 -15 59 -4 6 -11 30 -15 55 -4 25 -11 50 -15 55 -4 6 -11 34 -15
62 -4 29 -11 55 -15 58 -4 3 -11 28 -15 55 -4 27 -11 52 -16 56 -5 3 -9 18 -9
34 0 16 -4 31 -9 34 -5 4 -12 25 -16 49 -4 23 -10 47 -14 52 -3 6 -11 32 -16
59 -10 49 -35 76 -35 37 0 -11 -4 -22 -9 -25 -5 -3 -12 -22 -15 -41 -4 -19
-15 -52 -26 -72 -10 -21 -28 -67 -40 -103 -12 -36 -28 -77 -36 -92 -8 -14 -14
-36 -14 -47 0 -12 -4 -21 -10 -21 -5 0 -10 -7 -10 -16 0 -9 -7 -32 -16 -52 -9
-21 -23 -53 -31 -72 -31 -75 -36 -86 -48 -115 -8 -16 -20 -46 -29 -65 -8 -19
-25 -60 -39 -90 -13 -30 -34 -77 -46 -105 -12 -27 -26 -59 -31 -70 -39 -88
-50 -116 -50 -129 0 -8 -3 -16 -7 -18 -9 -4 -63 -109 -63 -123 -1 -6 -9 -28
-20 -50 -11 -22 -19 -48 -20 -57 0 -10 -4 -18 -9 -18 -5 0 -12 -12 -16 -27 -3
-15 -15 -39 -26 -54 -10 -15 -19 -33 -19 -41 0 -7 -14 -40 -30 -72 -17 -32
-30 -63 -30 -69 0 -14 -61 -137 -72 -143 -4 -3 -8 -13 -8 -22 0 -9 -14 -44
-30 -77 -16 -33 -30 -64 -30 -68 0 -5 -20 -50 -44 -100 -61 -129 -76 -164 -76
-175 0 -5 -11 -29 -24 -54 -13 -25 -27 -59 -31 -76 -3 -18 -10 -32 -13 -32 -8
0 -32 -49 -32 -64 0 -6 -6 -23 -14 -38 -8 -15 -17 -40 -21 -57 -4 -17 -11 -31
-16 -31 -5 0 -9 -8 -9 -17 -1 -10 -9 -36 -20 -58 -11 -22 -19 -46 -20 -53 0
-12 -4 -22 -34 -79 -9 -17 -16 -41 -16 -52 0 -12 -4 -21 -9 -21 -5 0 -12 -14
-16 -31 -4 -17 -13 -42 -21 -57 -8 -15 -14 -32 -14 -38 0 -7 -7 -25 -15 -40
-8 -16 -15 -37 -15 -46 0 -10 -4 -18 -10 -18 -5 0 -10 -7 -10 -15 0 -8 -6 -29
-14 -47 -8 -18 -21 -49 -30 -70 -9 -20 -16 -40 -16 -46 0 -5 -7 -23 -15 -38
-8 -16 -15 -37 -15 -46 0 -9 -4 -19 -9 -22 -4 -3 -11 -20 -15 -38 -8 -42 -29
-88 -38 -88 -5 0 -8 -8 -8 -17 0 -10 -6 -30 -14 -45 -8 -15 -17 -41 -21 -58
-4 -17 -13 -43 -21 -58 -8 -15 -14 -33 -14 -40 0 -12 -3 -21 -33 -80 -9 -19
-17 -39 -17 -46 0 -12 -19 -59 -41 -98 -5 -10 -9 -23 -9 -29 0 -6 -6 -25 -14
-42 -7 -18 -29 -72 -47 -122 -18 -49 -37 -91 -41 -93 -4 -2 -8 -14 -8 -26 0
-12 -6 -30 -14 -41 -7 -11 -17 -36 -21 -55 -4 -19 -10 -39 -14 -45 -4 -5 -15
-37 -25 -70 -10 -33 -23 -70 -29 -83 -10 -20 -4 -30 58 -92 38 -39 73 -70 78
-70 5 0 33 -20 61 -45 29 -25 57 -45 61 -45 6 0 27 -16 82 -60 7 -6 16 -10 21
-10 5 0 17 -9 27 -20 10 -11 24 -20 31 -20 7 0 14 -3 16 -8 4 -10 84 -72 93
-72 4 0 24 -13 45 -30 21 -16 41 -30 45 -30 5 0 27 -16 51 -35 23 -19 47 -35
52 -35 5 0 17 -9 27 -20 10 -11 24 -20 32 -20 7 0 13 -5 13 -10 0 -6 10 -15
23 -20 30 -13 58 -32 77 -50 19 -18 47 -37 78 -50 12 -5 22 -14 22 -19 0 -5 8
-12 18 -15 21 -8 47 -24 92 -56 45 -32 71 -48 93 -56 9 -3 17 -10 17 -15 0 -5
10 -14 23 -19 30 -13 58 -32 77 -50 19 -18 47 -37 78 -50 12 -5 22 -14 22 -19
0 -5 8 -11 18 -15 25 -8 127 -78 142 -97 3 -3 16 -10 30 -14 14 -4 29 -13 35
-20 5 -7 26 -21 45 -31 19 -11 42 -26 50 -34 19 -18 47 -37 78 -50 12 -5 22
-14 22 -19 0 -5 8 -12 18 -15 27 -10 54 -28 103 -68 26 -21 49 -38 54 -38 4 0
24 -12 44 -27 48 -37 72 -52 94 -59 9 -4 17 -10 17 -15 0 -5 10 -14 23 -19 23
-10 58 -31 67 -40 12 -12 70 -50 76 -50 4 0 17 -8 28 -19 33 -29 125 -91 136
-91 5 0 10 -5 10 -10 0 -6 8 -14 18 -17 15 -6 43 -25 89 -63 7 -6 16 -10 21
-10 5 0 17 -9 27 -20 10 -11 22 -20 27 -20 9 0 13 -2 69 -50 20 -16 40 -30 44
-30 4 0 28 -17 54 -37 43 -36 68 -53 101 -70 8 -4 24 -16 35 -28 11 -12 27
-25 35 -29 25 -12 54 -30 75 -48 11 -9 40 -33 65 -52 25 -19 52 -41 61 -48 8
-7 38 -32 66 -55 29 -24 55 -43 58 -43 4 0 38 -27 75 -60 37 -33 71 -60 75
-60 7 0 63 -48 146 -126 21 -19 41 -34 46 -34 12 0 505 -494 513 -513 3 -7 19
-29 37 -48 78 -86 113 -127 113 -135 1 -5 30 -40 65 -79 36 -38 65 -75 65 -81
0 -6 9 -19 20 -29 11 -10 20 -24 20 -30 0 -7 7 -15 15 -19 8 -3 15 -11 15 -19
0 -7 11 -24 25 -37 14 -13 25 -29 25 -36 0 -6 7 -14 15 -18 8 -3 15 -12 15
-19 0 -19 36 -50 49 -42 6 3 11 11 11 16 0 10 2 13 50 70 16 20 30 40 30 44 0
4 11 18 25 31 14 13 25 27 25 32 0 4 14 21 30 37 17 16 30 33 30 38 0 5 31 43
69 85 37 43 70 82 72 89 2 6 46 57 97 112 50 54 92 103 92 108 0 11 403 413
414 413 5 0 43 33 85 73 115 111 177 167 186 167 4 0 35 25 70 55 34 30 65 55
69 55 9 0 100 72 104 83 2 4 8 7 14 7 6 0 25 12 43 28 17 15 42 34 55 42 12 8
33 23 45 33 13 9 26 17 30 17 4 0 33 23 65 50 32 28 61 50 65 50 5 0 27 16 51
35 23 19 45 35 49 35 6 0 28 16 82 60 7 6 16 10 21 10 5 0 17 9 27 20 10 11
22 20 27 20 5 0 14 4 21 10 54 44 76 60 82 60 4 0 24 14 45 30 21 17 41 30 45
30 4 0 29 18 55 40 26 22 51 40 54 40 6 0 64 38 76 50 9 9 44 30 68 40 12 5
22 14 22 19 0 5 8 11 18 15 23 8 49 24 104 68 26 21 50 38 53 38 4 0 24 12 44
28 48 36 72 51 94 58 9 4 17 10 17 15 0 5 10 14 23 19 30 13 58 32 77 50 17
17 47 37 70 47 8 3 34 21 57 40 23 18 44 33 48 33 3 0 21 11 39 25 18 14 36
25 41 25 4 0 24 12 44 28 41 31 69 49 91 59 8 4 22 14 30 22 19 20 77 61 86
61 3 0 23 14 44 30 21 17 41 30 46 30 4 0 17 8 28 19 33 29 125 91 136 91 5 0
10 3 10 8 0 4 15 16 33 25 19 10 45 28 58 40 28 24 56 44 79 54 8 3 31 19 51
35 20 15 40 28 44 28 4 0 24 14 45 30 21 16 42 30 47 30 5 0 20 11 33 25 13
14 30 25 37 25 8 0 16 6 19 14 3 8 13 17 22 20 15 5 30 13 66 38 6 4 27 21 47
38 20 16 40 30 45 30 4 0 29 18 55 40 26 22 51 40 54 40 4 0 37 26 74 58 36
31 75 62 86 68 29 16 76 87 64 98 -5 6 -9 20 -9 33 0 13 -4 23 -10 23 -5 0
-10 8 -10 18 0 9 -6 29 -14 44 -8 15 -17 41 -21 58 -4 17 -13 43 -21 58 -8 15
-14 35 -14 44 0 9 -4 19 -9 23 -5 3 -13 20 -17 37 -7 34 -10 42 -38 95 -9 17
-16 41 -16 52 0 12 -4 21 -10 21 -5 0 -10 8 -10 18 0 9 -7 30 -15 46 -8 15
-15 33 -15 38 0 11 -23 66 -46 111 -8 16 -14 37 -14 48 0 10 -4 19 -10 19 -5
0 -12 16 -16 35 -3 19 -10 38 -15 41 -5 3 -9 13 -9 22 0 9 -6 29 -14 44 -8 15
-17 41 -21 58 -4 17 -13 43 -21 58 -8 15 -14 32 -14 39 0 7 -8 27 -18 45 -10
18 -29 62 -41 98 -13 36 -30 79 -37 97 -8 17 -14 35 -14 41 0 5 -7 23 -15 38
-8 16 -15 37 -15 47 0 9 -4 17 -10 17 -5 0 -10 7 -10 15 0 8 -6 29 -14 47 -8
18 -21 49 -30 70 -9 20 -16 40 -16 46 0 5 -7 23 -15 38 -8 16 -15 37 -15 47 0
9 -3 17 -7 17 -9 0 -33 48 -33 64 0 6 -6 23 -14 38 -8 15 -17 40 -21 57 -4 17
-11 31 -16 31 -5 0 -9 10 -9 23 0 12 -6 31 -14 42 -7 11 -17 31 -21 45 -4 14
-15 43 -25 65 -47 103 -60 135 -60 147 0 7 -7 22 -15 32 -8 11 -15 30 -15 43
0 13 -4 23 -9 23 -5 0 -12 14 -16 30 -4 17 -10 30 -15 30 -4 0 -11 12 -14 28
-4 15 -17 50 -30 77 -38 77 -56 122 -56 134 0 6 -4 11 -9 11 -5 0 -12 14 -16
30 -4 17 -11 30 -16 30 -5 0 -9 8 -9 19 0 10 -11 38 -24 63 -13 25 -27 59 -31
76 -3 18 -10 32 -15 32 -5 0 -12 14 -15 31 -4 18 -22 60 -40 95 -18 35 -36 77
-40 94 -4 16 -10 30 -15 30 -5 0 -11 14 -15 30 -4 17 -11 30 -16 30 -5 0 -9 9
-9 20 0 11 -13 46 -30 77 -16 31 -30 64 -30 74 0 11 -4 19 -10 19 -5 0 -10 5
-10 11 0 11 -15 47 -51 125 -10 23 -19 46 -19 52 0 5 -12 34 -26 64 -15 29
-30 62 -35 73 -17 43 -51 122 -65 152 -8 17 -14 38 -14 47 0 9 -4 16 -9 16 -5
0 -12 12 -16 28 -3 15 -17 49 -31 75 -13 27 -24 57 -24 68 0 10 -4 19 -9 19
-5 0 -12 14 -16 31 -4 17 -13 42 -21 57 -8 15 -14 34 -14 42 0 8 -7 24 -15 34
-8 11 -15 30 -15 43 0 13 -3 23 -8 23 -8 0 -42 73 -42 93 0 6 -7 21 -15 31 -8
11 -15 32 -15 47 0 14 -7 32 -15 39 -13 10 -15 9 -15 -12 0 -13 -4 -28 -9 -33
-8 -9 -13 -33 -38 -160 -3 -16 -9 -34 -13 -40 -5 -5 -11 -32 -15 -60 -4 -27
-11 -54 -15 -60 -4 -5 -11 -34 -15 -62 -4 -29 -11 -55 -15 -58 -5 -3 -12 -33
-16 -66 -4 -32 -10 -62 -15 -65 -5 -2 -11 -27 -15 -54 -4 -28 -10 -50 -15 -50
-5 0 -9 -13 -9 -29 0 -17 -4 -32 -9 -35 -5 -3 -12 -33 -16 -66 -4 -33 -11 -60
-15 -60 -4 0 -11 -25 -15 -55 -3 -30 -10 -57 -15 -60 -5 -3 -12 -30 -15 -60
-4 -30 -11 -55 -15 -55 -4 0 -11 -26 -15 -57 -4 -32 -10 -62 -15 -68 -4 -5
-10 -23 -13 -40 -24 -122 -30 -151 -38 -160 -4 -6 -11 -34 -15 -63 -4 -29 -10
-55 -15 -57 -4 -3 -11 -30 -14 -60 -4 -30 -11 -55 -15 -55 -4 0 -11 -27 -15
-60 -4 -33 -11 -63 -16 -66 -5 -3 -9 -18 -9 -34 0 -16 -4 -31 -9 -34 -5 -4
-12 -30 -16 -59 -4 -28 -11 -56 -15 -62 -4 -5 -11 -34 -15 -62 -4 -29 -11 -55
-15 -58 -4 -3 -11 -32 -15 -65 -4 -33 -11 -60 -15 -60 -4 0 -11 -27 -15 -60
-4 -33 -11 -63 -16 -66 -5 -3 -9 -18 -9 -34 0 -16 -4 -31 -9 -34 -5 -4 -12
-30 -16 -59 -4 -28 -11 -56 -15 -62 -4 -5 -11 -34 -15 -62 -4 -29 -11 -55 -15
-58 -4 -3 -11 -32 -15 -65 -4 -33 -10 -60 -14 -60 -4 0 -13 -30 -20 -67 -19
-108 -23 -127 -31 -138 -5 -5 -11 -36 -15 -67 -4 -32 -11 -58 -15 -58 -4 0
-11 -26 -15 -57 -4 -32 -10 -62 -15 -68 -4 -5 -10 -30 -14 -55 -4 -24 -11 -47
-16 -50 -4 -3 -12 -19 -15 -35 -6 -26 5 -18 87 63 51 50 98 92 104 92 20 0
429 435 457 487 6 10 27 36 47 59 20 22 40 47 43 55 5 12 7 12 16 -1 6 -8 11
-25 11 -37 0 -12 4 -24 9 -27 5 -4 12 -24 16 -46 4 -22 11 -42 16 -46 5 -3 9
-16 9 -30 0 -13 4 -24 9 -24 5 0 12 -20 15 -45 4 -24 11 -47 16 -50 4 -3 11
-23 15 -45 4 -22 10 -42 15 -45 4 -3 11 -21 15 -41 3 -20 10 -44 15 -53 5 -9
16 -43 25 -76 9 -33 20 -67 25 -76 5 -9 12 -33 15 -53 4 -20 11 -39 16 -41 4
-3 11 -26 15 -50 3 -25 10 -45 14 -45 5 0 11 -22 15 -50 4 -27 11 -52 16 -56
12 -7 11 -121 -1 -129 -5 -3 -10 -13 -10 -22 0 -58 -126 -192 -310 -328 -22
-16 -47 -36 -55 -42 -7 -7 -16 -13 -20 -13 -8 0 -89 -63 -93 -72 -2 -5 -8 -8
-14 -8 -5 0 -20 -8 -33 -17 -12 -10 -33 -25 -45 -33 -13 -8 -35 -25 -50 -37
-15 -13 -31 -23 -35 -23 -4 0 -25 -15 -48 -32 -23 -18 -49 -37 -58 -43 -14 -9
-171 -124 -194 -142 -13 -11 -152 -105 -174 -118 -9 -5 -35 -24 -56 -40 -22
-17 -60 -44 -85 -60 -25 -17 -47 -33 -50 -36 -3 -3 -12 -9 -20 -13 -24 -11
-55 -30 -70 -43 -42 -35 -77 -60 -92 -66 -10 -3 -18 -11 -18 -17 0 -5 -6 -10
-13 -10 -8 0 -22 -9 -32 -20 -10 -11 -22 -20 -28 -20 -5 0 -37 -25 -72 -55
-34 -30 -66 -55 -70 -55 -11 0 -84 -65 -211 -191 -62 -60 -115 -109 -118 -109
-9 0 -7 28 4 50 6 11 14 29 20 40 5 10 13 37 16 60 4 22 10 40 14 40 4 0 11
20 14 45 4 25 11 45 15 45 5 0 12 20 15 45 4 24 11 47 16 50 4 3 11 23 15 45
4 22 11 42 16 46 5 3 9 18 9 33 0 15 6 33 12 39 17 17 22 197 8 307 -6 50 -14
117 -17 150 -3 33 -9 65 -13 70 -4 6 -11 64 -15 130 -4 66 -11 125 -15 130 -4
6 -11 63 -15 128 -4 64 -11 119 -15 122 -4 3 -11 55 -15 117 -4 62 -11 118
-15 123 -4 6 -11 63 -15 128 -4 64 -11 120 -16 123 -5 3 -9 31 -9 63 0 32 -3
61 -7 65 -5 4 -14 60 -20 124 -31 286 -38 348 -44 357 -4 6 -10 67 -14 138 -4
70 -11 129 -15 132 -4 3 -11 60 -15 127 -4 68 -11 128 -15 133 -5 6 -11 37
-14 70 -21 224 -30 301 -36 305 -4 3 -10 59 -14 125 -4 66 -11 125 -16 130 -4
6 -11 60 -15 120 -4 61 -11 115 -15 120 -4 6 -11 58 -15 118 -4 59 -11 110
-16 113 -5 3 -9 36 -9 74 0 38 -4 71 -9 74 -5 3 -12 56 -16 118 -4 62 -11 118
-15 123 -4 6 -11 57 -15 115 -4 58 -10 110 -14 115 -3 6 -12 60 -18 120 -15
135 -40 329 -53 410 -5 33 -15 110 -22 170 -7 61 -16 115 -19 120 -4 6 -10 57
-14 115 -4 58 -11 110 -15 115 -4 6 -11 57 -15 115 -4 58 -11 110 -15 115 -4
6 -11 56 -15 113 -4 56 -11 105 -16 108 -5 3 -9 32 -9 64 0 32 -4 61 -9 64 -5
3 -12 53 -16 111 -4 58 -10 105 -15 105 -4 0 -10 51 -14 112 -4 62 -11 117
-16 123 -4 5 -11 57 -15 115 -4 58 -11 110 -15 115 -4 6 -11 40 -15 77 -3 37
-11 70 -16 73 -5 4 -9 23 -9 44 0 20 -4 41 -10 47 -5 5 -13 38 -16 72 -4 34
-10 62 -14 62 -4 0 -11 33 -15 73 -3 39 -11 77 -16 83 -5 6 -12 43 -15 82 -4
40 -10 72 -14 72 -4 0 -11 34 -15 75 -4 41 -11 77 -16 81 -5 3 -9 20 -9 39 0
19 -4 36 -9 40 -5 3 -13 41 -17 85 -3 44 -11 83 -15 86 -5 3 -9 20 -9 38 0 45
-11 96 -20 96 -5 0 -11 -34 -15 -75z m44 -1085 c8 -4 19 -104 37 -320 3 -36 9
-69 14 -75 4 -5 11 -63 15 -128 4 -64 11 -119 15 -122 4 -3 11 -61 15 -130 4
-69 11 -127 15 -130 5 -3 11 -53 15 -112 4 -60 11 -112 15 -118 4 -5 11 -63
15 -128 4 -64 11 -120 16 -123 5 -3 9 -32 9 -64 0 -32 4 -61 9 -64 5 -3 12
-63 16 -133 4 -71 11 -132 15 -138 4 -5 11 -62 15 -125 4 -63 10 -119 14 -125
6 -10 16 -100 44 -372 6 -67 15 -125 20 -129 4 -4 7 -31 7 -61 0 -29 4 -53 9
-53 5 0 12 -54 16 -120 4 -66 11 -122 15 -125 4 -3 11 -60 15 -127 4 -68 11
-127 15 -133 4 -5 11 -62 15 -125 4 -63 10 -119 14 -125 6 -10 26 -186 37
-327 3 -38 9 -68 14 -68 4 0 11 -54 15 -120 4 -66 11 -122 15 -125 4 -3 11
-58 15 -122 4 -65 11 -122 15 -128 4 -5 11 -67 15 -137 4 -71 10 -128 14 -128
7 0 21 -129 37 -325 3 -38 10 -75 14 -80 5 -6 12 -55 16 -110 3 -55 10 -104
14 -110 4 -5 11 -64 15 -130 4 -66 10 -124 14 -130 3 -5 11 -64 18 -130 14
-139 39 -351 53 -445 21 -145 29 -218 29 -272 1 -32 6 -58 11 -58 12 0 14
-147 1 -154 -5 -3 -12 -22 -15 -42 -4 -19 -15 -50 -25 -68 -10 -18 -22 -47
-26 -64 -3 -18 -11 -32 -16 -32 -5 0 -9 -8 -9 -17 0 -10 -6 -30 -14 -45 -8
-15 -17 -41 -21 -58 -4 -17 -13 -43 -21 -58 -8 -15 -14 -33 -14 -40 0 -7 -4
-20 -9 -30 -21 -39 -41 -91 -41 -105 0 -9 -4 -18 -9 -21 -5 -3 -12 -22 -15
-41 -4 -19 -11 -35 -16 -35 -6 0 -10 -8 -10 -17 0 -17 -25 -87 -61 -169 -10
-23 -21 -55 -25 -70 -4 -16 -10 -33 -14 -39 -4 -5 -11 -25 -15 -43 -4 -18 -13
-45 -21 -60 -8 -15 -14 -35 -14 -44 0 -9 -4 -19 -9 -22 -5 -3 -12 -22 -16 -42
-3 -20 -11 -46 -17 -58 -24 -47 -28 -57 -34 -96 -4 -22 -10 -40 -14 -40 -4 0
-11 -20 -14 -45 -4 -24 -11 -47 -16 -50 -4 -3 -11 -23 -15 -45 -4 -22 -10 -42
-15 -45 -4 -3 -11 -22 -14 -42 -8 -43 -27 -103 -37 -118 -4 -5 -10 -26 -14
-45 -4 -19 -11 -39 -15 -45 -4 -5 -11 -31 -14 -57 -4 -26 -11 -50 -15 -53 -5
-2 -12 -29 -16 -60 -3 -30 -10 -57 -15 -60 -5 -3 -12 -28 -16 -56 -4 -27 -11
-52 -15 -55 -5 -3 -9 -18 -9 -34 0 -16 -4 -31 -9 -35 -6 -3 -13 -27 -16 -53
-3 -26 -10 -55 -16 -64 -5 -10 -9 -31 -9 -48 0 -19 -5 -30 -14 -30 -9 0 -16
20 -21 65 -3 36 -10 67 -15 70 -4 2 -11 30 -15 61 -4 32 -10 64 -15 73 -13 27
-29 84 -36 131 -4 25 -10 50 -14 55 -5 6 -11 31 -15 58 -4 26 -11 47 -15 47
-4 0 -10 22 -14 50 -4 27 -10 51 -15 54 -4 3 -11 26 -14 51 -4 24 -11 53 -16
62 -20 41 -30 70 -36 110 -4 24 -10 45 -15 48 -5 3 -11 23 -15 45 -4 22 -10
42 -15 45 -5 3 -11 23 -15 45 -4 22 -10 42 -15 45 -5 3 -11 24 -15 48 -4 23
-10 44 -14 47 -3 3 -15 30 -25 60 -10 30 -22 60 -26 65 -4 6 -11 25 -15 43 -4
18 -13 45 -21 60 -8 15 -14 35 -14 44 0 9 -4 19 -9 23 -5 3 -13 20 -17 37 -7
34 -10 42 -38 95 -9 17 -16 38 -16 46 0 9 -6 28 -14 44 -27 51 -46 101 -46
116 0 9 -4 18 -9 22 -5 3 -13 20 -16 38 -4 17 -15 43 -25 57 -10 14 -21 41
-25 60 -4 19 -11 41 -16 50 -4 8 -15 33 -24 55 -9 22 -23 53 -31 68 -8 16 -14
33 -14 39 0 11 -20 58 -55 131 -17 35 -21 54 -15 65 9 16 25 131 37 257 3 33
8 65 13 70 4 6 11 62 15 125 4 63 11 120 15 125 4 6 11 66 15 135 4 69 11 130
15 135 4 6 11 62 15 125 4 63 10 120 15 125 4 6 11 62 15 125 4 63 11 120 15
125 4 6 11 35 14 65 3 30 11 111 18 180 7 69 16 130 19 135 4 6 10 62 14 125
4 63 11 120 15 125 4 6 11 65 15 133 4 67 11 124 15 127 4 3 11 59 15 125 4
66 11 123 16 126 5 3 9 32 9 64 0 32 4 61 9 64 5 3 12 64 16 136 4 72 11 132
15 135 4 3 11 58 15 122 4 65 11 123 15 128 4 6 11 66 15 135 4 69 10 130 13
135 6 9 23 142 38 295 3 30 8 62 11 70 4 8 13 69 20 135 7 66 20 176 28 245 8
69 20 179 27 245 7 66 16 125 19 130 4 6 10 70 14 143 4 72 11 132 16 132 5 0
9 29 9 65 0 36 4 65 9 65 5 0 12 57 16 128 4 70 11 132 15 137 4 6 11 63 15
128 4 64 10 117 14 117 4 0 13 48 19 108 24 232 37 331 45 338 4 4 7 33 7 65
0 32 4 60 9 63 5 3 12 59 16 123 4 65 11 123 15 128 4 6 11 80 15 165 8 175
28 247 33 120 2 -41 7 -77 11 -80z m-2829 -2755 c4 -5 11 -38 15 -73 4 -34 10
-64 15 -67 4 -3 11 -29 15 -60 3 -30 11 -57 16 -60 5 -4 9 -19 9 -35 0 -16 4
-31 9 -34 4 -3 11 -28 15 -55 4 -28 11 -53 16 -56 5 -3 12 -30 15 -60 4 -31
11 -57 15 -60 5 -3 11 -32 15 -65 4 -33 11 -60 15 -60 4 0 11 -22 15 -50 4
-27 11 -52 16 -56 5 -3 9 -18 9 -34 0 -16 4 -31 9 -34 5 -4 12 -24 16 -46 4
-22 10 -42 15 -45 4 -3 11 -32 15 -65 4 -33 11 -60 15 -60 4 0 11 -25 15 -55
3 -30 10 -57 15 -60 5 -3 12 -30 15 -60 4 -30 11 -55 16 -55 5 0 9 -13 9 -29
0 -17 4 -33 10 -36 5 -3 12 -28 16 -56 4 -27 10 -52 15 -55 5 -2 11 -27 15
-55 4 -27 10 -52 15 -54 4 -3 11 -27 15 -53 4 -26 10 -49 14 -52 11 -8 23 -53
13 -49 -12 6 -190 198 -238 258 -22 28 -52 64 -67 80 -16 16 -28 32 -28 36 0
8 -43 69 -52 73 -5 2 -8 9 -8 17 0 7 -7 18 -15 25 -13 10 -15 9 -15 -9 0 -25
-25 -109 -46 -158 -8 -17 -14 -38 -14 -46 0 -9 -4 -18 -9 -21 -5 -3 -12 -26
-15 -51 -4 -25 -11 -45 -17 -45 -5 0 -9 -11 -9 -24 0 -14 -4 -27 -9 -30 -5 -4
-12 -24 -16 -46 -4 -22 -10 -42 -15 -45 -5 -3 -11 -23 -15 -45 -4 -22 -10 -42
-15 -45 -4 -3 -11 -22 -15 -42 -4 -21 -10 -42 -14 -48 -4 -5 -15 -37 -25 -70
-10 -33 -21 -67 -26 -75 -4 -9 -11 -31 -15 -50 -4 -19 -11 -39 -15 -45 -4 -5
-11 -25 -15 -42 -3 -18 -10 -33 -15 -33 -4 0 -11 -20 -14 -45 -4 -24 -11 -47
-16 -50 -5 -3 -12 -26 -16 -50 -3 -25 -10 -48 -15 -51 -5 -3 -9 -16 -9 -29 0
-13 -4 -26 -9 -29 -5 -4 -12 -24 -16 -46 -4 -22 -11 -42 -15 -45 -5 -3 -12
-26 -16 -50 -3 -25 -10 -47 -14 -50 -5 -3 -11 -29 -15 -58 -4 -28 -12 -55 -18
-59 -17 -10 -16 -273 1 -289 6 -7 12 -20 12 -28 0 -21 60 -141 84 -170 55 -64
201 -201 214 -201 5 0 17 -9 27 -20 10 -11 23 -20 28 -20 5 0 20 -10 31 -22
12 -13 29 -27 38 -33 9 -5 41 -28 72 -50 32 -22 65 -44 74 -50 10 -5 33 -21
52 -35 45 -32 71 -48 93 -56 9 -3 17 -10 17 -15 0 -5 10 -14 23 -19 23 -10 59
-31 67 -40 3 -3 16 -13 30 -22 14 -10 51 -35 84 -58 32 -22 60 -40 63 -40 3 0
22 -12 42 -27 20 -16 52 -37 71 -47 19 -11 37 -22 40 -25 8 -9 42 -30 68 -41
12 -5 22 -14 22 -19 0 -5 8 -11 18 -15 21 -7 45 -22 93 -58 20 -16 40 -28 44
-28 4 0 24 -13 45 -30 21 -16 41 -30 45 -30 4 0 21 -11 39 -25 50 -40 81 -61
114 -75 12 -5 22 -14 22 -19 0 -5 8 -11 18 -15 21 -7 45 -22 93 -58 20 -16 40
-28 44 -28 4 0 24 -13 45 -30 21 -16 41 -30 45 -30 7 0 57 -37 86 -65 9 -8 20
-15 26 -15 5 0 20 -11 33 -25 13 -14 29 -25 35 -25 7 0 21 -11 31 -25 10 -14
24 -25 29 -25 10 0 197 -189 220 -222 21 -30 35 -54 50 -83 8 -16 19 -37 24
-45 21 -35 81 -167 87 -192 3 -16 10 -28 14 -28 5 0 11 -14 15 -31 4 -17 13
-42 21 -57 8 -15 14 -33 14 -40 0 -7 5 -21 10 -32 6 -11 14 -28 19 -39 5 -10
13 -35 16 -55 4 -20 11 -39 16 -42 5 -3 9 -12 9 -21 0 -8 6 -29 14 -46 16 -37
41 -117 51 -167 4 -19 11 -42 16 -52 5 -10 13 -26 18 -37 5 -10 13 -35 16 -55
4 -20 11 -39 16 -41 4 -3 11 -26 15 -50 3 -25 10 -45 14 -45 4 0 11 -20 14
-45 4 -24 11 -47 17 -50 5 -4 9 -16 9 -28 0 -12 7 -35 15 -51 8 -15 15 -37 15
-47 0 -10 4 -20 9 -23 5 -3 12 -26 15 -51 4 -24 11 -47 16 -50 4 -3 11 -23 15
-45 4 -22 10 -42 15 -45 5 -3 11 -24 15 -48 4 -23 11 -46 15 -52 4 -5 11 -26
14 -45 7 -33 18 -65 37 -102 5 -9 12 -35 15 -58 4 -22 10 -40 14 -40 5 0 11
-19 15 -42 4 -24 11 -45 15 -48 11 -8 23 -83 12 -76 -5 3 -26 39 -47 81 -20
41 -41 75 -46 75 -5 0 -9 6 -9 14 0 7 -9 25 -20 39 -11 14 -17 32 -14 41 3 8
-1 28 -10 43 -8 15 -27 55 -42 88 -53 121 -173 356 -187 366 -4 3 -17 23 -29
45 -11 21 -23 41 -27 44 -9 7 -29 41 -44 75 -8 17 -21 36 -30 43 -9 7 -19 27
-22 43 -4 16 -10 29 -15 29 -5 0 -19 20 -31 45 -12 25 -26 45 -31 45 -4 0 -8
5 -8 10 0 13 -30 56 -82 121 -21 26 -38 52 -38 57 0 14 -269 282 -282 282 -6
0 -31 18 -56 41 -26 23 -56 45 -67 50 -26 11 -54 30 -77 50 -10 9 -31 22 -46
30 -15 8 -29 16 -32 19 -15 17 -98 71 -140 92 -14 6 -44 27 -67 45 -23 18 -44
33 -48 33 -8 0 -69 43 -73 53 -2 4 -8 7 -14 7 -6 0 -37 18 -70 40 -33 22 -62
40 -65 40 -3 0 -22 13 -42 28 -20 16 -43 32 -51 36 -19 9 -72 41 -136 83 -27
18 -54 33 -61 33 -6 0 -13 3 -15 8 -4 9 -65 52 -73 52 -4 0 -25 15 -48 33 -49
38 -71 52 -112 72 -42 21 -67 37 -85 55 -19 18 -47 37 -77 50 -13 5 -23 14
-23 19 0 5 -8 11 -17 15 -22 7 -46 22 -94 59 -20 15 -40 27 -44 27 -4 0 -24
14 -45 30 -21 17 -41 30 -45 30 -4 0 -20 10 -35 23 -15 12 -37 29 -50 37 -12
8 -33 23 -45 33 -13 9 -28 17 -33 17 -6 0 -12 3 -14 8 -4 10 -84 72 -93 72 -4
0 -31 20 -59 45 -29 25 -57 45 -61 45 -7 0 -51 37 -127 106 -15 13 -30 24 -34
24 -26 0 -374 350 -374 376 0 4 -7 14 -14 23 -8 9 -34 37 -57 64 l-42 47 -139
0 c-90 0 -137 -4 -133 -10 3 -5 16 -11 28 -11 18 -1 19 -2 4 -6 -23 -6 -18
-18 30 -83 141 -190 484 -516 530 -504 11 3 26 -3 37 -15 14 -15 15 -21 5 -21
-10 0 -9 -5 4 -17 15 -15 19 -16 26 -4 6 9 11 10 15 2 4 -6 2 -11 -5 -11 -17
0 21 -40 46 -50 11 -4 23 -3 26 2 9 14 112 -17 130 -38 7 -9 23 -20 36 -25 13
-5 23 -15 23 -24 0 -8 7 -15 15 -15 8 0 15 -4 15 -10 0 -5 6 -10 13 -10 8 0
22 -9 33 -21 12 -13 25 -18 40 -15 20 5 24 1 32 -41 8 -35 7 -50 -1 -55 -7 -5
-8 -8 -1 -8 5 0 15 5 20 10 10 10 54 -21 54 -38 0 -4 12 -8 28 -7 22 0 27 -4
27 -25 0 -41 11 -47 91 -53 48 -3 82 -11 93 -21 10 -9 27 -16 38 -16 22 0 33
-18 33 -54 0 -19 8 -24 60 -34 40 -9 60 -18 60 -27 0 -8 5 -15 10 -15 6 0 10
-6 10 -13 0 -18 107 -64 169 -72 52 -7 81 -22 81 -43 0 -5 22 -12 50 -16 42
-6 51 -11 56 -31 6 -26 44 -36 44 -13 0 9 3 9 12 0 7 -7 20 -12 30 -12 9 0 22
-9 28 -21 7 -11 14 -18 17 -15 4 3 21 -6 40 -20 18 -14 33 -23 33 -20 0 14
-14 36 -23 36 -13 0 -150 90 -155 102 -2 4 -9 8 -15 8 -15 0 -180 111 -173
117 2 3 33 -12 68 -33 54 -32 84 -53 134 -93 6 -5 20 -12 32 -15 12 -4 22 -11
22 -16 0 -4 12 -11 27 -15 15 -3 30 -10 33 -13 7 -9 99 -72 106 -72 3 0 18
-10 35 -22 27 -20 28 -23 12 -30 -13 -6 -12 -7 6 -4 17 4 45 -7 85 -31 34 -20
63 -39 66 -42 9 -10 44 -31 63 -37 9 -4 17 -9 17 -13 0 -3 20 -17 45 -31 25
-14 45 -28 45 -32 0 -5 4 -8 9 -8 5 0 38 -19 73 -42 35 -24 79 -51 98 -62 19
-10 37 -21 40 -25 3 -3 28 -22 55 -41 28 -19 52 -38 53 -42 2 -4 8 -8 14 -8 6
0 28 -15 49 -32 64 -55 191 -178 183 -178 -4 0 -14 7 -23 15 -59 54 -102 87
-108 82 -3 -4 -1 -12 4 -19 6 -7 14 -44 18 -81 4 -46 12 -70 21 -74 9 -3 13
-12 10 -20 -4 -8 4 -17 20 -23 14 -6 28 -18 31 -28 2 -9 17 -25 34 -34 24 -14
29 -24 29 -53 0 -20 4 -34 9 -30 6 3 15 -5 22 -17 22 -43 108 -130 120 -122 5
3 18 -15 28 -40 11 -24 31 -52 44 -61 13 -8 32 -31 43 -50 10 -19 22 -35 25
-35 4 0 18 -17 30 -37 13 -21 31 -45 41 -53 9 -8 39 -44 67 -80 77 -100 73
-96 83 -74 6 13 7 11 3 -10 -5 -21 0 -35 16 -52 12 -13 26 -21 32 -17 5 3 6
-3 2 -16 -5 -16 -3 -20 8 -15 11 4 17 -3 22 -23 3 -15 19 -50 35 -78 49 -83
69 -125 60 -125 -5 0 -12 10 -16 22 -4 12 -17 31 -30 41 -13 10 -24 23 -24 29
0 5 -13 27 -30 48 -16 21 -30 41 -30 45 0 6 -33 51 -108 148 -18 23 -40 52
-50 65 -9 13 -34 43 -54 66 -21 24 -38 46 -38 50 0 3 -18 24 -40 46 -22 22
-40 44 -40 48 0 4 -25 32 -55 62 -30 30 -55 59 -55 64 0 12 -292 306 -304 306
-5 0 -32 21 -60 46 -93 85 -104 94 -113 94 -5 0 -20 11 -33 25 -13 14 -29 25
-36 25 -7 0 -17 6 -21 13 -4 6 -15 17 -24 22 -21 13 -290 192 -305 202 -22 17
-50 33 -71 43 -13 5 -23 14 -23 19 0 5 -8 11 -17 15 -22 7 -46 22 -94 59 -20
15 -40 27 -44 27 -8 0 -79 53 -83 63 -2 4 -8 7 -13 7 -5 0 -38 20 -75 45 -36
25 -67 45 -69 45 -3 0 -40 24 -82 53 -43 28 -86 57 -95 62 -9 6 -41 27 -72 48
-30 20 -59 37 -65 37 -6 0 -11 5 -11 10 0 6 -10 15 -22 20 -31 13 -58 31 -113
72 -55 42 -123 88 -130 88 -4 0 -29 18 -55 40 -26 22 -51 40 -54 40 -9 0 -70
43 -74 53 -2 4 -9 7 -16 7 -7 0 -21 9 -31 20 -10 11 -24 20 -31 20 -7 0 -14 3
-16 8 -4 9 -74 62 -83 62 -5 0 -35 22 -137 100 -14 11 -31 20 -37 20 -6 0 -11
4 -11 8 0 5 -26 26 -57 48 -32 21 -67 47 -78 56 -84 72 -103 88 -109 88 -4 0
-23 15 -43 33 -58 53 -257 237 -264 245 -4 4 -41 43 -83 88 -42 44 -76 85 -76
90 0 5 -9 15 -20 22 -12 7 -25 23 -31 35 -5 12 -21 38 -35 57 -24 32 -26 42
-21 107 2 40 9 78 14 85 6 7 14 29 18 48 4 19 11 42 16 52 5 10 13 27 19 38 5
10 13 37 16 60 4 22 10 40 15 40 5 0 9 10 9 23 1 12 9 40 20 62 11 22 19 50
20 63 0 12 5 22 10 22 6 0 10 9 10 21 0 11 6 33 14 47 25 48 46 100 46 115 0
9 4 18 9 21 5 3 12 22 15 41 4 19 11 35 16 35 6 0 10 10 10 23 0 12 6 31 14
42 7 11 17 35 21 54 4 19 16 50 26 68 11 19 19 38 19 44 0 12 22 66 46 112 8
16 14 34 14 40 1 7 9 30 20 52 11 22 19 44 20 49 0 8 37 93 60 136 4 9 11 30
15 48 3 18 11 32 16 32 5 0 9 10 9 23 0 12 6 31 14 42 7 11 17 31 21 45 12 41
29 80 37 80 3 0 10 14 13 32 4 17 18 51 31 76 13 25 24 50 24 56 1 6 9 29 20
51 11 22 19 48 20 58 0 9 3 17 8 17 7 0 25 37 37 80 4 14 14 34 21 45 8 11 14
30 14 42 0 13 4 23 9 23 5 0 12 14 16 30 4 17 11 30 16 30 5 0 9 9 9 21 0 11
6 33 14 47 23 43 46 99 46 111 0 6 5 11 10 11 6 0 10 9 10 20 0 11 9 37 20 57
11 21 20 45 20 53 0 8 7 24 15 34 8 11 15 30 15 42 0 12 3 24 8 26 11 5 42 64
42 81 0 8 11 34 24 59 13 25 27 59 31 76 3 18 10 32 15 32 4 0 11 12 14 28 6
23 30 79 67 154 5 10 9 23 9 30 1 7 9 31 20 53 11 22 19 44 20 49 0 9 42 104
59 136 5 9 12 31 16 50 4 19 12 41 19 49 9 12 12 11 15 -5 2 -10 7 -23 11 -29z
m5640 -2 c0 -13 6 -37 14 -51 29 -56 66 -138 66 -146 0 -4 6 -22 14 -39 7 -18
24 -60 36 -95 13 -34 27 -65 31 -68 5 -3 9 -16 9 -30 0 -13 4 -24 9 -24 5 0
12 -13 16 -30 4 -16 11 -30 16 -30 5 0 9 -10 9 -23 0 -13 7 -32 15 -43 8 -10
15 -25 15 -32 0 -13 20 -59 81 -188 16 -33 29 -65 29 -70 0 -5 13 -34 29 -65
15 -31 31 -69 35 -84 4 -16 16 -41 26 -55 10 -14 22 -39 26 -56 4 -16 10 -34
15 -39 4 -6 17 -35 29 -65 22 -59 40 -98 77 -172 12 -27 23 -57 23 -68 0 -11
5 -20 10 -20 6 0 10 -5 10 -11 0 -11 15 -47 51 -125 10 -23 19 -45 19 -51 0
-14 24 -63 32 -63 3 0 10 -15 13 -32 4 -18 11 -37 15 -43 4 -5 11 -21 15 -35
4 -14 22 -54 38 -90 17 -36 31 -69 32 -75 0 -5 11 -32 23 -60 48 -103 52 -113
52 -129 0 -9 4 -16 9 -16 5 0 13 -14 16 -32 4 -17 18 -51 31 -74 13 -24 24
-52 24 -63 0 -12 4 -21 9 -21 5 0 13 -14 16 -32 4 -17 18 -51 31 -76 13 -25
24 -49 24 -54 0 -11 23 -67 46 -111 8 -16 14 -35 14 -42 0 -7 6 -26 14 -42 23
-45 46 -100 46 -111 0 -5 7 -23 15 -38 8 -16 15 -37 15 -46 0 -10 3 -18 8 -18
9 0 30 -46 38 -88 4 -18 11 -35 15 -38 5 -3 9 -13 9 -22 0 -9 6 -29 14 -44 8
-15 17 -42 21 -60 4 -18 11 -38 16 -44 5 -6 12 -46 15 -88 6 -61 4 -80 -8 -94
-9 -9 -17 -22 -19 -29 -12 -36 -410 -463 -432 -463 -5 0 -46 -34 -90 -76 -45
-42 -93 -83 -107 -92 -23 -15 -76 -58 -126 -103 -12 -10 -26 -19 -31 -19 -5 0
-20 -11 -33 -25 -13 -14 -28 -25 -33 -25 -5 0 -31 -18 -57 -40 -26 -22 -52
-40 -58 -40 -5 0 -15 -6 -21 -14 -11 -13 -127 -96 -169 -121 -28 -17 -77 -49
-82 -55 -3 -3 -12 -9 -21 -15 -9 -5 -63 -41 -119 -80 -57 -38 -110 -74 -119
-80 -9 -5 -32 -21 -51 -35 -19 -14 -52 -34 -72 -45 -21 -11 -38 -22 -38 -25 0
-3 -17 -14 -37 -25 -21 -11 -40 -22 -43 -25 -12 -12 -70 -50 -76 -50 -4 0 -26
-16 -50 -35 -23 -19 -45 -35 -49 -35 -5 0 -64 -39 -75 -50 -3 -3 -21 -14 -40
-24 -19 -11 -51 -32 -71 -48 -20 -15 -42 -28 -48 -28 -6 0 -11 -4 -11 -9 0 -5
-8 -11 -17 -15 -22 -7 -46 -22 -94 -58 -20 -16 -40 -28 -44 -28 -4 0 -24 -13
-44 -28 -20 -16 -43 -32 -51 -35 -15 -7 -46 -26 -64 -40 -24 -18 -148 -97
-153 -97 -3 0 -22 -13 -43 -30 -21 -16 -41 -30 -45 -30 -7 0 -57 -37 -86 -65
-9 -8 -20 -15 -26 -15 -5 0 -20 -11 -33 -25 -13 -14 -28 -25 -34 -25 -6 0 -27
-18 -46 -40 -19 -22 -39 -40 -44 -40 -19 0 -287 -270 -442 -445 -81 -92 -224
-270 -224 -280 0 -3 -18 -28 -40 -54 -22 -26 -40 -50 -40 -54 0 -4 -20 -34
-45 -68 -25 -34 -45 -66 -45 -71 0 -6 -8 -18 -18 -27 -10 -9 -22 -23 -26 -31
-14 -31 -32 -56 -53 -79 -12 -13 -29 -39 -38 -57 -8 -18 -20 -36 -26 -39 -5
-4 -23 -35 -40 -71 -30 -63 -49 -87 -49 -62 0 7 7 26 16 43 8 16 18 48 21 72
3 24 9 43 13 43 4 0 11 20 14 45 4 24 11 47 17 50 5 4 9 17 9 30 0 13 4 26 9
30 6 3 13 26 17 50 3 25 10 45 14 45 4 0 11 20 14 45 4 24 11 47 16 50 4 3 11
23 15 45 4 22 10 42 15 45 4 3 11 21 15 41 3 20 10 44 15 53 5 9 16 43 25 76
9 33 20 67 24 75 5 9 12 31 16 50 4 19 11 40 15 45 4 6 11 29 15 53 4 23 10
42 15 42 4 0 10 18 14 40 3 23 11 50 16 60 6 11 14 28 19 39 5 10 13 35 16 55
4 20 11 39 16 41 4 3 11 26 15 50 3 25 10 45 14 45 4 0 11 20 14 45 4 25 11
45 16 45 5 0 12 14 15 32 7 31 11 40 35 88 6 11 10 25 10 32 0 7 6 25 14 39 7
14 16 38 20 54 4 16 20 57 37 91 16 35 29 67 29 71 0 7 110 229 133 268 7 11
22 29 35 40 12 11 22 25 22 30 0 14 102 115 117 115 6 0 16 6 20 13 4 6 35 32
68 56 33 25 65 50 70 56 6 6 17 14 25 18 22 10 50 28 91 60 20 15 40 27 44 27
4 0 24 14 45 30 21 17 41 30 45 30 6 0 40 25 85 63 15 13 46 32 70 43 8 4 17
10 20 13 9 11 69 51 75 51 4 0 26 16 49 35 24 19 46 35 50 35 4 0 19 8 34 18
15 11 47 32 72 48 25 16 47 31 50 34 9 9 44 30 68 40 12 5 22 14 22 19 0 5 8
12 18 15 21 8 47 24 92 56 45 32 71 48 93 56 9 3 17 10 17 15 0 5 10 14 23 19
24 11 59 32 67 40 3 3 21 17 40 30 32 23 44 30 103 63 13 6 43 28 67 47 48 39
76 56 102 66 9 3 19 12 22 20 3 8 10 14 17 14 10 0 38 20 89 63 8 6 22 17 30
22 74 45 158 112 267 210 61 55 133 155 133 186 0 10 4 19 10 19 5 0 12 17 15
38 4 20 11 47 17 58 15 31 -8 221 -31 264 -5 9 -12 35 -16 58 -4 23 -11 44
-15 47 -5 3 -12 26 -16 50 -3 25 -10 45 -14 45 -4 0 -10 18 -14 40 -3 23 -10
49 -15 58 -12 21 -24 54 -26 67 -4 27 -17 72 -25 86 -5 9 -12 33 -15 53 -4 20
-11 38 -15 41 -5 3 -11 23 -15 45 -4 22 -10 42 -15 45 -5 3 -11 23 -15 45 -4
22 -11 42 -16 46 -5 3 -9 16 -9 30 0 13 -4 24 -9 24 -5 0 -12 20 -15 45 -4 24
-11 47 -16 50 -4 3 -11 23 -15 45 -4 22 -10 42 -15 45 -5 3 -11 23 -15 45 -4
22 -10 42 -15 45 -4 3 -11 21 -15 41 -3 20 -10 44 -15 53 -4 9 -16 43 -26 76
-10 33 -22 65 -26 70 -4 6 -10 30 -14 53 -4 23 -11 45 -15 48 -5 3 -9 13 -9
22 0 9 -7 30 -15 46 -8 15 -15 41 -15 57 0 20 -4 27 -14 23 -8 -3 -17 -13 -20
-22 -7 -21 -24 -46 -54 -81 -12 -14 -42 -51 -67 -81 -80 -100 -93 -115 -134
-161 -23 -25 -41 -51 -41 -56 0 -14 -47 -56 -59 -52 -7 3 -6 13 3 30 7 14 17
48 21 75 4 27 10 54 15 59 4 6 10 25 13 43 9 50 13 61 20 68 4 4 7 20 7 35 0
15 4 31 10 34 5 3 12 28 16 55 4 28 10 50 14 50 5 0 11 22 15 50 4 27 11 52
15 55 4 3 11 32 15 65 4 33 11 60 15 60 4 0 11 27 15 60 4 33 11 63 16 66 5 3
9 18 9 34 0 16 4 31 9 35 6 3 13 27 16 53 3 26 10 55 15 64 5 9 13 36 16 60 4
24 10 48 14 53 4 6 11 34 15 62 4 29 10 55 15 58 4 3 11 29 15 60 3 30 11 57
16 60 5 4 9 19 9 35 0 16 4 31 9 34 5 3 12 33 16 66 4 33 11 60 15 60 4 0 11
27 15 60 4 33 11 63 16 66 5 3 9 15 9 28 0 12 3 26 6 29 12 12 24 -4 24 -30z"/>
<path d="M16551 16298 c14 -53 62 -179 148 -393 44 -110 101 -254 126 -320 25
-66 50 -129 55 -140 25 -57 100 -256 100 -268 0 -8 3 -17 6 -20 6 -6 37 -88
84 -227 12 -36 26 -74 30 -85 5 -11 11 -27 14 -35 4 -8 4 4 1 28 -3 24 -9 51
-14 60 -5 9 -17 44 -27 77 -9 33 -21 64 -26 70 -4 5 -8 16 -8 25 0 8 -6 26
-13 40 -7 14 -24 59 -37 100 -13 41 -27 80 -31 85 -4 6 -10 25 -14 43 -3 17
-11 32 -16 32 -5 0 -9 9 -9 20 0 11 -4 28 -9 38 -19 37 -51 128 -51 145 0 9
-4 17 -10 17 -5 0 -10 8 -10 18 0 9 -7 30 -15 46 -8 15 -15 33 -15 38 0 6 -7
25 -15 44 -8 19 -22 49 -30 68 -8 19 -15 41 -15 50 0 9 -4 16 -10 16 -5 0 -10
8 -10 18 0 9 -7 30 -15 46 -8 15 -15 33 -15 40 -1 6 -9 29 -20 51 -11 22 -19
48 -20 58 0 9 -3 17 -7 17 -9 0 -33 48 -33 64 0 6 -6 23 -14 38 -8 15 -17 40
-21 57 -4 17 -11 31 -16 31 -5 0 -9 9 -9 20 0 11 -4 20 -9 20 -6 0 -6 -13 0
-32z"/>
<path d="M17231 15147 c-1 -402 2 -596 9 -592 13 8 12 1140 0 1170 -5 11 -9
-244 -9 -578z"/>
<path d="M21156 16550 c-20 -20 -36 -42 -36 -48 0 -6 -6 -15 -13 -19 -8 -4
-22 -21 -33 -38 -10 -16 -29 -38 -41 -48 -13 -10 -43 -45 -69 -78 -25 -32 -51
-59 -57 -59 -7 0 -48 -36 -91 -80 -44 -44 -82 -80 -86 -80 -4 0 -23 -15 -43
-32 -20 -18 -57 -49 -83 -68 -26 -19 -54 -42 -64 -50 -30 -27 -79 -60 -89 -60
-5 0 -16 -8 -23 -18 -7 -9 -39 -35 -70 -56 -32 -22 -58 -43 -58 -46 0 -4 -8
-10 -17 -14 -10 -3 -31 -15 -48 -26 -16 -11 -37 -23 -45 -27 -8 -3 -19 -12
-23 -20 -4 -7 -12 -13 -17 -13 -6 0 -41 -22 -80 -50 -39 -27 -73 -50 -76 -50
-3 0 -23 -13 -44 -30 -21 -16 -43 -30 -48 -30 -6 0 -15 -6 -19 -12 -8 -14 -24
-24 -88 -59 -22 -11 -42 -24 -45 -28 -7 -9 -41 -29 -67 -41 -13 -5 -23 -14
-23 -19 0 -5 -8 -11 -17 -15 -20 -6 -41 -19 -90 -53 -17 -13 -35 -23 -38 -23
-4 0 -24 -12 -44 -27 -41 -32 -69 -50 -91 -60 -8 -4 -17 -9 -20 -12 -12 -14
-70 -51 -80 -51 -5 0 -10 -4 -10 -9 0 -5 -8 -12 -17 -15 -20 -7 -29 -13 -133
-81 -96 -63 -110 -72 -137 -84 -13 -6 -23 -14 -23 -18 0 -5 -18 -17 -40 -27
-22 -11 -40 -22 -40 -26 0 -4 -8 -11 -17 -14 -22 -8 -48 -24 -93 -56 -45 -32
-71 -48 -92 -56 -10 -3 -18 -10 -18 -15 0 -5 -10 -14 -22 -19 -21 -9 -41 -21
-72 -42 -6 -4 -27 -21 -47 -38 -20 -16 -40 -30 -44 -30 -4 0 -18 -11 -31 -25
-13 -14 -26 -25 -30 -25 -30 0 -324 -298 -324 -328 0 -5 -7 -12 -15 -16 -8 -3
-15 -10 -15 -17 0 -6 -11 -25 -25 -43 -14 -17 -29 -36 -34 -42 -5 -6 -12 -21
-16 -35 -4 -13 -11 -26 -14 -29 -7 -5 -81 -124 -94 -150 -5 -8 -19 -33 -33
-55 -13 -22 -27 -48 -30 -57 -4 -10 -10 -18 -15 -18 -5 0 -9 -6 -9 -12 0 -7
-7 -26 -16 -43 -47 -87 -74 -141 -74 -152 0 -7 -4 -13 -9 -13 -5 0 -12 -13
-16 -30 -4 -16 -10 -30 -15 -30 -4 0 -11 -12 -15 -27 -3 -15 -15 -39 -26 -54
-10 -15 -19 -31 -19 -36 -1 -4 -9 -26 -20 -48 -11 -22 -19 -44 -20 -48 -1 -35
103 158 115 211 3 17 10 32 15 32 4 0 10 8 14 18 3 9 21 44 39 77 18 33 49 89
69 125 51 93 118 197 118 183 0 -7 5 -13 11 -13 12 0 89 77 89 90 0 16 49 39
89 42 23 2 41 8 42 13 1 6 2 21 2 35 2 19 9 26 36 31 18 4 36 11 40 17 3 5 11
11 18 13 6 2 54 45 105 94 52 50 120 108 150 130 31 22 62 50 69 63 7 12 20
22 29 22 24 0 56 36 38 43 -10 4 -9 9 5 17 9 6 17 17 17 24 0 6 18 20 40 30
58 25 83 55 76 89 -4 20 -2 27 10 27 8 0 17 -7 20 -15 4 -8 15 -15 26 -15 14
0 18 5 14 15 -3 8 -2 14 2 14 21 -3 36 2 26 9 -15 10 -28 52 -16 52 6 0 8 9 5
20 -4 15 0 20 16 20 14 0 21 6 21 18 0 19 18 42 32 42 4 0 8 -13 8 -30 0 -20
5 -30 15 -30 9 0 15 10 15 26 0 14 4 23 10 19 16 -10 12 15 -5 31 -15 16 -55
11 -55 -7 0 -5 -6 -9 -14 -9 -7 0 -25 -9 -40 -21 -14 -11 -32 -19 -38 -17 -13
5 150 118 169 118 6 0 13 3 15 8 2 4 36 29 76 55 53 36 78 47 95 42 16 -4 18
-4 8 3 -10 7 27 37 150 118 90 60 166 112 167 116 2 4 10 8 17 8 7 0 40 20 74
45 34 25 66 45 71 45 6 0 10 4 10 8 0 5 20 19 45 31 25 12 45 26 45 31 0 4 8
10 18 14 9 3 29 14 43 23 15 10 55 36 90 57 35 22 66 42 69 45 3 3 13 11 22
16 9 6 62 42 118 80 55 39 109 75 118 80 37 22 142 99 142 105 0 3 16 14 35
24 19 11 35 23 35 28 0 4 4 8 10 8 13 0 94 61 162 123 17 15 34 27 39 27 4 0
26 18 49 40 23 22 45 40 48 40 10 0 262 254 262 263 0 4 10 18 23 30 26 26 87
103 87 111 0 20 44 46 77 46 42 0 37 12 -6 15 -21 1 -38 -8 -65 -35z"/>
<path d="M14393 17155 c3 -11 8 -33 12 -49 8 -38 71 -120 137 -181 80 -72 156
-135 163 -135 13 0 31 -26 27 -38 -2 -7 2 -10 12 -6 15 6 126 -64 306 -193
123 -88 310 -213 320 -213 6 0 10 -4 10 -9 0 -5 9 -13 20 -16 11 -4 31 -16 43
-28 13 -12 34 -29 46 -37 13 -8 34 -23 46 -32 13 -10 28 -18 33 -18 6 0 12 -3
14 -7 2 -5 48 -42 103 -83 90 -68 123 -92 173 -125 8 -5 27 -20 41 -33 69 -59
100 -82 110 -82 6 0 11 -4 11 -9 0 -5 17 -20 38 -32 20 -13 41 -29 45 -36 4
-7 13 -13 19 -13 11 0 -17 26 -108 102 -71 59 -97 78 -105 78 -4 0 -20 12 -36
28 -29 27 -56 48 -126 99 -21 16 -62 47 -92 71 -29 23 -56 42 -59 42 -3 0 -26
15 -50 33 -25 17 -61 43 -81 57 -20 14 -42 30 -48 35 -32 26 -77 55 -86 55 -5
0 -11 3 -13 8 -1 4 -28 24 -58 44 -30 20 -86 60 -125 87 -128 92 -156 111
-166 111 -5 0 -9 4 -9 8 0 5 -10 14 -22 20 -13 7 -50 32 -83 57 -33 25 -67 48
-75 52 -8 3 -43 30 -77 60 -33 29 -65 53 -70 53 -18 0 -143 139 -193 215 -28
44 -50 71 -47 60z"/>
<path d="M19860 16855 c-13 -14 -29 -25 -36 -25 -7 0 -17 -6 -21 -13 -8 -13
-41 -39 -84 -67 -12 -8 -33 -25 -46 -37 -13 -13 -28 -23 -33 -23 -5 0 -15 -6
-22 -12 -25 -23 -77 -58 -87 -58 -5 0 -11 -3 -13 -7 -4 -10 -85 -73 -93 -73
-4 0 -24 -13 -45 -30 -21 -16 -41 -30 -45 -30 -3 0 -27 -17 -53 -38 -49 -39
-77 -58 -102 -69 -8 -3 -24 -16 -36 -27 -24 -24 -50 -42 -81 -56 -13 -5 -23
-14 -23 -20 0 -5 -4 -10 -10 -10 -12 0 -100 -62 -100 -71 0 -4 -8 -9 -17 -13
-24 -8 -122 -73 -143 -96 -3 -3 -27 -21 -55 -40 -27 -19 -60 -45 -71 -57 -12
-13 -26 -23 -31 -23 -5 0 -24 -16 -43 -35 -19 -19 -38 -35 -43 -35 -8 0 -77
-69 -77 -77 0 -5 79 55 95 72 6 6 44 38 85 71 41 32 77 61 80 64 14 14 70 50
79 50 5 0 11 3 13 8 4 10 84 72 93 72 8 0 89 63 93 73 2 4 8 7 14 7 5 0 20 8
33 18 12 9 33 24 45 32 24 16 88 64 107 80 7 5 15 10 18 10 10 0 272 185 290
205 6 6 28 22 50 35 46 27 68 43 147 105 32 25 62 45 67 45 6 0 14 6 18 13 4
6 34 32 66 56 31 24 57 45 57 47 0 11 -19 1 -40 -21z"/>
<path d="M780 17025 c-366 -13 -691 -24 -722 -24 -45 -1 -58 -4 -58 -16 0 -13
224 -15 1958 -14 l1957 2 -980 32 c-1403 47 -1395 47 -2155 20z"/>
<path d="M5545 17010 l-1110 -37 2345 0 2345 0 -1130 38 c-621 21 -1177 37
-1235 37 -58 0 -604 -17 -1215 -38z"/>
<path d="M26385 17010 l-1110 -37 2345 0 2345 0 -1130 38 c-621 21 -1177 37
-1235 37 -58 0 -604 -18 -1215 -38z"/>
<path d="M31595 17010 l-1110 -37 2078 -2 c1379 -1 2077 2 2077 9 0 6 -1 10
-2 10 -17 4 -1786 59 -1848 58 -47 0 -584 -17 -1195 -38z"/>
<path d="M22534 17032 c-7 -4 -12 -19 -12 -34 l1 -28 1121 1 1121 2 -980 33
c-1024 34 -1233 39 -1251 26z"/>
<path d="M26555 16925 c-1520 -52 -1533 -52 -2610 -16 -511 17 -1041 34 -1177
37 l-248 7 0 -35 0 -35 167 -6 c91 -4 1229 -8 2527 -8 l2361 -2 -1270 -42
-1270 -42 1290 -4 1290 -4 -1265 -40 -1265 -40 1273 -3 c701 -1 1844 -1 2540
0 l1267 3 -1255 40 -1255 40 1275 5 1275 5 -1255 41 -1255 41 2545 0 2545 0
-1010 -33 c-555 -18 -1127 -37 -1270 -42 -201 -7 31 -9 1030 -12 l1290 -3
-1270 -42 -1270 -42 2178 -2 c1929 -1 2177 1 2177 14 0 12 -15 15 -72 16 -40
0 -440 13 -888 28 l-815 28 888 2 c781 1 887 3 887 16 0 11 -13 15 -52 16 -29
0 -420 13 -868 28 l-815 28 868 2 c763 1 867 3 867 16 0 8 -8 15 -17 15 -10 1
-403 14 -873 30 l-855 28 -1334 -41 -1334 -41 -1201 38 c-660 20 -1266 39
-1346 41 -80 2 -586 -11 -1125 -30z"/>
<path d="M22530 16837 c0 -14 3 -32 6 -41 6 -14 123 -16 1233 -15 l1226 2
-980 32 c-539 18 -1094 36 -1232 40 l-253 8 0 -26z"/>
<path d="M22540 16731 l0 -41 1208 1 1207 2 -975 32 c-536 18 -1080 36 -1207
40 l-233 7 0 -41z"/>
<path d="M650 16656 c-355 -13 -646 -24 -647 -25 -2 0 -3 -8 -3 -16 0 -13 232
-15 2038 -14 l2037 2 -975 33 c-1345 46 -1653 48 -2450 20z"/>
<path d="M5385 16640 l-1110 -37 2505 0 c1378 1 2469 2 2425 4 -579 23 -2315
73 -2485 72 -124 -1 -724 -19 -1335 -39z"/>
<path d="M22540 16640 l0 -40 1188 2 c653 1 1153 3 1112 5 -77 3 -2265 73
-2287 73 -8 0 -13 -15 -13 -40z"/>
<path d="M26340 16645 c-553 -19 -1052 -35 -1110 -37 -58 -2 1020 -4 2395 -5
l2500 0 -975 33 c-1445 49 -1611 50 -2810 9z"/>
<path d="M31435 16640 l-1110 -37 2158 -2 c1911 -1 2157 1 2157 14 0 12 -13
15 -57 15 -32 0 -400 11 -818 25 -418 14 -863 24 -990 24 -126 -1 -729 -19
-1340 -39z"/>
<path d="M670 16565 c-366 -13 -666 -24 -667 -24 -2 -1 -3 -8 -3 -16 0 -13
230 -15 2018 -13 1109 1 1981 3 1937 5 -518 20 -2304 73 -2440 72 -99 -1 -479
-12 -845 -24z"/>
<path d="M5540 16554 c-553 -18 -1052 -34 -1110 -36 -58 -2 1002 -4 2355 -5
l2460 0 -1135 38 c-624 20 -1232 37 -1350 37 -118 0 -667 -15 -1220 -34z"/>
<path d="M22540 16551 l0 -41 1168 2 c642 1 1136 3 1097 5 -38 2 -502 16
-1030 33 -528 16 -1022 32 -1097 36 l-138 6 0 -41z"/>
<path d="M26380 16554 c-553 -18 -1052 -34 -1110 -36 -58 -2 1002 -4 2355 -5
l2460 0 -1135 38 c-624 21 -1232 37 -1350 37 -118 0 -667 -15 -1220 -34z"/>
<path d="M31590 16554 c-553 -18 -1052 -34 -1110 -36 -58 -2 855 -5 2028 -6
1889 -2 2132 0 2132 13 0 12 -15 15 -77 15 -43 0 -420 11 -838 25 -418 14
-843 24 -945 24 -102 -1 -637 -16 -1190 -35z"/>
<path d="M705 16474 c-369 -12 -678 -23 -687 -23 -10 -1 -18 -8 -18 -16 0 -13
228 -15 1998 -14 l1997 2 -1135 38 c-624 20 -1214 37 -1310 37 -96 0 -476 -11
-845 -24z"/>
<path d="M5585 16464 c-550 -18 -1049 -34 -1110 -36 -60 -2 979 -4 2310 -5
l2420 0 -1135 38 c-624 20 -1214 37 -1310 37 -96 0 -625 -15 -1175 -34z"/>
<path d="M22540 16460 l0 -40 1148 2 c631 1 1116 3 1077 5 -38 2 -502 16
-1030 33 -528 16 -1013 32 -1077 35 l-118 6 0 -41z"/>
<path d="M26425 16464 c-550 -18 -1049 -34 -1110 -36 -60 -2 979 -4 2310 -5
l2420 0 -1135 38 c-624 20 -1214 37 -1310 37 -96 0 -625 -15 -1175 -34z"/>
<path d="M31525 16460 l-1110 -37 2113 -2 c1955 -1 2199 2 2090 23 -35 7
-1747 57 -1873 55 -60 -1 -609 -18 -1220 -39z"/>
<path d="M745 16384 c-363 -12 -679 -23 -702 -23 -31 -1 -43 -5 -43 -16 0 -13
226 -15 1978 -14 l1977 2 -1130 38 c-621 21 -1195 37 -1275 37 -80 0 -442 -11
-805 -24z"/>
<path d="M5505 16370 l-1110 -37 2385 0 c1312 1 2351 2 2310 4 -315 13 -2289
73 -2371 72 -57 -1 -603 -19 -1214 -39z"/>
<path d="M22536 16386 c-3 -12 -6 -29 -6 -38 0 -17 60 -18 1133 -17 l1132 2
-980 32 c-1427 47 -1273 45 -1279 21z"/>
<path d="M26345 16370 l-1110 -37 2385 0 2385 0 -1130 38 c-621 21 -1195 37
-1275 37 -80 0 -644 -18 -1255 -38z"/>
<path d="M31555 16370 l-1110 -37 2098 -2 c1921 -1 2262 3 2035 23 -90 8
-1715 57 -1823 55 -49 -1 -589 -19 -1200 -39z"/>
</g>
</svg>
