<?xml version="1.0" standalone="no"?>
<!DOCTYPE svg PUBLIC "-//W3C//DTD SVG 20010904//EN"
 "http://www.w3.org/TR/2001/REC-SVG-20010904/DTD/svg10.dtd">
<svg version="1.0" xmlns="http://www.w3.org/2000/svg"
 width="1024.000000pt" height="1024.000000pt" viewBox="0 0 1024.000000 1024.000000"
 preserveAspectRatio="xMidYMid meet">
<metadata>
Created by potrace 1.16, written by Peter Selinger 2001-2019
</metadata>
<g transform="translate(0.000000,1024.000000) scale(0.100000,-0.100000)"
fill="#000000" stroke="none">
<path d="M0 5120 l0 -5120 5120 0 5120 0 0 5120 0 5120 -5120 0 -5120 0 0
-5120z m5162 3910 c22 -80 95 -349 164 -599 l124 -453 20 -212 c12 -116 29
-290 40 -386 11 -96 24 -218 30 -270 5 -52 45 -430 89 -840 101 -938 141
-1344 217 -2195 20 -225 38 -411 39 -413 4 -5 508 322 630 408 197 140 227
188 233 365 1 61 -1 136 -5 168 l-8 58 -33 -43 c-76 -100 -171 -194 -286 -285
-219 -175 -256 -203 -256 -193 0 5 45 220 101 477 283 1320 349 1628 444 2088
36 171 84 406 109 523 24 117 46 215 49 218 5 5 84 -209 181 -486 75 -218 304
-846 404 -1110 218 -577 354 -927 429 -1109 9 -21 -32 4 -83 51 -24 22 -44 36
-44 31 0 -5 4 -13 9 -18 11 -12 477 -1177 486 -1217 5 -20 2 -29 -12 -36 -90
-49 -1307 -886 -1706 -1174 -526 -380 -822 -647 -1066 -967 -94 -123 -256
-365 -307 -458 -21 -40 -42 -73 -46 -73 -3 0 -34 46 -69 102 -202 332 -397
586 -610 793 -327 318 -692 586 -2173 1590 -153 104 -280 195 -283 202 -5 13
412 1079 474 1211 37 79 38 105 2 50 -19 -29 -100 -101 -106 -94 -1 1 25 74
58 162 33 87 80 211 103 274 24 63 110 291 191 505 81 215 171 455 200 535 29
80 111 303 182 495 72 193 163 444 204 559 70 200 74 208 81 170 4 -21 27
-133 53 -249 25 -115 70 -327 100 -470 85 -407 327 -1535 395 -1840 62 -278
119 -544 135 -625 9 -47 19 -93 21 -102 5 -17 -57 26 -246 170 -103 78 -249
225 -296 296 l-39 60 -7 -85 c-17 -225 -5 -312 53 -383 48 -57 189 -158 514
-367 l290 -187 7 67 c5 36 33 318 63 626 61 623 129 1293 145 1430 5 50 21
200 35 335 13 135 43 423 65 640 22 218 58 571 80 785 36 354 44 407 84 570
52 209 180 689 236 885 21 74 44 155 51 180 9 32 14 39 17 25 2 -11 22 -85 44
-165z"/>
<path d="M5086 8540 c-10 -58 -24 -136 -31 -175 -112 -576 -118 -614 -239
-1515 -116 -856 -249 -1915 -356 -2825 -22 -187 -42 -353 -44 -370 -2 -18 19
-108 56 -230 33 -110 63 -209 66 -220 3 -12 -19 3 -59 42 -115 111 -232 198
-639 478 -436 299 -551 387 -605 464 -52 75 -46 116 68 463 l98 298 79 -99
c67 -83 388 -407 395 -399 6 8 -369 1460 -497 1923 -33 121 -63 230 -65 243
-5 22 -23 31 -23 11 0 -39 -190 -491 -475 -1129 -92 -206 -206 -469 -252 -585
-90 -223 -417 -1079 -451 -1180 -12 -33 -24 -68 -27 -78 -6 -13 -3 -16 8 -11
10 3 13 12 9 22 -3 9 19 -5 49 -33 87 -79 228 -177 979 -680 488 -327 814
-552 955 -659 429 -324 724 -614 954 -939 35 -49 64 -87 66 -85 1 2 32 42 68
90 245 327 552 636 862 869 146 110 529 378 850 594 805 542 1048 710 1148
793 90 75 88 58 27 217 -21 55 -78 201 -125 325 -294 761 -340 875 -575 1410
-284 646 -450 1043 -450 1075 0 8 -4 15 -9 15 -9 0 -41 -126 -330 -1280 -197
-790 -225 -898 -236 -925 -22 -51 308 278 425 425 24 30 47 59 51 64 12 14
209 -599 209 -648 -1 -51 -34 -108 -97 -166 -57 -53 -373 -282 -738 -535 -237
-165 -317 -227 -417 -324 -49 -46 -88 -80 -88 -76 0 5 28 92 61 194 44 132 61
201 61 236 -1 44 -48 435 -237 1950 -154 1232 -295 2258 -339 2461 -19 88 -51
245 -70 349 -56 291 -49 276 -70 155z m49 -745 c23 -197 172 -1409 195 -1585
21 -160 56 -450 134 -1100 25 -206 52 -427 61 -490 19 -142 92 -751 101 -840
6 -63 4 -71 -54 -220 -124 -320 -176 -462 -263 -720 -88 -264 -189 -615 -189
-657 0 -41 -18 -24 -25 23 -20 138 -168 629 -270 899 -66 174 -212 541 -230
577 -9 19 -10 39 -5 65 5 21 23 155 40 298 17 143 60 494 95 780 35 286 76
619 90 740 14 121 50 418 80 660 30 242 68 557 85 700 17 143 46 370 65 505
18 135 39 304 45 375 6 72 14 141 18 155 6 24 6 24 9 -5 2 -16 10 -88 18 -160z
m-1641 -2415 c31 -113 68 -245 82 -293 14 -49 24 -90 22 -92 -5 -5 -147 159
-207 239 l-54 73 -147 -436 c-81 -240 -158 -480 -170 -534 -21 -86 -23 -105
-13 -162 15 -89 46 -149 112 -214 94 -94 186 -158 819 -575 531 -350 574 -388
672 -589 32 -67 86 -203 119 -302 104 -307 300 -919 296 -924 -3 -2 -16 20
-30 50 -14 30 -30 61 -34 69 -5 8 -33 69 -62 135 -64 144 -243 444 -340 572
-65 86 -133 152 -234 230 -22 17 -238 158 -480 313 -747 480 -973 645 -1126
826 -133 156 -112 142 -211 146 -62 3 -88 1 -88 -7 0 -23 67 -112 155 -203
171 -180 366 -323 1075 -793 272 -180 530 -353 573 -385 164 -119 295 -250
492 -489 65 -79 211 -285 201 -285 -2 0 -34 43 -71 95 -148 213 -362 453 -526
590 -47 39 -326 232 -620 427 -783 520 -934 632 -1128 834 -132 137 -166 189
-158 242 11 82 233 662 432 1132 147 347 376 890 416 988 l33 82 72 -277 c40
-153 97 -370 128 -483z m3479 620 c25 -63 88 -214 140 -335 611 -1419 720
-1692 703 -1758 -16 -65 -270 -326 -462 -475 -157 -122 -357 -259 -894 -612
-245 -161 -472 -313 -505 -339 -199 -151 -423 -401 -611 -681 -73 -108 -84
-115 -23 -14 106 176 359 473 526 619 105 92 171 139 568 400 463 304 733 489
730 500 -1 5 0 7 2 3 6 -11 48 20 48 35 0 6 7 12 15 12 22 1 61 25 56 34 -3 5
4 17 17 27 18 16 19 16 8 2 -27 -35 3 -17 98 59 135 109 315 288 306 304 -5 7
-4 10 2 6 14 -9 47 29 38 43 -3 6 -2 9 4 8 5 -2 21 13 36 32 l26 35 -33 3
c-18 2 -60 1 -93 -3 -55 -6 -62 -9 -85 -43 -14 -20 -70 -83 -124 -140 -168
-174 -322 -288 -866 -639 -884 -569 -896 -580 -1070 -868 -77 -128 -260 -482
-260 -503 0 -13 -81 -164 -86 -160 -2 2 5 28 16 58 10 30 49 150 85 265 222
701 320 955 415 1081 60 80 217 192 815 583 576 377 683 472 701 622 8 72 -5
122 -156 584 -67 204 -136 416 -154 472 l-32 103 -45 -59 c-84 -112 -191 -241
-200 -241 -5 0 -4 10 1 23 15 35 99 348 196 734 49 194 92 349 95 345 3 -4 27
-59 52 -122z"/>
<path d="M4637 3703 c3 -21 10 -46 14 -55 14 -27 10 -34 -7 -12 -15 19 -15 19
-9 -1 14 -54 153 -387 157 -379 3 5 3 3 2 -3 -2 -7 3 -27 10 -45 7 -18 21 -54
30 -80 10 -27 24 -48 32 -48 8 0 14 -8 14 -18 0 -10 6 -24 13 -32 10 -12 9
-12 -5 -1 -15 11 -16 9 -6 -26 12 -46 23 -60 14 -18 l-6 30 14 -25 c29 -51 87
-213 125 -347 39 -138 57 -193 64 -193 4 0 -3 1139 -7 1160 -2 8 -5 -232 -6
-535 -1 -380 -5 -538 -12 -510 -34 142 -82 291 -163 510 -122 330 -256 665
-266 665 -4 0 -5 -17 -2 -37z"/>
<path d="M4934 3114 c28 -74 90 -266 111 -345 l24 -94 -1 170 c-2 164 -14 243
-28 186 -3 -13 -13 -25 -23 -27 -14 -2 -15 1 -7 17 14 26 -9 69 -51 93 -31 19
-32 19 -25 0z"/>
<path d="M6905 5296 c17 -55 87 -273 170 -526 51 -157 107 -334 123 -395 54
-191 53 -188 46 -126 -5 53 -46 193 -146 501 -101 312 -170 516 -185 540 -8
14 -12 17 -8 6z"/>
<path d="M3300 4484 c-60 -180 -62 -189 -51 -233 7 -25 13 -54 15 -64 6 -42
151 -155 538 -420 129 -88 151 -101 127 -69 -13 15 -12 16 3 4 10 -8 16 -19
15 -24 -1 -6 4 -13 12 -16 9 -3 11 0 6 9 -5 8 -4 11 1 6 5 -5 9 -14 9 -20 0
-7 8 -11 18 -11 9 1 14 -2 12 -7 -3 -4 33 -34 81 -66 124 -84 302 -218 352
-266 23 -23 42 -36 42 -30 0 17 -96 105 -216 198 -122 96 -271 203 -580 418
-256 179 -330 240 -378 309 -57 83 -56 99 8 293 30 93 54 171 52 173 -2 2 -32
-81 -66 -184z"/>
<path d="M6961 4289 c-3 -69 -124 -172 -526 -454 -351 -245 -402 -282 -490
-353 -86 -69 -154 -136 -199 -198 -24 -32 -17 -28 35 22 67 63 137 118 276
218 45 32 80 62 78 66 -3 4 3 14 13 21 15 13 16 12 3 -3 -20 -26 -5 -22 45 12
24 17 43 36 41 42 -1 6 5 13 13 15 13 4 13 3 0 -6 -8 -6 -12 -11 -7 -11 15 0
112 72 109 82 -1 5 2 7 7 3 11 -6 125 74 154 108 10 12 16 15 12 7 -6 -13 -5
-13 7 0 7 8 22 20 33 26 11 6 21 16 21 23 3 24 5 26 12 14 5 -8 14 -6 31 8 21
17 17 28 -5 12 -5 -5 2 2 16 14 27 24 46 31 34 11 -4 -7 -3 -8 5 -4 6 4 9 11
6 16 -8 13 35 39 53 33 11 -5 14 -2 10 9 -5 11 0 15 15 14 12 -1 26 8 32 20 6
12 35 44 66 72 76 69 112 123 106 159 -4 28 -4 28 -6 2z"/>
<path d="M2020 3546 c0 -4 163 -116 535 -368 175 -118 484 -330 635 -435 63
-44 176 -121 250 -173 284 -196 446 -316 705 -519 163 -129 478 -445 590 -594
50 -65 98 -128 108 -140 28 -33 -17 45 -70 121 -198 281 -476 536 -1003 918
-210 152 -814 568 -1320 909 -107 72 -245 166 -306 208 -104 72 -124 83 -124
73z"/>
</g>
</svg>
