<?xml version="1.0" standalone="no"?>
<!DOCTYPE svg PUBLIC "-//W3C//DTD SVG 20010904//EN"
 "http://www.w3.org/TR/2001/REC-SVG-20010904/DTD/svg10.dtd">
<svg version="1.0" xmlns="http://www.w3.org/2000/svg"
 width="1284.000000pt" height="1284.000000pt" viewBox="0 0 1284.000000 1284.000000"
 preserveAspectRatio="xMidYMid meet">
<metadata>
Created by potrace 1.16, written by Peter Selinger 2001-2019
</metadata>
<g transform="translate(0.000000,1284.000000) scale(0.100000,-0.100000)"
fill="#000000" stroke="none">
<path d="M0 6420 l0 -6420 6420 0 6420 0 0 6420 0 6420 -6420 0 -6420 0 0
-6420z m6467 4910 c14 -47 37 -121 51 -165 14 -44 36 -118 48 -165 33 -118 68
-239 99 -340 15 -47 37 -121 50 -165 27 -92 61 -204 99 -325 28 -89 67 -221
92 -305 19 -67 37 -258 40 -440 2 -82 4 -152 5 -155 1 -3 5 9 8 25 6 23 9 8
15 -60 4 -49 11 -117 16 -150 6 -33 15 -125 21 -205 5 -80 14 -185 20 -235 5
-49 18 -193 28 -320 11 -126 25 -261 31 -300 5 -38 17 -149 25 -245 9 -96 20
-195 25 -220 5 -25 14 -103 20 -175 6 -71 18 -175 25 -230 8 -55 19 -147 25
-205 6 -58 16 -136 21 -175 6 -38 19 -144 30 -235 27 -241 56 -468 74 -583 16
-105 29 -207 66 -502 11 -93 22 -175 24 -182 5 -17 136 55 370 202 28 17 86
53 130 79 154 91 390 249 480 321 27 22 67 53 88 69 44 32 43 21 8 173 -37
163 -21 160 -163 37 -68 -58 -134 -113 -148 -122 -14 -9 -40 -29 -58 -44 -18
-15 -110 -79 -205 -141 -288 -190 -327 -211 -297 -160 11 19 58 151 170 483
38 113 83 243 100 290 17 47 40 111 50 142 11 32 26 71 35 88 42 81 35 86 -26
20 -34 -36 -59 -56 -56 -45 3 11 15 54 26 95 50 184 105 392 122 465 10 44 30
127 44 185 14 58 37 155 51 215 14 61 36 157 50 215 13 58 35 155 49 215 13
61 35 160 49 220 13 61 32 146 40 190 9 44 23 107 32 140 8 33 23 103 33 155
11 52 31 147 45 210 35 157 74 345 96 464 10 54 24 118 30 142 l12 43 24 -47
c13 -26 39 -90 59 -142 19 -52 42 -108 50 -125 8 -16 30 -73 50 -125 20 -52
43 -108 50 -125 8 -16 30 -73 50 -125 20 -52 43 -109 51 -127 8 -17 14 -34 14
-37 0 -3 11 -29 24 -58 13 -29 29 -71 36 -93 7 -22 16 -44 20 -50 4 -5 13 -28
20 -50 7 -22 18 -53 26 -70 12 -28 28 -68 74 -187 11 -29 25 -62 30 -73 5 -11
27 -67 50 -125 23 -58 48 -119 55 -137 8 -17 15 -35 15 -39 0 -4 9 -26 19 -48
11 -23 41 -93 66 -156 111 -273 134 -329 165 -400 17 -41 41 -100 52 -130 11
-30 23 -59 27 -65 5 -5 24 -50 44 -100 69 -170 94 -230 117 -273 12 -24 20
-45 17 -48 -3 -3 -22 16 -43 42 -59 71 -101 114 -113 114 -17 0 -13 -12 18
-62 16 -25 32 -56 36 -69 4 -13 11 -28 15 -34 4 -5 35 -77 69 -160 34 -82 70
-170 81 -195 10 -25 33 -79 50 -120 40 -97 68 -163 95 -225 13 -27 26 -61 30
-75 4 -14 13 -34 19 -45 7 -11 21 -42 31 -70 10 -27 22 -54 26 -60 3 -5 25
-57 48 -115 23 -58 46 -114 51 -125 37 -76 117 -281 113 -288 -3 -4 -51 -38
-106 -74 -568 -368 -1348 -893 -1680 -1129 -453 -324 -666 -492 -1085 -853
-150 -130 -297 -256 -327 -281 -46 -38 -51 -46 -37 -54 9 -5 19 -10 21 -12 2
-2 -34 -45 -80 -96 -220 -241 -432 -561 -555 -836 -20 -45 -42 -81 -47 -79 -6
2 -43 66 -82 143 -160 311 -343 573 -553 792 -38 40 -62 70 -53 68 9 -3 34 -8
56 -11 l40 -7 -76 74 c-41 40 -95 89 -120 108 -24 19 -100 82 -169 141 -230
197 -408 347 -447 375 -21 16 -75 58 -119 94 -79 63 -423 321 -488 365 -17 12
-80 57 -141 101 -223 162 -425 299 -980 668 -364 242 -475 315 -667 439 -47
31 -89 61 -93 66 -3 6 1 23 9 38 8 16 32 69 52 118 20 50 47 114 60 143 13 29
24 56 24 60 0 4 7 21 16 37 9 17 22 46 29 65 8 19 30 73 50 120 20 47 44 105
52 130 9 25 22 54 29 65 6 11 15 31 19 45 4 14 15 43 25 65 10 22 36 85 58
140 53 134 131 325 141 350 41 95 75 158 96 181 14 15 25 36 25 47 0 24 -9 18
-92 -62 -32 -30 -60 -53 -62 -50 -2 2 18 58 45 124 28 66 54 131 59 145 5 14
23 59 40 100 47 110 79 186 110 265 15 39 47 117 70 175 23 58 49 123 59 145
10 22 22 51 26 65 4 14 11 30 15 35 4 6 15 35 25 65 10 30 21 60 25 65 4 6 15
30 23 55 20 56 62 161 88 217 10 24 19 46 19 49 0 3 7 20 15 37 8 18 44 109
80 202 36 94 70 179 75 190 5 11 26 63 46 115 19 52 42 109 49 125 19 42 107
262 150 375 20 52 46 120 59 150 13 30 34 82 47 115 13 33 27 62 31 65 3 3 10
18 13 33 11 41 22 33 29 -20 4 -27 11 -59 17 -73 5 -14 18 -72 28 -130 11 -58
31 -154 44 -215 14 -60 37 -164 52 -230 31 -140 63 -284 100 -445 14 -63 37
-162 49 -220 13 -58 36 -157 50 -220 15 -63 38 -164 52 -225 60 -258 105 -447
147 -605 14 -52 43 -165 65 -250 21 -85 51 -188 66 -229 15 -41 24 -76 21 -79
-3 -3 -6 -3 -8 -1 -56 73 -101 129 -104 129 -2 0 3 -15 11 -32 7 -18 18 -44
24 -58 6 -14 38 -113 73 -220 34 -107 87 -269 117 -360 30 -91 64 -192 74
-225 11 -33 24 -69 28 -80 23 -50 46 -135 37 -135 -15 0 -328 208 -480 319
-154 113 -245 188 -290 239 -16 17 -32 32 -36 32 -16 0 -61 -192 -61 -255 0
-32 8 -41 83 -101 135 -107 338 -239 687 -444 69 -41 165 -98 214 -127 49 -29
93 -53 97 -53 11 0 16 24 29 155 6 61 15 135 21 165 9 52 26 177 70 535 10 88
22 167 24 176 7 22 72 564 115 964 11 105 25 219 31 255 11 71 36 309 73 720
14 146 28 279 31 295 3 17 15 140 26 275 28 321 46 509 48 488 0 -9 4 -19 9
-21 4 -3 5 63 4 146 -2 84 1 207 7 274 11 117 18 146 76 333 14 47 37 121 50
165 13 44 35 118 50 165 14 47 37 121 50 165 13 44 36 118 50 165 38 126 73
246 96 330 11 41 26 93 33 115 29 84 86 272 97 315 l12 45 14 -40 c8 -22 26
-78 40 -125z"/>
<path d="M6402 10833 c-12 -39 -29 -102 -37 -140 -21 -101 -83 -336 -140 -528
-80 -272 -125 -430 -136 -480 -9 -40 -18 -113 -64 -510 -43 -368 -84 -709
-116 -955 -19 -153 -59 -482 -79 -655 -10 -93 -22 -183 -25 -200 -4 -16 -18
-122 -31 -235 -14 -113 -36 -290 -49 -395 -13 -104 -33 -273 -45 -375 -11
-102 -22 -191 -25 -197 -2 -7 -11 -81 -20 -165 -8 -84 -20 -182 -26 -217 -5
-36 -19 -135 -29 -220 -11 -86 -25 -193 -31 -237 l-11 -81 66 -166 c36 -92 66
-169 66 -172 0 -7 67 -182 86 -222 8 -17 14 -35 14 -40 0 -4 7 -20 14 -35 25
-48 2 -35 -148 80 -63 48 -148 112 -190 142 -42 30 -104 76 -139 101 -125 93
-440 302 -703 466 -56 36 -363 220 -389 234 -85 46 -291 170 -305 185 -7 7 -5
25 6 60 8 27 26 87 38 134 13 47 35 128 49 180 38 141 64 235 93 335 14 50 36
128 49 175 51 183 55 192 69 153 29 -87 301 -439 466 -603 122 -122 246 -230
263 -230 3 0 -3 30 -15 68 -28 93 -66 233 -88 322 -28 114 -64 253 -100 380
-17 63 -42 156 -55 205 -13 50 -35 135 -50 190 -14 55 -34 138 -45 185 -11 47
-31 132 -45 190 -61 251 -152 650 -200 880 -14 63 -36 167 -49 230 -14 63 -40
191 -60 284 -33 160 -46 204 -46 160 0 -10 -7 -32 -15 -48 -8 -15 -15 -32 -15
-38 0 -5 -30 -89 -67 -186 -37 -97 -76 -204 -88 -237 -12 -33 -27 -71 -33 -85
-6 -14 -27 -66 -46 -117 -20 -50 -42 -106 -51 -125 -8 -18 -31 -76 -50 -128
-20 -52 -45 -114 -56 -137 -10 -24 -19 -46 -19 -49 0 -3 -7 -20 -15 -37 -7
-18 -23 -56 -35 -84 -11 -29 -29 -77 -40 -105 -12 -29 -27 -66 -34 -83 -8 -16
-17 -41 -21 -55 -4 -14 -13 -38 -20 -55 -20 -45 -40 -92 -121 -295 -41 -102
-79 -194 -84 -205 -13 -27 -86 -222 -120 -320 -16 -44 -38 -105 -50 -135 -12
-30 -28 -75 -37 -100 -8 -25 -40 -108 -70 -185 -30 -77 -66 -169 -80 -205 -13
-36 -33 -84 -44 -107 -10 -24 -19 -46 -19 -49 0 -3 -7 -20 -14 -37 -17 -36
-98 -234 -128 -312 -10 -27 -28 -69 -39 -92 -10 -24 -19 -45 -19 -49 0 -3 -14
-35 -30 -71 -17 -35 -30 -66 -30 -68 0 -7 204 -160 362 -272 173 -123 298
-208 508 -345 141 -92 170 -111 360 -228 49 -30 129 -80 177 -110 48 -30 99
-61 113 -68 14 -6 63 -37 110 -67 47 -30 105 -66 130 -79 25 -14 81 -48 125
-75 44 -28 112 -68 150 -91 39 -23 93 -55 122 -73 29 -18 78 -47 110 -66 32
-19 110 -68 173 -109 63 -41 133 -87 155 -101 73 -47 135 -95 135 -104 0 -5
-8 -6 -17 -2 -10 4 -72 16 -138 26 -66 11 -142 27 -168 35 -27 9 -51 14 -54
11 -3 -3 19 -23 48 -44 30 -21 84 -60 121 -88 37 -27 117 -86 178 -130 61 -44
148 -107 193 -140 45 -34 107 -77 137 -97 67 -45 306 -236 339 -272 l25 -26
-35 6 c-19 4 -46 13 -62 21 -15 7 -44 15 -66 17 -21 2 -44 7 -51 11 -9 6 -10
3 -1 -13 6 -11 18 -22 27 -26 22 -9 26 -8 18 6 -5 7 -3 8 5 4 7 -5 10 -10 7
-13 -3 -3 47 -63 112 -133 129 -139 255 -299 323 -409 24 -39 46 -71 49 -71 3
1 29 38 59 83 74 111 260 341 371 457 49 52 90 98 90 101 0 13 -116 -5 -145
-22 -43 -27 -53 -23 -24 7 64 70 256 219 529 411 33 22 119 87 192 142 73 55
160 121 193 146 104 77 116 87 111 92 -2 3 -17 -2 -33 -10 -15 -8 -53 -20 -83
-26 -165 -33 -254 -50 -257 -48 -2 3 242 169 261 177 7 3 43 26 81 51 169 111
593 375 865 537 41 25 91 55 110 67 19 12 80 50 135 84 55 33 107 65 115 71 8
5 38 24 65 41 138 87 579 379 649 429 11 8 69 49 127 90 303 214 311 220 304
249 -6 26 -52 137 -80 196 -25 54 -65 148 -101 240 -20 50 -44 110 -54 135
-65 152 -155 372 -170 415 -10 28 -35 88 -55 135 -20 47 -41 99 -46 115 -5 17
-13 39 -18 50 -20 41 -69 173 -101 270 -18 55 -40 118 -50 140 -10 22 -32 74
-49 115 -18 41 -43 100 -57 131 -13 31 -24 60 -24 65 -1 5 -9 27 -20 49 -11
22 -19 43 -20 47 0 4 -11 31 -24 60 -13 29 -29 71 -36 93 -7 22 -16 45 -20 50
-4 6 -11 21 -15 35 -4 14 -16 43 -26 65 -10 22 -27 64 -38 93 -12 28 -30 76
-42 105 -11 28 -29 71 -40 94 -10 24 -19 48 -19 54 0 6 -7 23 -15 37 -8 15
-44 104 -80 197 -36 94 -70 179 -75 190 -16 37 -61 150 -71 180 -6 17 -15 39
-20 50 -17 38 -110 300 -121 340 -23 85 -29 75 -58 -105 -40 -238 -38 -231
-94 -505 -42 -211 -109 -518 -149 -695 -99 -425 -143 -603 -202 -810 -24 -84
-50 -180 -140 -525 -52 -200 -64 -245 -90 -331 -15 -49 -30 -96 -33 -104 -8
-19 113 86 257 225 132 128 346 380 435 512 33 50 63 90 65 87 6 -5 36 -98 59
-179 11 -38 36 -124 56 -190 20 -66 45 -149 56 -185 31 -104 77 -258 104 -350
23 -76 24 -86 11 -100 -21 -21 -128 -85 -412 -248 -68 -39 -146 -86 -175 -105
-29 -18 -91 -58 -138 -87 -231 -146 -647 -428 -825 -560 -71 -53 -161 -118
-200 -145 -38 -26 -82 -59 -97 -73 -16 -14 -28 -23 -28 -20 0 9 27 79 65 168
20 47 51 124 70 172 19 47 41 101 49 120 9 18 29 69 46 112 31 80 31 80 19
175 -6 53 -13 99 -15 102 -3 6 -34 240 -74 569 -11 85 -22 166 -26 180 -6 24
-16 108 -69 534 -14 114 -27 211 -29 215 -2 3 -11 76 -20 161 -9 85 -21 175
-26 200 -5 25 -16 108 -25 185 -8 77 -20 167 -25 200 -6 33 -20 137 -31 230
-25 211 -65 534 -79 640 -30 236 -80 652 -109 915 -11 102 -25 201 -30 220 -6
19 -20 69 -31 110 -12 41 -32 116 -46 165 -14 50 -36 131 -49 180 -13 50 -24
90 -25 90 -2 0 -41 156 -75 300 -13 55 -36 150 -50 210 -15 61 -30 124 -34
140 -7 28 -9 25 -29 -42z m34 -510 c37 -174 124 -730 179 -1143 14 -102 27
-194 30 -205 3 -11 14 -94 25 -185 11 -91 25 -199 30 -240 6 -41 17 -129 25
-195 15 -115 52 -404 75 -585 6 -47 18 -139 26 -205 18 -139 54 -417 89 -690
40 -317 73 -561 100 -750 23 -164 58 -411 87 -621 11 -80 10 -82 -25 -180 -19
-54 -40 -110 -46 -124 -22 -53 -102 -262 -167 -435 -37 -99 -83 -220 -101
-270 -19 -49 -39 -106 -45 -125 -5 -19 -16 -48 -23 -65 -7 -16 -41 -111 -75
-210 -34 -99 -70 -200 -80 -225 -9 -25 -38 -112 -64 -195 -26 -82 -50 -157
-53 -165 -7 -22 -30 40 -128 340 -47 146 -90 274 -96 285 -5 11 -18 47 -29 80
-10 33 -30 89 -43 125 -14 36 -46 124 -72 195 -62 169 -97 262 -133 355 -16
41 -50 129 -75 195 -25 66 -62 161 -82 210 -41 101 -44 139 -21 257 9 40 22
132 31 203 9 72 20 150 25 175 6 25 17 108 26 185 8 77 19 158 25 180 5 22 18
117 29 210 24 202 91 723 130 1010 5 39 16 126 24 195 9 69 27 211 40 315 40
307 45 344 61 475 35 290 63 507 69 530 3 14 13 86 21 160 8 74 20 160 25 190
6 30 19 118 30 195 18 130 46 310 85 550 9 55 22 128 30 163 8 35 15 75 15 89
0 42 10 21 26 -54z m-2220 -1923 c3 -8 16 -76 29 -150 80 -447 280 -1382 333
-1547 6 -18 7 -33 2 -33 -7 0 -152 213 -265 390 -25 37 -77 135 -145 269 -24
45 -46 79 -50 74 -9 -9 -173 -499 -265 -788 -31 -99 -65 -205 -75 -235 -16
-50 -46 -146 -102 -330 -11 -36 -28 -90 -38 -120 -10 -30 -28 -91 -39 -135
-24 -91 -28 -82 66 -139 26 -16 65 -39 86 -52 20 -13 54 -34 75 -47 20 -13 71
-46 112 -73 41 -27 79 -51 84 -53 15 -6 159 -99 181 -116 20 -16 19 -16 -5
-11 -34 6 -178 45 -215 57 -16 6 -39 13 -50 16 -41 12 29 -32 105 -66 41 -19
104 -47 140 -63 109 -49 553 -273 591 -299 77 -51 77 -50 54 -45 -11 3 -71 25
-133 51 -62 25 -118 45 -123 43 -5 -2 25 -21 68 -44 320 -166 480 -254 618
-340 44 -28 139 -83 210 -123 216 -120 218 -122 245 -177 29 -58 92 -193 145
-309 20 -44 45 -98 55 -120 16 -35 65 -144 90 -200 18 -40 118 -301 125 -325
4 -14 13 -38 20 -55 17 -38 63 -177 105 -315 17 -58 38 -120 46 -139 19 -43
11 -52 -12 -14 -79 124 -448 588 -546 685 -38 39 -67 72 -65 74 2 2 30 -9 63
-26 73 -37 112 -41 66 -8 -17 13 -70 57 -119 98 -49 41 -110 91 -136 110 -78
57 -201 149 -212 158 -6 5 -15 11 -20 13 -22 9 -224 153 -220 157 2 2 25 -3
52 -11 50 -16 103 -20 103 -7 0 3 -12 13 -27 21 -40 19 -136 81 -383 244 -118
78 -271 177 -340 220 -69 43 -158 100 -198 127 -41 27 -76 47 -79 45 -3 -3 14
-30 36 -60 23 -29 41 -57 41 -62 0 -4 33 -49 73 -99 101 -126 101 -127 1 -48
-49 38 -156 114 -239 169 -324 215 -364 242 -486 325 -69 47 -132 88 -140 90
-8 3 -11 8 -8 12 3 3 37 -8 75 -25 38 -17 101 -42 139 -56 140 -48 279 -92
283 -89 2 2 -39 27 -90 55 -243 134 -683 420 -820 533 -41 34 -46 42 -39 66
10 33 78 219 91 247 19 41 80 205 80 214 0 6 7 25 15 43 8 18 31 76 50 128 20
52 48 124 62 160 13 36 36 94 49 130 14 36 29 74 35 85 5 11 18 45 28 75 11
30 34 91 51 135 17 44 38 100 47 125 8 25 19 50 23 55 4 6 13 28 20 50 7 22
18 54 25 70 21 47 70 171 110 275 20 52 42 109 49 125 8 17 19 48 26 70 7 22
16 45 20 50 4 6 15 35 25 65 10 30 21 60 25 65 4 6 14 30 23 55 9 25 29 79 45
120 16 41 46 120 66 175 20 55 50 134 66 176 16 41 45 124 65 185 20 60 39
116 42 124 4 8 10 -19 15 -60 4 -41 11 -82 14 -90z m4454 79 c5 -9 14 -36 20
-60 7 -24 18 -57 25 -74 18 -39 75 -188 113 -295 17 -47 45 -121 62 -165 17
-44 38 -100 47 -125 9 -25 19 -49 23 -55 4 -5 15 -35 25 -65 10 -30 21 -59 25
-65 4 -5 11 -21 15 -35 9 -29 72 -196 85 -225 15 -32 80 -204 80 -211 0 -3 6
-20 14 -37 18 -40 81 -203 91 -237 4 -14 11 -29 15 -35 4 -5 13 -28 20 -50 7
-22 18 -53 26 -70 20 -45 84 -214 84 -221 0 -3 6 -20 14 -37 8 -18 31 -75 51
-127 20 -52 51 -133 70 -180 18 -47 63 -161 100 -255 36 -93 71 -181 77 -195
6 -14 18 -48 28 -77 l18 -51 -36 -29 c-97 -77 -563 -384 -781 -515 -121 -72
-125 -84 -14 -43 37 14 125 45 194 69 69 24 136 49 148 56 27 14 43 3 19 -13
-50 -35 -309 -211 -343 -234 -45 -30 -260 -175 -410 -278 -55 -37 -122 -86
-148 -108 -26 -22 -50 -37 -53 -34 -3 3 14 27 38 54 58 63 160 190 183 228 10
17 35 48 54 69 37 40 30 40 -24 0 -16 -12 -93 -61 -170 -109 -196 -123 -338
-214 -500 -324 -77 -52 -189 -128 -250 -169 -137 -92 -149 -109 -52 -76 25 8
56 14 69 12 18 -2 3 -15 -72 -63 -130 -82 -380 -265 -465 -340 -38 -33 -94
-80 -124 -103 -64 -50 -47 -54 46 -12 72 33 88 33 52 0 -118 -107 -185 -182
-349 -395 -75 -96 -231 -306 -251 -336 -22 -32 -34 -19 -15 17 8 16 27 70 42
119 52 166 164 478 211 583 12 29 23 56 23 60 1 4 9 25 20 47 11 22 19 43 20
47 0 4 11 32 25 62 14 30 25 57 25 60 0 11 166 372 220 480 24 48 32 54 245
177 121 70 236 136 255 147 56 30 115 64 270 152 80 45 190 104 245 130 104
50 150 79 127 80 -8 0 -26 -7 -40 -15 -32 -18 -183 -67 -189 -61 -5 5 56 40
212 121 72 38 137 72 145 76 8 5 131 65 273 134 141 69 257 127 257 130 0 7
-61 -6 -100 -22 -69 -28 -180 -61 -180 -53 0 5 25 24 55 42 30 18 158 101 284
183 126 83 237 155 246 160 16 10 16 15 -3 80 -35 123 -69 238 -97 325 -14 47
-35 114 -45 150 -10 36 -22 76 -28 90 -6 14 -47 140 -92 280 -44 140 -89 278
-100 305 -10 28 -48 142 -84 254 -37 112 -69 208 -72 213 -3 5 -37 -51 -74
-125 -95 -186 -281 -487 -355 -572 -26 -29 -26 -29 -20 -5 15 54 70 283 132
550 59 250 143 668 199 980 14 80 30 165 34 190 5 25 9 65 10 90 1 41 2 43 12
20 5 -14 14 -32 18 -41z"/>
</g>
</svg>
