<?xml version="1.0" standalone="no"?>
<!DOCTYPE svg PUBLIC "-//W3C//DTD SVG 20010904//EN"
 "http://www.w3.org/TR/2001/REC-SVG-20010904/DTD/svg10.dtd">
<svg version="1.0" xmlns="http://www.w3.org/2000/svg"
 width="1284.000000pt" height="1996.000000pt" viewBox="0 0 1284.000000 1996.000000"
 preserveAspectRatio="xMidYMid meet">
<metadata>
Created by potrace 1.16, written by Peter Selinger 2001-2019
</metadata>
<g transform="translate(0.000000,1996.000000) scale(0.100000,-0.100000)"
fill="#000000" stroke="none">
<path d="M0 17968 c0 -1291 4 -1988 10 -1978 5 8 10 31 10 50 0 19 7 67 16
105 9 39 19 94 21 123 3 28 9 52 14 52 12 0 11 -104 -1 -116 -7 -7 -7 -19 -1
-35 5 -13 10 -21 10 -18 1 4 6 31 12 60 6 30 12 97 14 149 4 101 19 231 28
247 6 10 27 148 46 303 6 47 12 141 15 210 2 69 11 154 20 190 8 36 18 100 21
142 6 58 13 85 31 110 13 17 24 46 24 62 0 17 5 47 10 67 6 20 14 106 20 190
5 85 13 174 19 199 15 74 40 216 62 355 11 72 30 164 41 205 11 41 25 107 31
145 6 39 14 72 18 75 13 9 37 93 44 155 4 33 13 80 21 105 20 65 48 266 46
333 -1 33 4 70 12 85 7 15 16 79 20 147 4 66 13 147 21 180 26 105 61 95 -320
95 l-335 0 0 -1992z"/>
<path d="M1336 19943 c-4 -10 -4 -52 0 -95 5 -55 3 -78 -5 -78 -6 0 -12 8 -13
18 -3 33 -19 -283 -18 -361 0 -70 -1 -78 -17 -75 -14 2 -19 14 -21 48 -1 25
-5 56 -8 70 -6 25 -6 25 -20 -8 -7 -19 -16 -70 -20 -115 -3 -45 -19 -154 -34
-242 -16 -88 -31 -189 -35 -224 -5 -39 -10 -59 -15 -50 -10 16 -17 -11 -23
-86 -5 -57 -24 -158 -37 -195 -5 -14 -10 -73 -13 -132 -3 -95 -6 -111 -30
-147 -15 -22 -27 -46 -27 -54 0 -7 -7 -22 -15 -34 -8 -12 -19 -61 -24 -110 -5
-48 -16 -101 -25 -118 -9 -16 -16 -40 -16 -52 0 -13 -4 -23 -10 -23 -5 0 -10
-15 -11 -32 0 -18 -3 -27 -6 -20 -10 25 -21 1 -18 -40 2 -39 2 -40 -4 -8 -6
34 -7 34 -19 13 -6 -12 -17 -45 -23 -75 -6 -29 -18 -60 -26 -70 -8 -9 -18 -42
-22 -72 -4 -31 -13 -62 -19 -68 -7 -7 -12 -37 -12 -68 0 -43 -6 -64 -26 -94
-19 -28 -25 -46 -20 -68 3 -18 0 -41 -9 -58 -8 -16 -15 -49 -15 -73 0 -27 -6
-49 -15 -57 -10 -8 -15 -31 -15 -64 0 -29 -9 -70 -20 -95 -11 -24 -20 -52 -20
-62 0 -10 -9 -42 -19 -71 -25 -71 -31 -96 -46 -213 -12 -90 -24 -157 -43 -238
-9 -35 -26 -36 -30 -2 -2 14 -7 23 -11 20 -5 -2 -4 -28 0 -57 9 -55 -2 -163
-20 -196 -6 -12 -11 -37 -11 -56 0 -24 -5 -36 -14 -36 -10 0 -14 -27 -19 -108
-3 -66 -13 -130 -25 -167 -14 -40 -24 -113 -32 -220 -6 -88 -15 -189 -20 -225
-5 -36 -14 -94 -19 -130 -12 -87 -36 -212 -78 -400 -19 -85 -44 -193 -54 -240
-10 -47 -26 -110 -35 -140 -9 -30 -20 -77 -24 -105 -5 -27 -30 -171 -56 -320
-30 -171 -49 -311 -51 -381 -5 -111 -5 -111 19 -110 20 1 23 -3 20 -28 -2 -16
-11 -40 -19 -53 -13 -20 -14 -28 -3 -47 14 -27 4 -58 -11 -35 -5 8 -9 -33 -9
-101 1 -83 3 -110 11 -97 5 9 12 43 15 75 6 72 10 82 29 82 19 0 19 -20 0 -56
-20 -38 -20 -65 -1 -38 13 17 14 13 10 -41 -6 -78 11 -44 25 52 6 37 13 79 17
92 6 20 4 22 -13 17 -27 -9 -36 24 -18 68 8 18 12 50 9 72 -3 31 0 46 16 64
11 13 20 34 20 47 0 12 5 23 10 23 6 0 10 -28 10 -65 0 -51 3 -65 15 -65 14 0
20 13 15 35 -1 6 -2 34 -1 63 1 33 -3 51 -9 47 -6 -3 -10 3 -10 13 0 11 -7 22
-15 26 -8 3 -15 12 -15 21 0 18 16 20 23 3 3 -8 6 -4 8 7 2 20 5 36 9 45 7 18
5 150 -3 173 -9 26 -10 27 -22 10 -7 -10 -15 -38 -18 -63 -10 -93 -29 -196
-39 -217 -6 -12 -9 -35 -6 -51 3 -23 0 -32 -13 -35 -25 -7 -52 29 -39 53 5 10
10 29 10 42 0 13 6 34 13 48 8 14 13 39 11 55 -2 35 27 145 38 145 4 0 8 35 8
78 0 62 5 86 24 122 17 32 26 70 30 130 10 116 26 190 43 190 9 0 13 13 13 40
0 35 3 40 23 40 13 0 28 -5 35 -12 16 -16 37 4 28 27 -4 11 -12 14 -26 10 -14
-4 -22 -1 -26 10 -7 17 9 110 31 185 17 56 35 175 35 232 1 36 2 40 11 24 7
-11 9 -43 4 -85 -5 -50 -4 -63 5 -55 6 7 13 54 16 110 8 178 14 236 29 257 8
12 15 35 15 52 0 22 3 26 10 15 16 -25 21 -6 30 113 5 63 13 123 19 133 5 11
14 57 20 103 6 46 15 89 20 95 4 6 11 51 15 100 3 49 13 115 20 145 8 31 17
91 20 133 7 82 22 138 37 138 5 0 9 12 9 27 l0 26 -22 -24 c-16 -18 -19 -19
-15 -6 4 10 7 27 7 38 0 12 5 16 15 13 15 -6 16 -5 19 126 1 25 -5 51 -12 59
-16 17 -12 67 5 64 7 -2 12 0 12 5 -4 23 4 44 26 70 15 18 25 42 25 61 0 17 8
39 19 50 12 12 20 38 23 85 3 36 10 72 16 79 5 6 12 35 15 62 3 28 14 82 25
120 19 64 39 180 34 197 -1 4 7 30 18 58 23 58 27 114 8 108 -7 -3 -16 -18
-20 -34 -4 -16 -4 -2 -1 31 3 33 9 67 13 75 4 8 11 39 15 68 4 28 10 52 14 52
4 0 14 23 21 50 14 50 14 50 25 23 15 -37 22 -22 39 81 7 48 19 93 25 99 6 6
11 21 11 33 0 13 5 26 12 30 8 5 9 0 4 -17 -3 -13 -11 -58 -16 -100 -5 -42
-15 -103 -23 -135 -8 -33 -19 -95 -25 -139 -29 -209 -45 -301 -58 -343 -7 -26
-14 -65 -14 -87 0 -22 -9 -78 -21 -125 -20 -85 -35 -171 -64 -370 -9 -58 -22
-127 -31 -153 -17 -50 -27 -106 -44 -251 -7 -50 -18 -108 -25 -130 -8 -23 -17
-61 -21 -86 -3 -25 -12 -63 -19 -85 -7 -22 -16 -87 -20 -145 -4 -58 -16 -157
-27 -220 -10 -63 -23 -140 -28 -170 -13 -87 -40 -232 -51 -270 -13 -47 -31
-157 -68 -415 -16 -109 -31 -195 -46 -255 -8 -30 -21 -100 -30 -155 -9 -55
-22 -129 -30 -165 -8 -36 -16 -78 -19 -95 -3 -16 -11 -52 -17 -80 -5 -27 -15
-86 -20 -130 -19 -161 -51 -355 -62 -372 -4 -6 -15 -54 -26 -107 -10 -53 -26
-107 -35 -121 -9 -13 -16 -38 -16 -55 0 -17 -6 -41 -12 -53 -7 -12 -15 -75
-18 -139 -4 -74 -11 -123 -18 -130 -10 -10 -12 9 -6 95 7 114 3 124 -39 93
-16 -12 -17 -49 -15 -582 l3 -570 115 17 c96 13 124 21 168 48 28 18 52 39 52
47 0 17 -12 18 -27 3 -24 -24 -26 40 -4 115 12 40 23 102 25 137 3 35 7 71 11
80 3 9 -1 21 -9 28 -14 12 -14 52 0 111 6 25 6 25 15 3 4 -12 4 -36 -1 -52 -5
-19 -5 -31 1 -31 5 0 9 -7 9 -16 0 -19 24 -13 26 7 1 8 2 42 3 77 1 39 5 61
11 57 6 -3 10 1 10 9 0 8 5 18 11 22 9 5 10 -1 5 -20 -3 -14 -2 -26 3 -26 9 0
13 65 13 184 0 21 -5 41 -10 45 -13 8 -4 57 14 72 12 9 14 4 14 -29 0 -23 5
-42 13 -45 9 -4 9 -7 -1 -18 -14 -15 -16 -29 -3 -29 14 0 29 53 21 74 -4 11
-3 38 1 60 4 24 3 46 -2 53 -7 7 -5 24 6 48 8 21 15 52 16 69 l1 31 9 -30 c4
-16 6 -40 2 -53 -4 -18 -2 -23 8 -20 16 5 25 68 11 77 -12 8 -24 83 -12 76 5
-3 14 3 20 12 9 14 10 11 5 -19 -3 -21 -2 -38 3 -38 14 0 22 38 15 71 -3 16
-1 35 5 41 5 7 10 37 11 66 0 29 4 68 10 85 5 18 12 51 14 74 2 24 9 48 15 55
5 7 13 49 17 93 4 44 13 104 21 133 7 29 18 90 24 135 13 102 29 186 41 212
15 35 30 146 24 173 -3 15 2 54 11 87 34 122 50 229 40 257 -10 29 0 51 13 29
14 -23 25 42 48 285 5 45 14 88 21 97 7 8 15 50 17 94 2 43 11 95 19 115 9 21
16 54 16 75 0 50 29 252 40 278 5 11 14 56 19 100 6 44 18 125 26 180 32 212
39 273 41 370 1 55 6 120 12 145 6 25 11 63 12 85 0 23 5 46 10 51 6 6 15 64
21 129 10 119 14 139 27 131 4 -2 6 13 4 34 -2 21 3 68 12 103 9 36 17 78 17
94 0 15 0 69 0 118 l0 90 14 -50 13 -50 1 87 c1 55 5 88 12 90 8 3 13 48 14
138 3 142 26 354 43 386 5 11 13 66 17 124 4 58 12 116 17 130 21 52 46 209
52 319 4 63 14 135 22 160 19 54 25 130 28 336 2 215 4 235 20 235 8 0 16 16
19 43 3 23 9 58 12 77 5 27 2 40 -14 57 -12 12 -21 29 -21 38 0 9 -4 25 -10
35 -11 20 -4 50 11 50 5 0 9 -13 9 -30 0 -36 13 -38 34 -8 10 14 16 44 16 84
0 34 6 77 14 95 8 19 16 60 19 91 3 32 11 67 17 78 9 17 8 27 -4 45 -9 14 -16
41 -16 62 0 56 -19 28 -26 -38 -8 -80 -14 -103 -24 -93 -11 11 2 136 23 239 8
39 18 89 21 113 l6 42 -89 0 c-75 0 -90 -3 -95 -17z"/>
<path d="M10146 19908 c-3 -29 -9 -91 -13 -138 -7 -78 -10 -85 -33 -91 -21 -6
-11 -14 13 -10 10 2 9 -117 -3 -218 -11 -93 -28 -277 -35 -381 -2 -36 -7 -87
-11 -115 -4 -27 -8 -63 -9 -80 -6 -99 -18 -161 -33 -172 -9 -8 -11 -13 -4 -13
7 0 12 -15 12 -37 0 -28 -3 -34 -10 -23 -8 12 -10 11 -10 -7 0 -12 4 -23 10
-25 12 -4 -13 -269 -29 -312 -9 -21 -8 -32 0 -42 9 -11 8 -14 -5 -14 -14 0
-14 -3 -4 -21 11 -17 10 -22 -4 -30 -10 -6 -18 -15 -18 -21 0 -7 5 -6 15 2 15
12 22 0 8 -14 -8 -7 -11 -78 -14 -281 -1 -55 -6 -105 -11 -112 -5 -7 -7 -17
-3 -23 18 -30 28 22 36 187 4 98 13 198 19 223 6 25 10 73 8 107 -1 34 1 65 5
69 4 4 7 28 7 53 0 25 4 75 9 111 5 36 12 101 15 145 4 44 11 112 16 150 10
69 54 594 65 770 3 50 12 152 20 229 18 162 18 186 6 186 -5 0 -12 -24 -15
-52z"/>
<path d="M10770 19945 c0 -8 -9 -19 -21 -25 -16 -9 -18 -14 -9 -25 6 -8 10
-32 9 -54 -2 -22 -1 -43 2 -46 9 -8 -3 -65 -13 -65 -6 0 -5 -6 2 -15 6 -8 9
-19 5 -25 -4 -6 -9 -37 -12 -68 -2 -31 -8 -61 -12 -65 -4 -4 -6 -30 -3 -58 4
-40 1 -52 -14 -63 -14 -10 -16 -17 -8 -27 24 -30 24 -63 2 -80 -15 -12 -19
-22 -13 -35 5 -13 9 -15 12 -6 3 6 11 12 18 12 19 0 23 20 30 148 3 74 10 121
19 134 11 15 12 25 4 38 -10 16 2 160 18 218 5 18 3 21 -10 16 -23 -9 -20 15
5 42 14 15 19 29 14 43 -7 24 -25 28 -25 6z"/>
<path d="M12120 19958 c0 -2 -5 -41 -11 -88 -6 -47 -12 -123 -14 -170 -3 -47
-9 -128 -15 -180 -10 -91 -13 -141 -24 -400 -8 -183 -17 -260 -30 -273 -11 -9
-10 -18 1 -46 12 -29 13 -41 2 -73 -9 -30 -10 -41 -1 -50 7 -7 12 -10 13 -8 3
16 19 227 37 490 19 269 33 458 48 640 2 30 7 79 10 108 4 35 3 52 -5 52 -6 0
-11 -1 -11 -2z"/>
<path d="M11087 19373 c-5 -7 -5 -17 -2 -23 3 -5 2 -18 -3 -27 -5 -10 -12 -52
-15 -93 -8 -108 -45 -536 -57 -665 -12 -116 -16 -148 -23 -180 -8 -33 -22
-218 -19 -248 2 -25 -8 -147 -23 -267 -3 -25 -10 -97 -15 -160 -10 -123 -27
-289 -30 -305 -1 -5 -1 -35 0 -65 l3 -55 8 68 c5 38 13 77 19 86 5 10 7 41 3
68 -3 33 -1 53 6 57 6 4 11 38 11 84 0 42 5 118 10 167 6 50 13 119 15 155 15
175 36 425 44 507 6 51 13 132 16 180 4 48 9 92 12 96 3 5 7 50 9 100 1 51 8
130 13 177 18 143 33 319 29 338 -3 12 -6 14 -11 5z"/>
<path d="M10715 19280 c-6 -9 -24 -148 -30 -220 -7 -98 -19 -162 -32 -167 -7
-3 -13 -9 -13 -15 0 -5 5 -6 10 -3 18 11 21 -19 10 -90 -6 -39 -13 -86 -14
-105 -7 -77 -19 -146 -27 -156 -5 -6 -8 -26 -7 -45 1 -19 1 -62 0 -97 -2 -55
-5 -64 -24 -72 -16 -6 -18 -9 -7 -9 13 -1 18 -13 21 -46 2 -25 0 -49 -3 -53
-11 -13 -19 -132 -9 -132 6 0 10 21 10 46 0 25 5 54 11 65 5 11 11 35 13 53 2
18 6 39 11 46 4 7 3 15 -2 19 -10 6 6 188 23 271 4 19 8 46 9 59 0 13 9 30 20
37 14 10 15 14 4 14 -25 0 -22 49 16 300 3 19 7 71 9 115 3 44 8 106 11 138 7
54 3 69 -10 47z"/>
<path d="M1027 19214 c-4 -4 -7 -30 -7 -58 0 -28 -4 -87 -10 -131 -5 -44 -16
-136 -24 -205 -29 -234 -29 -243 -17 -236 24 15 41 122 56 364 16 250 17 280
2 266z"/>
<path d="M10298 18697 c-5 -10 -8 -33 -8 -52 0 -57 -12 -97 -31 -102 -26 -7
-29 -25 -25 -133 2 -52 0 -100 -5 -106 -5 -6 -9 -24 -10 -40 -1 -16 -5 -63
-11 -104 -44 -357 -52 -448 -51 -595 0 -102 -4 -163 -11 -167 -5 -4 -13 -49
-16 -100 -3 -51 -11 -103 -18 -115 -6 -12 -12 -46 -12 -75 -1 -29 -5 -84 -11
-123 -5 -38 -12 -126 -14 -195 -6 -154 9 -133 24 32 17 191 31 291 48 343 9
28 17 79 18 115 0 36 4 70 8 77 11 17 16 153 6 153 -5 0 -9 5 -9 10 0 6 7 10
15 10 8 0 15 7 15 15 0 8 -6 15 -14 15 -10 0 -13 19 -11 88 3 113 15 205 28
213 5 4 12 47 14 95 3 49 8 94 13 99 4 6 6 28 5 50 -1 22 3 46 8 52 5 7 7 25
4 40 -3 14 2 45 9 67 8 23 15 63 14 91 -1 65 14 165 29 193 7 13 11 53 9 95
-2 44 -6 65 -10 54z"/>
<path d="M12024 18631 c-4 -17 -11 -31 -17 -31 -7 0 -7 -4 1 -12 14 -14 16
-50 3 -63 -6 -6 -13 -73 -16 -150 -4 -77 -9 -158 -11 -180 -3 -22 -6 -49 -6
-60 0 -11 -4 -60 -9 -110 -8 -83 -12 -132 -22 -317 -3 -38 0 -68 4 -68 5 0 9
6 10 13 0 6 2 30 4 52 16 178 29 363 28 375 -2 8 2 47 7 85 5 39 14 147 20
240 6 94 15 187 20 208 4 21 4 39 -1 43 -5 3 -12 -8 -15 -25z"/>
<path d="M10569 17963 c0 -4 -2 -18 -3 -31 -2 -12 -11 -29 -22 -37 -18 -15
-18 -15 0 -8 17 5 18 3 12 -28 -4 -19 -8 -54 -10 -79 -13 -159 -20 -220 -27
-220 -8 0 -16 -65 -25 -197 -3 -55 -2 -83 5 -83 10 0 15 20 12 46 -1 6 6 17
14 24 18 15 20 47 3 53 -10 3 -10 9 -1 25 7 12 10 28 7 36 -3 8 1 34 9 58 8
23 18 93 21 153 4 61 9 124 11 140 11 74 13 145 4 150 -5 4 -9 3 -10 -2z"/>
<path d="M9956 17685 c-3 -8 -9 -51 -12 -95 -5 -63 -10 -80 -22 -80 -13 0 -13
-2 2 -13 16 -12 17 -20 8 -68 -5 -30 -11 -76 -12 -104 -1 -27 -3 -72 -4 -100
-2 -27 -4 -72 -5 -98 -1 -44 -3 -48 -21 -42 -11 3 -20 2 -20 -3 0 -5 9 -12 21
-15 16 -4 19 -9 11 -24 -5 -10 -12 -102 -16 -205 -4 -103 -9 -196 -10 -205 -2
-10 -7 -85 -12 -168 -4 -82 -8 -152 -9 -155 -11 -45 -16 -113 -20 -243 -2 -87
-6 -177 -9 -200 -3 -23 -8 -105 -11 -182 -3 -77 -8 -153 -11 -170 -6 -40 -15
-116 -15 -135 -1 -48 -31 -374 -39 -421 -13 -69 -13 -146 -1 -153 11 -7 25 49
16 64 -3 5 -1 36 4 67 6 32 17 135 26 228 8 94 22 238 30 320 7 83 17 231 20
330 3 99 10 227 14 285 5 58 9 114 10 125 1 11 8 94 16 185 7 91 19 253 25
360 30 524 41 704 50 810 9 113 8 136 -4 105z"/>
<path d="M10482 17247 c-6 -6 -12 -46 -15 -87 -21 -338 -28 -422 -43 -487 -8
-36 -11 -82 -7 -108 6 -44 5 -45 -23 -45 -20 0 -25 -3 -17 -11 18 -18 58 -7
56 16 -1 11 3 53 8 95 5 41 11 104 13 140 5 79 24 266 32 299 2 13 7 57 9 98
3 41 7 78 10 83 9 14 -12 21 -23 7z"/>
<path d="M10056 16652 c-8 -14 -16 -76 -21 -177 -3 -55 -9 -170 -14 -255 -21
-324 -31 -636 -23 -664 4 -16 14 -32 21 -34 11 -4 12 6 7 44 -10 62 -9 75 3
154 6 36 13 142 16 235 3 94 7 217 9 274 2 56 9 108 14 113 7 7 7 15 -2 24
-10 9 -11 26 -4 66 5 29 6 78 3 108 -3 37 -1 64 9 82 13 25 12 38 -5 38 -4 0
-10 -3 -13 -8z"/>
<path d="M10377 16463 c20 -4 42 -33 24 -33 -11 0 -21 -89 -22 -210 -1 -52 -6
-124 -10 -160 -5 -36 -11 -117 -15 -180 -10 -190 -12 -222 -19 -300 -6 -58 -5
-72 5 -64 6 7 13 46 14 91 2 44 6 84 9 90 4 6 9 66 13 134 4 68 11 129 16 136
6 7 5 14 -2 18 -6 4 -8 21 -5 38 6 42 14 136 21 272 3 61 10 115 15 121 4 5 6
20 2 32 -4 17 -12 22 -37 21 -22 -1 -25 -3 -9 -6z"/>
<path d="M6310 15222 c-8 -3 -39 -16 -67 -29 -79 -35 -104 -38 -147 -14 l-37
21 -46 -20 c-34 -15 -49 -17 -54 -9 -5 9 -15 6 -36 -9 -26 -18 -32 -19 -68 -6
-48 17 -45 16 -45 4 0 -5 9 -10 21 -10 12 0 17 -4 14 -11 -4 -6 -14 -8 -23 -4
-8 3 -19 0 -23 -6 -4 -7 -21 -13 -39 -14 -25 -2 -33 2 -41 22 -5 15 -14 22
-21 18 -7 -4 -4 1 6 9 19 16 19 16 -2 16 -13 0 -34 -7 -47 -16 -14 -9 -34 -13
-47 -10 -13 3 -17 3 -10 0 16 -8 15 -39 -2 -53 -11 -9 -20 -9 -34 -2 -15 8
-23 6 -37 -9 -12 -13 -31 -20 -55 -20 -24 0 -43 -7 -55 -20 -10 -11 -14 -20
-10 -20 5 0 4 -5 -2 -11 -7 -7 -39 -13 -71 -15 -75 -3 -152 -37 -145 -63 4
-15 -3 -20 -34 -27 -21 -4 -42 -8 -48 -9 -29 -3 -52 -19 -70 -47 -11 -17 -33
-39 -49 -48 -16 -8 -32 -22 -35 -31 -9 -21 -91 -93 -123 -107 -15 -6 -34 -9
-42 -6 -12 4 -20 -9 -24 -39 0 -4 -14 -23 -30 -42 -17 -18 -33 -47 -37 -64 -5
-22 -12 -31 -26 -31 -12 0 -25 -13 -36 -35 -9 -19 -20 -35 -25 -35 -13 0 -9
18 5 24 6 3 3 5 -8 3 -21 -2 -31 -28 -20 -55 6 -16 7 -16 20 1 11 16 13 15 18
-15 5 -35 -10 -79 -30 -86 -8 -2 -13 5 -13 17 0 12 -5 21 -11 21 -6 0 -8 -11
-4 -29 4 -19 -1 -44 -13 -72 -26 -59 -39 -107 -41 -147 -1 -19 -13 -54 -27
-79 -21 -37 -25 -59 -26 -130 -1 -48 -5 -78 -9 -71 -5 8 -9 -7 -9 -37 0 -36 3
-46 10 -35 16 25 12 -43 -4 -75 -13 -25 -15 -25 -25 -8 -10 16 -11 15 -9 -7 2
-14 9 -24 16 -22 8 1 12 -18 12 -68 0 -56 -3 -70 -15 -70 -17 0 -20 -17 -4
-22 27 -9 36 -102 40 -392 l2 -179 -49 -4 c-30 -2 -62 -13 -82 -27 -37 -26
-125 -143 -148 -195 -21 -49 -18 -166 6 -218 10 -24 16 -43 12 -43 -4 0 1 -5
11 -11 9 -6 15 -15 11 -20 -3 -6 1 -18 9 -27 9 -9 19 -30 23 -47 4 -16 10 -32
13 -35 3 -3 15 -32 25 -65 11 -33 23 -64 26 -70 4 -5 10 -22 14 -37 3 -16 11
-28 16 -28 6 0 10 -6 10 -14 0 -8 11 -37 25 -64 14 -28 25 -55 25 -60 0 -6 5
-23 12 -39 15 -37 15 -38 17 -74 0 -16 5 -28 10 -25 4 3 11 -18 14 -46 4 -28
12 -55 19 -60 7 -4 9 -8 3 -8 -5 0 -3 -6 5 -13 8 -7 21 -24 29 -39 8 -15 18
-25 23 -22 4 3 8 1 8 -3 0 -14 62 -33 106 -33 l39 0 4 -282 c2 -155 6 -291 10
-303 9 -26 -1 -116 -11 -93 -4 9 -4 25 -1 37 6 25 -20 39 -42 21 -8 -7 -15 -9
-15 -5 0 4 -7 2 -15 -5 -21 -17 -88 -50 -93 -46 -2 3 -12 -3 -21 -12 -24 -23
-58 -45 -65 -43 -3 0 -20 -11 -36 -26 -23 -20 -27 -29 -19 -39 9 -11 6 -16
-13 -23 -15 -5 -42 -38 -68 -80 -48 -80 -51 -83 -135 -100 -256 -55 -468 -141
-611 -249 -44 -33 -137 -120 -205 -191 -115 -122 -333 -324 -351 -327 -4 -1
-12 -2 -18 -3 -5 0 -10 -7 -10 -13 -1 -7 -17 -26 -38 -41 -34 -26 -41 -28
-102 -21 -66 7 -123 22 -87 23 19 1 21 9 8 30 -5 8 -14 10 -21 6 -7 -5 -44 -7
-82 -6 -54 2 -68 -1 -68 -12 0 -11 13 -14 57 -13 49 1 58 -2 61 -18 4 -17 -1
-18 -50 -14 -37 3 -58 0 -67 -9 -8 -9 -18 -10 -28 -5 -8 5 -34 5 -57 1 -54
-11 -126 -11 -126 -1 0 11 90 36 117 34 16 -2 23 3 23 14 0 11 -6 15 -20 11
-11 -3 -27 1 -34 9 -20 19 -25 18 -48 -11 -11 -14 -27 -24 -36 -23 -11 2 -18
-5 -20 -20 -3 -21 -7 -22 -53 -16 -45 6 -49 5 -49 -15 0 -11 -4 -21 -10 -21
-14 0 -6 -63 9 -68 6 -2 18 2 27 8 17 15 19 13 29 -19 6 -21 5 -23 -16 -18
-13 3 -28 3 -33 -2 -22 -17 -52 -17 -68 0 -15 16 -15 19 -2 30 13 10 17 10 24
-1 5 -8 12 -12 15 -8 4 4 -5 14 -19 23 -14 10 -26 24 -26 31 0 8 -10 18 -22
23 -80 32 -113 34 -113 7 0 -11 -6 -21 -12 -23 -8 -3 -13 5 -13 21 0 23 -4 26
-37 26 -47 0 -83 9 -83 21 0 5 3 8 8 7 4 -1 17 2 30 6 14 4 28 3 36 -3 14 -12
46 -5 46 9 0 11 -53 20 -79 13 -17 -4 -21 -1 -21 20 0 32 -16 43 -28 20 -9
-15 -12 -15 -28 -3 -16 14 -17 13 -11 -10 4 -14 7 -31 7 -37 0 -7 7 -13 16
-13 8 0 12 -5 8 -11 -3 -6 0 -15 7 -20 10 -6 11 -11 3 -16 -6 -5 -13 -16 -17
-25 -3 -10 -17 -19 -29 -19 -13 -1 -35 -2 -49 -3 -15 -1 -34 -10 -43 -19 -21
-21 -27 -22 -20 -2 4 8 1 15 -5 15 -6 0 -14 0 -18 1 -5 0 -11 -10 -14 -23 -6
-21 -7 -20 -23 14 -9 21 -16 47 -16 58 0 11 -4 20 -10 20 -5 0 -10 16 -10 35
0 35 16 47 26 20 9 -23 33 -19 27 4 -6 22 -24 28 -64 23 -25 -4 -26 -6 -22
-50 3 -26 12 -58 20 -70 17 -28 17 -27 -22 -35 -36 -7 -51 1 -56 27 -2 10 -13
24 -24 30 -11 6 -23 15 -26 20 -9 12 -29 -2 -29 -20 0 -8 -10 -14 -25 -14 -14
0 -25 5 -25 10 0 6 5 10 11 10 5 0 8 4 4 10 -7 12 -45 -20 -45 -38 0 -7 -5
-10 -12 -6 -7 4 -8 3 -4 -4 10 -17 89 -15 112 3 24 18 37 19 31 3 -2 -7 3 -18
11 -24 12 -9 9 -13 -17 -23 -22 -10 -35 -10 -44 -3 -24 21 -91 25 -130 8 -52
-21 -48 -39 6 -31 51 8 135 -11 119 -27 -11 -11 -123 -18 -164 -11 -26 5 -41
33 -18 33 24 0 7 18 -22 24 -41 8 -51 -3 -33 -38 19 -36 19 -50 1 -65 -22 -18
-50 38 -37 73 11 28 -9 42 -38 26 -21 -11 -31 -4 -31 22 0 10 -7 18 -17 19
-10 0 -33 1 -50 2 -19 1 -35 -4 -38 -10 -3 -9 10 -13 45 -13 28 0 50 -4 50
-10 0 -11 -28 -19 -85 -22 -38 -3 -40 -2 -43 30 -4 36 -17 42 -27 12 -7 -23
-83 -42 -101 -25 -9 7 2 11 35 13 57 4 81 22 29 22 -63 0 -92 21 -46 34 35 8
6 30 -38 29 -30 -1 -35 2 -31 17 4 14 1 17 -12 12 -17 -6 -40 -32 -41 -45 0
-4 17 -7 38 -5 l37 3 3 -43 c2 -25 -3 -56 -13 -75 -10 -21 -12 -33 -5 -35 8
-3 7 -8 -1 -18 -15 -18 -29 -18 -29 1 0 17 -7 19 -68 15 -35 -1 -41 1 -36 14
3 9 12 16 20 16 8 0 14 9 14 21 0 14 5 19 18 17 10 -2 16 -11 14 -21 -2 -9 2
-17 8 -17 5 0 10 9 10 20 0 25 9 25 26 3 16 -23 28 -11 21 19 -6 22 -12 23
-96 26 -56 2 -91 0 -96 -7 -7 -12 -45 -15 -45 -3 0 10 -174 2 -181 -9 -10 -17
-59 15 -59 38 0 12 -4 24 -9 28 -6 3 -9 18 -8 33 2 22 7 26 25 24 12 -2 22 2
22 7 0 13 3 12 -77 14 -42 1 -64 -2 -68 -10 -3 -8 5 -13 20 -13 14 0 25 -4 25
-10 0 -16 -67 -12 -74 5 -3 8 -13 15 -23 15 -13 0 -14 -3 -5 -12 7 -7 12 -21
12 -31 0 -17 5 -19 53 -13 l53 7 12 -46 c17 -62 16 -65 -17 -65 -29 0 -41 14
-41 50 0 15 -10 20 -45 26 -43 6 -45 8 -45 40 0 18 -4 36 -10 39 -5 3 -10 19
-10 36 0 16 -5 29 -11 29 -7 0 -9 -10 -4 -27 8 -30 8 -77 -1 -105 -3 -12 5
-19 30 -28 43 -14 58 -33 25 -30 -42 4 -59 0 -59 -11 0 -14 -30 -38 -47 -39
-7 0 -13 4 -13 10 0 5 8 6 18 3 15 -6 15 -5 4 10 -8 8 -20 13 -28 10 -8 -3
-21 0 -28 6 -12 10 -14 4 -14 -33 0 -30 4 -46 12 -46 14 0 10 -57 -5 -66 -12
-7 -11 -111 1 -119 6 -3 10 -11 10 -16 0 -6 -5 -7 -10 -4 -6 4 -10 -10 -10
-34 0 -22 5 -42 13 -44 10 -4 10 -6 0 -6 -9 -1 -13 -18 -13 -52 0 -29 4 -48 9
-44 6 3 46 7 90 10 87 4 101 -4 101 -54 0 -21 -19 -30 -21 -11 -1 6 -2 14 -3
20 -4 30 -38 34 -158 18 -17 -2 -18 -29 -18 -395 0 -371 1 -393 18 -384 9 5
49 14 87 20 125 20 179 33 232 53 29 11 59 18 67 15 7 -3 17 -2 22 3 10 10
136 30 232 37 54 4 61 3 56 -11 -8 -22 -1 -20 42 9 20 14 48 25 61 25 13 0 38
7 54 16 17 8 40 14 52 12 12 -2 29 4 37 12 25 27 144 100 161 100 9 0 22 7 29
15 7 8 19 15 28 15 8 0 23 6 31 14 21 19 147 66 175 66 27 0 46 18 39 35 -2 8
5 18 16 25 12 6 21 17 21 24 0 7 9 21 20 31 11 10 17 21 15 25 -3 4 4 10 15
13 12 3 20 14 20 26 0 15 9 22 35 27 43 8 41 28 -3 32 -50 5 -37 21 16 20 29
0 61 8 83 19 18 11 47 23 63 27 50 12 9 27 -56 20 -67 -8 -122 2 -97 17 26 14
201 15 225 1 18 -9 24 -9 34 3 7 8 21 15 31 15 11 0 19 7 19 15 0 15 88 65
115 65 8 0 20 11 25 25 7 18 17 25 35 25 14 0 33 8 44 19 12 12 28 17 44 14
13 -3 28 0 31 6 8 13 36 15 36 3 0 -4 -17 -14 -37 -21 -21 -7 -47 -21 -58 -31
-11 -10 -31 -20 -45 -23 -33 -8 -142 -75 -178 -109 -16 -14 -46 -30 -68 -34
-21 -4 -58 -15 -80 -25 -47 -19 -164 -105 -164 -120 0 -5 -6 -9 -12 -9 -14 -1
-58 -34 -58 -44 0 -3 -16 -26 -35 -52 -19 -25 -35 -53 -35 -63 0 -28 -28 -60
-49 -54 -10 3 -22 0 -25 -6 -4 -7 1 -11 12 -11 23 0 34 -21 21 -41 -4 -8 -8
-41 -8 -74 0 -33 -8 -85 -17 -115 -8 -30 -16 -64 -15 -74 0 -11 -8 -25 -17
-33 -13 -10 -14 -15 -4 -21 13 -9 6 -98 -9 -108 -5 -3 -9 -21 -9 -40 0 -19 -4
-34 -10 -34 -5 0 -10 5 -10 10 0 6 -4 10 -10 10 -18 0 -11 -39 9 -49 17 -9 19
-23 19 -132 1 -104 -1 -118 -13 -102 -20 27 -29 9 -11 -24 31 -57 37 -78 34
-117 l-3 -41 -14 27 c-8 16 -21 28 -29 28 -11 0 -12 -3 -2 -15 12 -15 4 -59
-10 -50 -4 2 -10 18 -12 34 -3 24 0 32 20 40 20 10 22 14 12 26 -16 19 -36 19
-44 0 -3 -8 -12 -12 -21 -9 -22 9 -13 27 16 34 20 5 23 11 21 35 -2 17 -8 34
-13 39 -16 18 -9 26 16 20 39 -10 44 21 9 57 -29 31 -26 45 13 51 16 2 20 7
14 16 -6 10 -14 10 -35 2 -24 -9 -29 -8 -33 10 -9 33 -22 23 -20 -15 1 -19 7
-35 13 -35 14 0 27 -46 19 -61 -9 -14 -27 1 -21 17 3 8 -6 26 -19 40 -14 15
-25 33 -25 41 0 8 -9 26 -20 40 -11 14 -20 32 -20 40 0 14 -13 33 -42 60 -9 9
-15 20 -12 25 6 10 -24 23 -33 15 -3 -4 6 -22 21 -41 14 -19 26 -38 26 -41 0
-4 9 -20 21 -36 11 -16 22 -35 23 -42 1 -7 5 -17 9 -24 13 -20 -13 -26 -34 -7
-10 9 -22 14 -26 10 -4 -4 -3 -10 3 -14 18 -12 26 -72 10 -72 -13 0 -28 29
-30 60 -1 9 -9 26 -18 39 -14 19 -23 23 -47 18 -25 -5 -33 -2 -49 21 -11 15
-17 32 -15 38 2 5 -8 21 -22 34 -14 13 -25 28 -25 34 0 6 -13 20 -28 31 l-26
19 20 -29 c11 -17 24 -37 28 -45 3 -8 22 -44 41 -79 39 -72 41 -81 20 -81 -8
0 -15 6 -15 14 0 20 -18 30 -33 17 -9 -7 -21 -5 -42 9 -17 11 -40 20 -53 20
-12 0 -25 7 -28 15 -4 8 -15 15 -25 15 -24 0 -25 -16 0 -23 17 -4 36 -56 24
-67 -6 -6 -53 51 -53 66 0 6 -11 21 -25 34 -14 13 -25 29 -25 36 0 7 -4 16
-10 19 -21 13 -9 -35 15 -61 14 -15 25 -35 25 -44 0 -10 7 -23 15 -30 8 -7 15
-19 15 -26 0 -8 5 -14 10 -14 20 0 10 -28 -12 -35 -22 -7 -21 -8 7 -12 17 -3
34 -9 40 -14 5 -5 17 -9 27 -9 11 0 30 -12 43 -26 15 -16 30 -24 42 -20 12 3
24 -3 36 -19 21 -29 5 -45 -22 -21 -28 25 -31 19 -11 -21 16 -33 16 -38 3 -41
-18 -5 -42 26 -43 53 0 22 -32 55 -53 55 -8 -1 -6 -5 4 -13 18 -13 35 -57 22
-57 -4 0 -17 7 -27 15 -11 8 -27 15 -37 15 -9 0 -22 7 -29 15 -7 8 -23 15 -35
15 -12 0 -28 7 -35 15 -7 8 -25 15 -40 15 -15 0 -33 7 -40 15 -7 8 -22 15 -34
15 -23 1 -66 32 -66 48 0 15 26 8 50 -13 11 -10 23 -15 26 -12 4 3 -6 17 -21
30 -34 28 -75 26 -75 -5 0 -27 55 -77 78 -71 10 2 26 -5 36 -16 13 -14 26 -19
41 -15 18 4 25 1 30 -15 5 -16 15 -21 40 -21 25 0 34 -5 38 -22 8 -30 3 -33
-25 -14 -12 9 -30 16 -40 16 -10 0 -27 9 -38 20 -11 11 -29 20 -41 20 -11 0
-28 7 -37 16 -12 12 -17 13 -20 4 -3 -7 0 -15 6 -19 14 -9 26 -71 13 -71 -14
0 -41 41 -41 62 0 22 -17 32 -33 20 -7 -5 -33 -12 -59 -15 -45 -6 -47 -5 -62
25 -9 17 -16 37 -16 45 0 7 -3 13 -8 13 -4 0 -13 15 -21 33 -20 45 -44 76 -58
77 -19 0 -16 -8 12 -42 14 -16 23 -34 19 -39 -13 -22 -36 -5 -64 50 -16 33
-34 62 -40 66 -6 3 -8 10 -5 14 2 5 -9 19 -25 31 -17 13 -30 31 -30 41 0 11
-7 19 -15 19 -8 0 -15 5 -15 10 0 6 -7 10 -15 10 -10 0 -6 -9 13 -30 58 -63
75 -91 64 -102 -14 -14 -39 7 -90 76 -25 34 -38 45 -40 34 -2 -8 11 -31 27
-49 35 -38 38 -49 13 -49 -20 0 -48 29 -55 57 -3 11 -5 6 -6 -12 0 -16 6 -39
14 -49 8 -11 15 -28 15 -39 0 -10 9 -21 19 -24 11 -3 21 -17 24 -33 6 -29 26
-43 45 -31 7 4 -1 22 -23 50 -19 24 -35 50 -35 57 0 22 41 17 47 -6 6 -22 23
-26 39 -10 17 17 41 1 48 -32 3 -17 15 -37 26 -45 12 -9 20 -26 20 -43 0 -18
7 -33 19 -39 10 -6 21 -22 23 -36 5 -22 1 -27 -23 -32 -31 -6 -34 -10 -19 -33
7 -12 12 -12 29 4 21 19 41 14 41 -10 0 -12 9 -15 37 -12 32 2 37 0 46 -25 12
-36 -1 -49 -20 -20 -12 17 -21 20 -49 16 -27 -4 -34 -2 -34 11 0 12 -10 16
-39 16 -26 0 -41 5 -45 16 -4 12 -14 14 -36 9 -23 -5 -30 -3 -30 9 0 9 8 16
17 16 9 0 31 5 48 11 25 10 32 17 32 40 0 19 -7 31 -18 34 -10 3 -16 12 -13
19 3 7 -2 16 -11 20 -10 3 -15 12 -11 21 3 8 -1 18 -8 22 -7 5 -18 17 -23 27
-9 17 -11 15 -11 -17 0 -20 4 -37 9 -37 7 0 49 -80 49 -94 0 -4 -7 -6 -15 -6
-8 0 -15 5 -15 10 0 6 -9 10 -20 10 -25 0 -25 9 -3 26 20 14 18 18 -15 29 -22
6 -23 5 -17 -29 4 -21 3 -36 -2 -36 -15 0 -43 35 -43 53 0 20 -48 69 -62 65
-6 -2 -4 -11 6 -20 21 -22 22 -83 1 -74 -9 3 -15 0 -15 -9 0 -22 18 -27 28 -9
12 21 42 11 49 -16 6 -22 18 -26 28 -10 8 13 55 13 55 1 0 -28 -85 -37 -113
-13 -22 19 -30 12 -21 -22 6 -25 10 -27 43 -21 l36 6 30 -65 c30 -65 47 -80
59 -51 3 9 -4 21 -19 31 -27 18 -34 54 -10 54 8 0 21 -13 30 -30 18 -35 31
-38 38 -10 3 11 12 20 21 20 10 0 13 -6 9 -16 -8 -21 16 -35 38 -23 28 15 37
11 54 -21 15 -28 14 -30 -4 -30 -11 0 -22 4 -25 8 -3 5 -26 9 -51 10 -49 0
-62 -18 -25 -38 16 -9 20 -8 20 5 0 25 30 17 40 -11 14 -35 3 -49 -21 -28 -16
14 -19 14 -19 2 0 -8 6 -23 14 -33 11 -15 17 -17 28 -8 16 14 28 7 46 -24 15
-29 15 -33 -2 -33 -8 0 -16 7 -20 15 -3 9 -18 15 -35 15 -31 0 -61 30 -61 61
0 9 -7 19 -15 23 -21 7 -19 -10 6 -61 20 -41 28 -48 58 -43 7 1 20 -8 28 -20
11 -16 22 -20 39 -16 16 4 27 0 37 -14 11 -16 21 -19 40 -15 20 5 28 2 37 -15
6 -12 9 -28 6 -36 -6 -17 -36 -7 -36 12 0 9 -11 14 -29 14 -16 0 -34 7 -41 15
-7 8 -20 15 -30 15 -9 0 -28 9 -42 19 -25 20 -68 19 -68 -1 0 -5 9 -7 19 -3
14 4 25 -3 40 -24 12 -16 21 -32 21 -35 0 -13 -28 -5 -45 14 -10 11 -26 20
-35 20 -9 0 -25 9 -35 20 -10 11 -26 20 -37 20 -10 0 -18 5 -18 10 0 6 -18 10
-40 10 -34 0 -42 4 -50 25 -6 15 -17 25 -30 25 -26 0 -26 -26 0 -33 11 -3 20
-13 20 -22 0 -12 -6 -16 -20 -12 -19 5 -19 -2 -19 -331 0 -250 3 -338 12 -344
9 -6 9 -8 0 -8 -19 0 -19 -1566 -1 -1574 10 -5 10 -7 1 -12 -16 -7 -19 -714
-3 -714 6 0 10 -11 10 -25 0 -14 -5 -25 -10 -25 -15 0 -13 -2909 2 -2927 8
-10 8 -17 0 -25 -9 -9 -12 -203 -12 -745 l0 -733 6420 0 6420 0 0 59 0 58
-165 169 c-163 165 -187 202 -135 197 l25 -3 -23 20 c-20 17 -22 24 -14 53 7
23 6 41 -2 55 -11 21 -12 21 -24 2 -7 -12 -8 -20 -2 -20 17 0 11 -39 -8 -58
-10 -10 -17 -23 -15 -29 5 -13 -51 -73 -67 -73 -5 0 -10 22 -10 48 0 36 5 54
20 67 22 20 27 64 9 82 -9 9 -7 10 10 6 11 -3 21 -9 21 -14 0 -5 7 -9 16 -9
11 0 14 6 8 23 -3 12 -7 22 -8 22 0 1 -14 6 -29 13 -60 26 -185 7 -194 -29 -4
-14 -13 -19 -27 -17 -16 2 -21 10 -21 33 0 24 9 35 45 60 37 24 55 30 101 30
60 0 92 17 87 44 -2 9 11 43 30 75 18 33 42 87 53 120 11 34 27 71 35 83 8 12
14 27 14 34 0 17 58 137 92 191 l30 48 -7 121 c-7 117 -7 121 11 111 10 -6 19
-19 19 -28 0 -18 37 -32 95 -37 l25 -2 2 2162 c3 1867 1 2163 -11 2163 -8 0
-17 9 -21 19 -7 22 -89 101 -105 101 -5 0 -10 5 -10 10 0 23 26 6 86 -57 l63
-68 0 218 c0 119 -2 217 -4 217 -2 0 -86 -7 -187 -15 -101 -9 -226 -18 -279
-20 -84 -3 -98 -1 -112 16 -16 17 -15 18 16 11 18 -4 50 -6 72 -5 124 6 378
28 448 39 46 6 47 8 47 41 0 19 -4 32 -9 29 -15 -10 -503 -54 -604 -56 -16 0
-30 6 -34 15 -8 23 1 27 33 15 22 -9 31 -8 39 2 14 19 160 38 306 39 83 1 113
4 91 9 -55 13 -46 17 50 23 103 5 128 12 128 34 0 12 -7 14 -27 9 -40 -9 -342
-43 -455 -51 -82 -6 -96 -9 -91 -22 5 -13 2 -15 -18 -8 -13 4 -42 8 -65 9 -40
1 -74 19 -74 39 0 10 -29 36 -41 37 -14 0 5 -52 22 -63 11 -7 19 -15 19 -20 0
-11 70 -110 88 -125 11 -8 13 -15 5 -23 -7 -7 -23 5 -53 43 -23 29 -46 62 -50
73 -4 11 -24 38 -44 59 -20 22 -36 44 -36 49 0 6 -8 16 -17 23 -10 7 -13 14
-6 14 6 0 15 -4 18 -10 8 -12 45 -13 45 -1 0 12 -69 81 -81 81 -5 0 -12 -6
-15 -14 -7 -17 -24 -12 -75 21 -20 13 -50 25 -66 27 -17 3 -44 11 -59 19 l-29
15 38 7 c20 4 50 4 65 0 15 -3 60 -11 99 -17 67 -10 74 -10 90 8 32 35 67 54
101 54 18 0 88 11 155 24 82 17 174 26 282 30 88 3 186 9 218 12 l57 7 0 1318
0 1318 -32 4 -33 4 33 1 32 2 0 453 0 452 -97 -2 c-54 -1 -116 -4 -138 -7 -40
-6 -76 6 -62 20 4 4 47 8 95 9 163 2 202 5 202 15 0 6 -10 15 -22 20 l-23 9
23 0 c15 1 22 7 22 22 0 15 -5 19 -22 17 -30 -4 -34 18 -3 26 15 4 25 13 25
24 0 16 -10 17 -92 15 -114 -3 -192 -9 -418 -29 -96 -9 -246 -18 -333 -21
-151 -5 -159 -4 -181 16 -12 12 -25 18 -29 15 -3 -3 -30 -9 -59 -13 l-53 -8
40 -7 c78 -14 86 -17 79 -27 -3 -6 -17 -8 -30 -5 -14 4 -48 3 -77 -1 l-52 -7
45 -8 c27 -5 85 -4 148 3 78 9 106 9 114 1 7 -7 22 -12 35 -12 44 0 23 -15
-25 -17 -26 -1 -126 -7 -222 -13 -343 -21 -362 -21 -358 -2 2 9 9 16 15 15 5
-1 15 9 21 22 9 18 8 24 -4 29 -16 6 -46 -3 -55 -17 -4 -5 -18 -11 -32 -12
-31 -4 -47 -13 -47 -27 0 -6 13 -8 35 -4 31 6 36 4 50 -23 8 -17 15 -37 15
-46 0 -26 -21 -17 -31 15 -12 32 -35 39 -67 19 -21 -13 -132 -3 -132 12 0 5 6
9 13 9 6 1 -1 8 -16 16 -24 13 -34 13 -58 4 -16 -7 -44 -10 -62 -7 l-33 5 2
-69 c0 -39 6 -75 12 -81 17 -17 15 -40 -4 -36 -9 2 -24 23 -34 48 -17 43 -100
219 -119 250 -4 8 -36 73 -70 144 -35 71 -90 170 -123 220 -62 93 -161 195
-188 195 -9 0 3 -15 26 -37 50 -45 120 -134 130 -165 3 -12 12 -29 19 -37 37
-45 205 -402 205 -437 0 -15 12 -46 25 -68 22 -35 35 -78 19 -63 -3 3 -21 2
-41 -3 -21 -4 -44 -4 -54 1 -18 10 -65 -7 -73 -25 -4 -12 66 -10 137 3 45 9
49 8 59 -14 22 -48 14 -50 -168 -41 -116 6 -175 5 -186 -2 -36 -22 -58 -8 -58
39 0 18 -1 18 138 19 23 0 42 4 42 9 0 12 -46 32 -55 24 -4 -4 -28 -8 -53 -8
-26 -1 -72 -4 -102 -7 -30 -2 -116 -10 -190 -16 -148 -12 -200 -19 -200 -27 0
-3 7 -19 16 -35 18 -36 17 -39 -28 -46 -57 -9 -68 -7 -68 12 0 8 -6 15 -13 15
-23 0 -27 -12 -9 -27 15 -12 7 -13 -58 -12 -41 1 -83 -2 -93 -6 -12 -5 -22 -2
-31 10 -11 16 -19 16 -85 5 -40 -7 -90 -9 -111 -6 -40 6 -100 -2 -100 -14 0
-4 20 -7 45 -8 25 0 57 -7 70 -16 13 -9 33 -16 44 -16 11 0 23 -5 26 -10 3 -5
17 -10 31 -10 38 0 28 -17 -13 -23 -56 -8 -224 7 -255 24 -29 15 -52 14 -316
-12 -107 -10 -142 -10 -181 0 -39 10 -54 10 -72 1 -14 -8 -50 -11 -100 -8 -72
4 -77 3 -68 -13 7 -14 4 -19 -14 -26 -26 -9 -320 -7 -351 3 -21 7 -21 7 -1 15
16 6 13 8 -15 8 -24 1 -31 4 -21 10 7 5 10 14 7 20 -5 8 13 11 58 11 36 0 68
5 71 10 8 12 -6 13 -165 11 -69 0 -138 -5 -155 -9 l-30 -9 35 -15 c19 -8 71
-27 115 -43 44 -16 85 -32 91 -36 6 -5 80 -26 165 -49 271 -70 330 -87 519
-150 314 -104 448 -160 508 -211 29 -24 -1 -20 -65 9 -130 58 -159 70 -258
101 -55 18 -107 36 -116 41 -13 7 -74 24 -209 60 -19 5 -66 18 -105 29 -38 12
-115 32 -170 45 -55 14 -139 38 -187 55 -76 27 -151 39 -256 41 -29 0 1 20 31
20 l32 1 -25 14 c-14 8 -60 28 -103 45 -43 17 -116 49 -163 71 -47 22 -88 39
-90 36 -5 -4 20 -46 61 -104 10 -15 26 -23 44 -23 16 0 34 -7 41 -15 17 -20
12 -23 -32 -18 -42 6 -52 14 -128 108 -30 37 -75 81 -100 98 -73 52 -151 97
-166 97 -8 0 -14 7 -14 15 0 21 50 19 66 -2 12 -16 13 -15 14 10 0 15 -6 30
-12 32 -15 6 -16 83 -3 128 4 16 19 52 33 80 14 29 25 59 23 68 -1 9 16 34 38
57 43 44 60 87 43 104 -10 10 12 65 33 80 6 5 4 12 -5 19 -11 8 -12 12 -2 16
7 2 19 12 28 20 14 15 14 17 0 25 -13 7 -15 18 -10 46 4 20 11 42 15 48 5 6 6
19 3 29 -5 13 -3 16 7 13 18 -6 61 55 53 75 -3 8 0 18 6 22 8 5 8 10 0 21 -9
10 -5 26 20 71 26 47 35 80 46 168 22 170 25 188 32 199 3 6 7 19 7 30 1 10 8
24 16 30 16 12 25 144 23 366 0 96 -4 132 -17 157 -9 18 -17 44 -17 59 0 15
-4 43 -9 63 -37 147 -44 190 -33 218 21 56 41 139 45 192 3 36 10 57 21 63 9
5 14 14 10 19 -4 6 -10 6 -19 -1 -10 -8 -14 -1 -19 29 -3 22 -9 47 -12 56 -6
14 -3 16 17 11 l24 -7 -26 23 c-40 36 -68 89 -90 174 -18 72 -19 98 -14 284 5
150 10 211 21 227 29 45 8 233 -27 233 -8 0 -8 4 -2 13 14 17 15 131 1 164 -6
16 -10 34 -9 41 1 8 -5 12 -16 10 -14 -2 -17 2 -14 22 7 50 6 55 -13 52 -17
-3 -18 1 -13 36 3 25 0 51 -9 67 -7 14 -16 42 -20 61 -4 21 -21 50 -41 70 -36
37 -48 43 -39 19 9 -26 -14 -16 -26 10 -6 14 -15 25 -20 25 -5 0 -17 19 -28
43 -26 58 -53 86 -88 93 -23 5 -32 14 -42 44 -7 21 -10 50 -6 66 l7 28 -19
-24 -20 -25 -46 46 c-35 35 -46 54 -46 77 0 32 -3 34 -69 47 -22 5 -49 22 -72
47 -31 34 -45 41 -90 46 -43 6 -56 12 -64 30 -5 12 -15 22 -21 22 -17 0 -24
26 -12 38 6 6 8 18 4 28 -5 13 -9 15 -18 6 -20 -20 -47 -14 -74 16 l-25 27 17
-27 c14 -25 15 -28 1 -28 -19 0 -89 46 -100 66 -5 8 -23 14 -45 14 -29 0 -39
5 -47 23 -11 24 -75 50 -100 41 -14 -6 -13 -8 2 -19 24 -18 8 -33 -17 -17 -11
7 -36 12 -55 12 -33 0 -35 2 -35 33 0 19 -3 37 -7 40 -10 11 -33 -14 -33 -35
0 -18 -4 -19 -37 -13 -21 4 -53 15 -73 25 -30 17 -32 19 -12 20 30 0 18 20
-12 20 -13 0 -30 9 -37 19 -8 10 -21 16 -29 13z m-1600 -4430 c0 -37 -4 -72
-9 -77 -11 -13 -31 -151 -31 -219 0 -69 13 -103 76 -206 69 -113 184 -220 354
-331 152 -99 194 -124 238 -143 23 -11 42 -23 42 -28 0 -5 -3 -8 -7 -6 -106
53 -164 83 -188 98 -16 11 -50 29 -74 42 -24 12 -46 28 -48 35 -3 7 -13 13
-22 13 -9 0 -23 9 -31 20 -8 11 -19 20 -25 20 -5 0 -33 20 -60 44 -27 25 -51
43 -53 41 -8 -7 -40 30 -44 50 -2 13 -11 19 -24 18 -21 -2 -48 35 -49 67 0 8
-11 17 -25 19 -31 4 -42 19 -35 47 3 16 -2 27 -20 38 -14 9 -25 25 -25 35 0
10 -11 26 -25 35 -14 9 -25 25 -25 35 0 10 -6 24 -14 30 -8 7 -12 20 -9 30 3
10 0 22 -6 25 -6 4 -12 -9 -16 -31 -7 -42 -28 -86 -44 -91 -17 -6 -13 18 25
139 40 130 88 239 124 286 39 51 50 43 50 -35z m7989 -366 c14 -16 -28 -24
-204 -36 -66 -4 -138 -13 -160 -20 -22 -7 -53 -12 -70 -12 -16 0 -24 -2 -17
-5 16 -6 16 -33 -1 -33 -7 0 -25 14 -40 31 -19 22 -32 29 -45 24 -37 -15 -82
-17 -96 -6 -8 7 -25 12 -38 11 -36 -3 -52 -1 -44 7 3 4 44 6 91 4 53 -1 92 2
107 10 13 7 65 13 123 14 135 2 348 14 354 20 9 9 29 5 40 -9z m-179 -131 c7
-9 11 -17 9 -19 -2 -2 -56 -6 -119 -10 -63 -3 -151 -8 -196 -12 -60 -5 -83 -3
-89 6 -13 21 16 30 105 31 47 0 94 4 105 9 11 5 54 9 96 9 57 1 80 -3 89 -14z
m-2118 -138 c-25 -8 -31 -14 -27 -28 4 -12 -1 -19 -14 -24 -10 -3 -22 -13 -25
-21 -4 -11 -11 -12 -23 -5 -10 5 -52 12 -93 16 -75 7 -106 19 -112 45 -2 10
10 13 47 11 28 -1 63 2 79 7 16 4 68 8 115 8 71 0 80 -1 53 -9z m-1072 -296
c9 -11 61 -5 70 8 4 8 13 10 21 5 23 -14 62 -15 141 -3 44 6 94 8 115 4 l38
-8 -30 -7 c-16 -4 -53 -8 -81 -9 -28 0 -73 -7 -100 -15 -27 -8 -85 -17 -129
-20 -44 -4 -111 -9 -149 -12 -49 -4 -67 -3 -62 5 4 6 24 11 45 11 45 0 101 18
101 32 0 7 -17 8 -47 3 -97 -14 -105 -15 -100 -2 2 7 19 15 38 18 37 6 121 0
129 -10z m-2075 -168 c-11 -198 -19 -272 -44 -378 -5 -22 -19 -85 -31 -139
-11 -55 -25 -106 -29 -115 -5 -9 -11 -47 -15 -84 -10 -99 -17 -127 -32 -127
-8 0 -14 -4 -14 -10 0 -5 6 -7 13 -4 24 9 50 -32 43 -66 -4 -21 0 -39 10 -56
10 -14 14 -35 11 -50 -3 -20 0 -28 13 -31 19 -5 43 -49 35 -64 -3 -5 0 -19 7
-31 36 -64 47 -128 23 -128 -14 0 -85 116 -85 140 0 8 -9 23 -19 34 -22 24
-123 183 -148 236 -22 45 -89 126 -181 220 -41 41 -84 86 -96 99 l-21 23 35
-6 c19 -3 40 -13 46 -21 6 -8 20 -15 32 -15 14 0 22 -8 27 -29 4 -21 18 -36
46 -50 22 -12 44 -21 49 -21 17 0 11 62 -7 82 -9 10 -18 26 -19 36 -1 9 -5 26
-9 36 -6 14 -5 17 3 12 7 -4 12 -13 12 -20 0 -8 7 -19 15 -26 9 -7 13 -20 10
-27 -3 -10 1 -13 13 -11 13 2 18 15 20 60 2 43 7 58 19 60 12 2 16 15 16 56
-1 47 1 52 18 47 24 -8 33 13 21 46 -11 33 -5 57 19 64 24 8 25 31 2 44 -14 8
-15 12 -4 25 8 10 11 28 8 46 -4 16 -2 32 3 35 6 4 10 -9 10 -30 0 -40 14 -39
25 2 4 19 2 29 -9 35 -9 5 -16 15 -16 22 0 17 27 29 35 16 12 -20 35 -10 35
14 0 29 -19 44 -30 26 -9 -15 -30 -4 -30 16 0 8 -5 14 -11 14 -5 0 -7 5 -4 10
3 6 16 10 27 10 11 0 27 8 34 18 12 14 15 15 23 3 8 -12 11 -10 16 10 5 18 62
66 83 69 2 0 1 -57 -3 -127z m-808 -617 c-4 -11 -26 -84 -53 -178 -3 -10 -14
-18 -25 -18 -17 0 -18 -5 -13 -39 6 -40 -15 -124 -41 -167 -7 -11 -25 -56 -40
-100 -15 -43 -33 -89 -41 -100 -7 -12 -25 -58 -39 -103 -15 -44 -30 -83 -35
-86 -5 -3 -17 6 -26 20 -9 14 -24 25 -33 25 -17 0 -54 25 -206 139 -102 77
-155 117 -215 161 -26 19 -62 47 -81 61 -19 14 -77 58 -131 97 -54 40 -103 84
-111 101 -24 49 -4 44 34 -7 26 -35 41 -46 58 -44 16 1 24 -4 28 -18 3 -11 9
-20 13 -20 5 0 16 -7 25 -16 9 -9 27 -16 41 -16 14 0 29 -9 34 -19 6 -10 19
-21 30 -24 11 -3 20 -13 20 -21 0 -8 13 -17 29 -20 15 -3 45 -21 66 -40 21
-19 49 -34 62 -34 13 0 23 -6 23 -14 0 -8 9 -17 19 -21 10 -3 21 -15 24 -25 3
-11 14 -20 24 -20 11 0 53 -29 94 -65 41 -35 79 -65 85 -65 6 0 17 -7 24 -15
7 -8 28 -15 46 -15 l34 0 0 66 c0 65 0 66 24 60 14 -3 27 -2 31 4 10 16 -7 60
-24 60 -9 0 -1 8 17 17 22 11 31 21 27 31 -3 9 -1 18 5 22 15 9 2 60 -15 60
-7 0 -15 8 -19 18 -3 9 -9 23 -12 30 -9 20 34 14 45 -7 15 -27 63 -17 59 13
-2 17 -9 20 -34 18 -26 -2 -33 1 -37 20 -4 12 -2 27 4 33 6 6 12 2 15 -13 6
-22 34 -32 34 -12 0 6 8 10 19 10 14 0 19 9 23 44 3 23 15 57 28 74 12 17 23
43 23 58 0 18 8 35 23 47 13 10 22 22 19 27 -7 11 5 40 17 40 6 0 8 -6 5 -14z
m-5913 -45 c3 -5 47 -7 96 -5 67 3 89 1 84 -8 -5 -8 -2 -9 10 -5 41 16 66 19
66 8 0 -6 -7 -11 -15 -11 -8 0 -15 -4 -15 -9 0 -6 -51 -12 -112 -15 -62 -3
-139 -8 -170 -11 -49 -6 -58 -4 -58 9 0 9 5 16 10 16 6 0 10 4 10 9 0 5 -22 8
-50 8 -27 0 -50 -4 -50 -9 0 -4 -4 -8 -10 -8 -5 0 -10 8 -10 18 0 16 11 18
104 20 58 1 107 -2 110 -7z m7252 -480 c5 -25 4 -32 -4 -27 -7 4 -12 1 -12 -8
0 -10 6 -13 15 -10 8 4 15 2 15 -2 0 -5 7 -52 15 -104 8 -52 15 -114 15 -138
0 -30 6 -47 20 -59 24 -21 26 -43 5 -43 -8 0 -15 -7 -15 -15 0 -8 4 -15 8 -15
15 0 42 36 35 45 -5 4 -2 5 5 1 21 -13 13 -32 -29 -65 -37 -30 -40 -37 -38
-75 3 -39 2 -41 -25 -39 -24 2 -26 0 -15 -15 8 -9 15 -19 16 -21 2 -3 21 13
43 34 22 22 40 34 40 28 0 -6 -6 -16 -14 -22 -8 -7 -22 -27 -31 -46 -9 -19
-20 -35 -25 -35 -5 0 -20 24 -34 53 -14 30 -53 80 -94 120 -77 77 -76 70 -51
213 7 38 15 93 18 123 3 30 11 56 17 58 17 5 48 -177 41 -241 -5 -47 -3 -57
16 -72 12 -10 16 -12 10 -4 -15 16 -17 50 -4 50 15 0 20 39 21 160 2 198 17
267 36 171z m-836 -433 c7 -18 35 -77 62 -132 27 -54 59 -124 70 -155 12 -31
27 -65 34 -76 18 -26 18 -66 -1 -91 -13 -17 -14 -15 -15 33 0 55 -12 72 -35
53 -12 -10 -17 -7 -25 14 -5 15 -17 29 -25 32 -14 6 -13 8 2 20 22 16 9 43
-30 62 -26 13 -27 16 -27 97 0 71 -2 83 -15 79 -18 -7 -34 -42 -66 -144 -13
-41 -25 -67 -27 -58 -2 9 11 56 29 105 18 48 34 114 37 146 4 62 12 66 32 15z
m-1188 -183 c9 -16 23 -50 31 -75 23 -69 69 -174 79 -181 5 -3 11 -23 15 -45
3 -21 14 -51 24 -66 11 -14 19 -34 19 -45 0 -10 7 -31 15 -46 8 -16 20 -47 26
-70 6 -23 22 -66 36 -95 14 -29 25 -65 25 -80 0 -32 14 -53 32 -46 16 6 31
-27 16 -36 -7 -4 -7 -16 1 -37 6 -18 9 -43 7 -58 -2 -21 -11 -9 -41 62 -21 48
-54 135 -74 193 -20 58 -40 113 -45 123 -5 10 -26 66 -47 126 -21 59 -44 118
-51 131 -20 37 -70 182 -70 202 0 10 -7 29 -15 42 -22 33 -66 167 -58 179 3 5
18 -26 32 -69 15 -44 34 -92 43 -109z m-5096 -250 c7 -30 12 -31 29 -8 11 14
16 15 28 5 8 -7 13 -21 10 -33 -5 -19 -2 -20 31 -14 32 6 36 5 36 -13 0 -27
17 -37 35 -22 18 15 35 5 35 -20 0 -24 18 -36 33 -21 21 21 34 11 47 -34 7
-25 17 -45 21 -45 5 0 9 -7 9 -15 0 -12 -10 -14 -46 -11 -55 5 -57 7 -58 51
-1 19 -9 44 -19 55 -18 21 -37 26 -37 10 0 -5 5 -10 10 -10 6 0 10 -10 10 -23
0 -13 5 -28 12 -35 22 -22 1 -23 -26 -1 -34 27 -42 20 -21 -20 13 -25 19 -30
33 -22 24 13 38 2 45 -36 8 -39 -4 -43 -27 -8 -9 14 -24 25 -33 25 -24 0 -53
30 -53 53 0 24 -27 57 -47 57 -11 0 -11 -6 2 -36 19 -45 19 -44 -5 -44 -17 0
-20 7 -20 40 0 21 -6 43 -12 47 -18 11 -38 50 -31 57 12 12 24 6 35 -19 13
-28 33 -33 42 -9 8 22 26 8 26 -21 0 -31 12 -38 36 -20 18 13 18 14 -5 39 -14
14 -35 26 -47 26 -13 0 -28 9 -34 20 -8 15 -17 19 -34 14 -17 -4 -27 1 -39 20
-22 33 -21 46 3 46 13 0 22 -9 26 -25z m6554 -207 c6 -24 20 -72 32 -108 11
-36 29 -100 39 -143 10 -43 25 -90 33 -105 21 -41 29 -107 16 -131 -17 -33
-27 -25 -33 28 -3 28 -17 75 -32 106 -14 31 -30 88 -35 127 -13 90 -18 114
-36 161 -16 43 -19 107 -4 107 5 0 14 -19 20 -42z m-6135 -19 c4 -17 13 -33
21 -36 8 -3 14 -16 14 -29 0 -24 14 -32 25 -14 12 20 35 10 35 -15 0 -14 7
-28 15 -31 8 -3 17 -21 21 -40 7 -39 22 -53 34 -33 5 8 1 22 -11 37 -20 26
-26 62 -9 62 6 0 10 -9 10 -19 0 -11 6 -26 13 -33 8 -7 17 -26 21 -42 4 -17
14 -35 23 -41 9 -7 15 -25 14 -41 -5 -104 -14 -181 -23 -191 -7 -9 -7 -13 1
-13 6 0 11 -16 11 -35 0 -24 -5 -35 -15 -35 -8 0 -15 6 -15 14 0 8 -6 16 -12
19 -10 3 -10 9 -1 24 10 17 7 25 -17 51 -23 26 -25 32 -12 37 10 4 22 -2 33
-16 20 -27 33 -11 19 26 -8 22 -15 26 -35 21 -16 -4 -27 -1 -33 10 -7 13 -13
14 -28 6 -10 -6 -14 -12 -8 -12 13 0 29 -49 20 -58 -3 -3 -16 6 -29 20 -17 19
-21 29 -13 41 7 12 6 21 -7 35 -20 22 -23 66 -4 60 6 -3 14 -18 17 -34 6 -31
19 -36 34 -12 12 20 -23 70 -46 64 -9 -2 -27 8 -40 23 l-23 26 -3 -33 c-2 -23
2 -38 14 -46 12 -10 14 -15 5 -20 -18 -12 -41 13 -41 44 0 34 -25 59 -42 42
-16 -16 -28 -15 -28 3 0 8 9 15 20 15 21 0 27 15 10 25 -5 3 -6 13 -3 21 8 22
-16 35 -38 21 -10 -6 -21 -8 -25 -5 -11 12 5 40 20 35 10 -4 13 3 11 24 -1 16
-5 32 -9 36 -9 10 -7 23 4 23 6 0 10 -7 10 -15 0 -8 4 -15 9 -15 5 0 11 -13
15 -30 6 -31 30 -41 40 -15 3 8 11 12 18 10 21 -8 14 49 -11 84 -12 17 -19 36
-16 41 10 17 33 -7 40 -41z m-725 -69 c8 -14 19 -20 37 -18 17 2 29 -4 37 -17
6 -11 12 -22 13 -24 2 -2 10 2 18 9 9 7 37 13 63 12 26 0 50 5 54 11 5 9 11 8
20 -1 11 -11 9 -16 -11 -31 -19 -14 -23 -25 -19 -50 4 -30 -4 -41 -17 -21 -12
20 -23 0 -16 -28 4 -15 6 -33 3 -40 -7 -21 -32 7 -32 36 0 32 -46 93 -65 86
-8 -3 -20 4 -27 15 -8 14 -23 21 -43 21 -31 0 -62 31 -50 50 10 16 23 12 35
-10z m7060 -587 c0 -12 5 -34 11 -50 26 -67 109 -367 109 -395 0 -16 -8 -40
-18 -53 -18 -23 -18 -22 -14 34 3 44 0 60 -12 70 -9 7 -16 24 -16 37 0 13 -4
33 -9 46 -19 46 -54 164 -58 198 -3 19 -9 43 -15 53 -5 10 -11 50 -13 90 l-4
72 19 -40 c11 -22 20 -50 20 -62z m3870 -183 c0 -11 -7 -14 -52 -24 -16 -4
-28 -12 -28 -20 0 -13 -41 -36 -65 -36 -17 0 -20 16 -5 25 17 11 11 25 -7 18
-26 -10 -73 -45 -73 -55 0 -5 14 -11 30 -14 33 -7 41 -24 11 -24 -11 0 -28
-11 -39 -25 -11 -14 -26 -25 -33 -25 -8 0 -23 -7 -33 -15 -11 -8 -30 -15 -42
-15 -14 0 -25 -8 -29 -19 -7 -23 -61 -45 -71 -30 -3 6 -4 11 -3 12 2 1 21 10
41 21 20 10 39 25 42 32 8 22 -76 6 -93 -17 -10 -14 -26 -19 -64 -19 -36 0
-53 -5 -63 -17 -12 -17 -14 -17 -31 0 -14 14 -18 34 -18 103 0 47 4 88 9 91 5
4 37 7 70 9 34 1 93 7 131 13 39 6 124 16 189 21 66 5 121 12 124 15 10 10
102 5 102 -5z m313 -174 c21 -2 43 -8 50 -14 6 -5 33 -13 59 -16 45 -7 79 -19
143 -52 17 -9 64 -34 106 -55 42 -22 84 -48 93 -58 10 -11 31 -25 47 -31 16
-7 29 -19 29 -26 0 -8 -2 -14 -5 -14 -11 0 -84 40 -130 71 -58 39 -232 117
-289 129 -22 5 -59 13 -81 19 -52 14 -302 14 -310 1 -3 -5 -19 -10 -35 -10
-16 0 -32 -4 -35 -10 -3 -5 -20 -10 -37 -10 -16 0 -41 -9 -55 -20 -14 -11 -34
-20 -44 -20 -11 0 -19 -4 -19 -10 0 -5 -21 -21 -46 -36 -40 -24 -51 -26 -75
-17 -30 12 -31 11 -33 -27 -1 -11 -22 -18 -83 -25 -45 -5 -85 -13 -89 -17 -11
-12 -24 1 -24 23 0 15 5 19 18 14 11 -3 32 1 48 10 16 8 40 15 54 15 13 0 38
14 56 31 21 20 46 33 69 36 19 2 45 13 56 24 11 11 33 22 50 26 17 3 33 12 36
19 3 8 17 14 32 14 14 0 35 7 45 15 11 8 38 15 60 15 23 0 47 4 53 8 12 8 206
6 286 -2z m-4018 -248 c22 -73 43 -247 41 -340 -4 -133 -22 -176 -65 -149 -18
11 -9 113 14 157 18 35 19 79 4 140 l-11 44 -20 -37 c-46 -88 -51 -64 -7 32
28 58 31 73 25 121 -6 54 6 74 19 32z m1743 -263 c5 -5 21 -34 38 -62 16 -29
35 -53 42 -53 16 0 86 35 184 93 73 43 77 45 83 26 4 -11 5 -22 3 -24 -5 -4
-186 -105 -263 -147 -38 -20 -169 -87 -290 -149 -121 -61 -269 -139 -330 -173
-222 -126 -226 -128 -241 -115 -25 21 -15 33 69 79 45 25 113 62 152 83 38 21
88 49 110 61 22 13 78 40 125 61 47 21 145 66 219 101 73 35 137 64 142 64 22
0 18 25 -9 53 -32 35 -92 138 -92 159 1 11 21 -9 58 -57z m-2304 -561 c-43
-82 -125 -237 -182 -344 -57 -107 -111 -207 -119 -222 -17 -33 -33 -36 -33 -8
0 11 4 20 9 20 5 0 21 24 35 53 13 28 32 63 40 77 9 14 23 41 31 60 9 19 26
53 38 75 13 22 56 103 96 180 70 135 151 268 159 261 2 -2 -32 -71 -74 -152z
m166 -30 c-23 -49 -46 -97 -51 -106 -5 -10 -9 -24 -9 -32 0 -8 -6 -21 -12 -28
-20 -22 -40 -54 -94 -158 -10 -19 -26 -43 -35 -53 -10 -11 -20 -31 -24 -45 -3
-15 -28 -66 -56 -113 -27 -48 -49 -91 -49 -97 0 -6 -6 -15 -14 -19 -7 -4 -19
-19 -25 -31 -7 -13 -15 -22 -17 -19 -4 4 101 214 193 387 22 41 75 140 118
220 98 184 109 203 113 192 1 -5 -16 -49 -38 -98z m187 4 c-3 -13 -9 -43 -12
-68 -4 -25 -14 -59 -23 -77 -10 -18 -34 -67 -55 -110 -21 -43 -49 -91 -61
-108 -12 -16 -35 -55 -50 -85 -52 -106 -116 -206 -168 -262 -29 -32 -56 -57
-60 -58 -14 0 -8 50 13 113 22 66 135 293 156 315 7 7 13 18 13 23 0 6 19 43
42 82 23 40 52 89 63 109 37 67 85 129 108 138 34 14 40 12 34 -12z m40 -245
c-35 -71 -73 -143 -84 -159 -34 -48 -169 -266 -188 -304 -10 -19 -29 -50 -43
-68 -14 -19 -36 -55 -48 -80 -13 -26 -22 -38 -20 -27 2 21 49 113 116 230 22
39 44 80 50 92 5 11 14 24 19 28 6 3 25 34 42 68 35 71 49 96 67 115 6 7 12
18 12 24 0 21 51 119 65 124 7 3 19 20 26 37 12 31 38 61 47 53 2 -3 -25 -62
-61 -133z m248 -43 c-5 -15 -3 -18 9 -14 20 8 21 -14 2 -52 -17 -31 -9 -56 9
-31 8 11 29 17 59 18 25 1 46 6 46 11 0 4 4 8 9 8 6 0 3 -12 -5 -27 -7 -16
-14 -39 -14 -53 0 -14 -15 -47 -32 -75 -18 -27 -44 -75 -58 -105 -15 -30 -39
-70 -54 -87 -15 -18 -48 -72 -72 -119 -69 -133 -163 -254 -196 -254 -21 0 -22
4 -8 30 13 24 20 81 9 75 -4 -3 -10 -1 -14 5 -13 22 -35 10 -35 -20 0 -19 -7
-33 -21 -40 -20 -11 -20 -11 -4 14 17 25 16 26 -10 36 -15 6 -31 7 -36 4 -6
-3 3 18 19 48 75 138 106 190 157 263 30 44 64 99 75 122 12 23 24 45 29 47 5
3 20 31 35 61 14 31 37 67 51 81 14 14 28 36 31 49 3 14 10 25 16 25 5 0 7 -9
3 -20z m-136 -92 c-12 -24 -39 -69 -60 -100 -22 -32 -39 -60 -39 -63 0 -3 -5
-11 -10 -18 -31 -38 -100 -138 -100 -147 0 -5 -21 -43 -47 -84 -27 -41 -64
-100 -83 -131 -59 -98 -44 -41 17 65 112 194 216 361 255 412 16 20 37 56 48
80 23 52 34 65 38 45 2 -9 -7 -35 -19 -59z m324 -85 c-14 -36 -110 -210 -154
-278 -25 -38 -58 -92 -74 -120 -15 -27 -46 -77 -69 -110 -22 -33 -50 -76 -61
-96 -33 -59 -67 -110 -71 -106 -6 6 71 164 106 217 15 25 39 65 51 90 12 25
42 71 66 103 24 31 43 61 43 66 0 4 18 36 40 70 22 34 40 66 40 71 0 5 9 14
20 20 11 6 20 17 20 24 0 13 37 66 45 66 3 0 1 -8 -2 -17z m77 -202 c-6 -16
-9 -39 -5 -51 4 -13 -1 -34 -15 -58 -15 -24 -18 -38 -10 -40 15 -5 -20 -31
-42 -32 -19 0 -26 -20 -8 -20 17 0 11 -28 -16 -83 -14 -29 -22 -47 -17 -42 21
23 83 116 83 125 0 6 5 10 10 10 6 0 10 6 10 14 0 22 49 49 76 42 42 -11 55
-69 29 -130 -7 -16 -5 -18 8 -13 10 4 28 1 42 -5 28 -13 32 -40 10 -78 -8 -14
-19 -35 -24 -47 -6 -12 -33 -59 -62 -105 -108 -174 -303 -532 -304 -558 0 -3
-13 -35 -29 -71 -27 -65 -29 -67 -114 -114 -48 -27 -100 -58 -117 -70 -43 -32
-333 -177 -345 -173 -5 1 9 28 33 58 24 30 58 81 76 113 44 77 62 57 20 -21
-28 -53 -31 -78 -7 -54 7 7 20 12 29 12 19 0 79 46 79 61 0 5 12 28 27 52 15
23 32 56 38 72 33 92 177 274 208 262 14 -5 14 -12 0 -64 -21 -84 -39 -134
-59 -170 -23 -40 -18 -45 27 -30 38 13 62 33 67 56 1 7 13 27 26 45 25 33 63
125 58 140 -2 5 3 16 11 25 7 9 19 35 26 59 6 23 16 40 21 37 6 -4 10 4 10 17
1 13 7 34 15 48 20 36 18 45 -12 56 -24 8 -31 6 -56 -23 -16 -18 -37 -33 -46
-33 -9 0 -22 -5 -29 -12 -19 -19 -21 -8 -12 79 9 85 21 119 78 215 37 63 35
95 -3 50 -14 -16 -19 -29 -13 -33 7 -4 7 -9 0 -13 -6 -3 -13 3 -17 13 -9 30
-43 10 -84 -50 -19 -27 -36 -48 -38 -45 -4 4 44 98 80 157 12 19 48 78 79 130
55 90 105 168 177 278 35 55 52 61 31 12z m3405 -251 c158 -27 295 -37 295
-21 0 6 -14 14 -30 18 -36 7 -50 23 -21 23 11 0 37 -11 58 -24 85 -55 115 -78
110 -82 -3 -3 -35 4 -72 15 -37 12 -94 21 -126 21 -33 0 -119 11 -192 24 -73
14 -208 30 -302 36 -93 6 -172 14 -175 17 -12 13 343 -8 455 -27z m-3125 -227
c0 -7 7 -25 16 -39 10 -14 39 -80 66 -147 27 -67 56 -135 64 -151 15 -32 19
-76 6 -76 -5 0 -23 -29 -41 -65 -34 -67 -50 -77 -91 -55 -13 7 -19 6 -23 -4
-3 -7 -28 -16 -59 -19 -70 -8 -226 -46 -260 -63 -41 -22 -61 -18 -52 9 6 21
61 128 127 247 17 30 35 64 41 75 14 24 86 149 132 227 19 31 34 62 34 70 0 8
3 18 7 21 9 9 33 -12 33 -30z m3004 -13 c14 -5 77 -23 138 -39 200 -52 339
-99 376 -127 201 -150 337 -284 392 -386 40 -75 24 -75 -25 -1 -21 32 -79 98
-129 149 l-91 91 -324 -4 c-265 -4 -328 -7 -347 -19 -18 -12 -30 -13 -61 -5
-21 6 -92 11 -157 11 -66 0 -116 3 -112 7 4 4 73 8 154 9 81 2 176 7 212 13
36 6 174 11 307 11 164 0 244 4 249 11 7 13 -78 104 -117 124 -14 8 -77 28
-140 44 -198 53 -283 79 -324 100 -43 22 -43 27 -1 11z m-3927 -379 c-24 -44
-77 -145 -116 -225 -39 -80 -86 -170 -105 -199 -18 -28 -36 -62 -40 -75 -4
-12 -12 -20 -17 -17 -12 8 -12 55 1 55 6 0 10 5 10 10 0 11 39 70 52 80 4 3
55 101 112 216 58 116 112 217 121 224 8 7 16 20 16 29 1 13 2 13 6 -2 3 -10
-15 -53 -40 -96z m4151 -56 c58 -31 126 -57 172 -64 26 -4 80 -26 121 -48 41
-22 108 -55 149 -72 41 -18 84 -37 95 -43 14 -8 20 -8 23 0 2 6 36 -21 75 -61
40 -40 98 -94 131 -121 65 -55 118 -130 137 -196 7 -25 17 -51 23 -59 8 -11 8
-13 -1 -7 -7 4 -31 44 -53 90 -32 67 -50 92 -97 131 -32 26 -73 55 -90 63 -18
9 -33 21 -33 27 0 6 -25 33 -57 60 -49 43 -61 49 -94 46 -30 -2 -46 4 -77 28
-21 17 -78 51 -127 76 -73 36 -100 45 -143 45 -52 0 -124 22 -121 37 4 17 -14
43 -30 43 -17 1 -51 23 -51 34 0 10 20 7 48 -9z m-959 -495 c35 -17 76 -41 92
-54 16 -14 54 -30 86 -36 56 -11 77 -21 208 -89 33 -17 110 -52 170 -77 109
-46 184 -94 258 -167 40 -40 57 -42 102 -11 11 8 42 14 69 14 65 0 127 -36
161 -93 30 -51 48 -162 31 -189 -15 -25 -24 -22 -32 7 -3 14 -8 25 -10 25 -12
0 -51 -29 -73 -54 l-25 -28 -18 22 c-21 26 -24 56 -6 62 10 4 9 14 -2 47 -15
47 -4 73 22 48 7 -8 24 -18 36 -21 20 -7 22 -4 22 31 0 22 -6 48 -14 58 -13
18 -14 17 -9 -10 4 -24 3 -28 -7 -18 -9 9 -19 9 -32 2 -25 -13 -48 5 -48 37 0
34 -20 30 -60 -11 -19 -19 -38 -35 -43 -35 -19 0 -36 -34 -25 -48 15 -17 7
-23 -41 -29 -22 -3 -48 -14 -57 -24 -9 -11 -23 -19 -29 -19 -7 0 -15 -10 -19
-22 -4 -18 -20 -27 -66 -42 -34 -10 -79 -33 -101 -50 -79 -63 -94 -73 -119
-81 -14 -4 -43 -16 -65 -27 l-40 -19 45 42 c25 23 67 59 93 80 l49 39 -87 -2
c-100 -2 -116 8 -84 53 31 44 87 73 157 80 34 4 70 13 80 21 25 22 74 29 96
13 23 -17 38 -9 110 57 44 41 48 48 29 48 -13 0 -23 -4 -23 -9 0 -5 -8 -11
-17 -15 -10 -3 -25 -10 -33 -15 -40 -25 -97 -33 -136 -21 -22 7 -33 15 -26 18
10 3 10 7 1 18 -10 12 -8 18 8 29 21 15 38 55 22 55 -5 0 -11 10 -14 23 -10
37 -144 94 -160 67 -3 -5 -10 -8 -15 -5 -9 6 -22 -23 -15 -35 3 -4 -2 -11 -11
-14 -17 -7 -16 0 14 87 16 47 16 49 -3 63 -26 20 -40 12 -40 -21 0 -39 -24
-44 -31 -7 -9 45 -60 95 -100 98 -36 3 -125 45 -188 88 -60 40 -137 60 -210
51 -84 -9 -134 -26 -139 -47 -7 -26 -29 -22 -25 4 6 42 115 86 218 87 41 1 71
-6 119 -29z m1591 -88 c0 -4 31 -39 70 -78 38 -38 70 -73 70 -78 0 -6 9 -19
19 -30 11 -12 47 -70 82 -131 34 -60 75 -126 91 -146 28 -37 36 -59 20 -59 -8
0 -52 55 -52 65 0 3 -12 18 -26 32 -29 29 -54 81 -54 113 0 11 -7 20 -15 20
-8 0 -25 17 -39 38 -13 20 -33 46 -45 56 -11 11 -21 27 -21 37 0 9 -23 34 -50
54 -28 20 -55 45 -60 55 -13 24 -13 60 0 60 6 0 10 -4 10 -8z m-1694 -305 c14
-13 28 -36 32 -51 l8 -28 27 41 c32 48 62 54 77 15 6 -14 17 -32 26 -41 9 -9
14 -28 12 -47 -2 -24 -9 -32 -28 -36 -14 -3 -36 -13 -50 -22 -21 -14 -44 -16
-152 -11 -139 6 -142 8 -127 66 5 16 6 41 3 55 -3 15 -1 39 5 55 10 26 14 27
76 27 55 0 70 -4 91 -23z m-624 -158 c12 -6 45 -31 75 -55 66 -54 81 -62 149
-80 30 -7 66 -21 79 -30 19 -12 38 -15 73 -10 75 9 277 -10 320 -31 40 -20 91
-86 92 -119 0 -33 -47 -65 -100 -69 -14 -1 -53 -7 -87 -15 -50 -10 -66 -10
-78 0 -8 7 -15 18 -15 24 0 6 -22 22 -49 35 -35 17 -55 36 -72 65 -30 56 -53
76 -86 76 -29 0 -83 17 -120 38 -12 6 -32 14 -45 16 -13 2 -22 9 -21 15 2 5
-4 8 -12 5 -10 -4 -15 0 -15 13 0 34 -77 87 -144 98 -77 13 -87 35 -16 35 28
0 61 -5 72 -11z m1978 -234 c49 -10 55 -14 55 -38 1 -16 11 -34 27 -47 15 -11
37 -41 49 -65 12 -24 35 -57 51 -72 56 -53 24 -77 -36 -26 -22 18 -47 33 -55
33 -9 0 -38 12 -66 25 -27 14 -57 25 -65 25 -8 0 -28 7 -45 16 -16 9 -47 16
-68 15 -36 -2 -38 0 -32 21 4 13 16 35 26 50 11 14 19 35 19 45 0 44 15 46
140 18z m346 -536 c75 -27 144 -135 144 -222 0 -64 -23 -96 -35 -50 -4 16 -10
22 -12 16 -3 -7 -15 -13 -27 -13 -12 0 -31 -7 -42 -15 -10 -8 -25 -15 -31 -15
-20 0 -15 28 7 40 30 16 25 57 -10 88 -16 15 -30 31 -30 37 0 13 -46 55 -60
55 -11 0 -12 -2 -16 -47 -2 -29 1 -33 30 -38 51 -10 109 -95 64 -95 -10 0 -62
41 -120 95 -28 26 -48 32 -48 15 0 -5 -7 -10 -15 -10 -8 0 -15 -4 -15 -10 0
-5 5 -10 10 -10 6 0 6 -7 -2 -19 -8 -13 -28 -21 -64 -26 -37 -4 -60 -14 -77
-31 -17 -17 -43 -28 -79 -33 -29 -5 -55 -7 -57 -6 -8 9 15 28 67 54 44 22 67
42 97 87 56 81 88 112 143 137 80 35 118 39 178 16z m98 -353 c-11 -45 16
-218 42 -268 13 -26 24 -57 24 -68 0 -12 19 -66 41 -122 54 -130 69 -190 68
-263 l-1 -60 -12 65 c-6 36 -17 74 -23 85 -6 11 -16 38 -23 60 -13 41 -34 70
-107 154 -49 55 -54 69 -18 45 24 -16 25 -15 36 12 8 23 7 34 -5 54 -8 14 -21
25 -28 25 -9 0 -13 16 -14 51 0 27 -4 56 -9 64 -13 20 -35 -17 -29 -49 6 -32
-12 -63 -25 -43 -4 8 -12 12 -17 10 -5 -1 -10 8 -12 22 -3 29 46 110 67 110
11 0 13 11 8 51 -5 37 -2 57 9 75 19 29 36 22 28 -10z m-5064 -991 c0 -19 -7
-67 -15 -107 -19 -95 -45 -291 -52 -395 -4 -61 -10 -83 -20 -83 -17 0 -10 98
24 335 13 94 27 190 29 215 7 58 11 70 24 70 5 0 10 -16 10 -35z"/>
<path d="M8179 4127 c-19 -14 -84 -116 -111 -172 -27 -57 -44 -88 -83 -147
-19 -29 -35 -60 -35 -69 0 -9 -7 -22 -16 -30 -17 -14 -44 -62 -44 -79 0 -6 12
-9 27 -7 22 3 30 11 38 38 5 19 21 53 35 74 13 22 28 49 33 60 8 19 104 177
137 225 20 29 43 96 38 109 -2 5 -10 4 -19 -2z"/>
<path d="M8425 10940 c-77 -5 -175 -13 -218 -19 -43 -6 -134 -11 -202 -11 -82
0 -126 -4 -131 -11 -7 -13 103 -9 406 12 85 6 254 16 375 24 l220 12 -155 0
c-85 0 -218 -3 -295 -7z"/>
<path d="M10763 10313 c-13 -9 -23 -22 -23 -29 0 -18 -10 -18 -36 0 -21 15
-39 15 -424 -14 -137 -10 -259 -25 -267 -34 -4 -3 -1 -6 6 -6 6 0 11 -8 9 -17
-4 -25 32 -30 38 -6 5 16 16 19 74 20 38 1 74 4 81 8 6 4 51 7 99 6 49 -1 91
2 94 7 3 5 38 7 78 4 74 -6 147 -7 183 -3 11 1 38 -2 59 -8 55 -14 79 0 72 41
-6 42 -17 49 -43 31z"/>
<path d="M8808 10082 c-27 -2 -48 -8 -48 -13 0 -6 -10 -10 -22 -9 -13 1 -69 2
-125 1 -95 -1 -103 -3 -103 -20 0 -14 -8 -21 -27 -23 -26 -4 -24 -5 15 -16 46
-14 64 -10 55 14 -4 12 4 14 43 13 100 -4 224 3 230 12 3 6 31 10 62 11 165 2
329 11 337 20 15 15 -242 21 -417 10z"/>
<path d="M640 9815 c-2 -5 -3 -19 -4 -30 -1 -27 -36 -33 -36 -6 0 12 -6 21
-14 21 -19 0 -30 -17 -14 -22 7 -3 12 -24 13 -51 0 -42 -2 -47 -23 -47 -21 0
-22 3 -16 35 6 34 5 35 -26 35 -32 0 -33 0 -27 -40 5 -36 3 -41 -19 -46 -30
-8 -42 2 -26 18 14 14 16 58 3 58 -5 0 -15 2 -23 5 -7 3 -22 -1 -32 -8 -18
-14 -18 -15 2 -35 28 -28 28 -40 0 -51 -23 -9 -23 -9 5 -16 15 -4 40 -4 55 0
34 8 65 12 180 21 71 5 92 10 88 20 -3 8 2 18 12 23 22 12 11 23 -28 25 -31 1
-53 29 -63 78 -2 13 -6 19 -7 13z"/>
</g>
</svg>
