<?xml version="1.0" standalone="no"?>
<!DOCTYPE svg PUBLIC "-//W3C//DTD SVG 20010904//EN"
 "http://www.w3.org/TR/2001/REC-SVG-20010904/DTD/svg10.dtd">
<svg version="1.0" xmlns="http://www.w3.org/2000/svg"
 width="1042.000000pt" height="913.000000pt" viewBox="0 0 1042.000000 913.000000"
 preserveAspectRatio="xMidYMid meet">
<metadata>
Created by potrace 1.16, written by Peter Selinger 2001-2019
</metadata>
<g transform="translate(0.000000,913.000000) scale(0.100000,-0.100000)"
fill="#000000" stroke="none">
<path d="M5159 8509 c-41 -50 -122 -148 -181 -217 -78 -92 -108 -134 -108
-154 0 -15 16 -62 35 -104 20 -43 34 -83 32 -88 -3 -6 -22 -17 -43 -25 -97
-34 -104 -39 -104 -88 0 -25 8 -92 17 -149 9 -57 13 -107 10 -111 -4 -4 -32
17 -61 46 -58 57 -54 56 -128 26 -12 -5 -23 7 -48 54 -18 33 -40 63 -50 66 -9
3 -36 -2 -60 -10 -68 -24 -78 -21 -90 28 -23 96 -12 87 -175 140 -536 173
-515 167 -515 148 0 -5 34 -80 75 -166 41 -87 75 -158 75 -160 0 -8 117 -253
185 -387 41 -81 75 -154 75 -162 0 -8 -26 -23 -62 -36 -35 -12 -79 -28 -98
-35 -19 -7 -213 -72 -430 -144 -217 -72 -465 -155 -550 -184 l-155 -52 -5
-417 c-3 -229 -8 -420 -12 -424 -12 -11 -55 22 -169 128 -58 54 -109 98 -114
98 -9 0 -52 -38 -169 -147 -49 -45 -94 -83 -100 -83 -6 0 -40 23 -75 50 l-65
50 -136 0 c-126 0 -140 -2 -165 -22 -33 -26 -57 -26 -195 3 -126 26 -192 43
-265 68 -70 24 -95 26 -95 8 0 -7 11 -48 25 -91 14 -43 25 -80 25 -82 0 -2
-157 -4 -348 -4 l-349 0 -20 -22 c-30 -34 -171 -240 -236 -345 l-57 -93 0
-157 c0 -209 26 -428 81 -683 44 -207 88 -316 203 -504 34 -54 70 -113 81
-132 37 -61 70 -91 130 -115 55 -22 74 -24 235 -24 170 0 444 15 719 39 l134
12 111 -81 c110 -80 188 -139 236 -176 39 -31 22 -37 300 118 166 93 353 183
378 183 33 0 29 9 92 -175 59 -171 61 -176 147 -273 42 -48 80 -89 83 -92 3
-3 32 -36 65 -75 33 -38 94 -108 135 -155 42 -47 92 -106 112 -131 32 -40 51
-51 155 -94 321 -131 393 -165 469 -217 262 -182 479 -319 784 -494 183 -105
184 -106 140 -99 -155 26 -239 27 -280 5 -9 -5 -29 0 -55 15 -42 25 -134 49
-224 61 -29 3 -68 14 -85 24 -17 11 -53 24 -81 30 -112 27 -267 76 -385 122
-199 78 -223 89 -251 112 -14 13 -64 37 -110 55 -52 21 -99 47 -124 71 -22 20
-67 56 -101 78 -67 45 -170 135 -184 162 -7 13 1 39 30 99 22 46 40 90 40 100
0 24 -364 381 -388 381 -20 0 -24 -6 -105 -210 l-34 -85 -94 -33 c-52 -18 -98
-37 -103 -42 -11 -11 8 -42 72 -111 112 -122 119 -139 69 -158 -65 -25 -127
-111 -127 -176 0 -98 152 -244 255 -245 39 0 58 -13 62 -41 11 -72 102 -143
187 -145 46 -2 51 -5 68 -37 18 -35 61 -68 108 -82 14 -4 54 -29 90 -56 67
-51 267 -153 380 -196 337 -127 716 -231 860 -235 77 -3 88 -1 118 22 l33 24
23 -26 c40 -43 88 -66 158 -77 60 -10 151 -3 178 14 5 3 23 -1 39 -10 34 -17
161 -21 191 -5 10 5 24 25 30 45 13 40 19 501 7 526 -7 13 12 28 95 74 57 32
147 85 201 117 54 32 101 58 104 58 15 0 517 326 603 390 30 23 167 84 467
206 33 14 68 31 76 37 13 11 156 172 303 342 235 272 219 248 287 436 59 162
67 179 85 179 17 0 211 -96 272 -135 22 -14 42 -25 45 -25 2 0 39 -20 81 -45
41 -25 77 -45 79 -45 2 0 35 -18 74 -40 39 -22 76 -40 82 -40 11 0 61 35 244
170 143 107 128 101 230 90 381 -39 704 -46 790 -19 114 37 132 59 262 307
133 255 267 627 347 967 15 61 31 126 36 145 5 19 14 72 21 117 12 81 12 82
-17 140 -32 65 -230 364 -248 375 -6 4 -159 8 -339 8 l-328 0 7 38 c4 20 13
54 20 76 8 21 14 47 14 58 0 23 10 25 -160 -22 -128 -36 -238 -59 -318 -67
-44 -5 -55 -2 -67 13 -12 17 -30 19 -157 22 l-144 3 -44 -36 c-43 -36 -91 -65
-107 -65 -8 0 -59 47 -184 166 -37 35 -71 64 -76 64 -6 0 -61 -46 -122 -102
-124 -113 -156 -137 -168 -124 -4 4 -7 191 -5 414 2 224 -1 412 -5 418 -8 11
-233 91 -548 194 -82 27 -229 76 -325 110 -96 34 -188 66 -205 70 -53 15 -194
66 -201 73 -7 7 3 32 86 197 116 233 323 690 316 697 -7 7 -40 -2 -211 -56
-66 -21 -193 -62 -282 -90 -115 -37 -163 -57 -167 -69 -2 -9 -7 -33 -11 -52
-14 -78 -26 -85 -86 -54 -53 27 -79 16 -118 -49 l-34 -58 -53 7 -53 6 -53 -53
c-52 -53 -53 -54 -56 -27 -2 14 6 64 16 110 31 130 35 167 22 183 -6 8 -42 24
-78 36 -37 12 -70 23 -74 25 -3 3 11 45 33 95 21 49 39 98 39 108 0 10 -63 94
-140 187 -202 243 -230 274 -244 274 -8 0 -47 -41 -87 -91z m153 -191 c32 -35
58 -73 58 -85 0 -38 11 -53 57 -73 42 -18 45 -22 38 -47 -12 -50 -40 -88 -84
-112 -42 -23 -43 -24 -37 -65 4 -22 15 -57 24 -76 16 -33 22 -36 100 -53 46
-10 86 -25 88 -32 7 -18 -34 -155 -47 -155 -5 0 -18 5 -28 11 -22 14 -59 6
-93 -21 -65 -51 -81 -179 -33 -276 48 -98 177 -171 285 -161 98 8 215 73 262
145 18 27 24 72 11 72 -5 1 -27 18 -51 39 -30 26 -41 42 -36 54 8 21 49 22 84
2 51 -29 69 -20 97 45 30 68 37 70 108 39 51 -23 78 -20 118 11 24 19 25 24
20 88 -7 87 6 102 107 127 41 10 87 24 102 31 35 18 82 18 75 2 -17 -44 -103
-228 -173 -368 -45 -91 -91 -188 -104 -215 -63 -142 -204 -436 -211 -440 -4
-3 -20 0 -36 6 -29 11 -42 14 -213 48 -361 74 -853 65 -1220 -21 -150 -35
-142 -36 -167 19 -12 26 -56 121 -98 211 -41 90 -75 166 -75 169 0 3 -56 120
-125 259 -131 264 -168 344 -162 350 2 2 42 -9 89 -26 47 -16 103 -32 124 -36
22 -3 46 -10 56 -15 23 -12 32 -80 17 -123 -12 -33 -11 -38 10 -60 35 -37 73
-41 142 -16 66 25 83 20 92 -28 3 -16 15 -39 26 -53 l20 -24 58 21 c32 11 64
19 71 17 26 -9 10 -43 -40 -87 -50 -44 -51 -45 -38 -76 17 -40 92 -107 155
-136 109 -50 220 -39 318 32 119 86 152 255 69 353 -31 37 -100 54 -127 31
-21 -17 -29 -6 -43 58 -22 101 -16 113 73 129 79 13 114 49 130 134 7 39 -1
50 -49 66 -40 13 -68 53 -70 100 -1 34 2 40 36 56 27 13 40 28 49 55 11 34
111 162 127 162 4 0 33 -28 64 -62z m-1137 -1310 c4 -16 5 -32 2 -34 -7 -7
-360 -128 -492 -169 -127 -40 -635 -212 -641 -217 -2 -3 -14 -575 -14 -699 0
-6 -19 -9 -47 -7 l-48 3 -3 368 c-1 203 2 375 6 384 5 8 36 24 68 34 32 11 75
26 94 34 42 16 827 276 955 315 49 15 95 25 102 23 6 -3 15 -18 18 -35z m2795
-168 c300 -100 551 -187 558 -193 9 -7 12 -92 10 -386 l-3 -376 -47 -3 -48 -3
0 323 c0 178 -3 339 -6 358 l-6 35 -161 52 c-89 28 -328 109 -532 178 -203 70
-385 132 -402 138 -38 12 -41 24 -13 60 25 31 -54 54 650 -183z m-1436 0 c353
-40 538 -89 552 -145 4 -15 3 -30 -2 -35 -5 -5 -47 3 -99 19 -381 119 -1129
117 -1493 -5 -40 -13 -77 -22 -82 -19 -14 9 5 58 31 77 44 32 290 84 509 106
123 13 478 14 584 2z m-1444 -160 c28 -39 19 -50 -58 -78 -279 -101 -625 -159
-825 -138 -69 8 -93 26 -33 26 110 0 565 108 776 184 52 19 100 35 107 35 6 1
21 -13 33 -29z m2464 -14 c121 -41 302 -90 471 -129 61 -15 130 -27 280 -53
37 -6 38 -8 15 -14 -44 -14 -246 -10 -362 6 -224 30 -588 138 -588 173 0 10
39 61 47 61 3 0 65 -20 137 -44z m-1033 4 c136 -10 283 -32 374 -55 168 -43
184 -53 201 -119 8 -34 26 -35 -202 13 -160 33 -254 45 -474 61 -270 20 -667
-17 -939 -87 -51 -13 -96 -22 -98 -19 -11 11 21 77 45 94 131 88 674 143 1093
112z m-1368 -252 c7 -7 25 -33 41 -58 16 -25 62 -92 104 -148 67 -93 77 -103
101 -99 14 2 73 14 131 25 58 12 209 42 335 67 127 24 263 52 303 60 65 14 79
14 140 -1 37 -8 90 -19 117 -24 28 -5 93 -18 145 -29 52 -11 167 -34 255 -50
88 -17 183 -36 211 -42 29 -7 57 -9 63 -5 6 4 25 28 43 54 88 128 192 262 205
262 7 0 32 -9 55 -21 56 -28 256 -94 348 -114 41 -9 122 -22 180 -28 l105 -12
3 -165 c1 -91 0 -175 -3 -187 -5 -22 -10 -23 -115 -23 -123 0 -113 -7 -110 83
2 72 -8 106 -33 111 -133 26 -197 41 -280 68 -84 28 -99 30 -107 18 -6 -8 -10
-75 -10 -147 l0 -133 -1139 0 c-1029 0 -1139 2 -1145 16 -3 9 -6 74 -6 145 0
76 -4 129 -10 129 -5 0 -33 -8 -62 -19 -84 -29 -156 -49 -248 -67 -47 -9 -88
-22 -92 -28 -4 -6 -8 -48 -8 -93 l0 -83 -115 0 -115 0 2 187 3 188 105 12
c174 19 364 70 510 137 63 29 77 31 93 14z m5689 -745 c31 -43 63 -89 70 -103
7 -14 30 -50 51 -80 36 -51 38 -59 33 -110 -2 -30 -9 -73 -15 -95 -92 -376
-120 -475 -183 -655 -104 -298 -244 -588 -310 -645 -84 -72 -107 -72 -1038 4
-124 10 -342 27 -720 56 -171 13 -461 32 -770 50 -1134 67 -2391 65 -3615 -5
-430 -25 -895 -55 -1130 -75 -99 -8 -274 -22 -390 -30 -115 -9 -293 -23 -395
-32 -102 -9 -275 -16 -385 -17 -184 -1 -203 1 -235 19 -66 38 -237 324 -282
470 -70 233 -128 583 -128 780 0 168 6 186 125 362 59 87 114 165 124 173 15
13 536 15 4577 13 l4559 -2 57 -78z m-6627 -1876 l51 -137 200 -235 c109 -129
206 -234 215 -235 9 0 47 39 85 86 145 179 166 204 175 204 4 0 55 -42 111
-92 57 -51 189 -166 293 -254 185 -157 225 -194 210 -194 -29 0 -420 153 -526
206 -66 33 -82 50 -68 75 15 28 4 49 -24 49 -16 0 -44 -21 -85 -64 -34 -35
-62 -68 -62 -73 0 -9 34 -28 230 -121 80 -38 172 -89 205 -114 33 -24 83 -57
110 -73 28 -16 84 -53 125 -81 83 -56 381 -238 463 -282 29 -16 95 -53 147
-84 53 -30 111 -61 130 -68 44 -15 29 -23 523 269 148 87 229 139 452 286 77
51 190 116 250 144 177 83 240 116 240 129 0 23 -116 132 -140 132 -31 0 -37
-12 -25 -46 9 -23 8 -31 -7 -44 -19 -18 -147 -74 -272 -119 -42 -16 -131 -49
-199 -75 -68 -26 -126 -46 -128 -43 -3 3 43 45 102 93 161 133 402 341 459
396 28 26 55 48 61 48 11 0 36 -31 178 -214 32 -42 64 -76 70 -76 7 0 35 26
63 58 268 307 347 402 360 432 8 19 30 77 49 129 19 52 39 100 45 108 16 18
99 18 99 -1 0 -14 -92 -264 -107 -291 -5 -7 -39 -48 -78 -91 -38 -42 -81 -93
-96 -113 -14 -20 -55 -67 -90 -106 -36 -38 -89 -99 -119 -135 -30 -36 -67 -76
-82 -91 -16 -14 -113 -60 -216 -104 -235 -99 -246 -105 -542 -300 -272 -180
-336 -219 -525 -325 -281 -158 -288 -162 -310 -156 -11 3 -55 24 -96 47 -41
22 -103 57 -139 77 -188 103 -401 236 -735 458 -103 68 -184 112 -305 165
-209 91 -280 125 -305 147 -11 9 -61 64 -110 122 -99 116 -106 123 -228 262
-46 53 -96 112 -110 130 -21 28 -100 231 -114 295 -6 24 12 32 61 30 29 -2 32
-7 81 -140z m1140 131 c28 -13 60 -62 50 -78 -11 -17 -66 -11 -92 10 -29 23
-102 27 -121 8 -7 -7 -12 -43 -12 -90 0 -69 2 -79 21 -89 27 -14 109 -6 120
12 10 17 1 26 -31 31 -19 2 -25 9 -25 28 0 27 23 37 91 39 30 1 44 -4 48 -15
9 -25 7 -78 -5 -113 -9 -26 -19 -33 -67 -47 -66 -19 -157 -14 -195 10 -39 26
-49 64 -46 166 4 86 6 93 32 116 25 21 37 24 117 24 49 0 101 -5 115 -12z
m404 -143 c35 -86 62 -157 60 -159 -2 -2 -15 -6 -29 -9 -30 -7 -48 2 -64 34
-10 21 -19 24 -83 27 -69 3 -72 2 -93 -28 -15 -21 -29 -30 -50 -30 -32 0 -47
15 -32 33 5 7 31 66 57 132 66 167 57 155 118 155 l53 0 63 -155z m287 50 c28
-56 57 -100 65 -100 8 0 35 44 63 103 l50 103 50 -3 51 -3 0 -155 0 -155 -37
-3 -38 -3 0 91 c0 51 -4 89 -9 86 -5 -3 -27 -44 -50 -90 -43 -87 -61 -103
-105 -92 -22 5 -60 73 -80 143 -4 11 -13 27 -21 33 -13 11 -15 1 -15 -73 0
-92 -10 -111 -52 -105 -23 3 -23 4 -26 166 l-3 163 53 -3 53 -3 51 -100z m444
-55 l0 -160 -40 0 -40 0 0 153 c0 85 3 157 7 160 3 4 21 7 40 7 l33 0 0 -160z
m245 63 c33 -51 65 -91 70 -90 6 2 12 44 15 93 l5 89 38 3 37 3 0 -159 c0
-177 1 -174 -65 -163 -37 6 -45 13 -97 91 -31 46 -61 86 -67 88 -12 4 -20 -39
-24 -123 -2 -54 -4 -60 -25 -63 -47 -7 -52 10 -52 158 0 76 3 146 6 155 5 12
17 15 53 13 l46 -3 60 -92z m526 82 c30 -16 54 -58 43 -76 -10 -17 -75 -10
-101 11 -17 13 -41 20 -70 20 -38 0 -45 -3 -53 -26 -16 -41 -12 -140 6 -158
18 -18 85 -21 115 -6 29 16 23 40 -11 47 -37 7 -40 12 -29 41 7 19 16 22 58
22 76 0 81 -4 81 -67 0 -73 -11 -90 -72 -108 -91 -27 -181 -14 -216 30 -23 29
-36 154 -21 208 17 61 47 77 151 77 61 0 98 -5 119 -15z m-3974 -36 c34 -13
43 -25 43 -66 0 -68 -87 -100 -129 -47 -12 15 -21 33 -21 41 0 23 32 72 49 76
27 8 29 7 58 -4z m5959 -27 c17 -22 18 -63 2 -85 -15 -19 -64 -35 -91 -29 -19
4 -47 51 -47 79 1 64 96 88 136 35z m-2077 -440 c-85 -75 -144 -120 -150 -116
-10 6 -65 105 -73 131 -7 22 -6 22 116 25 68 2 127 0 132 -4 5 -3 -7 -20 -25
-36z m-1639 31 c0 -12 -69 -130 -83 -141 -10 -9 -31 5 -95 59 -45 38 -82 74
-82 79 0 6 52 10 130 10 72 0 130 -3 130 -7z m1334 -36 c22 -59 21 -63 -24
-81 -65 -26 -289 -126 -385 -171 -153 -73 -216 -97 -241 -91 -21 6 -76 30
-249 111 -90 42 -275 126 -337 153 -27 12 -48 26 -48 32 0 6 9 29 20 50 l20
40 614 0 613 0 17 -43z m-2847 -319 c46 -46 83 -88 83 -95 0 -7 -15 -14 -32
-17 -68 -11 -168 -17 -176 -12 -5 3 -4 33 4 68 7 35 16 80 19 101 3 20 9 37
13 37 4 0 44 -37 89 -82z m1879 -147 c49 -21 142 -64 207 -95 65 -31 123 -56
128 -56 4 0 41 16 81 36 122 60 341 155 351 151 13 -4 -101 -112 -203 -192
-47 -36 -113 -88 -148 -116 -34 -27 -72 -49 -84 -49 -27 0 -408 305 -431 346
-12 21 1 18 99 -25z m-1908 -171 c51 -23 92 -65 92 -94 -1 -32 -33 -68 -67
-72 -24 -3 -32 2 -41 21 -9 19 -8 27 3 39 26 26 18 55 -20 73 -34 16 -36 16
-62 -3 -15 -11 -28 -25 -30 -31 -2 -6 14 -31 36 -57 46 -53 55 -75 42 -107
-14 -37 -71 -88 -112 -100 -33 -10 -42 -9 -87 17 -80 45 -118 137 -73 178 19
18 43 14 74 -12 16 -15 16 -16 -3 -34 -23 -22 -18 -41 17 -57 32 -15 57 -7 78
25 16 25 16 27 -3 47 -52 55 -54 114 -7 156 43 37 97 41 163 11z m244 -184
c110 -76 122 -88 113 -116 -7 -23 -13 -23 -70 1 -30 12 -32 10 -87 -47 -30
-32 -75 -82 -99 -111 -24 -28 -52 -54 -61 -58 -21 -7 -78 24 -78 42 0 7 48 65
106 130 l106 117 -36 33 c-20 19 -36 36 -36 38 0 7 32 35 40 35 4 0 50 -29
102 -64z m285 -171 c18 -13 20 -18 10 -39 -6 -13 -28 -34 -49 -47 -64 -40 -98
-130 -63 -166 23 -23 8 -34 -36 -27 -31 5 -52 1 -89 -16 -47 -22 -48 -22 -74
-4 -14 11 -26 22 -26 25 0 13 140 177 176 205 70 55 109 82 119 83 6 1 20 -6
32 -14z m59 -87 c18 -13 35 -30 37 -39 2 -8 -15 -74 -39 -145 -24 -71 -44
-139 -44 -151 0 -32 -18 -38 -48 -16 -23 17 -26 26 -24 69 3 43 23 134 53 230
5 17 9 40 9 52 0 28 15 28 56 0z m319 -82 c64 -25 119 -47 122 -49 11 -12 -31
-69 -67 -92 -22 -14 -72 -50 -111 -80 -39 -30 -75 -55 -80 -55 -5 0 -9 -7 -9
-15 0 -16 72 -54 103 -55 20 0 23 -32 4 -48 -20 -17 -87 6 -87 30 0 22 -8 23
-30 3 -15 -14 -24 -12 -83 15 -68 31 -77 43 -54 72 16 21 179 129 244 162 28
14 54 30 57 35 3 5 -13 12 -36 16 -51 9 -138 45 -138 58 0 18 21 47 34 47 8 0
67 -20 131 -44z m335 -116 c63 -18 119 -36 125 -41 12 -12 -42 -67 -167 -171
-109 -92 -111 -99 -23 -119 74 -16 79 -21 68 -55 -9 -25 -15 -29 -44 -26 -19
1 -78 16 -131 33 -87 27 -98 32 -98 53 0 34 32 69 144 159 56 44 101 87 101
96 0 11 -19 20 -69 31 -38 8 -71 20 -73 27 -7 21 17 55 35 50 10 -3 69 -19
132 -37z m330 -89 c76 -16 99 -25 117 -46 28 -32 30 -83 6 -128 -11 -21 -17
-57 -17 -103 -1 -79 -14 -102 -67 -124 -39 -17 -164 2 -214 31 -36 22 -37 23
-30 68 8 57 63 300 71 312 8 13 27 11 134 -10z m476 -72 c61 -30 65 -46 52
-191 -15 -179 -41 -212 -159 -205 -133 8 -155 45 -140 230 10 127 18 149 64
178 42 26 116 21 183 -12z m219 -141 c-4 -79 -10 -172 -14 -208 l-6 -65 -35 0
-35 0 2 145 c2 80 5 173 9 208 l6 62 40 0 40 0 -7 -142z"/>
<path d="M4234 7369 c-8 -14 85 -204 120 -246 34 -40 77 -51 114 -27 84 54 78
142 -12 193 -73 42 -214 93 -222 80z"/>
<path d="M6147 7340 c-121 -47 -164 -79 -173 -125 -9 -49 12 -102 47 -121 52
-26 111 7 157 89 50 89 86 177 76 187 -5 5 -49 -7 -107 -30z"/>
<path d="M5215 7190 c-14 -22 -33 -56 -42 -74 -15 -32 -15 -36 4 -73 26 -50
72 -65 111 -36 49 36 51 66 12 140 -48 90 -54 93 -85 43z"/>
<path d="M4650 7060 c0 -88 13 -113 66 -126 37 -9 56 5 74 55 l15 42 -60 54
c-85 77 -95 74 -95 -25z"/>
<path d="M5773 7099 c-62 -46 -76 -69 -67 -106 15 -63 54 -78 112 -43 l33 20
-3 82 c-2 45 -7 83 -13 84 -5 2 -34 -15 -62 -37z"/>
<path d="M1409 5663 l-706 -3 -20 -23 c-11 -12 -58 -78 -104 -146 l-84 -124 2
-201 c2 -124 9 -237 19 -296 25 -152 63 -330 85 -400 46 -147 183 -387 245
-429 36 -25 68 -25 314 0 52 5 156 13 230 19 74 5 218 17 320 25 252 22 541
43 745 55 94 5 193 12 220 15 65 7 839 42 1205 55 373 13 2074 13 2540 0 381
-11 1222 -46 1300 -55 25 -3 108 -10 185 -15 186 -13 482 -36 685 -54 91 -8
224 -20 295 -26 72 -6 171 -15 220 -20 50 -5 138 -10 197 -10 l108 0 40 51
c119 151 259 503 371 939 74 284 89 357 79 389 -9 33 -129 220 -154 240 -15
13 -528 15 -3824 16 -2094 0 -4125 0 -4513 -2z m-44 -249 c125 -31 195 -128
195 -268 l0 -64 -82 -7 c-131 -11 -141 -8 -154 45 -5 25 -14 52 -18 62 -13 28
-62 41 -129 35 -50 -5 -66 -10 -84 -32 -26 -30 -29 -73 -8 -114 16 -32 57 -52
216 -104 228 -75 270 -119 277 -290 7 -151 -24 -235 -110 -297 -52 -38 -87
-48 -219 -62 -128 -14 -215 -2 -298 39 -90 45 -131 128 -131 262 l0 58 61 7
c34 3 88 6 119 6 l57 0 6 -57 c8 -79 28 -96 115 -101 51 -3 78 0 101 12 69 36
80 139 19 176 -17 10 -81 35 -142 56 -150 49 -208 77 -255 119 -61 55 -74 101
-69 242 6 172 39 226 165 269 86 30 267 33 368 8z m4238 0 c89 -23 141 -64
180 -143 l32 -66 0 -290 c0 -345 -4 -365 -79 -440 -29 -28 -69 -57 -91 -64
-65 -22 -338 -27 -415 -7 -88 23 -151 72 -193 151 -21 39 -22 51 -22 360 l0
320 29 52 c33 59 85 100 160 125 70 23 313 24 399 2z m1712 -4 c73 -25 119
-60 155 -117 44 -69 53 -150 48 -437 -4 -226 -7 -256 -26 -306 -23 -58 -75
-117 -127 -143 -99 -50 -381 -48 -500 3 -62 27 -119 87 -144 154 -19 53 -21
76 -21 331 0 301 6 353 51 414 66 92 148 119 360 120 121 1 156 -2 204 -19z
m944 4 c128 -36 188 -116 193 -259 l3 -80 -120 0 -120 0 -6 43 c-3 24 -15 52
-26 64 -44 43 -203 43 -246 -1 -21 -21 -22 -31 -25 -269 -2 -153 1 -259 7
-275 18 -47 65 -67 159 -67 75 0 85 2 108 25 22 22 25 32 22 88 l-3 62 -70 3
c-40 2 -73 8 -77 15 -14 23 -9 164 6 177 11 9 61 9 203 3 l188 -8 3 -160 c4
-179 -7 -248 -46 -312 -57 -92 -140 -118 -346 -110 -215 8 -292 37 -358 133
-45 66 -48 93 -48 412 0 278 2 305 20 354 33 87 78 127 177 158 78 25 320 28
402 4z m-5884 -104 l0 -105 -125 -5 -125 -5 -5 -420 -5 -420 -122 -3 -123 -3
-2 423 -3 423 -120 5 -120 5 -3 94 c-1 52 0 101 2 108 5 11 74 13 378 11 l373
-3 0 -105z m535 88 c10 -25 175 -631 235 -862 19 -77 32 -143 27 -148 -5 -5
-60 -7 -123 -6 l-114 3 -25 95 -25 95 -117 3 c-64 1 -138 -1 -164 -5 l-48 -8
-23 -90 c-12 -49 -26 -92 -30 -96 -14 -13 -230 -22 -237 -10 -4 6 11 73 32
149 22 75 66 229 97 342 81 292 144 511 155 538 9 22 13 22 180 22 167 0 171
0 180 -22z m1094 6 c3 -9 6 -53 6 -98 l0 -82 -86 -120 c-86 -118 -173 -236
-286 -387 -33 -44 -62 -85 -65 -93 -4 -12 30 -14 216 -14 l222 0 -3 -102 -3
-103 -130 -6 c-71 -4 -244 -7 -382 -8 l-253 -1 0 104 c0 71 4 109 13 118 20
21 95 120 217 288 62 85 135 185 162 221 26 37 48 72 48 78 0 8 -61 11 -210
11 l-210 0 0 98 c0 54 3 102 7 105 3 4 169 7 369 7 321 0 363 -2 368 -16z
m874 -85 l3 -95 -165 -225 c-90 -123 -187 -254 -215 -290 -27 -37 -52 -73 -53
-80 -2 -11 38 -15 217 -19 l220 -5 0 -95 0 -95 -384 -8 c-317 -7 -385 -7 -393
5 -5 7 -7 51 -5 98 l4 85 124 165 c194 258 318 433 313 442 -3 4 -97 8 -209 8
-176 0 -204 2 -209 16 -6 15 1 157 9 182 4 10 83 12 372 10 l368 -3 3 -96z
m1346 84 c4 -9 6 -187 6 -396 -1 -208 1 -382 5 -385 4 -4 91 -9 193 -12 l187
-5 0 -105 0 -105 -310 3 c-178 2 -314 8 -320 13 -11 11 -12 980 -1 998 5 7 49
11 121 11 97 0 114 -2 119 -17z m2560 -5 c8 -13 38 -74 66 -137 28 -63 67
-147 86 -188 19 -41 34 -79 34 -85 0 -46 62 74 167 322 20 47 43 91 51 98 20
15 248 17 257 2 4 -6 -29 -79 -73 -163 -44 -83 -122 -235 -173 -337 l-94 -185
-3 -199 -4 -199 -112 5 c-63 3 -119 8 -125 12 -7 5 -11 67 -11 198 l0 190
-165 330 c-91 182 -165 336 -165 344 0 11 25 14 125 14 118 0 125 -1 139 -22z"/>
<path d="M5334 5210 c-67 -21 -69 -28 -72 -279 -4 -254 2 -292 48 -316 39 -20
171 -20 209 0 45 23 51 58 51 292 0 287 -6 300 -138 308 -37 3 -81 0 -98 -5z"/>
<path d="M7040 5213 c-14 -2 -36 -12 -50 -23 l-25 -19 -3 -248 c-2 -136 0
-258 3 -271 13 -51 37 -62 139 -62 86 0 98 2 123 24 l28 24 3 255 c3 253 3
255 -20 281 -33 38 -110 53 -198 39z"/>
<path d="M2717 5183 c-2 -5 -10 -33 -17 -63 -7 -30 -25 -102 -40 -160 -16 -58
-31 -122 -35 -142 l-6 -38 106 0 c93 0 105 2 105 18 0 32 -92 392 -101 392 -4
0 -10 -3 -12 -7z"/>
<path d="M4890 1915 c-7 -8 -14 -60 -18 -121 -6 -120 1 -134 65 -134 41 0 49
15 58 115 3 44 9 89 11 101 3 12 -2 28 -11 38 -21 20 -88 21 -105 1z"/>
<path d="M7349 3223 l-189 -188 20 -54 c12 -29 30 -71 41 -92 28 -56 10 -86
-75 -127 -37 -18 -90 -55 -123 -87 -31 -30 -63 -55 -69 -55 -6 0 -37 -17 -70
-38 -32 -21 -79 -46 -104 -56 -24 -10 -81 -41 -125 -70 -48 -31 -143 -76 -240
-115 -88 -34 -171 -71 -185 -80 -14 -10 -50 -20 -80 -23 -87 -8 -199 -46 -232
-79 -28 -28 -31 -28 -103 -22 -112 9 -188 -10 -241 -61 -69 -67 -76 -132 -37
-340 22 -122 55 -172 129 -196 52 -18 187 -8 244 18 25 11 74 24 110 30 94 14
139 35 151 72 13 36 21 37 58 9 27 -20 29 -20 87 -4 32 9 82 23 109 31 58 16
125 44 125 53 0 3 7 14 14 24 11 15 19 16 34 8 25 -13 123 18 184 60 24 16 50
29 59 29 10 0 43 14 74 30 31 17 63 30 70 30 7 0 35 15 61 33 27 18 84 50 127
71 55 27 89 52 118 86 30 36 50 50 77 55 38 6 99 41 140 78 16 15 22 32 22 64
l0 43 53 0 c78 0 149 39 210 115 86 108 82 160 -19 263 -35 36 -64 68 -64 72
0 3 10 17 22 30 72 77 158 183 158 194 0 8 -35 25 -85 41 -97 31 -116 44 -137
100 -22 57 -64 164 -78 203 -8 21 -19 32 -32 32 -13 0 -92 -71 -209 -187z
m181 -152 c9 -51 14 -94 10 -96 -7 -5 -213 16 -220 22 -8 7 174 173 185 170 5
-2 16 -45 25 -96z m-53 -294 c8 -13 -16 -27 -48 -27 -60 0 -60 -56 -1 -112 47
-44 133 -98 157 -98 10 0 33 10 52 21 26 17 33 27 31 47 -3 29 -34 53 -46 36
-17 -25 -45 -32 -69 -17 -13 8 -23 20 -23 26 0 16 72 87 87 87 21 0 118 -77
134 -106 12 -24 11 -30 -12 -73 -58 -103 -154 -131 -251 -72 -61 37 -171 136
-187 168 -20 40 -13 79 19 107 25 21 40 25 90 24 33 0 63 -5 67 -11z m-257
-184 c12 -16 70 -79 128 -141 59 -62 108 -117 110 -122 4 -11 -46 -49 -75 -56
-25 -7 -84 14 -233 82 -72 32 -120 43 -120 27 0 -5 38 -57 85 -117 47 -60 85
-112 85 -114 0 -3 -8 -11 -17 -18 -31 -23 -57 -15 -90 29 -18 23 -64 83 -102
132 -101 130 -102 132 -66 161 56 46 59 46 240 -20 54 -20 103 -35 107 -34 5
2 -25 40 -67 86 -76 84 -84 99 -63 120 20 20 55 13 78 -15z m-328 -326 c41
-62 88 -134 103 -161 l28 -48 -24 -19 c-13 -10 -29 -19 -35 -19 -10 0 -206
288 -219 321 -6 15 43 48 61 42 7 -3 45 -55 86 -116z m-196 36 c19 -63 82
-218 111 -272 25 -49 30 -67 21 -73 -27 -16 -39 -6 -75 65 l-38 72 -3 -91 c-2
-75 -6 -95 -22 -109 -34 -31 -68 -10 -235 143 -27 25 -51 40 -53 33 -2 -6 15
-66 38 -133 40 -115 41 -122 24 -135 -42 -30 -50 -18 -139 203 -31 76 -54 143
-51 149 7 20 97 49 122 39 13 -5 66 -48 119 -96 95 -87 125 -104 125 -70 0 29
-30 191 -41 219 -8 21 -6 30 12 50 27 28 77 31 85 6z m-561 -205 c31 -44 167
-254 191 -294 l25 -42 -32 -11 c-46 -16 -52 -14 -77 24 -26 40 -26 40 -98 19
-53 -15 -54 -16 -54 -54 0 -42 -18 -60 -59 -60 -27 0 -29 10 -36 222 -4 128
-2 178 6 184 10 6 93 31 111 33 4 1 14 -9 23 -21z m-282 -78 c14 -11 30 -34
36 -50 9 -28 8 -32 -15 -40 -39 -15 -62 -12 -74 10 -8 15 -21 20 -48 20 -67 0
-71 -13 -46 -152 20 -105 32 -122 83 -113 50 9 65 26 56 64 -6 27 -11 31 -39
31 -64 0 -79 53 -18 69 96 24 111 24 121 -3 14 -36 24 -141 17 -170 -9 -38
-71 -65 -150 -67 -68 -2 -106 13 -124 48 -12 23 -39 152 -48 224 -8 72 2 90
68 123 66 33 143 36 181 6z"/>
</g>
</svg>
