<?xml version="1.0" standalone="no"?>
<!DOCTYPE svg PUBLIC "-//W3C//DTD SVG 20010904//EN"
 "http://www.w3.org/TR/2001/REC-SVG-20010904/DTD/svg10.dtd">
<svg version="1.0" xmlns="http://www.w3.org/2000/svg"
 width="544.000000pt" height="978.000000pt" viewBox="0 0 544.000000 978.000000"
 preserveAspectRatio="xMidYMid meet">
<metadata>
Created by potrace 1.16, written by Peter Selinger 2001-2019
</metadata>
<g transform="translate(0.000000,978.000000) scale(0.100000,-0.100000)"
fill="#000000" stroke="none">
<path d="M0 4890 l0 -4890 2720 0 2720 0 0 4890 0 4890 -2720 0 -2720 0 0
-4890z m2796 4853 c4 -10 17 -40 29 -68 13 -27 37 -79 53 -115 116 -252 113
-224 43 -373 -76 -160 -79 -171 -30 -115 24 28 62 58 94 73 30 14 57 30 60 35
3 6 33 10 66 10 77 0 128 -30 159 -95 17 -36 21 -55 16 -89 -13 -86 -84 -164
-165 -181 l-34 -7 21 35 c42 66 20 127 -45 127 -63 0 -111 -38 -154 -120 -20
-37 -24 -60 -24 -130 0 -72 4 -94 28 -146 36 -77 104 -145 182 -181 81 -37
187 -39 257 -4 120 58 202 236 153 330 -38 75 -117 47 -147 -50 -6 -22 -14
-39 -18 -39 -3 0 -17 15 -31 33 -38 50 -33 111 12 160 20 20 41 37 47 37 7 0
12 4 12 9 0 18 45 20 79 4 48 -22 82 -49 103 -81 18 -27 18 -26 18 71 l0 98
38 38 c67 70 167 182 170 191 2 6 8 8 13 4 5 -3 9 -72 9 -155 l0 -149 -55 -82
c-55 -82 -64 -109 -22 -71 35 33 61 42 110 41 40 0 50 -5 72 -34 14 -18 25
-45 25 -61 1 -25 2 -26 12 -9 6 11 22 32 37 48 21 24 32 28 65 26 31 -2 43 -9
52 -27 11 -22 13 -19 19 35 11 83 35 126 130 221 87 87 121 105 109 56 -18
-74 -61 -170 -251 -551 l-206 -413 12 -40 c13 -45 7 -95 -16 -121 -9 -10 -18
-56 -25 -126 l-9 -109 32 -46 c22 -32 30 -52 26 -69 -8 -31 -29 -59 -47 -62
-8 -1 -25 -8 -38 -14 -12 -7 -26 -11 -31 -8 -4 3 -17 -1 -27 -9 -10 -8 -35
-15 -54 -15 -19 0 -44 -7 -54 -15 -13 -10 -43 -15 -86 -15 -37 0 -71 -5 -78
-12 -7 -7 -50 -13 -104 -14 -51 -2 -124 -8 -163 -13 -38 -6 -96 -14 -127 -17
l-58 -5 0 -38 0 -38 57 -12 c31 -6 80 -11 109 -11 29 0 56 -4 59 -10 4 -6 67
-10 156 -10 102 0 157 -4 172 -12 14 -9 84 -15 196 -18 161 -5 175 -7 185 -25
6 -11 14 -22 17 -25 3 -3 14 -27 24 -55 10 -27 22 -55 26 -60 4 -6 17 -35 29
-65 12 -30 25 -57 29 -60 16 -10 166 -330 155 -330 -3 0 -122 70 -265 156
-350 211 -341 207 -556 206 -95 0 -190 -3 -211 -7 l-39 -6 -7 -747 c-4 -411
-7 -895 -7 -1077 0 -181 -3 -347 -7 -367 l-7 -37 -70 33 c-38 18 -99 45 -135
59 -58 23 -408 180 -561 251 l-56 26 -6 632 c-4 347 -7 765 -7 928 l0 297 -67
6 c-38 4 -134 7 -216 7 l-147 0 -73 -36 c-39 -20 -175 -98 -302 -174 -126 -75
-240 -142 -252 -148 -18 -10 -12 9 39 115 34 71 68 144 77 163 9 19 37 77 63
128 27 51 48 98 48 105 0 19 50 88 60 82 4 -3 15 2 23 10 12 12 43 15 144 15
89 0 133 4 141 12 9 9 67 14 187 16 96 3 175 8 175 12 0 4 33 10 73 14 39 4
96 9 125 12 l52 6 0 38 0 37 -112 7 c-62 4 -131 11 -153 17 -22 5 -78 12 -124
14 -46 2 -88 8 -94 14 -6 6 -28 11 -48 11 -45 0 -145 25 -205 51 -25 10 -46
17 -48 16 -3 -1 -16 9 -30 22 -31 29 -33 58 -6 113 16 33 20 62 20 132 -1 94
-15 153 -45 187 -16 16 -16 26 -7 74 l12 56 -80 167 c-44 92 -87 181 -96 197
-122 224 -216 423 -240 508 -28 100 -27 122 4 94 10 -10 23 -17 28 -17 9 0 41
-29 80 -72 42 -47 73 -114 85 -185 l12 -72 29 30 c41 40 79 39 112 -3 15 -20
26 -27 26 -18 0 8 18 30 40 48 56 46 108 43 167 -11 38 -35 34 -14 -10 52 -23
34 -48 72 -54 84 -17 29 -18 298 -2 314 9 9 33 -14 97 -90 46 -56 88 -104 92
-107 20 -14 30 -57 31 -137 0 -71 2 -84 11 -65 6 12 15 22 20 22 5 0 19 9 31
20 27 26 74 50 97 50 28 0 77 -29 105 -61 44 -53 45 -96 3 -159 -30 -44 -48
-49 -48 -13 0 36 -33 90 -65 105 -19 9 -29 8 -50 -6 -107 -70 -14 -307 143
-366 105 -40 237 -10 330 75 53 47 75 84 102 169 38 118 8 233 -81 309 -51 44
-91 55 -124 33 -35 -23 -40 -56 -16 -110 23 -52 17 -55 -44 -27 -51 23 -78 54
-106 115 -36 82 -15 153 59 204 41 27 56 32 108 32 43 0 65 -5 74 -15 7 -8 20
-15 29 -15 25 0 71 -35 108 -81 18 -23 33 -36 33 -29 0 7 -28 68 -62 136 -61
121 -62 124 -49 161 12 36 68 158 116 253 12 25 25 56 28 70 9 34 44 90 57 90
6 0 13 -8 16 -17z m2614 -2011 c0 -23 -37 -57 -70 -66 -14 -4 -34 -11 -45 -16
-11 -5 -57 -18 -101 -29 -177 -43 -281 -124 -333 -261 -57 -147 -53 -236 25
-515 25 -91 27 -114 27 -265 -1 -234 -31 -396 -94 -509 -44 -78 -168 -222
-220 -256 -9 -5 -39 -28 -67 -50 -70 -55 -120 -85 -142 -85 -10 0 -20 -5 -22
-11 -2 -6 -15 -13 -28 -14 -14 -2 -38 -10 -54 -18 -17 -9 -41 -14 -58 -10 -17
3 -37 -1 -53 -11 -36 -23 -461 -24 -506 0 -18 9 -42 13 -57 10 -16 -4 -39 0
-56 9 -15 8 -43 15 -60 15 -18 0 -41 7 -52 15 -10 8 -31 15 -46 15 -15 0 -38
5 -51 11 -24 11 -24 14 -28 167 -3 87 -2 248 1 359 l5 201 40 -28 c75 -53 236
-150 249 -150 7 0 21 -7 32 -15 10 -8 31 -15 45 -15 15 0 40 -7 55 -15 16 -8
46 -15 66 -15 20 0 40 -4 43 -10 8 -13 269 -13 293 -1 9 5 41 17 71 26 151 46
275 141 318 245 9 19 27 60 40 90 35 75 40 160 17 295 -38 234 -17 406 65 545
41 68 134 171 201 220 43 32 140 80 161 80 9 0 22 7 29 15 7 9 29 15 54 15 23
0 47 5 54 12 6 6 38 10 79 9 48 -1 74 3 88 13 30 23 85 21 85 -2z m-3189
-1462 c3 -503 7 -453 -44 -483 -132 -78 -205 -234 -180 -384 23 -129 117 -272
245 -368 96 -72 355 -198 713 -347 131 -55 221 -96 275 -126 19 -11 42 -23 50
-26 8 -3 33 -17 55 -31 22 -13 48 -24 58 -25 9 0 17 -4 17 -10 0 -5 6 -10 14
-10 7 0 19 -7 26 -15 7 -8 21 -15 32 -15 16 0 63 -24 78 -40 8 -8 42 -28 80
-46 19 -10 47 -28 62 -42 15 -13 35 -30 46 -36 72 -42 279 -213 304 -251 3 -5
27 -32 52 -60 25 -27 46 -53 46 -57 0 -4 13 -22 29 -40 44 -51 191 -315 217
-392 55 -160 79 -409 58 -601 -36 -341 -137 -552 -369 -773 -203 -194 -367
-285 -605 -337 -41 -9 -91 -21 -111 -26 -84 -21 -79 -33 -79 184 0 105 3 283
7 394 l6 202 26 6 c14 4 49 20 78 36 128 73 229 230 240 370 13 173 -82 367
-268 545 -154 146 -351 261 -754 439 -179 79 -330 152 -377 181 -23 15 -46 27
-52 28 -7 1 -29 12 -49 24 -21 12 -40 22 -43 22 -2 0 -27 16 -54 35 -28 19
-50 33 -50 31 0 -3 -11 5 -24 17 -13 12 -44 32 -68 44 -24 12 -57 36 -73 53
-16 16 -34 30 -40 30 -6 0 -24 14 -41 31 -16 17 -42 38 -59 46 -26 13 -67 53
-171 164 -13 14 -24 31 -24 37 0 6 -6 15 -14 19 -7 4 -28 32 -46 61 -17 28
-36 52 -41 52 -5 0 -9 6 -9 14 0 8 -6 16 -12 19 -22 8 -97 150 -127 238 -45
132 -65 249 -65 384 0 114 4 148 41 325 17 81 17 81 102 273 11 26 25 47 29
47 5 0 21 21 35 48 23 42 63 89 175 205 20 20 40 37 44 37 7 0 96 58 108 70 5
5 23 15 88 51 20 11 57 31 81 45 24 13 52 24 62 24 10 0 21 5 24 10 3 6 15 10
26 10 11 0 30 6 42 14 12 7 49 19 82 26 33 7 65 13 70 15 6 1 13 0 17 -4 3 -3
7 -166 9 -361z m430 -2509 c145 -71 323 -163 394 -203 l130 -75 -3 -924 c-3
-828 -11 -1256 -25 -1329 -3 -14 -8 -50 -12 -80 -9 -77 -42 -210 -104 -420
-16 -52 -34 -120 -41 -150 -7 -29 -23 -77 -36 -106 -13 -29 -30 -78 -40 -110
-9 -33 -20 -63 -25 -69 -5 -5 -9 -19 -9 -31 0 -13 -7 -29 -15 -38 -8 -8 -15
-23 -15 -33 0 -10 -7 -31 -16 -48 -9 -16 -25 -55 -37 -85 l-20 -55 -28 63
c-137 307 -248 649 -314 966 -58 286 -57 248 -61 1451 -2 611 -6 1160 -9 1221
-6 110 0 184 15 184 4 0 126 -58 271 -129z m-652 -1043 c7 -8 38 -13 77 -13
39 0 68 -5 72 -12 4 -6 28 -13 52 -15 l45 -3 3 -386 2 -386 -25 5 c-14 2 -28
8 -31 13 -3 5 -13 9 -23 9 -10 0 -24 7 -31 15 -7 9 -15 13 -18 11 -2 -3 -21 2
-41 11 -20 8 -54 17 -76 20 -22 2 -44 9 -50 14 -14 14 -108 11 -146 -5 -40
-17 -62 -39 -118 -124 -63 -94 -143 -138 -406 -227 -60 -21 -135 -48 -165 -62
-148 -67 -200 -83 -271 -83 -55 0 -80 5 -121 26 l-50 26 -55 -38 c-73 -50
-116 -103 -167 -204 -67 -134 -116 -205 -116 -168 0 8 4 18 9 24 11 10 71 159
71 174 0 5 -15 1 -32 -10 -33 -19 -125 -59 -227 -100 l-55 -21 45 40 c24 23
48 41 54 42 52 3 79 10 124 32 51 26 155 124 239 224 40 49 41 52 21 58 -23 8
-43 49 -54 112 -9 58 18 150 59 196 32 36 67 112 111 239 32 94 50 120 97 143
22 10 50 30 61 43 62 68 113 109 157 128 8 3 24 10 35 14 11 5 30 12 43 15 12
4 22 11 22 16 0 5 8 9 19 9 10 0 32 7 47 15 16 8 37 15 46 15 9 0 20 5 23 10
3 6 21 10 39 10 19 0 67 17 112 40 43 22 89 40 100 40 12 0 27 7 34 15 7 8 27
15 44 15 18 0 37 5 43 11 6 6 42 12 79 14 39 1 70 7 72 14 5 16 204 15 221 -1z"/>
<path d="M1726 8644 c-22 -21 -20 -42 8 -90 l23 -41 -35 8 c-19 4 -49 22 -67
39 l-32 31 -7 -35 c-9 -45 -22 -46 -30 -3 -3 19 -13 42 -22 53 -14 17 -15 13
-10 -51 9 -111 31 -170 84 -228 47 -50 109 -86 149 -87 29 0 83 46 99 87 19
45 17 138 -3 198 -21 57 -90 135 -121 135 -11 0 -28 -7 -36 -16z"/>
<path d="M3730 8624 c-70 -63 -102 -203 -66 -289 38 -91 116 -111 202 -52 84
56 121 131 140 283 6 54 5 58 -9 45 -9 -7 -19 -28 -23 -47 -11 -62 -33 -31
-35 51 l-1 40 -11 -33 c-13 -43 -79 -102 -114 -102 -25 0 -25 1 -10 18 27 30
40 77 27 101 -16 32 -54 26 -100 -15z"/>
<path d="M1151 2103 c-32 -30 -84 -120 -76 -133 3 -4 27 -13 54 -20 43 -10 55
-9 86 5 43 21 58 46 58 97 0 76 -66 103 -122 51z"/>
</g>
</svg>
