<?xml version="1.0" standalone="no"?>
<!DOCTYPE svg PUBLIC "-//W3C//DTD SVG 20010904//EN"
 "http://www.w3.org/TR/2001/REC-SVG-20010904/DTD/svg10.dtd">
<svg version="1.0" xmlns="http://www.w3.org/2000/svg"
 width="1440.000000pt" height="1920.000000pt" viewBox="0 0 1440.000000 1920.000000"
 preserveAspectRatio="xMidYMid meet">
<metadata>
Created by potrace 1.16, written by Peter Selinger 2001-2019
</metadata>
<g transform="translate(0.000000,1920.000000) scale(0.100000,-0.100000)"
fill="#000000" stroke="none">
<path d="M0 17486 c1 -1498 2 -1715 15 -1720 8 -3 15 -13 15 -23 -1 -17 -2
-16 -15 1 -14 18 -15 14 -15 -46 0 -37 4 -68 9 -70 14 -5 24 -48 11 -48 -6 0
-8 5 -5 10 3 6 1 10 -4 10 -7 0 -11 -35 -11 -97 1 -89 2 -96 16 -78 8 11 11
26 8 35 -12 26 -17 90 -7 90 17 0 23 -13 12 -26 -7 -8 -7 -14 1 -19 5 -3 10
-1 10 6 0 20 11 4 25 -38 13 -35 14 -36 15 -10 0 20 5 27 20 27 11 0 23 -7 26
-15 9 -21 34 -19 34 3 0 20 -28 38 -77 47 -27 5 -32 10 -31 35 1 20 7 30 22
34 12 3 22 2 24 -2 11 -32 21 -36 41 -18 19 17 20 17 24 -11 l4 -28 8 33 c7
30 9 31 22 15 13 -17 14 -16 10 5 -4 15 1 26 15 33 23 13 24 12 33 -24 6 -21
4 -27 -6 -25 -8 2 -15 -7 -17 -19 -4 -24 13 -32 21 -10 2 6 7 -3 11 -21 9 -36
26 -34 26 4 0 14 7 32 15 40 13 14 16 14 21 -1 6 -14 8 -14 20 2 13 17 13 17
14 0 0 -10 7 -25 15 -33 19 -20 19 -11 -1 27 -15 30 -11 56 5 30 7 -11 10 -11
15 0 3 8 4 2 1 -13 -3 -14 -1 -37 4 -50 8 -19 10 -14 10 29 1 28 -3 55 -9 58
-6 3 -10 14 -9 23 0 11 3 12 6 5 2 -7 20 -13 40 -13 33 0 34 -1 28 -29 -3 -16
-3 -31 2 -34 4 -3 9 13 10 35 2 23 8 47 14 54 6 8 9 25 6 39 -4 24 -3 25 14 9
15 -13 16 -20 6 -42 -6 -15 -16 -33 -21 -41 -8 -10 -8 -15 2 -18 6 -3 12 -12
12 -21 0 -13 2 -14 12 -3 10 11 10 14 1 18 -15 6 -17 33 -3 33 6 0 10 11 10
25 0 16 6 25 15 25 9 0 15 -9 15 -25 0 -16 -6 -25 -15 -25 -19 0 -19 -19 0
-44 11 -15 17 -17 29 -7 7 6 19 10 26 9 8 -2 12 17 13 59 1 36 -2 62 -8 62 -5
0 -9 -15 -7 -34 2 -19 -2 -35 -7 -35 -12 0 -41 65 -40 89 0 12 2 11 9 -4 7
-17 9 -15 9 11 1 23 7 33 21 37 16 4 22 -2 30 -36 6 -23 12 -46 13 -51 2 -5
10 -1 19 8 24 23 31 20 24 -11 -5 -21 -4 -24 4 -13 5 8 10 25 10 37 0 16 4 21
16 16 11 -4 13 -14 10 -34 -4 -16 -9 -42 -12 -59 -5 -28 -34 -44 -34 -18 0 6
-2 9 -5 6 -9 -9 6 -38 20 -38 7 0 19 -13 26 -29 11 -24 16 -27 27 -18 11 8 16
7 23 -6 13 -22 30 -22 22 1 -10 27 -36 42 -50 30 -10 -8 -13 -6 -13 5 0 8 -5
17 -10 19 -7 2 -6 17 3 43 12 34 14 36 19 17 7 -24 28 -30 28 -8 0 8 5 18 11
22 8 5 10 -3 7 -25 -4 -27 -2 -31 20 -31 22 0 23 3 18 43 -3 26 -2 33 2 17 4
-14 14 -25 22 -25 8 0 17 11 21 25 l6 25 6 -25 c4 -14 8 -34 10 -45 3 -11 5
-1 6 23 0 23 6 42 12 42 6 0 9 18 8 47 -3 39 0 48 14 51 19 4 23 17 7 27 -12
8 -50 -16 -50 -32 0 -7 -6 -13 -14 -13 -8 0 -16 -6 -19 -12 -2 -7 -8 -9 -13
-5 -5 4 -2 12 6 17 7 4 14 24 14 44 1 20 3 36 6 37 50 6 71 4 81 -7 6 -8 17
-14 25 -14 7 0 21 -13 30 -30 10 -16 23 -31 30 -34 18 -7 3 38 -23 68 -25 28
-31 61 -11 52 7 -3 21 -9 31 -12 11 -4 16 -13 12 -24 -3 -9 -1 -28 4 -41 10
-24 10 -24 10 -1 1 32 18 27 26 -8 10 -43 30 -37 32 10 2 24 -2 40 -9 40 -13
0 -37 30 -38 48 0 6 11 12 24 12 17 0 26 -7 29 -22 3 -13 5 -5 5 17 -1 69 0
74 22 68 11 -3 20 -10 20 -15 0 -6 9 -8 19 -5 14 3 19 0 18 -13 -1 -13 -9 -16
-34 -14 -31 2 -33 0 -33 -29 1 -29 2 -30 14 -14 11 14 19 15 39 8 25 -10 27
-8 37 28 11 42 54 80 64 58 4 -6 4 -2 2 11 -2 12 0 22 4 22 5 0 11 10 13 23
l4 22 8 -22 c9 -28 20 -29 34 -5 9 15 10 14 11 -8 0 -16 -10 -33 -25 -44 -29
-22 -36 -76 -9 -76 10 0 14 6 10 15 -3 8 -1 15 4 15 6 0 10 -10 10 -22 0 -36
11 -68 21 -62 5 3 3 13 -3 24 -9 15 -9 24 2 45 11 21 12 30 2 45 -17 27 -15
30 12 30 30 0 42 16 27 34 -17 21 8 60 42 64 21 3 27 -1 27 -16 0 -26 11 -34
28 -19 13 10 14 6 9 -32 -3 -24 -13 -51 -22 -60 -16 -15 -17 -14 -10 17 6 30
5 32 -20 32 -22 0 -26 -4 -24 -22 2 -13 0 -29 -4 -35 -12 -19 0 -32 23 -26 13
3 20 0 20 -8 0 -8 10 -20 21 -27 20 -13 21 -12 17 16 -4 25 -1 28 16 24 16 -4
18 -2 11 14 -5 10 -9 35 -10 54 -1 19 -3 47 -4 63 -1 19 -6 27 -20 27 -10 0
-25 7 -32 17 -13 15 -11 16 14 9 19 -4 27 -3 27 6 1 7 9 3 19 -9 11 -13 22
-23 27 -23 19 0 34 -41 36 -100 2 -64 2 -64 5 -12 2 28 9 52 15 52 7 0 8 -16
3 -47 -6 -41 -5 -45 8 -34 13 10 17 9 25 -6 9 -15 11 -12 17 20 4 20 11 40 16
43 18 11 8 45 -16 56 -14 6 -25 15 -25 21 0 5 -7 7 -15 3 -18 -6 -45 2 -45 15
0 5 9 9 20 9 11 0 20 5 20 10 0 6 -7 10 -15 10 -30 0 -14 18 23 26 27 5 31 9
17 12 -26 6 -35 20 -35 55 0 21 6 30 20 34 23 6 27 33 5 33 -26 0 -16 16 25
39 22 12 40 27 40 34 0 8 3 8 12 -1 8 -8 8 -15 -2 -27 -10 -12 -10 -19 -2 -27
15 -15 15 -28 2 -28 -5 0 -10 5 -10 11 0 6 -7 17 -15 25 -13 14 -15 14 -15 -1
0 -9 5 -26 11 -38 9 -16 9 -22 0 -25 -24 -8 -9 -21 32 -27 23 -4 50 -11 59
-16 11 -6 20 -5 25 4 4 8 18 16 30 19 18 5 23 1 26 -21 4 -23 4 -22 6 7 0 17
6 32 12 32 14 0 39 25 39 39 0 6 -4 11 -10 11 -5 0 -10 -7 -10 -15 0 -8 -5
-15 -10 -15 -16 0 -26 33 -12 38 15 5 16 33 1 29 -22 -4 -19 21 3 27 14 5 18
9 11 13 -7 2 -13 9 -13 14 0 12 32 8 42 -6 4 -5 10 -2 14 8 3 9 15 17 25 17
20 0 26 -15 10 -24 -11 -7 -10 -76 1 -76 15 0 58 48 58 65 0 24 -17 17 -24
-10 -7 -25 -20 -32 -31 -16 -3 6 1 13 8 18 8 4 19 18 26 31 7 12 16 20 22 17
5 -4 9 11 9 34 0 22 -5 41 -12 44 -7 2 -9 8 -5 13 4 5 12 2 18 -6 8 -13 12
-12 25 5 14 18 15 15 12 -47 -1 -48 -6 -68 -15 -68 -7 0 -13 -4 -13 -10 0 -14
13 -13 28 2 9 9 12 6 12 -15 0 -15 5 -27 10 -27 15 0 12 47 -3 53 -9 4 -9 7 1
18 10 11 12 10 12 -4 0 -9 7 -17 15 -17 15 0 19 10 16 43 -2 11 5 17 19 17 12
0 18 4 15 10 -4 6 -1 17 5 25 7 8 10 16 6 16 -3 1 -10 2 -14 3 -5 0 -16 9 -26
18 -9 9 -24 14 -32 11 -14 -5 -14 -3 -3 16 14 22 49 29 49 10 0 -6 7 -9 15 -5
8 3 15 1 15 -4 0 -6 5 -10 10 -10 6 0 10 7 10 16 0 9 6 14 13 11 8 -3 20 -1
28 4 10 6 10 9 2 9 -26 0 -12 17 24 28 30 9 42 9 60 -3 33 -22 43 -18 43 16 0
30 -2 31 -32 27 -18 -3 -42 -2 -53 3 -19 7 -19 8 3 8 18 1 22 7 22 35 0 19 -6
37 -12 39 -10 4 -10 6 0 6 17 1 15 21 -3 21 -21 0 -19 9 8 31 28 23 66 27 47
4 -10 -12 -10 -15 4 -15 9 0 16 -4 16 -10 0 -5 -7 -10 -15 -10 -20 0 -19 -16
1 -24 25 -9 64 -7 64 4 0 6 -7 10 -15 10 -8 0 -15 7 -15 15 0 8 -5 15 -11 15
-6 0 -9 6 -6 14 3 8 2 16 -2 18 -13 5 -24 78 -11 78 5 0 10 7 10 15 0 8 5 15
10 15 6 0 10 -7 10 -15 0 -8 -4 -15 -10 -15 -5 0 -10 -7 -10 -15 0 -8 7 -15
15 -15 10 0 15 -10 15 -29 0 -20 9 -37 30 -55 17 -14 33 -39 36 -55 4 -17 10
-28 15 -26 10 7 8 45 -3 45 -4 0 -8 5 -8 10 0 6 6 10 14 10 9 0 12 7 9 20 -4
16 0 20 21 20 19 0 26 5 26 20 0 11 4 20 9 20 14 0 41 -41 35 -52 -9 -14 -24
-9 -24 8 0 14 -2 14 -15 0 -16 -16 -20 -36 -7 -36 5 0 10 -20 10 -45 2 -34 -1
-45 -13 -45 -8 0 -15 -5 -15 -11 0 -6 -12 -9 -27 -7 -23 2 -29 9 -33 37 -3 19
-10 36 -16 38 -7 2 -10 -6 -6 -22 3 -20 1 -24 -12 -19 -9 3 -16 13 -16 21 0 8
-4 12 -9 9 -9 -6 2 -72 13 -84 4 -3 12 0 18 6 9 9 9 12 -1 12 -7 0 -9 4 -6 10
9 14 45 -11 45 -32 0 -13 8 -18 30 -18 17 0 30 -4 30 -10 0 -5 7 -10 16 -10
11 0 14 -5 10 -16 -4 -11 0 -15 16 -12 12 2 23 9 24 16 1 7 0 8 -3 2 -8 -17
-26 -11 -19 7 4 9 2 19 -3 22 -5 4 -11 20 -13 36 -2 21 2 30 15 33 10 2 17 -3
17 -12 0 -9 -5 -16 -11 -16 -5 0 -7 -5 -4 -10 4 -6 12 -4 22 5 11 12 12 19 4
29 -9 11 -8 22 3 48 8 18 15 27 15 20 1 -7 6 -10 12 -6 6 3 3 -5 -6 -20 -14
-21 -15 -29 -5 -41 16 -19 25 -11 25 23 0 18 5 27 16 26 8 -1 15 6 15 15 -1 9
4 16 9 16 6 0 9 -6 9 -12 -1 -7 2 -13 6 -13 5 0 17 -3 27 -7 10 -3 15 -3 11 2
-4 4 -3 16 3 27 9 16 13 17 26 6 14 -11 15 -8 7 32 -12 66 -11 103 4 107 6 3
12 -2 12 -11 0 -20 17 -20 53 -1 l28 15 -1 -43 c-4 -88 -1 -101 15 -87 8 7 15
9 15 4 0 -11 20 18 20 29 0 5 -10 5 -22 1 -21 -6 -21 -6 -5 10 21 21 22 32 3
39 -10 4 -14 22 -14 64 1 76 7 92 25 67 14 -18 15 -18 28 -1 9 13 15 15 20 7
4 -7 2 -17 -4 -23 -6 -6 -11 -22 -11 -36 0 -19 3 -22 9 -12 5 8 7 20 4 28 -4
9 3 16 16 20 29 7 27 37 -4 53 -14 7 -25 20 -25 27 0 8 4 12 9 8 5 -3 13 -1
16 5 4 6 14 1 26 -12 15 -18 20 -20 27 -10 5 8 11 12 13 11 6 -5 44 23 53 39
4 7 2 19 -4 27 -10 12 -9 15 3 15 8 0 18 6 20 13 3 6 6 -1 7 -18 l2 -30 9 30
c5 18 5 43 0 62 -5 18 -6 35 -1 38 14 9 40 -25 40 -51 0 -15 6 -24 16 -24 11
0 14 6 9 23 -6 22 -6 22 15 -2 l21 -24 6 21 c3 12 11 22 18 22 7 0 16 6 18 13
4 8 6 7 6 -3 0 -8 -3 -22 -8 -30 -6 -8 -7 -18 -4 -23 3 -5 9 -4 13 2 10 16 37
3 43 -21 4 -12 12 -18 23 -16 12 2 17 14 18 48 1 25 -2 56 -6 70 l-7 25 -6
-22 c-9 -29 -61 -33 -68 -5 -4 16 -5 16 -6 0 -1 -21 -12 -23 -30 -5 -11 10
-12 8 -6 -10 7 -26 -6 -31 -24 -9 -14 16 -4 46 15 46 8 0 23 9 34 20 11 11 20
16 20 10 0 -5 11 -10 25 -10 14 0 25 5 25 10 0 6 -7 10 -16 10 -9 0 -14 6 -12
12 3 7 13 13 24 13 14 0 20 8 23 30 3 26 4 28 11 10 7 -16 9 -17 9 -3 1 9 -4
20 -10 24 -7 4 6 13 31 21 38 13 43 13 54 -3 11 -14 9 -21 -10 -41 -24 -26
-40 -61 -31 -70 3 -2 15 1 27 7 17 9 21 9 15 0 -5 -9 -1 -8 16 1 13 7 28 12
33 11 16 -5 46 9 40 19 -3 5 -9 7 -14 4 -5 -3 -11 -1 -14 4 -4 5 -2 12 4 16
13 8 13 65 0 65 -5 0 -10 5 -10 11 0 6 6 9 14 6 8 -3 17 1 20 9 3 8 17 14 32
14 24 0 26 3 21 28 -4 19 -2 29 6 29 8 0 11 -17 9 -51 -3 -47 -2 -50 13 -32
10 14 12 22 4 27 -8 5 -8 8 0 13 6 4 13 -4 17 -19 9 -38 26 -30 18 10 -5 31
-4 35 20 41 38 9 81 -8 82 -35 2 -32 10 -35 35 -12 17 16 26 18 36 10 9 -8 13
-8 13 -1 0 6 7 9 15 6 12 -5 14 0 9 25 -5 25 -4 30 8 26 9 -4 18 0 21 9 9 23
-4 84 -19 90 -8 3 -11 0 -7 -10 3 -7 0 -14 -6 -14 -6 0 -11 5 -11 11 0 5 -5 7
-10 4 -6 -4 -8 -16 -5 -28 2 -12 2 -16 -1 -9 -3 6 -12 12 -20 12 -18 0 -18 4
2 42 14 27 19 29 47 24 61 -12 105 -37 100 -57 -4 -14 0 -19 16 -19 28 0 27
-26 -1 -34 -34 -9 -58 -7 -58 3 0 5 8 12 18 14 12 3 10 5 -7 6 -19 1 -22 -3
-18 -19 3 -11 1 -23 -4 -26 -5 -3 -9 -14 -9 -24 0 -10 -7 -25 -14 -33 -13 -13
-12 -17 9 -37 l23 -22 7 23 c8 25 43 58 61 59 7 0 15 12 18 26 5 20 10 23 20
15 7 -6 16 -7 20 -3 4 4 13 7 19 7 7 0 13 10 15 23 2 14 -2 22 -12 22 -8 0
-18 9 -21 20 -3 11 -11 20 -17 20 -6 0 0 9 13 21 19 17 21 22 9 29 -8 6 -19
10 -25 10 -5 0 -4 -4 4 -9 11 -7 9 -11 -8 -21 -12 -6 -27 -9 -34 -6 -7 2 -5 5
5 5 19 1 13 41 -6 41 -8 0 -8 2 0 8 6 4 14 14 18 22 4 9 5 6 2 -7 -2 -15 0
-20 10 -16 7 2 10 11 7 19 -3 8 1 14 11 14 9 0 16 -7 16 -15 0 -8 4 -15 9 -15
5 0 8 8 7 18 0 10 5 16 15 14 21 -3 43 23 35 43 -8 22 3 45 20 38 8 -3 14 -12
14 -20 0 -13 3 -13 16 -2 10 8 12 15 5 17 -18 6 -12 22 8 22 11 0 21 6 24 13
2 6 8 8 13 4 5 -4 4 -11 -2 -15 -12 -8 -14 -52 -2 -52 4 0 8 -7 8 -15 0 -18
-17 -20 -22 -3 -3 9 -9 8 -21 -4 -18 -18 -23 -68 -7 -68 6 0 10 -4 10 -10 0
-5 -7 -10 -15 -10 -8 0 -15 7 -15 15 0 10 -10 15 -32 14 -30 -1 -30 -2 -9 -8
32 -9 37 -27 11 -41 -11 -6 -18 -15 -15 -21 4 -5 1 -9 -5 -9 -7 0 -10 7 -7 15
9 23 -6 25 -32 4 -23 -19 -23 -19 -2 -19 14 0 21 -6 21 -18 0 -10 5 -23 12
-30 9 -9 9 -15 0 -24 -15 -15 -16 -32 -2 -23 6 4 10 -6 10 -24 0 -31 -14 -49
-23 -31 -3 6 -4 5 -3 -2 1 -7 12 -14 24 -16 25 -4 29 -17 8 -25 -9 -4 -12 -14
-9 -26 6 -23 -12 -29 -21 -8 -3 6 -4 1 -3 -13 1 -17 7 -24 18 -22 9 1 24 -9
33 -24 17 -25 17 -26 -10 -49 -25 -21 -26 -27 -16 -49 10 -22 0 -48 -11 -29
-2 5 -2 2 0 -5 2 -8 6 -24 9 -36 4 -17 -1 -25 -20 -34 -19 -8 -24 -16 -19 -29
6 -17 5 -17 -14 0 -20 17 -21 17 -52 -8 -17 -15 -31 -35 -31 -45 0 -10 -5 -20
-11 -22 -12 -4 -39 -73 -39 -101 0 -9 -11 -22 -24 -29 -29 -12 -30 -49 -4
-108 10 -24 12 -39 5 -48 -5 -7 -7 -15 -4 -19 4 -3 -1 -12 -10 -18 -14 -10
-15 -16 -5 -27 18 -23 3 -78 -32 -115 -17 -18 -36 -33 -43 -33 -7 0 -13 -11
-13 -25 0 -16 -6 -25 -15 -25 -18 0 -18 -1 -5 -35 5 -14 7 -24 2 -22 -4 3 -5
-16 -3 -41 4 -59 22 -74 81 -67 42 5 46 4 62 -25 22 -38 14 -90 -12 -90 -10 0
-21 -6 -23 -12 -4 -10 -8 -9 -16 2 -7 10 -11 11 -11 3 0 -8 -15 -13 -39 -13
-22 0 -42 5 -44 13 -4 10 -6 10 -6 0 -1 -7 -10 -13 -20 -13 -11 0 -21 -5 -23
-11 -2 -6 -15 -13 -28 -14 -14 -1 -30 -3 -36 -4 -7 0 -15 -12 -18 -25 -6 -25
-38 -32 -63 -14 -6 5 -14 5 -18 -2 -3 -6 -11 -8 -16 -5 -9 6 -13 -1 -23 -46
-5 -25 -27 -32 -53 -16 -6 4 -15 2 -18 -4 -4 -6 -18 -8 -30 -5 -31 8 -80 -33
-95 -79 -6 -19 -19 -39 -27 -44 -12 -6 -17 -31 -20 -107 -6 -149 -47 -253 -82
-210 -7 8 -21 12 -31 9 -11 -3 -20 -1 -20 5 0 15 -52 -1 -60 -19 -4 -7 -13
-25 -20 -38 -7 -14 -12 -48 -12 -77 0 -33 -4 -51 -11 -51 -45 1 -69 -6 -96
-29 -26 -21 -31 -33 -31 -69 0 -35 5 -46 25 -59 14 -9 25 -20 25 -25 0 -5 16
-37 35 -72 20 -34 34 -68 31 -76 -7 -18 -57 -17 -84 2 -15 11 -27 13 -39 7
-10 -5 -35 -12 -55 -16 -36 -6 -38 -9 -38 -43 0 -46 -18 -99 -46 -139 -17 -24
-33 -33 -64 -37 -55 -7 -90 -31 -90 -63 0 -19 -8 -28 -34 -39 -36 -15 -76 -58
-76 -82 0 -8 18 -31 40 -51 57 -50 93 -132 59 -132 -8 0 -10 -18 -6 -60 l7
-60 -34 -14 c-52 -22 -62 -49 -36 -94 19 -32 21 -44 14 -106 -4 -39 -7 -75 -5
-80 1 -5 -6 -25 -15 -44 -22 -47 -10 -108 21 -104 23 3 55 -42 55 -76 0 -25
52 -70 88 -78 15 -3 37 -10 50 -15 13 -5 34 -9 47 -9 14 0 25 -3 26 -7 1 -5 3
-34 5 -65 2 -31 9 -70 17 -85 15 -28 34 -158 34 -223 0 -19 -3 -78 -8 -131 -5
-62 -5 -109 2 -133 18 -66 47 -251 52 -328 1 -20 5 -40 10 -44 11 -11 9 -82
-3 -105 -6 -10 -18 -19 -28 -19 -9 -1 -35 -9 -57 -20 -22 -11 -48 -19 -57 -20
-9 0 -43 26 -75 57 -98 97 -184 121 -249 70 -18 -15 -39 -27 -46 -27 -8 0 -19
-5 -26 -12 -7 -7 -12 -8 -12 -3 0 4 -9 0 -20 -10 -11 -10 -32 -19 -47 -21 -29
-4 -64 -11 -73 -14 -3 -1 -8 -2 -12 -1 -4 0 -5 -6 -2 -13 8 -20 -18 -31 -106
-46 -41 -7 -79 -17 -85 -22 -5 -4 -28 -8 -52 -8 -56 0 -83 28 -83 86 0 26 -7
51 -19 65 -17 21 -21 22 -60 11 -22 -7 -41 -16 -41 -20 0 -4 -19 -7 -43 -6
-81 1 -87 3 -87 26 0 21 0 21 -18 2 -10 -10 -19 -27 -19 -36 -2 -26 -46 -78
-60 -73 -7 3 -13 -1 -13 -9 0 -15 -32 -17 -42 -2 -6 8 -10 8 -15 0 -5 -6 -26
-14 -48 -16 -22 -3 -55 -11 -72 -19 -41 -17 -61 -3 -44 30 10 17 7 29 -14 64
-22 39 -28 43 -57 40 -142 -14 -201 -14 -218 2 -10 9 -33 24 -53 34 l-35 18
-43 -38 c-29 -25 -52 -37 -72 -37 -46 2 -81 -32 -87 -84 -6 -50 -24 -78 -49
-78 -9 0 -36 14 -60 30 -37 25 -54 30 -105 30 -82 1 -184 8 -224 16 -37 7 -56
35 -49 70 2 12 1 22 -2 22 -18 -4 -162 16 -166 23 -3 4 -12 6 -20 3 -9 -4 -18
1 -22 12 -6 16 -7 16 -14 -2 -8 -21 -12 -9344 -4 -9344 3 0 20 6 38 14 48 19
92 10 120 -28 14 -17 53 -46 89 -65 69 -37 95 -64 104 -110 5 -23 1 -33 -17
-48 -12 -10 -35 -31 -50 -47 -26 -27 -29 -28 -44 -12 -13 12 -26 15 -51 10
-25 -5 -40 -2 -53 10 -11 10 -31 15 -52 14 -31 -3 -34 -1 -39 34 -7 37 -25 68
-41 68 -5 0 -9 -682 -9 -1585 l0 -1585 7200 0 7200 0 0 3073 0 3072 -33 15
c-38 18 -65 66 -50 89 7 11 22 15 47 13 l36 -3 0 2066 0 2065 -37 -6 c-21 -3
-69 -13 -108 -21 -38 -9 -90 -19 -115 -23 -25 -4 -59 -12 -77 -18 -18 -6 -61
-13 -98 -17 -36 -4 -68 -11 -71 -16 -3 -5 -20 -9 -37 -9 -18 0 -48 -5 -67 -11
-19 -5 -48 -12 -65 -14 -16 -2 -57 -11 -89 -19 -33 -9 -65 -14 -73 -12 -7 3
-15 1 -18 -4 -3 -5 -24 -12 -48 -15 -51 -8 -79 -12 -136 -20 -25 -3 -52 -10
-62 -15 -9 -5 -38 -12 -63 -14 -25 -3 -49 -7 -54 -9 -4 -3 -28 -8 -52 -12 -25
-4 -58 -13 -75 -20 -28 -13 -44 -16 -150 -31 -22 -3 -62 -11 -90 -19 -27 -7
-70 -16 -95 -18 -57 -7 -74 -10 -80 -18 -3 -4 -40 -10 -82 -14 -65 -6 -78 -4
-78 8 0 24 45 37 190 52 30 4 66 10 80 15 14 5 56 14 95 20 38 6 75 16 82 22
7 5 35 11 63 12 29 1 55 8 59 14 10 17 113 42 164 41 95 -2 186 12 332 49 44
11 103 24 130 27 28 4 57 9 65 12 8 2 42 7 74 9 33 3 65 9 71 14 6 5 24 12 40
15 17 3 39 8 50 10 78 16 133 29 155 38 31 11 110 27 136 27 15 0 51 8 81 18
l53 17 0 114 c0 104 -1 113 -17 106 -10 -4 -45 -9 -78 -12 -33 -3 -64 -9 -70
-13 -24 -17 -85 -28 -414 -75 -14 -2 -34 -8 -45 -14 -36 -18 -146 -37 -326
-56 -30 -4 -59 -10 -65 -14 -15 -12 -63 -22 -125 -27 -30 -3 -66 -9 -80 -14
-14 -5 -36 -11 -50 -12 -14 -2 -29 -6 -35 -9 -5 -3 -37 -7 -70 -8 -33 -2 -63
-7 -66 -13 -4 -6 -14 -8 -24 -5 -9 4 -33 -1 -53 -9 -39 -17 -128 -36 -174 -36
-16 0 -28 -5 -28 -11 0 -8 -4 -7 -12 1 -7 7 -17 8 -29 2 -9 -6 -38 -11 -63
-12 -25 0 -46 -5 -46 -11 0 -5 -7 -7 -15 -3 -9 3 -36 -1 -61 -10 -25 -8 -51
-13 -57 -11 -7 2 -23 0 -37 -6 -14 -5 -34 -12 -44 -14 -11 -2 -25 -8 -33 -14
-9 -8 -13 -8 -13 0 0 18 -14 13 -29 -12 -7 -12 -10 -19 -6 -15 5 5 14 -2 21
-15 33 -55 64 -123 64 -139 0 -22 37 -61 50 -53 5 3 11 1 14 -3 3 -5 -10 -14
-29 -19 -22 -7 -37 -8 -41 -2 -4 6 -10 6 -17 1 -7 -6 -54 -15 -106 -22 -52 -7
-104 -14 -115 -15 -12 -2 -73 -11 -136 -20 -63 -9 -148 -23 -188 -32 -82 -17
-139 -21 -357 -28 -82 -3 -163 -7 -180 -9 -16 -3 -77 -8 -135 -11 -58 -3 -137
-7 -176 -9 -40 -2 -80 -8 -90 -14 -11 -5 -53 -10 -94 -11 -41 -2 -77 -4 -80
-6 -3 -2 -66 -6 -140 -9 -74 -4 -162 -9 -195 -11 -33 -2 -140 -7 -239 -11 -98
-3 -191 -10 -206 -14 -21 -6 -30 -4 -34 7 -3 8 -11 11 -16 8 -6 -4 -18 -1 -26
6 -9 7 -25 14 -37 16 -32 5 -45 21 -52 66 -5 26 -21 59 -42 85 -40 49 -37 59
27 78 41 12 80 9 80 -7 0 -5 9 -9 20 -9 11 0 19 6 17 12 -1 7 9 14 22 16 19 3
21 6 10 13 -21 15 40 -1 76 -19 33 -17 142 -19 158 -3 6 6 29 8 54 4 30 -4 43
-2 43 6 0 7 5 9 10 6 6 -4 23 0 38 8 20 10 34 11 50 4 52 -23 94 38 78 115 -7
33 9 108 23 108 20 0 43 -74 42 -139 0 -57 3 -70 24 -93 22 -23 30 -26 86 -24
37 2 64 7 67 14 2 7 16 12 30 12 15 0 44 5 65 11 27 7 42 7 51 0 7 -6 17 -7
22 -2 13 12 86 22 79 10 -4 -5 8 -9 24 -9 17 0 31 5 31 11 0 7 18 9 49 5 33
-3 51 -1 53 6 3 7 17 12 33 13 19 0 33 7 40 21 5 11 18 29 28 39 19 18 28 14
39 -17 2 -4 17 -4 33 1 l30 9 -30 2 -30 1 23 16 c25 18 29 41 7 49 -8 4 -13
10 -10 14 3 4 -2 10 -10 14 -24 9 -18 23 15 35 20 6 30 17 30 30 0 24 46 42
77 30 26 -10 22 -35 -8 -44 -24 -8 -25 -22 -1 -28 13 -3 11 -6 -10 -15 -39
-16 -35 -26 7 -18 36 7 49 -6 18 -18 -12 -5 -14 -9 -5 -18 22 -22 35 8 34 74
0 34 4 68 9 74 10 12 45 8 66 -8 7 -5 17 -7 23 -3 5 3 10 2 10 -4 0 -6 7 -8
15 -5 8 4 15 1 15 -5 0 -6 7 -11 15 -11 18 0 20 30 3 31 -7 1 -17 2 -23 4 -5
1 -14 3 -20 4 -15 2 39 28 77 37 18 4 39 7 45 5 7 -1 22 3 32 9 13 7 22 7 26
0 4 -6 12 -4 21 5 9 8 26 15 38 15 12 0 26 3 30 7 7 7 9 8 116 22 42 5 88 13
103 16 19 5 27 3 27 -6 0 -9 3 -10 8 -3 8 12 48 24 97 30 36 4 57 8 110 23 51
13 209 42 255 46 19 1 47 8 63 14 15 6 53 15 85 21 31 5 79 14 106 20 34 7 53
7 62 -1 9 -7 15 -5 22 8 6 10 14 15 17 11 4 -4 18 -3 31 2 17 7 24 6 24 -3 0
-9 3 -8 9 1 4 8 30 15 57 17 27 2 98 17 158 33 83 22 117 27 140 21 17 -5 32
-13 34 -18 4 -13 32 -3 60 22 15 14 22 16 22 7 0 -10 4 -9 13 3 10 14 32 18
120 21 97 3 112 0 105 -20 -5 -13 40 -22 88 -18 27 2 96 6 154 9 58 2 139 7
180 10 209 15 375 23 382 19 4 -3 23 -2 43 2 l35 6 0 333 c0 356 1 351 -49
338 -12 -3 -21 -1 -21 6 0 6 12 11 26 11 14 0 23 4 20 9 -3 5 1 11 9 15 13 5
15 96 15 729 l0 725 -31 6 c-27 5 -30 8 -19 21 7 8 21 15 31 15 18 0 19 23 19
730 0 809 0 805 -58 816 -17 4 -44 15 -58 26 -22 18 -24 25 -18 64 7 52 -4 61
-62 45 -42 -12 -64 -1 -39 19 17 14 21 60 5 60 -5 0 -19 9 -31 21 -17 17 -27
20 -57 13 -21 -5 -45 -7 -55 -6 -35 4 -59 -17 -57 -51 3 -54 1 -59 -22 -55
-18 2 -24 11 -26 37 -8 85 -67 112 -124 59 -7 -7 -25 -19 -40 -27 -34 -18 -37
-55 -6 -80 29 -24 19 -45 -28 -59 -57 -18 -152 -112 -113 -112 7 0 9 -10 5
-27 -16 -64 -17 -133 -2 -139 26 -10 66 -82 64 -114 -3 -40 -27 -48 -173 -60
-66 -5 -147 -16 -180 -24 -37 -9 -81 -13 -115 -9 -52 5 -58 3 -103 -31 -26
-20 -56 -36 -67 -36 -11 0 -39 -9 -63 -20 -42 -20 -43 -20 -82 -1 -39 18 -139
22 -165 6 -5 -3 -10 -23 -10 -43 0 -48 -29 -71 -63 -47 -30 21 -35 19 -51 -19
-18 -44 -53 -54 -67 -20 -5 14 -9 30 -9 35 0 16 -19 9 -34 -13 -9 -12 -16 -30
-16 -39 0 -9 -9 -28 -20 -42 -11 -14 -20 -36 -20 -49 0 -35 -78 -75 -95 -48
-6 10 -12 99 -21 365 -8 209 -9 233 -17 255 -17 49 -27 161 -32 360 -7 266
-22 541 -35 626 -6 33 -12 145 -15 248 -2 103 -9 236 -15 294 -12 124 -5 625
10 722 5 36 12 100 14 144 3 43 10 84 15 89 18 18 13 108 -6 130 -10 11 -12
17 -5 13 19 -12 15 39 -8 81 -11 21 -17 46 -14 55 3 10 0 18 -6 18 -6 0 -9 4
-6 9 7 11 59 1 68 -13 5 -8 13 -7 28 2 25 15 47 16 52 0 3 -7 11 -9 24 -3 10
4 26 9 34 11 8 2 20 10 26 18 6 9 16 16 22 16 19 0 73 52 85 84 8 19 12 72 11
141 -1 61 2 133 6 160 6 35 5 56 -4 70 -20 31 -8 83 23 101 24 14 51 55 51 78
0 5 7 18 17 28 9 11 11 18 5 18 -8 0 -12 19 -12 50 0 28 -4 50 -9 50 -15 0
-22 32 -11 46 13 15 -13 32 -58 38 -16 2 -34 6 -40 10 -13 8 -59 -12 -86 -36
-11 -10 -26 -18 -33 -18 -7 0 -13 -9 -13 -21 0 -11 -4 -17 -10 -14 -5 3 -10 0
-10 -8 0 -8 -7 -21 -16 -28 -15 -12 -16 -11 -11 6 12 40 37 188 37 219 0 18 5
37 12 44 9 9 8 15 -7 26 -11 8 -23 12 -28 9 -15 -9 -57 27 -57 49 0 17 -3 19
-12 10 -7 -7 -24 -12 -39 -12 -15 0 -29 -5 -31 -11 -3 -8 -10 -8 -26 2 -22 14
-29 43 -13 53 11 7 2 46 -10 46 -5 0 -9 19 -9 42 l0 43 23 -33 c12 -17 30 -34
40 -38 9 -3 17 -12 17 -20 0 -10 7 -14 18 -12 17 4 18 10 7 41 -5 12 -2 17 9
17 9 0 16 4 16 9 0 4 -22 6 -50 3 -27 -2 -50 -1 -50 2 0 19 23 47 35 42 8 -3
17 3 20 15 8 23 25 25 25 3 0 -12 6 -15 25 -10 22 6 24 4 21 -21 -2 -16 -1
-20 1 -10 2 9 13 17 22 17 10 0 24 7 32 16 16 20 -1 33 -37 26 -18 -3 -24 0
-24 12 0 13 4 15 18 7 13 -7 20 -4 28 13 9 19 7 28 -13 50 -19 22 -24 24 -29
12 -11 -28 -34 -18 -34 14 0 17 5 30 10 30 6 0 10 -4 10 -10 0 -5 5 -10 11
-10 6 0 9 9 6 20 -3 11 -2 22 3 25 4 3 10 -5 14 -17 4 -18 8 -20 18 -10 10 10
10 14 -1 21 -11 7 -11 9 0 13 12 4 12 9 1 27 -15 25 -5 28 14 4 9 -14 10 -21
1 -32 -10 -12 -9 -14 6 -8 12 5 17 1 17 -13 0 -11 -7 -20 -15 -20 -8 0 -15 -9
-15 -20 0 -11 6 -20 14 -20 21 0 28 61 12 107 -10 28 -11 40 -2 40 6 0 12 -14
12 -31 1 -16 6 -32 13 -34 6 -2 11 -11 12 -20 0 -11 2 -12 6 -4 4 11 33 18 33
7 0 -11 -26 -50 -43 -67 -19 -17 -22 -87 -4 -99 19 -13 -57 -121 -79 -112 -10
4 -13 -3 -12 -21 1 -14 8 -26 14 -26 7 0 15 -7 18 -16 5 -14 10 -12 31 10 14
15 25 35 24 44 0 14 -2 13 -9 -3 -5 -13 -9 -14 -9 -5 0 22 17 59 19 40 0 -8
10 4 21 28 11 24 26 41 32 39 14 -5 13 -14 -5 -82 -14 -51 -13 -85 2 -85 10 0
24 59 16 67 -3 4 -6 -2 -6 -12 0 -10 -3 -16 -6 -13 -3 3 -2 22 1 42 6 28 12
36 29 37 11 0 15 3 9 6 -20 8 -15 23 7 23 11 0 20 4 20 9 0 16 -20 23 -33 12
-17 -14 -44 26 -28 42 8 8 11 6 11 -6 0 -9 5 -17 10 -17 7 0 7 6 0 19 -16 32
-13 43 10 29 11 -7 20 -21 20 -30 0 -10 6 -18 14 -18 8 0 17 -6 20 -12 4 -7 4
-3 2 9 -2 15 0 20 9 17 7 -3 15 3 18 13 4 16 5 16 6 1 0 -10 5 -18 10 -18 5 0
7 9 4 20 -3 12 0 20 7 20 8 0 11 -9 7 -28 -4 -21 -1 -31 13 -40 16 -10 19 -8
22 10 5 38 26 30 47 -18 25 -56 25 -55 6 -48 -8 4 -15 12 -15 20 0 20 -13 17
-33 -7 -17 -19 -17 -20 0 -17 12 2 20 -7 26 -29 10 -33 21 -41 32 -23 3 6 1
10 -4 10 -20 0 -11 15 16 28 33 15 49 2 34 -26 -8 -16 -6 -21 13 -30 14 -6 28
-7 37 -1 11 8 10 13 -8 28 -13 11 -23 26 -23 35 0 9 -7 16 -15 16 -8 0 -15 5
-15 10 0 6 4 10 9 10 6 0 13 -4 16 -10 3 -5 12 -10 19 -10 8 0 11 13 9 41 -3
36 -1 40 12 29 10 -9 12 -16 5 -24 -6 -8 -3 -18 11 -30 17 -14 18 -20 8 -32
-18 -22 4 -42 26 -24 12 10 15 10 15 -3 0 -8 6 -17 12 -20 7 -2 9 -8 5 -13 -4
-5 -12 -2 -18 6 -8 13 -13 11 -29 -9 -11 -13 -19 -24 -18 -25 2 -1 14 -10 27
-21 l24 -20 -7 28 c-6 25 -5 26 12 16 21 -13 52 -6 52 11 0 5 -6 10 -14 10 -8
0 -20 15 -26 34 -6 19 -18 37 -27 40 -12 5 -13 9 -3 21 11 13 10 14 -4 9 -9
-3 -16 -1 -16 6 0 8 10 9 31 5 29 -7 31 -5 26 14 -6 25 14 29 33 6 14 -16 6
-35 -16 -35 -18 0 -18 -14 1 -30 12 -10 15 -10 15 3 0 9 5 19 12 23 8 5 9 -3
5 -29 -3 -20 -1 -39 4 -43 5 -3 7 -15 3 -26 -4 -14 -2 -18 5 -14 6 4 11 0 11
-8 0 -9 5 -16 10 -16 6 0 10 9 10 20 0 11 -4 20 -10 20 -10 0 -26 68 -17 76 3
3 13 -7 21 -23 l16 -28 -6 28 c-8 34 11 36 20 2 4 -14 11 -25 16 -25 5 0 2 16
-7 35 -13 26 -21 34 -35 29 -10 -3 -18 -1 -18 5 0 16 21 24 33 12 16 -16 30
-14 23 4 -3 8 0 14 6 12 7 -1 13 5 15 14 3 14 -5 17 -46 17 -40 0 -48 -3 -44
-15 5 -13 2 -13 -16 -3 -18 9 -20 14 -10 26 6 8 18 14 26 14 11 0 8 6 -8 19
l-23 18 22 12 c17 9 23 8 31 -6 10 -17 10 -17 11 0 0 9 5 17 10 17 7 0 7 6 0
19 -7 14 -7 22 2 27 7 4 14 2 16 -6 3 -7 11 1 18 19 14 34 36 37 42 6 2 -9 0
-15 -5 -12 -14 9 -45 -51 -38 -72 3 -11 1 -22 -5 -26 -12 -7 -14 -26 -2 -23
16 3 60 -22 66 -38 6 -16 10 -15 31 11 13 17 25 37 25 45 0 8 7 24 15 34 8 11
15 38 15 60 0 23 5 48 10 56 7 10 8 0 4 -32 -5 -33 -3 -48 5 -48 6 0 11 10 11
22 0 17 3 19 12 10 9 -9 9 -15 0 -24 -23 -23 -14 -45 19 -45 19 0 37 -7 45
-18 8 -10 14 -15 14 -10 0 5 5 4 12 -3 16 -16 28 -15 28 2 0 18 27 28 33 12 3
-7 2 -19 -3 -26 -6 -10 -9 -9 -13 1 -2 8 -8 -3 -12 -23 -8 -43 -21 -49 -35
-15 -7 18 -9 15 -9 -20 -1 -24 2 -44 7 -44 4 -1 20 -3 37 -5 16 -2 35 -10 41
-19 7 -9 18 -13 28 -9 28 11 18 23 -23 30 -39 6 -39 7 -34 43 7 46 10 49 27
26 9 -13 15 -15 20 -6 4 6 11 9 16 6 5 -3 11 -1 15 5 3 5 2 10 -3 10 -5 0 -6
17 -2 42 7 38 7 41 -6 23 -13 -17 -15 -17 -26 -3 -7 9 -20 18 -28 22 -8 3 -2
4 13 1 19 -4 26 -2 22 5 -3 5 1 17 10 26 9 9 14 22 12 28 -3 8 5 11 24 8 16
-2 29 -8 29 -12 0 -17 41 -18 47 -2 4 9 11 20 17 24 6 4 5 12 -4 22 -11 14
-10 20 5 36 21 23 41 26 48 8 4 -10 6 -10 6 0 1 6 8 12 16 12 8 0 15 -6 15
-12 0 -9 2 -10 8 -2 6 10 28 11 106 5 20 -1 20 -1 0 -16 -11 -8 -14 -15 -6
-15 6 0 12 -5 12 -11 0 -6 -8 -9 -17 -7 -10 2 -18 10 -18 18 0 8 -8 16 -17 18
-24 5 -23 -11 2 -33 11 -10 20 -28 19 -39 0 -20 -1 -20 -8 -1 -8 19 -8 19 -20
0 -11 -18 -12 -18 -8 8 2 15 0 27 -4 27 -5 0 -9 -5 -9 -11 0 -5 -4 -8 -9 -5
-5 3 -12 -1 -15 -10 -12 -31 -6 -63 13 -74 23 -12 72 -14 70 -2 -1 4 -1 14 0
22 3 23 31 -49 31 -79 1 -23 2 -24 11 -8 6 9 14 15 20 12 5 -4 9 6 9 20 0 14
-4 24 -9 20 -10 -5 -15 6 -26 63 -5 25 -3 32 9 32 9 0 16 7 16 15 0 9 7 18 15
21 8 4 16 16 16 28 1 16 2 17 6 4 5 -22 22 -23 29 -3 5 13 34 22 34 10 0 -12
-24 -55 -32 -55 -17 0 -7 -16 19 -27 17 -8 30 -9 38 -3 15 13 25 2 25 -27 0
-14 6 -23 16 -23 19 0 10 39 -14 57 -18 15 -16 18 16 27 16 5 22 3 22 -8 0 -8
5 -18 12 -22 7 -5 8 -3 3 6 -6 10 -4 12 8 7 10 -3 17 -2 17 4 0 5 -7 12 -15
15 -8 3 -17 14 -20 23 -9 29 -46 18 -67 -20 l-18 -34 0 28 c0 16 4 26 10 22 6
-3 10 3 10 14 0 15 6 21 21 21 12 0 28 8 35 18 12 16 13 15 14 -6 0 -19 3 -21
19 -12 11 5 26 10 33 9 7 0 3 -4 -9 -9 -30 -12 -29 -24 5 -57 34 -34 58 -103
35 -103 -8 0 -12 4 -8 9 3 5 1 12 -4 16 -5 3 -14 -3 -20 -12 -7 -12 -10 -13
-11 -4 0 11 -3 11 -15 1 -12 -10 -17 -8 -25 11 -9 21 -10 19 -5 -13 4 -24 1
-38 -7 -41 -10 -4 -10 -6 0 -6 24 -2 12 -18 -13 -17 -14 1 -25 5 -24 10 0 5
-6 13 -15 18 -9 5 -14 13 -11 19 4 5 1 9 -5 9 -8 0 -9 -7 -5 -17 4 -10 7 -25
7 -33 0 -13 19 -27 66 -47 6 -3 12 0 12 5 0 6 -6 12 -12 15 -7 2 -3 2 10 0 15
-2 22 2 22 12 0 8 5 15 10 15 6 0 10 -4 10 -10 0 -18 18 -11 25 9 4 12 12 18
21 14 9 -3 14 1 14 14 0 11 7 28 16 39 15 19 15 18 11 -4 -3 -12 -1 -20 4 -16
5 3 9 -4 9 -14 0 -11 6 -25 14 -31 11 -10 17 -8 25 6 9 15 12 16 20 3 6 -8 13
-11 18 -7 4 5 3 11 -3 15 -6 4 -13 15 -17 24 -5 13 0 19 18 24 14 3 25 12 25
20 0 11 -9 13 -40 8 -28 -5 -40 -3 -40 5 0 7 -5 9 -10 6 -6 -3 -13 1 -16 10
-6 14 -8 14 -19 -2 -15 -20 -19 -18 -29 15 -6 18 -3 22 16 24 67 5 95 4 112
-5 11 -6 22 -5 29 2 14 14 -9 41 -35 41 -21 0 -48 22 -48 39 0 6 18 11 40 11
34 0 40 -3 40 -21 0 -11 5 -17 10 -14 6 3 14 -4 19 -17 l10 -23 0 23 c1 24 5
26 29 13 12 -6 26 -4 42 5 23 14 23 14 3 9 -26 -7 -27 -3 -14 42 9 32 9 32
-22 27 -26 -4 -29 -3 -14 6 9 6 17 18 17 25 0 10 11 15 35 15 26 0 33 -3 29
-15 -4 -8 -1 -15 5 -15 15 0 14 37 -1 44 -10 5 -10 7 0 12 17 8 17 234 0 234
-9 0 -9 3 0 12 7 7 12 29 12 50 l0 38 -7200 0 -7200 0 0 -1714z m8360 1180 c0
-14 53 -18 61 -4 4 6 13 8 20 6 9 -4 5 -10 -13 -18 -29 -14 -40 -34 -13 -24
11 5 14 0 13 -17 -2 -18 2 -24 15 -23 21 2 23 -22 1 -30 -8 -3 -12 -2 -9 4 3
6 -3 10 -14 10 -12 0 -21 5 -21 12 0 8 -3 9 -10 2 -11 -11 -4 -44 10 -44 4 0
5 -12 2 -26 -3 -19 -7 -22 -13 -12 -7 10 -9 9 -9 -4 0 -10 5 -18 10 -18 6 0
10 -5 10 -11 0 -8 -5 -8 -15 1 -8 7 -15 19 -15 26 0 21 -20 17 -21 -3 0 -16
-2 -15 -10 2 -8 18 -8 18 -6 -5 1 -19 10 -27 35 -35 31 -9 47 -45 20 -45 -9 0
-10 -2 -2 -8 6 -4 15 -17 19 -30 6 -21 4 -23 -16 -20 -18 2 -26 13 -35 43 -9
32 -16 40 -33 38 -11 -2 -21 2 -21 7 0 6 4 10 9 10 5 0 9 18 9 40 1 43 9 63
22 55 12 -8 27 16 34 58 5 28 4 37 -7 37 -8 0 -19 11 -25 25 -16 34 -15 40 3
25 8 -7 15 -18 15 -24z m883 -68 c13 11 17 8 28 -18 12 -26 19 -30 49 -29 19
1 27 3 18 6 -22 5 -23 19 -4 26 22 9 54 -3 60 -21 3 -10 10 -24 15 -32 5 -8
12 -27 15 -42 4 -15 13 -33 21 -42 17 -17 19 -26 6 -26 -5 0 -13 9 -16 20 -3
11 -10 20 -15 20 -5 0 -2 -14 7 -31 12 -24 20 -29 37 -25 34 8 47 -7 53 -68 3
-33 9 -52 14 -45 4 7 5 19 1 27 -3 8 -1 13 4 11 5 -2 26 -11 47 -19 40 -15 49
-30 18 -30 -30 0 -34 -17 -6 -24 22 -6 25 -12 25 -54 1 -45 1 -46 15 -22 14
26 58 38 48 14 -3 -8 0 -14 6 -14 6 0 11 5 11 10 0 6 7 10 15 10 17 0 20 16 5
25 -5 3 -1 24 12 50 12 24 25 42 30 39 14 -9 48 7 48 22 0 17 -12 18 -29 2
-11 -11 -13 -10 -7 5 8 24 -3 44 -15 26 -4 -7 -19 -13 -33 -14 -15 0 -26 -4
-25 -10 0 -5 9 -9 20 -8 10 2 19 -2 19 -7 0 -6 -6 -10 -13 -10 -8 0 -20 -19
-27 -42 -9 -27 -15 -37 -18 -25 -2 9 -7 17 -12 17 -19 0 -48 42 -42 62 3 13
-1 24 -12 30 -14 8 -15 12 -5 25 12 13 14 13 26 -3 7 -10 16 -15 20 -11 9 9
-14 57 -29 61 -75 20 -82 27 -64 69 10 21 26 23 26 2 0 -8 -5 -15 -12 -15 -6
0 -8 -3 -5 -6 4 -4 13 -1 21 5 10 9 16 9 21 1 4 -7 19 -9 37 -5 22 5 28 4 23
-4 -5 -8 1 -10 19 -5 23 5 25 4 19 -12 -4 -13 2 -11 20 9 15 15 27 33 27 38 0
6 19 9 43 7 41 -3 42 -4 39 -36 -2 -33 -2 -33 33 -26 30 5 35 4 35 -13 0 -23
9 -35 22 -27 4 3 1 15 -7 27 -18 25 -20 41 -4 31 16 -10 -6 29 -25 46 -20 16
-21 40 -1 40 7 0 18 8 24 17 7 14 11 10 16 -22 11 -64 15 -75 31 -75 9 0 14
12 15 38 0 20 4 46 9 57 l9 20 1 -20 c1 -11 1 -53 0 -92 -1 -59 2 -73 14 -73
8 0 21 -3 30 -6 13 -5 15 1 13 35 -1 22 -5 41 -8 41 -4 0 -6 15 -5 33 2 25 6
31 20 29 11 -2 22 2 26 8 6 9 13 9 31 0 18 -10 24 -10 27 -1 4 12 37 -19 45
-42 2 -7 16 0 32 17 23 25 25 32 16 54 -7 13 -9 27 -6 30 3 3 5 0 5 -6 0 -6 6
-9 14 -6 12 5 14 -8 13 -70 -1 -54 -5 -75 -13 -72 -7 3 -20 -4 -30 -15 -9 -10
-20 -19 -23 -19 -12 0 -41 58 -32 62 5 1 3 12 -5 22 -13 19 -14 19 -14 2 0
-15 -3 -16 -15 -6 -12 10 -15 10 -15 -3 0 -9 -6 -22 -13 -29 -7 -7 -18 -32
-25 -54 -15 -50 -15 -57 -2 -49 6 3 10 17 10 31 0 46 24 18 44 -52 6 -20 3
-21 -41 -19 -79 3 -83 4 -84 23 0 15 -1 15 -8 -2 -7 -17 -10 -15 -30 17 -23
38 -61 51 -61 22 0 -9 -7 -18 -15 -21 -19 -8 -19 -35 0 -60 13 -17 14 -17 15
-1 0 9 4 17 9 17 4 0 6 11 3 25 -5 30 8 32 33 5 16 -18 16 -22 3 -37 -13 -16
-38 -67 -38 -78 0 -3 10 -5 23 -5 16 0 23 6 24 21 1 11 10 33 20 47 14 23 18
24 21 10 4 -22 22 -24 22 -3 0 18 16 20 23 3 4 -10 8 -10 15 1 14 20 24 -3 13
-32 -6 -16 -6 -38 0 -61 12 -42 14 -43 30 -15 7 14 7 19 0 15 -5 -4 -15 2 -20
13 -16 30 -13 33 14 15 15 -10 25 -12 25 -5 0 6 -4 11 -10 11 -5 0 -10 9 -10
20 0 24 15 26 24 4 10 -25 36 2 36 37 0 16 5 29 10 29 6 0 5 6 -2 14 -7 8 -16
12 -20 10 -3 -2 -4 5 -1 16 6 21 15 25 27 13 4 -5 13 -8 19 -8 6 0 14 -11 18
-25 l7 -25 1 25 c1 22 3 23 12 7 13 -22 29 -13 29 16 0 18 2 19 10 7 5 -8 10
-36 10 -62 0 -29 5 -48 11 -48 7 0 10 -14 7 -35 -3 -28 0 -36 15 -41 13 -4 18
-13 15 -29 -4 -16 -1 -22 9 -18 7 3 13 12 13 21 0 11 3 13 10 6 14 -14 2 -44
-16 -44 -16 0 -19 -16 -4 -25 5 -3 7 -12 3 -20 -3 -8 -1 -15 5 -15 6 0 13 14
17 31 4 18 15 33 26 36 15 4 16 8 6 27 -7 11 -15 23 -18 26 -3 3 -9 19 -12 37
-7 35 9 55 24 32 7 -11 9 -11 9 3 0 9 2 23 6 31 3 10 -4 16 -25 20 -35 7 -81
-5 -63 -17 17 -10 15 -26 -3 -26 -8 0 -15 8 -15 18 -1 9 -2 44 -4 77 -3 48 -1
54 6 33 12 -35 26 -36 34 -3 3 14 8 25 10 25 12 0 44 -43 44 -60 0 -13 9 -22
28 -26 49 -11 52 -13 52 -48 0 -26 -4 -33 -17 -32 -23 1 -24 -28 -2 -32 9 -2
19 5 21 16 7 24 70 55 80 39 5 -8 8 -7 8 5 0 9 -4 20 -10 23 -5 3 -10 15 -10
26 0 10 -4 19 -9 19 -15 0 -7 54 9 67 13 10 12 14 -6 31 -12 11 -32 22 -45 25
-15 2 -7 5 19 6 23 0 42 -3 42 -7 0 -4 15 -6 34 -4 31 4 34 2 29 -17 -3 -13 0
-23 11 -27 12 -5 10 -11 -14 -31 -31 -26 -32 -43 -1 -43 26 0 48 31 46 65 -3
40 7 56 16 25 6 -23 7 -23 8 -3 1 12 6 25 11 28 8 5 7 11 -1 21 -6 8 -9 18 -5
21 4 4 11 2 15 -5 5 -8 8 -1 8 17 0 17 -4 28 -8 25 -4 -2 -11 0 -14 6 -10 16
14 40 41 40 29 0 32 -16 4 -23 -22 -6 -19 -33 6 -53 8 -6 12 -27 11 -50 -2
-30 -6 -39 -19 -38 -10 1 -20 -7 -23 -17 -4 -11 -12 -16 -21 -12 -12 4 -15 0
-13 -18 1 -13 -1 -35 -5 -47 -7 -21 -13 -23 -44 -18 -27 4 -31 3 -17 -4 19 -8
18 -11 -4 -14 -25 -3 -19 -15 10 -21 24 -5 41 -17 56 -41 23 -36 16 -52 -17
-34 -23 12 -25 4 -10 -34 5 -14 16 -26 25 -26 8 0 15 -4 15 -10 0 -5 -7 -10
-16 -10 -8 0 -12 -5 -9 -10 3 -6 -1 -13 -9 -16 -29 -11 -17 -20 22 -16 25 2
33 0 23 -6 -7 -5 -12 -15 -9 -22 4 -12 18 14 35 65 13 42 7 58 -19 44 -11 -6
-22 -9 -24 -6 -9 8 8 37 22 37 8 0 14 6 14 14 0 8 11 17 25 20 15 4 23 11 19
17 -4 8 -9 7 -14 -1 -4 -7 -10 -8 -13 -3 -7 11 7 36 19 31 5 -1 10 6 12 16 3
14 0 17 -11 13 -9 -3 -20 0 -27 7 -8 11 -4 13 22 12 25 -1 34 -7 39 -26 4 -15
7 -18 8 -8 2 39 41 28 41 -12 -1 -11 -4 -10 -15 4 -11 15 -15 16 -15 5 0 -8
-13 -29 -30 -47 -30 -33 -39 -62 -20 -62 6 0 10 5 10 10 0 6 5 10 10 10 6 0
10 -9 10 -19 0 -22 16 -36 24 -22 4 5 0 11 -6 14 -7 2 -10 8 -6 12 4 4 24 1
45 -6 27 -9 33 -14 21 -18 -15 -5 -15 -8 2 -29 18 -22 20 -22 49 -8 38 20 41
20 42 -1 0 -13 3 -11 10 7 6 13 15 28 22 33 8 6 6 7 -5 3 -11 -3 -18 0 -18 8
0 8 -6 26 -14 41 -14 26 -10 65 10 96 5 8 -4 10 -28 7 -34 -4 -35 -3 -25 19
14 30 -1 43 -20 18 -15 -20 -15 -20 -29 1 -10 15 -22 20 -39 16 -28 -5 -24
-22 6 -22 14 0 19 -7 18 -27 0 -16 -3 -22 -6 -15 -3 7 -16 17 -29 22 -14 6
-24 18 -24 29 0 28 -26 47 -45 31 -8 -7 -15 -10 -15 -7 0 3 -3 13 -7 23 -5 13
-3 16 9 12 20 -8 38 10 38 39 0 41 19 24 22 -19 3 -39 5 -43 28 -42 56 3 59 6
39 34 -8 13 -12 12 -26 -7 -8 -13 -19 -23 -24 -23 -19 0 -8 44 16 66 14 13 25
30 25 39 0 9 5 13 10 10 6 -3 13 1 16 10 6 14 8 14 19 -2 9 -12 10 -22 4 -30
-7 -7 -6 -14 1 -18 7 -4 9 -18 6 -30 -3 -13 -2 -27 4 -30 6 -4 10 5 10 20 0
25 1 25 22 11 29 -21 44 -20 27 1 -13 15 -10 15 26 9 22 -4 43 -13 47 -19 9
-14 -1 -81 -13 -85 -5 -2 -9 -10 -9 -18 0 -8 -8 -14 -18 -14 -13 0 -18 -6 -16
-22 1 -13 3 -32 3 -43 1 -15 3 -17 10 -6 5 8 14 10 21 6 7 -4 15 -3 19 2 3 6
23 13 44 17 33 6 37 5 37 -14 0 -11 -7 -20 -15 -20 -13 0 -17 -10 -14 -37 0
-5 7 -7 15 -5 8 2 14 -5 14 -14 0 -13 4 -11 19 7 11 14 16 28 11 34 -12 15 5
39 20 30 9 -6 9 -10 -1 -17 -10 -7 -8 -8 8 -5 15 3 20 1 17 -8 -3 -7 6 -37 20
-67 l26 -53 -5 50 c-4 37 -1 55 11 70 15 20 16 19 45 -15 16 -19 29 -38 29
-42 0 -4 4 -8 9 -8 5 0 8 14 7 31 -1 22 5 35 19 43 26 15 45 39 38 49 -3 4
-11 3 -18 -3 -9 -8 -14 -6 -19 6 -10 27 -7 39 6 26 15 -15 25 -15 31 1 3 8 -4
12 -22 11 -14 -1 -32 -3 -38 -3 -7 -1 -13 -10 -13 -21 0 -13 -7 -20 -20 -20
-23 0 -26 -19 -7 -40 6 -7 -2 -4 -20 8 -17 12 -40 22 -52 22 -11 0 -25 9 -31
21 -11 19 -13 19 -29 5 -24 -22 -31 -20 -31 9 0 16 7 28 18 31 9 3 25 10 35
15 15 8 17 4 17 -27 0 -31 3 -35 18 -29 9 5 28 8 42 9 31 1 70 33 70 58 0 10
7 18 15 18 9 0 15 9 15 25 0 14 5 25 10 25 6 0 10 -7 10 -15 0 -8 5 -15 10
-15 6 0 10 9 10 19 0 11 -4 23 -10 26 -17 10 -11 33 10 40 11 3 27 13 35 22
15 14 15 13 9 -11 -5 -21 -1 -32 22 -53 l28 -26 20 24 c16 20 18 21 12 4 -5
-11 -11 -28 -13 -37 -3 -10 -9 -18 -14 -18 -5 0 -9 -4 -9 -10 0 -5 9 -10 20
-10 15 0 20 7 20 25 0 14 5 25 10 25 6 0 8 -11 4 -25 -3 -14 -2 -25 4 -25 15
0 23 42 10 57 -6 8 -8 16 -5 20 4 3 9 -2 13 -11 5 -13 9 -14 20 -5 8 6 14 18
14 25 0 8 9 14 23 13 17 -1 18 -2 4 -6 -12 -3 -16 -10 -12 -24 4 -13 2 -19 -9
-19 -15 0 -32 -37 -22 -47 3 -4 6 1 6 9 0 9 12 19 26 22 35 9 40 2 10 -14 -14
-7 -27 -24 -31 -39 -3 -14 -8 -34 -11 -43 -3 -12 0 -18 9 -18 9 0 17 -6 20
-12 2 -7 8 -10 12 -6 4 4 2 15 -5 23 -11 13 -10 18 6 30 32 24 51 18 57 -17 6
-39 -1 -50 -15 -25 -9 17 -11 17 -24 -8 -12 -23 -11 -30 2 -50 14 -21 14 -27
0 -52 -23 -46 -41 -57 -57 -36 -11 13 -11 17 -1 20 6 3 12 9 12 14 0 6 -9 5
-21 -1 -11 -7 -27 -9 -35 -6 -21 8 -17 36 6 36 11 0 20 5 20 10 0 6 -7 10 -15
10 -17 0 -20 17 -4 22 7 2 8 17 4 41 -6 33 -11 37 -39 38 -17 1 -23 3 -13 6 9
2 17 9 17 14 0 14 -36 11 -50 -5 -6 -8 -21 -16 -33 -18 -21 -3 -20 -5 10 -34
24 -23 29 -34 20 -43 -6 -6 -7 -11 -3 -11 5 0 3 -6 -3 -14 -9 -11 -9 -16 0
-22 7 -4 15 -2 17 4 2 7 12 12 23 12 13 0 19 -7 19 -24 0 -13 5 -26 12 -28 7
-3 9 -12 4 -23 -4 -11 -10 -15 -14 -10 -4 6 -16 10 -27 10 -15 0 -19 6 -17 23
4 24 -4 27 -28 12 -13 -9 -13 -11 0 -19 8 -6 11 -13 7 -18 -4 -4 -17 -2 -27 5
-26 16 -40 15 -40 -3 0 -8 7 -15 15 -15 17 0 21 -25 5 -35 -5 -3 -12 -28 -16
-56 -4 -27 -11 -52 -15 -55 -5 -3 -9 0 -9 7 0 7 -3 10 -6 6 -3 -3 0 -15 8 -26
8 -12 17 -18 21 -15 3 3 10 -4 17 -15 9 -17 8 -22 -5 -27 -8 -4 -22 -1 -30 6
-20 17 -60 9 -60 -12 0 -25 -16 -36 -55 -40 -26 -2 -34 -7 -32 -19 1 -9 -5
-22 -13 -29 -8 -7 -15 -22 -15 -33 0 -11 -6 -25 -14 -31 -8 -6 -16 -34 -18
-63 -4 -41 -2 -54 11 -59 9 -4 18 -8 21 -9 3 -2 15 -6 28 -10 27 -9 29 -41 3
-55 -11 -5 -23 -19 -26 -30 -4 -11 -11 -18 -16 -15 -5 4 -9 3 -9 -2 0 -15 -49
-32 -53 -19 -3 6 -9 0 -15 -14 -5 -14 -6 -32 -2 -40 4 -8 4 -44 0 -80 -4 -36
-3 -70 1 -76 5 -6 10 -27 11 -47 2 -28 8 -37 27 -42 17 -4 22 -11 18 -25 -3
-11 1 -24 9 -31 7 -6 16 -20 20 -31 7 -24 40 -58 54 -58 6 0 13 7 16 15 8 19
44 20 44 1 0 -17 26 -40 33 -29 9 14 70 15 78 1 6 -9 13 -6 29 12 15 17 30 24
55 23 21 -1 35 4 35 11 0 6 9 19 20 29 11 9 20 26 20 37 0 11 5 20 11 20 6 0
8 9 4 20 -5 17 -2 20 23 20 17 0 32 -6 36 -15 4 -11 20 -15 56 -15 l50 0 2
-42 c2 -60 6 -95 14 -154 5 -40 3 -57 -9 -75 -15 -20 -15 -24 3 -47 24 -29 26
-65 5 -82 -22 -18 -18 -38 11 -64 l26 -22 4 -207 c3 -191 2 -210 -17 -253 -15
-33 -19 -58 -15 -84 4 -25 0 -48 -10 -69 -16 -33 -16 -37 7 -160 10 -50 10
-77 -1 -127 -11 -58 -11 -67 6 -92 20 -29 59 -161 76 -256 8 -50 7 -65 -7 -94
-17 -36 -19 -148 -3 -158 4 -3 8 -28 8 -55 0 -28 4 -58 9 -67 5 -10 6 -54 2
-100 -5 -59 -3 -92 6 -114 15 -36 16 -96 3 -154 -7 -33 -6 -49 6 -73 8 -17 20
-31 25 -31 5 0 9 -6 9 -14 0 -8 5 -16 10 -18 6 -2 2 -19 -9 -42 -15 -29 -19
-53 -16 -95 2 -31 4 -65 4 -77 1 -12 16 -32 36 -46 l35 -25 -35 -31 -35 -32 2
-103 c1 -56 -1 -107 -4 -112 -3 -6 -5 -75 -4 -155 1 -80 0 -158 -2 -174 l-5
-28 -66 4 c-71 5 -110 21 -154 62 -15 14 -33 26 -39 26 -6 0 -6 6 2 15 7 9 20
15 29 13 18 -3 61 31 61 48 0 17 82 114 96 114 17 0 5 39 -16 50 -20 11 -30 4
-30 -20 0 -10 -6 -23 -14 -30 -12 -9 -21 -7 -43 8 -24 18 -36 19 -86 12 -33
-5 -67 -16 -78 -25 -24 -22 -45 -14 -53 21 -13 49 -68 154 -81 154 -7 0 -23 8
-35 18 -19 16 -21 22 -13 52 13 46 5 66 -37 89 -25 13 -39 30 -48 57 -20 58
-85 140 -119 147 -35 8 -49 20 -95 80 -42 56 -65 134 -49 166 6 11 11 28 11
39 0 27 -68 62 -123 62 -46 0 -46 -1 -57 -41 -6 -22 -12 -77 -13 -122 -3 -76
-4 -83 -27 -94 -14 -7 -44 -13 -68 -13 -32 0 -49 -6 -68 -25 l-25 -25 21 -27
21 -26 -31 -32 c-27 -28 -30 -37 -25 -71 6 -36 3 -43 -38 -86 -41 -45 -47 -48
-94 -48 -38 0 -58 6 -84 25 -19 14 -48 31 -64 39 -19 9 -37 29 -48 54 -19 43
-45 65 -90 76 -15 3 -37 18 -49 31 -26 30 -59 32 -83 5 -19 -21 -18 -37 7
-127 14 -50 14 -57 -4 -54 -4 0 -27 2 -51 4 l-44 4 4 -58 c3 -58 2 -59 -25
-59 -47 0 -56 -14 -58 -82 -1 -41 -9 -82 -24 -117 -21 -47 -22 -59 -13 -105 6
-28 7 -61 3 -72 -10 -26 -64 -38 -120 -29 -32 5 -40 3 -50 -14 -12 -24 -40
-23 -68 2 -10 9 -24 17 -30 17 -17 0 -22 31 -13 72 5 20 7 39 5 41 -2 2 5 12
16 22 27 24 25 43 -5 57 -29 13 -27 0 -25 166 1 73 -3 154 -9 180 -5 26 -20
106 -32 177 -23 138 -53 269 -69 298 -6 9 -21 45 -34 80 -13 34 -38 91 -55
126 -35 69 -35 105 -1 116 31 10 24 40 -12 56 -45 20 -77 110 -84 239 -3 52
-9 99 -14 105 -5 6 -11 33 -15 60 -10 98 -17 130 -31 146 -8 8 -17 30 -20 48
-5 22 -33 58 -91 117 -119 122 -123 133 -128 322 -5 171 2 219 33 252 12 13
30 42 41 65 11 23 27 45 35 48 8 3 18 23 22 44 4 21 15 55 25 75 11 21 19 52
19 71 0 18 4 37 9 43 14 13 -19 124 -35 124 -18 0 -28 43 -16 67 5 10 7 24 5
31 -3 8 6 12 29 12 19 0 40 -6 47 -12 11 -11 13 -10 8 3 -6 18 -5 18 110 35
53 8 69 25 51 53 -8 14 -20 19 -35 16 -13 -2 -25 0 -28 5 -3 5 -12 7 -20 3
-10 -3 -15 1 -15 13 0 9 -3 14 -7 11 -3 -4 -15 0 -25 9 -14 13 -15 20 -7 31 9
10 8 13 -5 13 -18 0 -19 2 -10 24 3 9 12 16 19 16 7 0 16 11 19 25 4 14 11 25
16 25 5 0 18 10 30 22 31 33 28 65 -18 196 -10 30 -18 39 -26 33 -8 -7 -23 1
-48 25 -42 39 -54 42 -63 14 -3 -11 -12 -20 -18 -20 -17 0 -52 42 -49 58 4 19
-5 15 -35 -15 -23 -23 -36 -28 -75 -27 -70 3 -80 8 -68 39 6 15 10 40 10 56 0
22 -5 29 -20 29 -10 0 -23 -8 -29 -17 -21 -37 -71 25 -77 94 -3 39 16 57 56
51 20 -3 30 0 30 8 0 7 7 19 15 28 10 9 12 17 5 21 -6 4 -8 15 -5 25 3 10 -1
25 -10 33 -8 9 -15 19 -15 24 0 16 -40 33 -63 28 -27 -7 -48 13 -48 44 1 12 1
30 2 41 0 16 5 20 20 15 11 -4 19 -2 19 4 0 6 -8 11 -18 11 -19 0 -46 43 -35
54 10 10 43 7 43 -4 0 -18 22 -10 27 10 3 11 13 20 23 20 10 0 20 7 24 15 7
19 -12 19 -33 1 -9 -7 -27 -16 -41 -20 -14 -3 -19 -3 -12 0 17 8 15 35 -2 28
-7 -3 -16 2 -19 10 -4 9 -11 16 -17 16 -14 0 -13 -27 3 -33 6 -2 8 -8 4 -13
-4 -5 -12 -2 -17 6 -8 13 -11 12 -22 -3 -8 -10 -20 -17 -28 -15 -9 2 -16 -6
-18 -19 -4 -29 -15 -29 -52 -1 -30 21 -39 51 -20 63 11 7 -24 45 -42 45 -6 0
-8 3 -5 7 4 3 1 13 -6 21 -9 12 -9 16 1 19 20 7 14 22 -8 16 -13 -3 -22 1 -26
11 -8 20 -6 21 23 30 16 5 22 2 26 -11 3 -13 6 -10 12 12 10 39 23 55 46 55
13 0 17 -5 12 -17 -6 -17 -5 -17 13 -2 10 10 28 19 39 22 18 4 18 5 -2 6 -13
0 -33 11 -45 23 -14 14 -23 18 -26 10 -5 -15 -22 -16 -22 -1 0 14 25 39 39 39
6 0 11 -8 11 -17 0 -14 2 -15 13 -4 10 11 10 14 0 18 -7 3 -13 14 -13 26 1 20
2 21 14 5 7 -10 19 -18 27 -18 12 0 12 -2 0 -9 -18 -11 -4 -18 40 -19 25 -1
42 5 55 19 15 16 19 17 24 6 4 -11 11 -12 28 -6 27 10 29 39 2 39 -11 0 -20 4
-20 9 0 15 18 23 25 12 3 -6 12 -8 20 -4 12 4 15 -8 15 -66 0 -56 -3 -71 -15
-71 -8 0 -15 -4 -15 -10 0 -5 7 -10 15 -10 8 0 15 4 15 10 0 5 8 7 18 4 13 -4
14 -3 4 4 -8 5 -12 21 -9 38 l4 29 14 -32 c7 -18 19 -33 25 -33 7 0 19 -6 26
-12 19 -19 58 -21 58 -3 0 8 5 15 10 15 6 0 10 -6 10 -12 0 -8 15 -13 41 -14
24 0 44 -6 50 -15 6 -10 9 -7 9 14 0 15 4 27 9 27 6 0 11 19 13 43 l4 42 8
-39 c6 -28 5 -40 -4 -46 -7 -4 -9 -13 -6 -19 4 -6 12 -9 17 -6 5 4 9 -1 9 -9
0 -9 -5 -15 -12 -13 -6 1 -14 -6 -16 -15 -2 -10 1 -18 7 -18 6 0 11 5 11 11 0
8 5 8 15 -1 8 -7 15 -19 15 -26 0 -8 11 -16 25 -20 15 -4 25 -13 25 -24 0 -29
33 -45 57 -27 9 6 16 2 22 -16 8 -21 15 -25 40 -21 23 4 31 1 31 -10 0 -22 20
-30 36 -14 15 15 10 48 -8 48 -5 0 -7 4 -4 9 9 14 -44 23 -59 11 -10 -8 -15
-8 -20 0 -4 7 -19 9 -36 5 -28 -6 -40 7 -19 20 15 9 12 25 -4 25 -22 0 -76 34
-72 45 2 6 13 9 25 8 22 -3 29 11 11 22 -15 10 -12 35 5 35 8 0 15 6 15 13 0
6 5 4 11 -6 6 -9 8 -26 4 -36 -9 -31 24 -35 37 -5 l12 25 13 -23 c7 -13 12
-17 13 -10 0 6 11 12 25 12 21 0 25 -5 25 -30 0 -19 -7 -33 -20 -40 -22 -12
-18 -30 7 -30 8 0 17 9 20 20 3 11 9 20 14 20 11 0 12 71 1 88 -5 8 -16 10
-28 5 -17 -6 -18 -5 -4 12 11 14 12 19 3 22 -7 3 -13 11 -13 18 0 7 6 16 13
19 6 3 3 4 -9 1 -18 -5 -20 -1 -16 24 5 36 -20 47 -75 32 -61 -17 -105 -14
-102 7 1 9 0 19 -1 22 -1 3 -3 19 -5 37 l-3 32 18 -22 c15 -18 20 -19 33 -9z
m1189 -5 c0 -10 0 -30 -1 -44 -1 -15 7 -33 19 -44 12 -11 21 -32 21 -54 2 -29
3 -31 6 -9 3 18 9 25 19 21 19 -7 18 -33 -3 -49 -17 -12 -16 -13 5 -14 20 0
21 -2 10 -20 -10 -15 -10 -22 0 -32 16 -16 15 -28 -1 -28 -14 0 -47 35 -47 50
0 6 -6 10 -14 10 -7 0 -16 10 -19 22 -4 12 -9 19 -13 15 -4 -4 -13 2 -21 13
-8 11 -21 20 -29 20 -8 0 -14 5 -14 10 0 24 -20 7 -21 -17 0 -25 -1 -26 -9 -8
-15 36 -12 54 10 48 16 -4 20 0 20 21 0 21 5 26 24 26 30 0 41 16 37 52 -1 16
2 28 8 28 6 0 12 -8 13 -17z m-5872 -2933 c5 0 16 -22 25 -49 15 -47 15 -52
-1 -76 -9 -14 -14 -28 -10 -32 3 -3 2 -11 -3 -17 -24 -29 -8 -114 23 -126 31
-11 44 -31 64 -91 15 -46 21 -55 47 -60 l30 -7 -29 -1 c-23 -1 -27 -4 -21 -18
4 -10 9 -88 10 -173 2 -85 8 -174 14 -197 9 -33 9 -47 -1 -65 -14 -24 -15 -26
-64 -79 -36 -41 -52 -96 -68 -244 -15 -138 -7 -192 43 -297 23 -49 40 -97 40
-118 -1 -19 6 -55 14 -80 8 -25 18 -77 21 -116 3 -39 13 -87 21 -107 9 -21 13
-54 11 -81 -3 -25 0 -48 5 -51 5 -4 9 -25 9 -48 0 -24 7 -70 16 -102 9 -36 15
-99 15 -156 0 -66 6 -117 19 -163 10 -36 16 -64 12 -62 -4 2 -8 -17 -9 -42 -1
-55 -17 -120 -32 -135 -8 -8 -19 -6 -41 6 -18 11 -38 15 -53 11 -14 -3 -28 -1
-31 5 -4 6 -14 73 -23 148 -14 125 -16 201 -13 588 1 55 -3 120 -9 145 -22
104 -31 191 -31 285 1 55 -4 123 -9 151 -12 60 -14 162 -5 260 5 57 3 73 -10
86 -9 9 -16 21 -16 27 0 6 -9 20 -20 31 -11 11 -15 20 -10 20 14 0 12 52 -4
90 -17 42 -26 21 -26 -63 0 -34 -5 -80 -10 -102 -6 -22 -13 -98 -16 -170 -3
-71 -6 -134 -7 -140 0 -5 3 -38 7 -72 4 -35 3 -64 -2 -67 -15 -9 -60 32 -64
57 -3 19 -9 22 -42 20 -21 -1 -43 -8 -48 -15 -5 -7 -6 -42 -3 -78 4 -48 2 -76
-10 -103 -17 -42 -20 -139 -5 -168 15 -27 21 -283 8 -342 -8 -40 -7 -57 7 -94
14 -36 18 -84 20 -247 1 -127 7 -216 15 -240 16 -50 -2 -100 -34 -90 -11 3
-28 8 -37 10 -39 11 -50 252 -19 414 7 38 7 66 -1 90 -5 19 -12 111 -15 204
-2 93 -7 172 -9 177 -6 8 -18 161 -16 194 3 50 -12 106 -37 137 -29 37 -40 37
-100 5 -28 -15 -31 -21 -26 -45 4 -15 13 -40 21 -55 9 -17 14 -64 15 -125 1
-53 8 -117 16 -142 9 -30 14 -110 16 -240 1 -114 7 -206 14 -221 24 -58 -2
-161 -36 -140 -26 16 -75 173 -79 251 -7 132 -22 359 -36 560 -11 140 -12 210
-4 250 9 52 8 58 -17 95 -22 32 -26 47 -21 75 6 33 9 85 15 230 3 85 -7 215
-21 265 -13 44 -13 77 -4 172 5 48 3 68 -9 84 -10 15 -13 36 -9 69 4 32 -1 76
-15 132 -31 126 -33 138 -27 159 9 26 45 25 45 -1 0 -20 14 -27 24 -11 3 5 18
11 33 13 16 3 35 8 44 12 13 6 22 -4 42 -46 26 -55 28 -109 7 -188 -7 -24 -6
-45 3 -68 11 -31 10 -36 -13 -54 -16 -14 -21 -22 -12 -25 6 -3 12 -10 12 -18
0 -7 7 -18 16 -26 12 -9 15 -29 14 -73 -4 -103 -1 -120 25 -150 28 -33 31 -53
10 -81 -11 -14 -13 -32 -9 -66 5 -39 3 -49 -13 -60 -28 -20 -46 -56 -32 -64 6
-4 8 -13 5 -20 -3 -8 2 -19 10 -26 17 -14 16 -63 -3 -101 -21 -43 -16 -64 22
-92 26 -20 35 -34 35 -57 0 -48 24 -29 34 27 4 27 17 83 29 124 11 41 20 98
20 125 -1 72 -14 159 -26 166 -15 10 -21 103 -9 138 7 20 8 62 1 128 -13 144
-27 273 -35 316 -5 30 -3 41 12 52 32 24 52 18 65 -20 7 -19 21 -37 31 -41 31
-10 41 -41 28 -89 -9 -31 -9 -48 -1 -63 6 -11 11 -34 11 -50 0 -16 7 -43 15
-60 12 -23 13 -40 6 -73 -8 -33 -6 -49 5 -72 18 -34 12 -66 -10 -48 -11 9 -19
6 -36 -16 -35 -45 -23 -98 34 -148 42 -37 45 -44 49 -98 4 -62 9 -73 27 -62 8
5 10 26 5 64 -4 39 -2 69 9 100 25 70 14 247 -19 297 -11 18 -11 28 2 67 l15
46 25 -16 c14 -10 32 -32 39 -50 16 -36 34 -44 34 -14 0 11 4 22 9 25 5 3 12
26 15 51 4 24 11 47 17 50 13 9 11 59 -3 73 -21 21 -10 449 13 509 6 17 14 23
25 19 9 -3 19 -6 24 -6z m-187 -352 c15 -23 27 -54 27 -69 0 -15 4 -30 8 -33
11 -6 14 -66 4 -66 -10 0 -42 -65 -42 -85 0 -8 -4 -15 -9 -15 -11 0 -21 35
-21 77 0 17 -4 35 -10 38 -5 3 -10 33 -10 66 0 33 -4 69 -10 79 -5 10 -7 26
-4 34 11 28 39 17 67 -26z m394 -248 c13 -36 27 -74 30 -85 3 -11 11 -27 18
-35 6 -8 19 -34 28 -57 9 -24 30 -62 47 -84 16 -23 30 -46 30 -51 0 -11 -151
-5 -169 7 -7 3 -11 23 -11 43 2 80 -10 313 -16 324 -4 6 -1 9 6 6 7 -2 23 -33
37 -68z m-968 3 c7 -13 6 -22 -4 -33 -12 -13 -10 -26 12 -85 32 -90 38 -122
24 -139 -7 -8 -12 -55 -12 -116 0 -92 -2 -103 -20 -107 -27 -7 -24 -18 11 -43
21 -15 30 -30 30 -50 0 -16 -4 -30 -10 -32 -5 -1 -12 -21 -16 -44 -5 -33 -2
-45 18 -70 34 -40 39 -59 23 -80 -14 -19 -66 -24 -116 -11 -23 6 -27 14 -38
74 -6 38 -16 93 -22 123 -5 30 -13 76 -15 102 -6 45 -4 48 30 70 20 13 36 28
36 33 0 6 11 30 23 54 26 47 24 65 -16 195 -16 49 -11 86 13 101 6 4 9 14 5
22 -15 41 24 72 44 36z m10115 -488 c10 -1 29 -11 41 -23 26 -25 37 -27 65
-10 15 10 25 10 38 2 42 -27 10 -57 -73 -71 -28 -4 -43 -1 -66 16 -16 12 -42
24 -59 27 -25 5 -30 11 -30 34 0 31 14 41 45 32 11 -3 28 -6 39 -7z m-7486
-329 c2 -16 -1 -33 -7 -39 -6 -6 -11 -19 -11 -29 0 -10 -4 -18 -9 -18 -5 0 -9
16 -8 35 1 19 -2 38 -6 41 -10 11 -57 -17 -57 -34 0 -16 39 -51 58 -52 6 0 12
-12 12 -27 0 -21 3 -24 12 -15 18 18 46 14 60 -8 8 -12 24 -20 41 -20 20 0 31
-7 39 -26 9 -20 17 -24 35 -19 27 6 45 -22 22 -36 -10 -6 -8 -9 11 -10 23 -2
43 -4 64 -8 5 0 1 -9 -8 -20 -15 -16 -15 -20 -2 -34 9 -9 13 -24 9 -38 -5 -23
-5 -23 9 -5 11 13 17 16 22 7 4 -6 12 -9 17 -5 6 3 17 3 26 0 12 -5 13 -9 4
-20 -7 -8 -10 -20 -9 -27 2 -10 -6 -13 -28 -11 -37 3 -65 -21 -45 -41 9 -9 16
-9 31 1 23 14 40 16 40 3 0 -5 -10 -11 -22 -14 -18 -5 -19 -9 -9 -21 10 -12 9
-21 -5 -46 -20 -32 -34 -39 -34 -15 0 8 -7 15 -15 15 -8 0 -15 -7 -15 -15 0
-8 -7 -15 -15 -15 -8 0 -15 -4 -15 -10 0 -5 -7 -10 -15 -10 -18 0 -19 -12 -3
-28 7 -7 8 -12 2 -12 -6 0 -19 9 -29 20 -17 19 -17 20 0 20 14 0 16 6 12 29
-5 22 -1 32 14 43 11 7 21 26 22 43 2 26 -1 30 -23 30 -18 0 -26 -6 -28 -22
-2 -13 -7 -23 -12 -23 -5 0 -7 -7 -4 -15 4 -9 0 -15 -7 -16 -8 -1 -18 -2 -24
-4 -5 -1 -18 -3 -28 -3 -10 -1 -16 -6 -12 -11 3 -5 0 -13 -6 -16 -6 -4 -13 2
-16 15 -5 17 -11 20 -33 15 -22 -5 -28 -2 -33 15 -3 11 1 27 9 34 19 19 18 54
-2 73 -18 18 -13 63 11 110 8 15 15 36 15 46 0 17 -1 17 -16 3 -32 -32 -42
-19 -46 59 -3 46 -5 50 -28 51 -14 0 -33 -9 -42 -20 -15 -18 -19 -19 -28 -6
-15 23 -12 29 18 42 15 7 29 13 31 14 1 2 -4 13 -13 26 -34 48 -15 85 52 99
56 11 67 7 70 -25z m1568 -191 c4 -8 17 -15 29 -15 13 0 27 -5 30 -11 4 -6 13
-8 21 -5 7 3 21 -2 30 -11 15 -16 15 -18 -4 -33 -23 -19 -115 -39 -179 -39
-23 0 -51 -5 -63 -11 -23 -12 -40 -6 -40 16 0 8 5 12 10 9 6 -3 10 -2 10 4 0
17 89 99 113 104 12 2 26 5 30 6 4 0 10 -6 13 -14z m-3548 -143 c2 -23 6 -42
10 -42 4 0 7 -48 6 -107 0 -64 5 -126 13 -151 7 -24 10 -59 7 -81 -4 -27 -1
-48 12 -72 13 -25 19 -60 20 -134 2 -55 7 -134 13 -175 6 -41 12 -141 15 -222
4 -141 3 -147 -18 -167 -22 -21 -51 -26 -81 -15 -30 12 -44 60 -50 175 -4 63
-8 135 -10 160 -2 25 1 81 6 125 10 89 11 256 3 354 -12 153 -1 379 19 392 22
14 32 2 35 -40z m438 -297 c4 -8 12 -15 20 -15 8 0 14 -4 14 -9 0 -6 12 -16
27 -23 51 -25 63 -61 67 -214 2 -76 7 -146 10 -155 4 -10 3 -20 -3 -24 -13 -7
-15 -52 -2 -59 7 -5 19 -42 25 -78 1 -3 4 -10 9 -14 4 -4 7 -20 7 -35 0 -37
-28 -51 -102 -54 -71 -3 -69 -8 -83 225 -3 52 -10 118 -15 145 -13 73 -30 256
-25 285 2 14 4 28 4 33 2 13 42 7 47 -8z m4857 -13 c17 -17 25 -35 22 -44 -4
-9 -2 -19 4 -23 15 -9 14 -40 -2 -54 -9 -7 -14 -35 -14 -83 0 -70 -1 -72 -27
-81 -21 -7 -32 -6 -44 6 -13 14 -14 20 -2 44 8 15 14 60 15 98 l1 71 -44 27
c-48 30 -50 49 -6 58 55 12 70 9 97 -19z m-5849 -820 c9 -18 12 -46 8 -85 -4
-53 -2 -59 22 -78 18 -14 26 -30 26 -53 0 -39 -15 -56 -52 -56 -22 0 -36 11
-67 54 l-40 54 10 93 c6 67 14 98 25 106 22 16 49 2 68 -35z m9892 -55 c13
-13 1 -16 -126 -31 -228 -29 -282 -55 -170 -84 35 -8 67 -25 87 -44 23 -23 38
-29 55 -25 13 3 86 9 163 13 86 4 148 11 161 19 12 8 25 33 32 66 15 62 36 89
70 89 23 0 24 -1 9 -17 -8 -10 -18 -39 -22 -64 -7 -45 -6 -46 32 -69 32 -20
52 -23 131 -23 63 0 92 -4 92 -12 0 -14 -36 -48 -68 -65 -13 -6 -30 -27 -38
-46 -8 -19 -18 -34 -22 -34 -4 0 -18 -17 -32 -38 -66 -99 -140 -119 -174 -47
-22 47 -72 102 -107 121 -35 18 -100 18 -143 0 -18 -8 -48 -32 -66 -55 -32
-39 -35 -41 -91 -41 -32 0 -61 4 -64 10 -3 5 1 31 10 57 26 77 -2 123 -45 73
-9 -11 -35 -27 -56 -36 -22 -9 -55 -29 -75 -45 -46 -36 -63 -36 -135 0 -67 34
-90 61 -74 91 11 20 24 26 114 50 54 14 59 18 72 55 8 22 14 41 14 41 0 1 -13
7 -30 14 -32 13 -37 26 -17 50 9 11 39 16 127 17 63 2 129 7 145 12 33 11 230
10 241 -2z m-3249 -219 c5 -35 7 -106 3 -158 -9 -124 -7 -130 40 -130 35 0 39
-3 54 -39 10 -28 22 -40 38 -43 19 -2 23 -8 21 -38 -1 -19 -5 -51 -8 -71 -5
-23 -3 -39 4 -44 7 -4 -2 -14 -25 -26 -20 -10 -41 -16 -46 -13 -5 3 -20 3 -34
0 -18 -5 -24 -13 -24 -33 0 -56 -20 -6 -24 62 -4 62 -7 70 -31 83 -15 8 -38
11 -52 7 -34 -8 -93 -67 -93 -93 0 -11 -4 -33 -10 -47 -9 -23 -15 -26 -47 -23
-33 3 -41 8 -59 44 -19 37 -33 95 -35 147 0 30 28 43 141 67 162 34 154 30
160 81 3 25 1 97 -4 161 -8 114 -4 168 13 168 4 0 12 -28 18 -62z m-741 -100
c13 -6 32 -26 43 -43 14 -24 28 -34 57 -39 62 -11 74 -16 74 -32 0 -23 -92
-19 -115 6 -10 11 -30 20 -44 20 -14 0 -48 7 -76 16 -51 15 -109 12 -121 -8
-12 -19 38 -48 81 -45 34 2 40 -1 40 -18 0 -14 -9 -21 -33 -26 -49 -10 -73
-35 -62 -65 5 -13 7 -37 4 -54 -8 -37 22 -55 39 -24 6 10 23 31 38 46 32 33
26 34 168 -32 8 -3 19 -14 25 -24 9 -15 2 -25 -41 -65 -43 -38 -53 -54 -53
-79 0 -31 -29 -72 -50 -72 -16 0 -40 57 -40 98 0 32 -5 41 -25 50 -37 17 -38
16 -31 -24 8 -41 -2 -57 -50 -80 -51 -24 -76 -13 -104 47 -18 41 -30 55 -60
66 -54 22 -88 103 -42 103 19 0 52 29 52 45 0 7 18 19 40 28 55 21 60 41 19
83 -27 28 -40 34 -76 34 -31 0 -45 5 -50 16 -11 28 23 45 118 60 52 8 105 19
119 24 29 10 123 3 156 -12z m-8453 -63 c20 -8 57 -15 81 -15 66 0 76 -23 40
-95 -20 -43 -24 -58 -15 -69 6 -7 14 -43 18 -80 6 -62 5 -66 -15 -66 -11 0
-32 14 -47 32 -21 25 -26 40 -23 71 4 37 2 41 -31 54 -19 8 -43 26 -53 39 -11
13 -24 24 -30 24 -17 0 -48 31 -48 48 0 17 58 71 76 72 6 0 28 -7 47 -15z
m618 -51 c12 -14 3 -54 -12 -54 -5 0 -9 -7 -9 -16 0 -10 -6 -14 -14 -11 -22 9
-39 -19 -32 -49 12 -47 -33 -58 -99 -24 -22 11 -50 20 -62 20 -13 0 -23 4 -23
10 0 11 -47 26 -68 21 -11 -2 -12 6 -7 31 4 18 13 36 19 41 64 43 79 49 119
45 23 -3 62 -2 87 1 54 8 86 3 101 -15z m9594 -395 c0 -24 -1 -24 -145 -37
-151 -13 -169 -14 -338 -13 -57 1 -107 -1 -113 -4 -5 -4 -9 0 -9 8 0 19 72 37
175 42 138 7 338 25 343 30 3 2 23 3 46 2 36 -3 41 -6 41 -28z m-6387 -95 c18
-5 15 -22 -5 -28 -10 -3 -62 -10 -115 -16 -53 -5 -120 -19 -150 -31 -41 -16
-65 -20 -108 -15 -35 4 -75 1 -108 -8 -30 -8 -60 -12 -67 -10 -7 3 -48 1 -91
-5 -44 -5 -126 -13 -183 -17 -98 -6 -105 -8 -140 -39 -47 -42 -77 -49 -95 -23
-10 14 -31 22 -68 26 -38 5 -53 11 -53 22 0 21 63 50 110 50 22 0 97 7 165 15
69 9 171 17 227 19 73 2 108 7 126 19 17 11 57 18 118 22 51 3 96 8 100 11 4
2 47 6 95 9 48 3 89 7 92 10 6 5 126 -3 150 -11z m-1887 -23 c35 -28 12 -48
-64 -54 -34 -3 -93 -15 -132 -26 -38 -11 -82 -21 -97 -21 -15 0 -29 -4 -32 -8
-9 -14 -144 -40 -268 -51 -67 -5 -130 -17 -147 -25 -16 -9 -37 -16 -45 -16 -9
0 -23 -12 -33 -27 -10 -16 -24 -33 -32 -39 -17 -13 -123 -26 -145 -18 -42 16
-51 161 -12 190 29 20 278 59 476 73 58 4 116 13 129 20 16 9 44 12 85 8 34
-3 84 -2 111 3 99 15 181 12 206 -9z m8524 -45 c10 -15 18 -55 21 -103 8 -145
14 -184 29 -200 9 -9 13 -23 10 -34 -5 -14 0 -21 17 -28 41 -16 130 -41 146
-41 29 0 82 -24 82 -37 0 -17 6 -16 35 3 17 11 32 13 57 7 18 -5 53 -6 78 -2
25 3 57 3 73 -2 15 -4 41 -3 59 2 18 5 56 6 85 2 51 -6 53 -5 53 18 0 15 3 19
8 12 15 -24 63 -35 86 -20 13 9 28 11 41 6 11 -4 72 -6 135 -3 296 13 310 13
340 -13 55 -46 39 -106 -32 -117 -18 -3 -145 -8 -283 -10 -264 -5 -380 -10
-535 -21 -109 -8 -117 -4 -139 73 -13 47 -33 54 -76 26 -33 -22 -31 -41 6 -81
38 -38 67 -116 64 -167 -1 -21 3 -36 9 -36 6 0 5 -4 -3 -9 -12 -8 -12 -12 -2
-25 10 -12 11 -19 2 -30 -9 -11 -9 -19 0 -35 11 -17 10 -22 -12 -40 -13 -11
-27 -20 -31 -21 -9 0 -25 57 -32 118 -14 117 -110 215 -211 215 -133 0 -269
-158 -296 -345 -15 -103 -35 -134 -91 -142 -23 -3 -54 -5 -68 -5 -45 2 -136
-10 -230 -30 -81 -18 -90 -19 -150 -25 -63 -6 -109 -14 -123 -23 -5 -3 -39 -9
-76 -14 -36 -4 -102 -15 -146 -24 -44 -10 -107 -19 -140 -22 l-61 -5 -14 54
c-7 29 -14 71 -16 93 -1 22 -7 72 -13 110 -26 170 -29 215 -18 245 10 27 8 33
-18 60 -28 29 -33 30 -82 24 -44 -5 -53 -4 -53 9 0 10 -6 13 -20 10 -11 -3
-20 -9 -20 -14 0 -5 -18 -12 -40 -15 -44 -7 -70 -34 -70 -71 0 -26 27 -43 68
-43 35 0 40 -10 49 -91 7 -71 -6 -108 -59 -166 -51 -57 -52 -100 -2 -163 26
-33 34 -52 32 -75 -3 -32 7 -29 -138 -51 l-35 -6 -19 84 c-32 136 -96 237
-160 254 -33 8 -47 40 -50 118 -2 37 -8 72 -14 78 -17 17 -26 -14 -20 -67 7
-54 -12 -74 -90 -100 -29 -9 -72 -31 -94 -49 -60 -45 -125 -129 -138 -177 -6
-23 -16 -53 -21 -67 -9 -24 -10 -24 -29 -7 -11 10 -20 23 -20 30 0 22 -134
271 -163 303 -30 32 -90 48 -124 33 -23 -11 -33 -8 -82 17 -31 17 -75 32 -97
35 -42 4 -89 31 -99 56 -7 18 10 38 39 45 12 3 28 17 34 30 6 14 20 30 31 35
16 9 23 7 35 -11 16 -22 16 -22 30 -3 8 11 25 20 37 20 15 0 31 12 45 35 13
19 29 41 36 48 62 58 109 95 140 109 21 9 40 25 44 35 3 10 38 37 77 60 112
65 140 98 84 98 -12 0 -38 8 -57 19 -34 18 -36 23 -31 80 1 8 8 11 21 8 10 -3
24 1 31 9 8 9 24 12 54 7 37 -5 45 -2 54 16 9 16 21 21 54 21 23 0 58 5 77 11
74 23 425 50 698 54 84 1 155 5 159 8 10 11 61 8 68 -3 9 -14 73 -40 99 -40
12 0 31 -7 42 -16 18 -15 17 -15 -11 -9 -98 22 -358 11 -495 -21 -36 -8 -85
-19 -110 -24 -86 -17 -205 -58 -300 -103 -128 -61 -365 -218 -395 -260 -20
-29 -7 -40 79 -66 74 -23 214 -29 261 -11 20 8 27 7 32 -5 5 -14 7 -14 17 1
14 19 310 66 367 59 18 -3 72 4 119 15 76 17 184 30 480 59 52 5 143 15 203
22 83 10 121 10 170 1 126 -23 177 -17 177 23 0 12 -8 33 -18 45 -15 19 -22
21 -40 11 -11 -6 -56 -11 -100 -11 -93 0 -108 10 -98 66 5 23 3 41 -6 51 -11
15 -10 16 12 9 14 -4 45 -12 70 -17 25 -5 69 -22 99 -37 54 -27 57 -27 230
-25 97 1 186 5 199 8 34 8 42 43 42 182 0 104 3 130 17 145 22 25 50 23 68 -6z
m-7957 -123 c12 -38 26 -93 32 -123 6 -30 15 -73 20 -95 12 -55 0 -70 -64 -83
-131 -26 -165 -42 -232 -104 -35 -34 -94 -98 -129 -144 -62 -79 -93 -103 -115
-89 -28 17 7 79 96 170 74 76 115 130 112 149 -2 11 -20 28 -40 39 -36 18 -47
40 -30 62 11 16 94 54 132 61 100 19 164 90 132 146 -14 24 -14 29 2 52 10 16
26 26 40 26 20 0 26 -9 44 -67z m-3229 -50 c20 -17 41 -106 41 -174 0 -47 -28
-28 -56 37 -41 98 -45 100 -165 86 -98 -12 -139 -6 -139 18 0 17 26 25 120 36
143 17 175 16 199 -3z m3522 -63 c13 -8 19 -21 19 -45 0 -19 3 -36 8 -36 4 -1
39 -3 78 -5 39 -1 100 -8 135 -14 35 -7 143 -14 239 -15 206 -4 190 -3 190
-14 0 -15 -79 -48 -170 -71 -178 -45 -304 -94 -386 -151 -67 -46 -71 -60 -34
-125 36 -61 30 -84 -20 -84 -30 0 -43 22 -70 122 -17 65 -8 91 42 121 l43 25
-28 11 c-16 6 -39 11 -52 11 -27 0 -48 30 -39 54 3 8 19 19 36 25 33 12 29 31
-7 31 -39 0 -55 11 -70 47 -20 48 -19 79 5 103 22 22 51 26 81 10z m8949 -60
c16 -16 18 -25 11 -39 -9 -16 -22 -18 -102 -17 -65 1 -93 -3 -96 -11 -3 -7
-11 -13 -19 -13 -8 0 -14 6 -14 13 0 9 -2 9 -9 -1 -6 -10 -23 -12 -70 -6 -34
3 -64 11 -67 15 -3 5 -2 9 3 10 23 2 59 12 93 26 14 6 61 14 104 18 44 4 89
11 100 15 33 13 44 12 66 -10z m-11710 -31 c25 0 69 1 99 2 46 1 58 -2 73 -21
25 -31 23 -73 -7 -102 -22 -22 -39 -27 -146 -37 -143 -15 -141 -16 -158 77
-11 58 -11 65 6 78 12 10 30 12 53 8 19 -3 55 -6 80 -5z m-736 -110 c24 -48 7
-63 -61 -55 -45 5 -58 3 -82 -15 -39 -29 -85 -23 -89 11 -6 52 59 86 170 89
43 1 48 -2 62 -30z m622 -237 c6 -4 14 -34 17 -68 l6 -60 -42 -11 c-49 -13
-70 -5 -86 36 -18 43 -10 83 19 98 28 14 69 17 86 5z m11934 -33 c0 -16 -6
-20 -27 -19 -16 1 -30 1 -33 0 -3 -1 -21 -4 -40 -7 -19 -2 -39 -9 -44 -14 -6
-5 -22 -9 -36 -9 -14 0 -31 -5 -38 -12 -6 -6 -34 -12 -62 -12 -27 0 -50 -4
-50 -9 0 -5 -7 -7 -15 -4 -7 3 -45 -2 -82 -12 -37 -10 -75 -19 -83 -20 -8 0
-40 -5 -70 -11 -30 -5 -77 -12 -105 -15 -27 -3 -61 -7 -75 -10 -14 -3 -32 -1
-40 5 -8 5 -13 10 -10 11 16 3 52 9 105 19 32 6 64 15 70 20 7 6 14 8 17 5 3
-3 24 2 48 10 23 8 55 15 71 15 15 0 31 5 34 11 4 6 12 8 19 6 6 -3 54 4 106
15 52 10 118 23 145 28 28 5 63 13 78 17 16 4 48 9 73 10 38 2 44 -1 44 -18z
m-9188 -85 c11 -38 22 -97 25 -131 6 -71 0 -76 -54 -43 l-32 19 6 89 c4 62 2
91 -6 96 -15 10 -14 43 2 49 25 9 41 -12 59 -79z m-2584 -630 c35 -24 27 -53
-33 -111 -53 -52 -79 -62 -120 -47 -16 7 -45 54 -45 74 0 13 70 84 91 93 28
11 85 7 107 -9z m7692 -536 c8 -14 36 -57 61 -94 56 -83 99 -174 139 -293 24
-70 30 -106 29 -167 0 -93 -12 -173 -26 -183 -14 -8 -51 -75 -55 -98 -3 -18
-23 -37 -65 -60 -27 -15 -36 -16 -28 -4 9 16 -48 18 -78 3 -49 -23 -49 -1 0
24 64 34 126 96 158 158 24 45 27 62 26 141 -1 98 -12 148 -42 201 -10 19 -19
39 -19 44 0 6 -31 76 -70 156 -39 81 -70 158 -70 175 0 36 17 35 40 -3z m4455
-2399 l45 -21 -4 -67 c-6 -96 -7 -96 -79 -98 -47 -1 -67 2 -82 16 -11 10 -34
23 -52 30 -33 13 -63 49 -63 75 0 8 17 24 38 36 20 12 41 28 45 36 12 22 100
18 152 -7z m-984 -120 c16 -17 29 -39 29 -49 0 -26 -34 -51 -80 -57 -43 -6
-63 6 -89 55 -22 41 17 80 82 81 20 1 38 -9 58 -30z m1659 -144 c9 -11 11 -33
6 -73 -8 -69 -22 -87 -58 -73 -15 5 -44 8 -66 6 -56 -5 -79 20 -63 68 20 60
54 80 142 86 15 0 32 -6 39 -14z m-1790 -36 c0 -11 7 -31 16 -44 15 -22 15
-28 -1 -69 -13 -34 -25 -47 -53 -60 -47 -20 -174 -23 -229 -6 -50 15 -104 7
-129 -21 -27 -29 -147 -109 -165 -109 -8 0 -24 -6 -35 -14 -13 -10 -25 -11
-35 -5 -22 14 -37 11 -44 -10 -3 -11 -22 -27 -43 -36 -20 -9 -59 -29 -87 -45
-27 -16 -52 -28 -55 -27 -3 0 -25 -9 -49 -22 -36 -19 -55 -22 -93 -18 l-48 6
0 -44 c0 -38 -4 -47 -33 -69 -19 -15 -38 -26 -44 -26 -20 0 -78 -34 -95 -55
-9 -12 -39 -30 -65 -40 -26 -10 -50 -21 -53 -24 -3 -4 -31 -16 -63 -26 -40
-13 -69 -31 -90 -55 -31 -35 -43 -40 -199 -87 -26 -8 -31 31 -8 71 11 20 19
46 18 59 -3 43 23 127 40 127 8 0 23 7 33 16 14 12 22 13 39 4 23 -12 56 -6
82 17 10 9 25 12 39 8 14 -5 19 -4 15 4 -4 6 -2 11 3 11 6 0 11 9 11 20 0 16
-7 20 -30 20 -24 0 -33 6 -41 27 -5 14 -8 31 -6 37 7 17 124 76 139 71 8 -3
31 6 52 20 20 14 40 25 45 25 4 0 8 7 8 15 0 8 -4 12 -8 9 -19 -11 -19 19 0
32 12 8 21 21 21 29 0 16 50 78 58 71 3 -3 10 0 16 7 19 23 117 53 246 78 103
19 133 29 175 58 28 19 61 33 75 32 172 -11 262 -3 450 39 187 42 220 41 220
-1z m359 -1955 c34 -17 51 -41 51 -74 0 -47 -135 -66 -147 -20 -3 10 -13 20
-24 23 -10 3 -19 13 -19 22 0 24 20 56 31 50 5 -4 9 -1 9 4 0 16 63 13 99 -5z
m-247 -144 c-3 -36 -10 -60 -21 -70 -10 -8 -25 -28 -35 -43 -9 -15 -28 -32
-42 -37 -14 -6 -24 -18 -24 -29 0 -23 -35 -37 -54 -22 -28 23 -24 103 4 86 4
-3 13 2 20 10 7 8 19 15 26 15 8 0 14 6 14 14 0 7 7 19 15 26 9 7 14 19 11 27
-3 7 -1 13 5 13 7 0 9 10 5 25 -9 37 1 47 42 43 l37 -3 -3 -55z m-9479 -541
c4 -28 11 -56 16 -63 11 -13 32 -106 35 -158 2 -24 -2 -39 -11 -42 -7 -3 -13
0 -13 7 0 7 -10 0 -23 -14 -25 -30 -91 -46 -177 -43 -50 1 -55 4 -65 31 -9 28
-13 30 -50 26 -22 -2 -47 -11 -56 -19 -9 -8 -20 -14 -25 -13 -5 1 -22 -3 -37
-9 -16 -7 -30 -12 -32 -12 -2 0 -6 19 -10 41 -6 33 -4 44 9 51 20 11 21 32 1
24 -9 -3 -15 0 -15 9 0 8 -15 21 -32 29 -31 14 -32 15 -11 21 12 4 19 13 17
20 -3 8 4 13 21 13 14 0 31 7 38 16 13 18 101 46 158 51 20 1 50 13 67 25 23
17 34 20 48 12 16 -9 52 3 114 38 25 15 27 12 33 -41z m-698 -199 c0 -31 -3
-35 -26 -35 -14 0 -32 -5 -40 -11 -18 -15 -63 -24 -122 -26 -26 0 -47 -4 -47
-8 0 -13 -65 -31 -83 -25 -8 4 -27 -1 -41 -10 -16 -11 -35 -15 -51 -11 -20 5
-25 3 -25 -14 0 -11 -7 -20 -15 -20 -8 0 -15 5 -15 11 0 5 -5 7 -11 3 -6 -4 2
-15 20 -28 17 -11 34 -31 37 -43 8 -29 57 -31 81 -4 9 11 21 17 28 15 6 -3 25
0 41 6 16 6 31 11 32 10 2 -1 10 7 17 17 12 16 14 17 20 1 8 -19 -12 -61 -24
-53 -15 9 -21 -25 -8 -41 38 -46 38 -46 58 -28 15 14 24 15 43 6 18 -8 27 -7
39 5 19 19 57 8 57 -16 0 -18 -22 -25 -119 -37 -18 -3 -46 -11 -62 -19 -36
-19 -54 -19 -85 1 -20 14 -30 15 -49 6 -22 -10 -25 -9 -25 8 0 11 -4 20 -10
20 -5 0 -10 -6 -10 -13 0 -20 -37 -37 -68 -31 -42 8 -131 -40 -144 -78 -12
-33 -83 -74 -96 -55 -4 7 -14 12 -22 12 -11 0 -15 11 -15 40 0 59 -29 84 -52
45 -14 -21 -7 -50 14 -63 31 -19 8 -63 -45 -90 -40 -20 -62 -13 -62 19 0 27
-49 64 -85 64 -11 0 -27 5 -35 10 -23 14 16 85 48 86 29 2 32 5 25 32 -3 12
-21 31 -39 43 -19 11 -34 25 -34 30 0 17 52 59 79 65 14 2 40 9 56 15 17 6 48
15 70 20 21 6 44 14 50 18 5 4 37 13 70 20 33 7 71 17 85 21 53 18 158 46 225
61 121 26 163 36 188 47 16 7 44 13 63 15 19 1 34 5 34 9 0 8 26 14 60 13 22
0 25 -4 25 -35z m-1340 -450 c8 0 19 -9 25 -20 12 -23 60 -50 90 -50 11 0 20
-4 20 -10 0 -5 11 -10 25 -10 14 0 25 -4 25 -9 0 -5 15 -14 33 -21 l32 -12
-24 -16 c-14 -9 -42 -31 -63 -49 -21 -17 -46 -34 -56 -36 -9 -3 -30 -9 -47
-13 -41 -10 -45 -11 -47 -14 -2 -1 -16 -4 -33 -6 -16 -3 -39 -11 -50 -18 -12
-8 -66 -28 -120 -45 -55 -17 -109 -36 -120 -41 -11 -5 -43 -11 -71 -14 -29 -2
-61 -9 -72 -15 -11 -6 -34 -11 -49 -11 -16 0 -34 -5 -40 -11 -14 -14 -114 7
-126 27 -4 8 -16 14 -25 14 -25 0 -41 18 -35 41 6 21 51 49 78 49 8 0 15 5 15
10 0 6 6 10 14 10 7 0 31 8 52 17 22 9 48 18 59 20 10 2 29 12 40 23 24 23 51
26 58 8 3 -7 6 -2 6 11 1 16 5 21 15 18 10 -4 16 2 18 15 3 21 104 82 120 72
4 -3 8 -1 8 5 0 16 63 47 110 54 8 1 25 8 37 15 13 7 34 10 48 6 20 -5 25 -2
26 12 0 11 3 14 6 7 2 -7 11 -13 18 -13z m1166 -260 c21 -23 39 -43 39 -44 0
-2 -5 -17 -11 -34 -8 -24 -17 -31 -42 -34 -19 -2 -35 -11 -42 -23 -35 -70 -76
-103 -88 -71 -4 10 -19 12 -55 8 -73 -7 -117 25 -78 57 9 8 12 25 9 55 -4 35
0 53 21 89 26 44 29 46 79 49 90 5 125 -5 168 -52z m10284 -48 c22 -18 75 -94
99 -140 20 -38 16 -106 -6 -110 -16 -3 -20 4 -32 58 -3 14 -26 47 -51 73 -64
69 -82 102 -66 121 17 20 31 20 56 -2z m-11413 -1437 c9 -20 18 -25 47 -25 30
0 40 -5 54 -29 19 -32 23 -71 7 -71 -18 0 -11 -18 10 -25 27 -8 25 -40 -2 -59
-25 -18 -108 -22 -108 -6 0 6 -7 10 -16 10 -13 0 -14 -3 -5 -14 9 -11 7 -20
-12 -40 -13 -14 -31 -26 -39 -26 -14 0 -68 56 -68 71 0 4 -11 10 -24 13 -23 6
-24 10 -22 63 6 120 3 113 35 113 16 0 35 7 42 16 32 38 85 43 101 9z"/>
<path d="M9731 14209 c-12 -19 -21 -41 -21 -50 0 -9 -10 -28 -21 -43 l-21 -27
28 -30 c43 -45 71 -39 125 28 15 19 14 24 -26 88 l-43 68 -21 -34z"/>
<path d="M2205 16479 c-4 -17 -15 -39 -26 -50 -10 -10 -14 -21 -9 -24 6 -4 10
-17 10 -31 0 -13 4 -24 10 -24 10 0 9 -85 -2 -96 -4 -4 -11 2 -15 12 -4 10
-12 25 -19 31 -7 7 -10 22 -7 33 6 24 -9 26 -28 4 -7 -8 -20 -13 -30 -11 -11
3 -16 0 -13 -7 3 -7 12 -12 22 -12 9 1 19 -3 22 -9 8 -16 -53 -17 -84 -2 -25
14 -29 13 -49 -7 -29 -29 -31 -59 -6 -82 22 -19 25 -13 7 15 -9 15 -9 23 1 35
15 18 61 22 61 5 0 -6 7 -9 15 -5 19 7 47 -3 40 -15 -7 -10 75 -6 93 5 6 4 12
16 12 27 0 10 7 19 15 19 8 0 15 5 15 10 0 6 -4 9 -9 8 -5 -2 -9 0 -10 5 -3
23 0 37 9 37 6 0 10 -7 10 -15 0 -12 5 -13 24 -4 21 10 23 14 13 30 -7 11 -17
19 -24 19 -17 0 -16 12 0 34 12 16 14 16 26 2 11 -13 11 -16 0 -17 -8 0 -3 -5
10 -10 25 -10 44 -3 25 9 -6 4 -11 18 -10 32 1 19 -5 26 -21 28 -25 4 -31 18
-10 25 6 2 2 2 -10 0 -16 -2 -23 2 -23 12 0 28 -28 15 -35 -16z"/>
<path d="M1240 15905 c16 -20 5 -65 -18 -66 -9 -1 -36 -1 -59 -1 -41 1 -43 0
-43 -29 0 -18 4 -28 10 -24 6 4 7 11 4 17 -4 6 1 8 15 3 16 -5 27 -1 36 12 13
17 14 15 15 -16 0 -28 2 -31 14 -22 21 17 43 -23 26 -45 -10 -11 -9 -15 4 -20
9 -3 16 -12 16 -20 0 -32 20 -11 26 27 4 23 15 49 25 57 17 15 17 18 4 39 -14
21 -14 23 0 23 8 0 15 7 15 15 0 18 -12 19 -28 3 -6 -6 -15 -8 -19 -4 -4 4 -1
11 7 17 13 7 13 10 1 18 -7 5 -11 13 -8 18 3 5 -8 10 -25 11 -27 2 -29 0 -18
-13z"/>
<path d="M14274 15644 c-8 -20 -28 -47 -45 -61 -47 -40 -31 -115 38 -180 22
-21 49 -55 59 -77 16 -35 16 -40 1 -65 -12 -20 -24 -26 -51 -26 -35 0 -35 0
-30 -37 5 -31 3 -38 -20 -53 -53 -35 -79 -124 -62 -211 9 -47 17 -61 40 -73
23 -13 29 -24 31 -55 1 -25 9 -44 21 -53 10 -7 30 -23 42 -35 13 -12 31 -23
40 -24 10 -1 27 -6 40 -9 l22 -7 0 469 c0 443 -1 471 -18 486 -10 10 -23 17
-29 17 -6 0 -16 7 -23 15 -20 25 -40 17 -56 -21z"/>
<path d="M220 15510 c0 -5 -7 -10 -15 -10 -8 0 -23 -18 -32 -39 -13 -30 -20
-37 -30 -30 -15 14 -53 2 -53 -16 0 -20 19 -28 34 -16 20 16 29 -14 11 -33
-13 -12 -12 -16 1 -27 11 -9 14 -23 10 -49 -3 -21 -2 -30 3 -21 5 8 14 10 22
5 12 -7 12 -5 0 9 -7 9 -10 24 -7 33 6 16 7 16 19 1 8 -11 17 -14 26 -8 12 8
12 13 3 24 -7 8 -9 23 -5 33 5 15 4 17 -8 8 -8 -6 -22 -14 -33 -18 -18 -6 -18
-5 -2 18 9 14 16 34 16 44 0 22 27 49 37 38 4 -4 2 -10 -4 -14 -17 -10 -5 -50
16 -54 11 -2 20 8 28 31 15 44 5 63 -14 25 -7 -16 -11 -21 -9 -12 17 63 18 88
2 88 -9 0 -16 -4 -16 -10z"/>
</g>
</svg>
